<?xml version="1.0" encoding="utf-8"?>
<!-- Generator: Adobe Illustrator 28.0.0, SVG Export Plug-In . SVG Version: 6.00 Build 0)  -->
<svg version="1.1" id="Layer_2_00000023278496043687085290000011907301265798796456_"
	 xmlns="http://www.w3.org/2000/svg" xmlns:xlink="http://www.w3.org/1999/xlink" x="0px" y="0px" viewBox="0 0 1616 467.8"
	 style="enable-background:new 0 0 1616 467.8;" xml:space="preserve">
<style type="text/css">
	.st0{fill:#FFFFFF;}
</style>
<g id="Layer_2-2">
	<path class="st0" d="M21.6,401.7H5.2c-1.6,0-2.4,0.8-2.4,2.4v46.7c0,1.6,0.8,2.4,2.4,2.4h2.3c1.6,0,2.4-0.8,2.4-2.4v-16.6h11.7
		c9.4,0,16.1-6.6,16.1-16.3S31,401.7,21.6,401.7L21.6,401.7z M20.4,427.9H9.9V408h10.6c6.1,0,9.9,3.6,9.9,9.8S26.6,427.9,20.4,427.9
		L20.4,427.9z"/>
	<path class="st0" d="M49.6,425.9c0-3.1,2.7-4.7,6.2-4.7s6,1.2,7.5,2.1c1.4,0.7,2.5,0.5,3.2-0.8l0.7-1.1c0.7-1.3,0.5-2.6-0.8-3.2
		c-1.8-1.1-5.1-2.8-10.2-2.8c-7.2,0-13.3,3.6-13.3,10.6c0,12.5,19,10.1,19,17.3c0,3.1-2.6,4.9-6.3,4.9c-4.3,0-7.4-1.9-9-3
		c-1.5-0.8-2.4-0.7-3.4,0.5l-0.7,1c-0.8,1.2-0.7,2.5,0.5,3.3c2,1.5,6.3,4,12.4,4c7.9,0,13.3-4.6,13.3-10.9
		C68.7,430.6,49.6,433.2,49.6,425.9L49.6,425.9z"/>
	<path class="st0" d="M104.8,416.3h-2.6c-1.5,0-2.3,0.6-2.7,2l-8.4,22.2c-0.7,1.9-1.2,4.4-1.2,4.4h-0.2c0,0-0.7-2.6-1.3-4.4
		l-8.7-22.2c-0.4-1.3-1.3-1.9-2.7-1.9h-2.8c-1.8,0-2.6,1.1-1.8,2.8l14.3,33.7l-1.8,4.2c-1.2,2.9-3.4,5.5-6.3,5.5
		c-1.2,0-2.2-0.5-2.9-0.8c-1-0.3-2.1-0.1-2.7,1.2l-0.6,1.2c-0.6,1.2-0.3,2.6,1.1,3.1c1.2,0.5,3,1.2,5.1,1.2c5.2,0,9.8-3.1,12-8.8
		l16.3-40.6C107.4,417.4,106.6,416.3,104.8,416.3L104.8,416.3z"/>
	<path class="st0" d="M131.2,432.7v-0.2l10.2-13.3c1.2-1.6,0.5-2.9-1.5-2.9h-2.7c-1.3,0-2.2,0.4-2.8,1.5l-9,12h-5.3v-25.7
		c0-1.6-0.8-2.4-2.3-2.4h-2.3c-1.6,0-2.4,0.8-2.4,2.4v46.7c0,1.6,0.8,2.4,2.4,2.4h2.3c1.5,0,2.3-0.8,2.3-2.4v-14.9h5.5l10.1,15.6
		c0.7,1.2,1.5,1.7,2.8,1.7h2.9c2,0,2.6-1.2,1.6-2.9L131.2,432.7L131.2,432.7z"/>
	<path class="st0" d="M166.9,415.4c-11,0-19.8,8.1-19.8,19.2s8.8,19.4,19.8,19.4c11,0,19.9-8.2,19.9-19.4
		C186.8,423.4,178,415.4,166.9,415.4z M166.9,447.9c-6.9,0-12.7-5.5-12.7-13.3c0-7.7,5.8-13.1,12.7-13.1c6.9,0,12.7,5.5,12.7,13.1
		C179.6,442.3,173.9,447.9,166.9,447.9z"/>
	<path class="st0" d="M205.1,447.1c-1.5-0.2-3.4-0.7-3.4-4.9v-38.1c0-1.6-0.9-2.4-2.4-2.4H197c-1.6,0-2.4,0.8-2.4,2.4v39
		c0,9.3,5.9,10.4,9.8,10.4c1.8,0,2.5-0.9,2.5-2.5v-1.8C206.9,447.8,206.1,447.3,205.1,447.1L205.1,447.1z"/>
	<path class="st0" d="M231,415.4c-11,0-19.8,8.1-19.8,19.2S219.9,454,231,454c11,0,19.9-8.2,19.9-19.4
		C250.9,423.4,242,415.4,231,415.4L231,415.4z M231,447.9c-6.9,0-12.7-5.5-12.7-13.3c0-7.7,5.8-13.1,12.7-13.1
		c6.9,0,12.7,5.5,12.7,13.1C243.6,442.3,238,447.9,231,447.9z"/>
	<path class="st0" d="M288.6,416.3h-1.8c-1.6,0-2.4,0.8-2.4,2v2.1c0,0.7,0.2,1.2,0.2,1.2h-0.2c0,0-2.4-6.2-11.5-6.2
		c-10.6,0-16.5,7.9-16.5,18.4c0,10.5,6.3,19,16.6,19c5.3,0,8.8-2.4,10.9-6.3h0.2c0,0-0.2,1.2-0.2,2.3v3.2c0,7.5-5.3,10.4-11.6,10.4
		c-3.7,0-6.3-0.9-8-1.6c-1.5-0.6-2.4-0.2-3.1,1.2l-0.5,1.2c-0.7,1.5-0.3,2.6,1.2,3.2c2.8,1.2,6.7,2,10.7,2c9,0,18.3-4.7,18.3-16.8
		v-33C291,417.1,290.2,416.2,288.6,416.3L288.6,416.3z M274.3,446.6c-6.6,0-10.6-5.2-10.6-13.1c0-7.3,3.6-12,10.2-12
		c5.5,0,10.2,2.8,10.2,12.5S279.4,446.6,274.3,446.6L274.3,446.6z"/>
	<path class="st0" d="M317.4,415.4c-10.5,0-18.4,7.6-18.4,19.3c0,10.9,7.9,19.3,19.5,19.3c5.9,0,10.3-2.4,12.5-3.9
		c1.2-0.7,1.5-2,0.7-3.2l-0.7-1.1c-0.8-1.4-1.9-1.5-3.3-0.8c-1.7,1.2-4.8,2.9-8.8,2.9c-6.6,0-12.3-4.4-12.8-12.5h24.6
		c1.5,0,2.5-1.2,2.5-2.5C333.3,422.7,327.6,415.4,317.4,415.4L317.4,415.4z M306.5,430.8c1-6.2,5.4-9.8,10.8-9.8
		c4.9,0,8.7,3.4,9,9.8H306.5L306.5,430.8z"/>
	<path class="st0" d="M359.1,416c-5.5,0-9.7,4.8-11.3,9.7h-0.2c0,0,0.2-1.2,0.2-2.8v-4.2c0-1.6-0.8-2.4-2.4-2.4h-2
		c-1.5,0-2.4,0.8-2.4,2.4v32.1c0,1.6,0.9,2.4,2.4,2.4h2.3c1.6,0,2.4-0.8,2.4-2.4v-12.8c0-7.3,3.5-15.1,10.7-15.1
		c1.7,0,2.6-0.8,2.6-2.4v-2C361.5,416.8,360.8,416,359.1,416L359.1,416z"/>
	<path class="st0" d="M402.7,415.4c-11,0-19.8,8.1-19.8,19.2s8.8,19.4,19.8,19.4c11,0,19.9-8.2,19.9-19.4
		C422.6,423.4,413.7,415.4,402.7,415.4z M402.7,447.9c-6.9,0-12.7-5.5-12.7-13.3c0-7.7,5.8-13.1,12.7-13.1c6.9,0,12.7,5.5,12.7,13.1
		C415.3,442.3,409.7,447.9,402.7,447.9z"/>
	<path class="st0" d="M460.3,416.3h-1.8c-1.6,0-2.4,0.8-2.4,2v2.1c0,0.7,0.2,1.2,0.2,1.2h-0.2c0,0-2.4-6.2-11.5-6.2
		c-10.6,0-16.5,7.9-16.5,18.4c0,10.5,6.3,19,16.6,19c5.3,0,8.8-2.4,10.9-6.3h0.2c0,0-0.2,1.2-0.2,2.3v3.2c0,7.5-5.3,10.4-11.6,10.4
		c-3.7,0-6.3-0.9-8-1.6c-1.5-0.6-2.4-0.2-3.1,1.2l-0.5,1.2c-0.7,1.5-0.3,2.6,1.2,3.2c2.8,1.2,6.7,2,10.7,2c9,0,18.3-4.7,18.3-16.8
		v-33C462.7,417.1,461.9,416.2,460.3,416.3L460.3,416.3z M446,446.6c-6.6,0-10.6-5.2-10.6-13.1c0-7.3,3.6-12,10.2-12
		c5.5,0,10.2,2.8,10.2,12.5S451.1,446.6,446,446.6L446,446.6z"/>
	<path class="st0" d="M510.2,415.4c-9.3,0-12.4,7.1-12.4,7.1h-0.2c0,0,0.2-0.9,0.2-2v-2.2c0-1.2-0.8-2-2.4-2h-1.7
		c-1.6,0-2.4,0.8-2.4,2.4v46.7c0,1.6,0.8,2.4,2.4,2.4h2.3c1.5,0,2.3-0.8,2.3-2.4v-14.7c0-1.9-0.2-3.2-0.2-3.2h0.2
		c0,0,3.1,6.6,11.4,6.6c9.6,0,16.7-7.6,16.7-19.3C526.4,423,520.1,415.4,510.2,415.4L510.2,415.4z M508.6,447.9
		c-6.8,0-10.4-6.5-10.4-13c0-9.4,5.1-13.3,10.6-13.3c6.1,0,10.4,5.2,10.4,13.2S514.4,447.9,508.6,447.9L508.6,447.9z"/>
	<path class="st0" d="M539.6,425.9c0-3.1,2.7-4.7,6.2-4.7s6,1.2,7.5,2.1c1.4,0.7,2.5,0.5,3.2-0.8l0.7-1.1c0.7-1.3,0.5-2.6-0.8-3.2
		c-1.8-1.1-5.1-2.8-10.2-2.8c-7.2,0-13.3,3.6-13.3,10.6c0,12.5,19,10.1,19,17.3c0,3.1-2.6,4.9-6.3,4.9c-4.3,0-7.4-1.9-9-3
		c-1.5-0.8-2.4-0.7-3.4,0.5l-0.7,1c-0.8,1.2-0.7,2.5,0.5,3.3c2,1.5,6.3,4,12.4,4c7.9,0,13.3-4.6,13.3-10.9
		C558.6,430.6,539.6,433.2,539.6,425.9L539.6,425.9z"/>
	<path class="st0" d="M594.8,416.3h-2.6c-1.5,0-2.3,0.6-2.7,2l-8.4,22.2c-0.7,1.9-1.2,4.4-1.2,4.4h-0.2c0,0-0.7-2.6-1.3-4.4
		l-8.7-22.2c-0.4-1.3-1.3-1.9-2.7-1.9h-2.8c-1.8,0-2.6,1.1-1.8,2.8l14.3,33.7l-1.8,4.2c-1.2,2.9-3.4,5.5-6.3,5.5
		c-1.2,0-2.2-0.5-2.9-0.8c-1-0.3-2.1-0.1-2.7,1.2l-0.6,1.2c-0.6,1.2-0.3,2.6,1.1,3.1c1.2,0.5,3,1.2,5.1,1.2c5.2,0,9.8-3.1,12-8.8
		l16.3-40.6C597.3,417.4,596.5,416.3,594.8,416.3L594.8,416.3z"/>
	<path class="st0" d="M621.2,432.7v-0.2l10.2-13.3c1.2-1.6,0.5-2.9-1.5-2.9h-2.7c-1.3,0-2.2,0.4-2.8,1.5l-9,12h-5.3v-25.7
		c0-1.6-0.8-2.4-2.3-2.4h-2.3c-1.6,0-2.4,0.8-2.4,2.4v46.7c0,1.6,0.8,2.4,2.4,2.4h2.3c1.5,0,2.3-0.8,2.3-2.4v-14.9h5.5l10.1,15.6
		c0.7,1.2,1.5,1.7,2.8,1.7h2.9c2,0,2.6-1.2,1.6-2.9L621.2,432.7z"/>
	<path class="st0" d="M644.9,401.7h-2.5c-1.6,0-2.4,0.8-2.4,2.4v2.4c0,1.5,0.8,2.4,2.4,2.4h2.5c1.5,0,2.4-0.9,2.4-2.4v-2.4
		C647.3,402.5,646.5,401.7,644.9,401.7z"/>
	<path class="st0" d="M644.8,416.3h-2.3c-1.5,0-2.4,0.8-2.4,2.4v32.1c0,1.6,0.9,2.4,2.4,2.4h2.3c1.6,0,2.4-0.8,2.4-2.4v-32.1
		C647.2,417.1,646.4,416.3,644.8,416.3z"/>
	<path class="st0" d="M670.9,415.4c-5.6,0-9.8,1.9-12,3.1c-1.3,0.7-1.5,1.9-0.8,3.3l0.6,1c0.8,1.3,1.9,1.5,3.3,0.9
		c1.7-0.9,4.7-2.3,8.3-2.3c4.5,0,8,2,8,8.1v0.9h-1.9c-7.7,0-22,1.2-22,12.7c0,6.9,5.9,10.9,12.4,10.9c8.6,0,12-7.7,12-7.7h0.2
		c0,0-0.2,0.9-0.2,2.3v2.2c0,1.6,0.9,2.4,2.4,2.4h1.8c1.5,0,2.4-0.8,2.4-2.4v-20.9C685.4,420.5,680.1,415.4,670.9,415.4L670.9,415.4
		z M678.4,436.7c0,5.5-3.8,11.7-10,11.7c-4.5,0-6.9-3-6.9-5.9c0-7,9.8-7.4,14.9-7.4h1.9V436.7z"/>
	<path class="st0" d="M710.5,447.1c-2.7-0.2-7-1.3-7-8.3v-16.4h6.5c1.5,0,2.3-0.9,2.3-2.4V419c0-1.5-0.8-2.4-2.4-2.4h-6.4v-8.1
		c0-1.6-0.8-2.4-2.4-2.4H699c-1.5,0-2.4,0.8-2.4,2.4v8.1h-2.6c-1.6,0-2.4,0.9-2.4,2.4v0.9c0,1.5,0.8,2.4,2.3,2.4h2.6v17.5
		c0,9.3,6.4,13.6,13.7,13.6c2,0,2.9-0.7,2.9-2.4v-1.5C713,447.8,712.4,447.3,710.5,447.1L710.5,447.1z"/>
	<path class="st0" d="M735.4,415.4c-10.5,0-18.4,7.6-18.4,19.3c0,10.9,7.9,19.3,19.5,19.3c5.9,0,10.3-2.4,12.5-3.9
		c1.2-0.7,1.5-2,0.7-3.2l-0.7-1.1c-0.8-1.4-1.9-1.5-3.3-0.8c-1.7,1.2-4.8,2.9-8.8,2.9c-6.6,0-12.3-4.4-12.8-12.5h24.6
		c1.5,0,2.5-1.2,2.5-2.5C751.3,422.7,745.6,415.4,735.4,415.4L735.4,415.4z M724.5,430.8c1-6.2,5.4-9.8,10.8-9.8
		c4.9,0,8.7,3.4,9,9.8H724.5L724.5,430.8z"/>
	<path class="st0" d="M777.1,416c-5.5,0-9.7,4.8-11.3,9.7h-0.2c0,0,0.2-1.2,0.2-2.8v-4.2c0-1.6-0.8-2.4-2.4-2.4h-2
		c-1.5,0-2.4,0.8-2.4,2.4v32.1c0,1.6,0.9,2.4,2.4,2.4h2.3c1.6,0,2.4-0.8,2.4-2.4v-12.8c0-7.3,3.5-15.1,10.7-15.1
		c1.7,0,2.6-0.8,2.6-2.4v-2C779.4,416.8,778.8,416,777.1,416L777.1,416z"/>
	<path class="st0" d="M799.9,415.4c-10.5,0-18.4,7.6-18.4,19.3c0,10.9,7.9,19.3,19.5,19.3c5.9,0,10.3-2.4,12.5-3.9
		c1.2-0.7,1.5-2,0.7-3.2l-0.7-1.1c-0.8-1.4-1.9-1.5-3.3-0.8c-1.7,1.2-4.8,2.9-8.8,2.9c-6.6,0-12.3-4.4-12.8-12.5h24.6
		c1.5,0,2.5-1.2,2.5-2.5C815.8,422.7,810.1,415.4,799.9,415.4L799.9,415.4z M789,430.8c1-6.2,5.4-9.8,10.8-9.8c4.9,0,8.7,3.4,9,9.8
		H789L789,430.8z"/>
	<path class="st0" d="M877.4,429.5h-33.6c-1.5,0-2.3,0.9-2.3,2.4v0.9c0,1.6,0.8,2.4,2.3,2.4h33.6c1.5,0,2.4-0.8,2.4-2.4v-0.9
		C879.8,430.4,878.9,429.5,877.4,429.5z"/>
	<path class="st0" d="M912.9,425.9c0-3.1,2.7-4.7,6.2-4.7c3.5,0,6,1.2,7.5,2.1c1.4,0.7,2.5,0.5,3.2-0.8l0.7-1.1
		c0.7-1.3,0.5-2.6-0.8-3.2c-1.8-1.1-5.1-2.8-10.2-2.8c-7.2,0-13.3,3.6-13.3,10.6c0,12.5,19,10.1,19,17.3c0,3.1-2.6,4.9-6.3,4.9
		c-4.3,0-7.4-1.9-9-3c-1.5-0.8-2.4-0.7-3.4,0.5l-0.7,1c-0.8,1.2-0.7,2.5,0.5,3.3c2,1.5,6.3,4,12.4,4c7.9,0,13.3-4.6,13.3-10.9
		C932,430.6,912.9,433.2,912.9,425.9L912.9,425.9z"/>
	<path class="st0" d="M953.3,415.4c-5.6,0-9.8,1.9-12,3.1c-1.3,0.7-1.5,1.9-0.8,3.3l0.6,1c0.8,1.3,1.9,1.5,3.3,0.9
		c1.7-0.9,4.7-2.3,8.3-2.3c4.5,0,8,2,8,8.1v0.9h-1.9c-7.7,0-22,1.2-22,12.7c0,6.9,5.9,10.9,12.4,10.9c8.6,0,12-7.7,12-7.7h0.2
		c0,0-0.2,0.9-0.2,2.3v2.2c0,1.6,0.9,2.4,2.4,2.4h1.8c1.5,0,2.4-0.8,2.4-2.4v-20.9C967.8,420.5,962.5,415.4,953.3,415.4L953.3,415.4
		z M960.8,436.7c0,5.5-3.8,11.7-10,11.7c-4.5,0-6.9-3-6.9-5.9c0-7,9.8-7.4,14.9-7.4h1.9V436.7z"/>
	<path class="st0" d="M1021.4,415.4c-6,0-11.1,4.1-13.1,8.4h-0.2c-1.3-5.5-4.9-8.4-11.1-8.4c-5.8,0-11,4.4-12.8,8.7h-0.2
		c0,0,0.2-1,0.2-2.1v-3.3c0-1.6-0.8-2.4-2.4-2.4h-2c-1.5,0-2.4,0.8-2.4,2.4v32.1c0,1.6,0.9,2.4,2.4,2.4h2.3c1.6,0,2.4-0.8,2.4-2.4
		v-14.8c0-6.9,4.1-14.1,11.1-14.1c5.7,0,6.4,4.4,6.4,9.3v19.7c0,1.6,0.8,2.4,2.3,2.4h2.3c1.5,0,2.3-0.8,2.3-2.4v-14.8
		c0-7.1,4.1-14.1,10.9-14.1c5.5,0,6.5,4.1,6.5,9.3v19.7c0,1.6,0.9,2.4,2.4,2.4h2.3c1.6,0,2.4-0.8,2.4-2.4v-21.2
		C1033.5,420.1,1029.7,415.4,1021.4,415.4L1021.4,415.4z"/>
	<path class="st0" d="M1087.1,415.4c-6,0-11.1,4.1-13.1,8.4h-0.2c-1.3-5.5-4.9-8.4-11.1-8.4c-5.8,0-11,4.4-12.8,8.7h-0.2
		c0,0,0.2-1,0.2-2.1v-3.3c0-1.6-0.8-2.4-2.4-2.4h-2c-1.5,0-2.4,0.8-2.4,2.4v32.1c0,1.6,0.9,2.4,2.4,2.4h2.3c1.6,0,2.4-0.8,2.4-2.4
		v-14.8c0-6.9,4.1-14.1,11.1-14.1c5.7,0,6.4,4.4,6.4,9.3v19.7c0,1.6,0.8,2.4,2.3,2.4h2.3c1.5,0,2.3-0.8,2.3-2.4v-14.8
		c0-7.1,4.1-14.1,10.9-14.1c5.5,0,6.5,4.1,6.5,9.3v19.7c0,1.6,0.9,2.4,2.4,2.4h2.3c1.6,0,2.4-0.8,2.4-2.4v-21.2
		C1099.3,420.1,1095.5,415.4,1087.1,415.4L1087.1,415.4z"/>
	<path class="st0" d="M1125.1,415.4c-10.5,0-18.4,7.6-18.4,19.3c0,10.9,7.9,19.3,19.5,19.3c5.9,0,10.3-2.4,12.5-3.9
		c1.2-0.7,1.5-2,0.7-3.2l-0.7-1.1c-0.8-1.4-1.9-1.5-3.3-0.8c-1.7,1.2-4.8,2.9-8.8,2.9c-6.6,0-12.3-4.4-12.8-12.5h24.6
		c1.5,0,2.5-1.2,2.5-2.5C1141,422.7,1135.3,415.4,1125.1,415.4L1125.1,415.4z M1114.2,430.8c1-6.2,5.4-9.8,10.8-9.8
		c4.9,0,8.7,3.4,9,9.8H1114.2z"/>
	<path class="st0" d="M1169.5,415.4c-8.1,0-12.5,5.5-14,8.7h-0.2c0,0,0.2-1,0.2-2.1v-3.3c0-1.6-0.8-2.4-2.4-2.4h-2
		c-1.5,0-2.4,0.8-2.4,2.4v32.1c0,1.6,0.9,2.4,2.4,2.4h2.3c1.6,0,2.4-0.8,2.4-2.4v-15.2c0-7.7,5.2-13.6,12.3-13.6
		c5.9,0,6.9,4.1,6.9,9.3v19.6c0,1.6,0.9,2.4,2.4,2.4h2.3c1.6,0,2.4-0.8,2.4-2.4v-21.2C1182.1,420.1,1178.2,415.4,1169.5,415.4
		L1169.5,415.4z"/>
	<path class="st0" d="M1227.5,415.4c-11,0-19.8,8.1-19.8,19.2s8.8,19.4,19.8,19.4c11,0,19.9-8.2,19.9-19.4
		C1247.4,423.4,1238.5,415.4,1227.5,415.4z M1227.5,447.9c-6.9,0-12.7-5.5-12.7-13.3c0-7.7,5.8-13.1,12.7-13.1s12.7,5.5,12.7,13.1
		C1240.2,442.3,1234.5,447.9,1227.5,447.9z"/>
	<path class="st0" d="M1299.1,415.4c-6,0-11.1,4.1-13.1,8.4h-0.2c-1.3-5.5-4.9-8.4-11.1-8.4c-5.8,0-11,4.4-12.8,8.7h-0.2
		c0,0,0.2-1,0.2-2.1v-3.3c0-1.6-0.8-2.4-2.4-2.4h-2c-1.5,0-2.4,0.8-2.4,2.4v32.1c0,1.6,0.9,2.4,2.4,2.4h2.3c1.6,0,2.4-0.8,2.4-2.4
		v-14.8c0-6.9,4.1-14.1,11.1-14.1c5.7,0,6.4,4.4,6.4,9.3v19.7c0,1.6,0.8,2.4,2.3,2.4h2.3c1.5,0,2.3-0.8,2.3-2.4v-14.8
		c0-7.1,4.1-14.1,10.9-14.1c5.5,0,6.5,4.1,6.5,9.3v19.7c0,1.6,0.9,2.4,2.4,2.4h2.3c1.6,0,2.4-0.8,2.4-2.4v-21.2
		C1311.2,420.1,1307.4,415.4,1299.1,415.4L1299.1,415.4z"/>
	<path class="st0" d="M1344.3,425.9c0-3.1,2.7-4.7,6.2-4.7c3.5,0,6,1.2,7.5,2.1c1.4,0.7,2.5,0.5,3.2-0.8l0.7-1.1
		c0.7-1.3,0.5-2.6-0.8-3.2c-1.8-1.1-5.1-2.8-10.2-2.8c-7.2,0-13.3,3.6-13.3,10.6c0,12.5,19,10.1,19,17.3c0,3.1-2.6,4.9-6.3,4.9
		c-4.3,0-7.4-1.9-9-3c-1.5-0.8-2.4-0.7-3.4,0.5l-0.7,1c-0.8,1.2-0.7,2.5,0.5,3.3c2,1.5,6.3,4,12.4,4c7.9,0,13.3-4.6,13.3-10.9
		C1363.4,430.6,1344.3,433.2,1344.3,425.9L1344.3,425.9z"/>
	<path class="st0" d="M1401.4,416.3h-2.3c-1.6,0-2.4,0.8-2.4,2.4v14.9c0,7.3-4.4,13.9-12,13.9c-5.8,0-6.9-4.1-6.9-9.2v-19.6
		c0-1.6-0.8-2.4-2.3-2.4h-2.3c-1.6,0-2.4,0.8-2.4,2.4v21.2c0,9.8,4.2,14.1,12.5,14.1c7.2,0,12.1-5,13.7-8.7h0.2c0,0-0.2,1-0.2,2.1
		v3.3c0,1.6,0.8,2.4,2.4,2.4h2c1.5,0,2.4-0.8,2.4-2.4v-32.1C1403.8,417.1,1402.9,416.3,1401.4,416.3L1401.4,416.3z"/>
	<path class="st0" d="M1434.7,415.4c-8.1,0-12.5,5.5-14,8.7h-0.2c0,0,0.2-1,0.2-2.1v-3.3c0-1.6-0.8-2.4-2.4-2.4h-2
		c-1.5,0-2.4,0.8-2.4,2.4v32.1c0,1.6,0.9,2.4,2.4,2.4h2.3c1.6,0,2.4-0.8,2.4-2.4v-15.2c0-7.7,5.2-13.6,12.3-13.6
		c5.9,0,6.9,4.1,6.9,9.3v19.6c0,1.6,0.9,2.4,2.4,2.4h2.3c1.6,0,2.4-0.8,2.4-2.4v-21.2C1447.4,420.1,1443.4,415.4,1434.7,415.4
		L1434.7,415.4z"/>
	<path class="st0" d="M1487.5,401.7h-2.3c-1.6,0-2.4,0.8-2.4,2.4v15.2c0,1.4,0.2,2.5,0.2,2.5h-0.2c0,0-3-6.3-11.4-6.3
		c-9.8,0-16.7,7.6-16.7,19.3c0,11.7,6.3,19.3,16.3,19.3c9,0,12.2-7.1,12.2-7.1h0.2c0,0-0.2,0.8-0.2,1.8v2.1c0,1.5,0.8,2.3,2.4,2.3
		h1.9c1.6,0,2.4-0.8,2.4-2.4v-46.7C1489.9,402.5,1489.1,401.7,1487.5,401.7L1487.5,401.7z M1472.4,447.9c-6.1,0-10.4-5.2-10.4-13.2
		s4.8-13.1,10.6-13.1c7.1,0,10.5,6.5,10.5,13C1483.1,444.1,1477.9,447.9,1472.4,447.9L1472.4,447.9z"/>
	<path class="st0" d="M1521,415.4c-7.4,0-12.2,4.9-13.8,8.5h-0.2c0,0,0.2-1.3,0.2-3.1v-16.7c0-1.6-0.8-2.4-2.3-2.4h-2.3
		c-1.6,0-2.4,0.8-2.4,2.4v46.7c0,1.6,0.8,2.4,2.4,2.4h2.3c1.5,0,2.3-0.8,2.3-2.4v-15.1c0-7.9,5.3-13.8,12.3-13.8c5.9,0,7,4.1,7,9.3
		v19.6c0,1.6,0.8,2.4,2.4,2.4h2.3c1.5,0,2.4-0.8,2.4-2.4v-21.2C1533.7,420.1,1529.7,415.4,1521,415.4L1521,415.4z"/>
	<path class="st0" d="M1559.5,415.4c-10.5,0-18.4,7.6-18.4,19.3c0,10.9,7.9,19.3,19.5,19.3c5.9,0,10.3-2.4,12.5-3.9
		c1.2-0.7,1.5-2,0.7-3.2l-0.7-1.1c-0.8-1.4-1.9-1.5-3.3-0.8c-1.7,1.2-4.8,2.9-8.8,2.9c-6.6,0-12.3-4.4-12.8-12.5h24.6
		c1.5,0,2.5-1.2,2.5-2.5C1575.4,422.7,1569.7,415.4,1559.5,415.4L1559.5,415.4z M1548.6,430.8c1-6.2,5.4-9.8,10.8-9.8
		c4.9,0,8.7,3.4,9,9.8H1548.6z"/>
	<path class="st0" d="M1613.6,401.7h-2.3c-1.6,0-2.4,0.8-2.4,2.4v15.2c0,1.4,0.2,2.5,0.2,2.5h-0.2c0,0-3-6.3-11.4-6.3
		c-9.8,0-16.7,7.6-16.7,19.3c0,11.7,6.3,19.3,16.3,19.3c9,0,12.2-7.1,12.2-7.1h0.2c0,0-0.2,0.8-0.2,1.8v2.1c0,1.5,0.8,2.3,2.4,2.3
		h1.9c1.6,0,2.4-0.8,2.4-2.4v-46.7C1616,402.5,1615.2,401.7,1613.6,401.7L1613.6,401.7z M1598.5,447.9c-6.1,0-10.4-5.2-10.4-13.2
		s4.8-13.1,10.6-13.1c7.1,0,10.5,6.5,10.5,13C1609.1,444.1,1604,447.9,1598.5,447.9L1598.5,447.9z"/>
</g>
<g>
	<path class="st0" d="M1189.2,269.5v-78.9h56.4c51.7,0,87.9-37.3,87.9-91s-36.2-89.8-87.9-89.8h-90.2c-10.5,0-15.9,5.8-15.9,16.3
		v243.4c0,10.9,5.4,16.3,15.9,16.3h17.9C1183.7,285.9,1189.2,280.4,1189.2,269.5L1189.2,269.5z M1189.2,53h47.8
		c28.8,0,45.5,18.3,45.5,46.7s-16.7,47.4-46.3,47.4h-47L1189.2,53L1189.2,53z"/>
	<path class="st0" d="M1384.5,285.9h17.9c10.5,0,15.9-5.4,15.9-16.3v-78.9h56.4c51.7,0,87.9-37.3,87.9-91s-36.2-89.8-87.9-89.8
		h-90.2c-10.5,0-15.9,5.8-15.9,16.3v243.4C1368.5,280.4,1374,285.9,1384.5,285.9L1384.5,285.9z M1418.3,53h47.8
		c28.8,0,45.5,18.3,45.5,46.7s-16.7,47.4-46.3,47.4h-47L1418.3,53L1418.3,53z"/>
	<path class="st0" d="M673.8,289c12.8,0,23.3-10.4,23.5-23.2l0,0c0-1.5,0-10.6,0-69.4c0-19.1,4.8-37.7,13.1-51
		c6.5-10.4,18.3-22.8,38.1-23c0.2,0,0.6,0,1,0c0.6,0,1.2,0,1.4,0c12.7,0,22.7-10.1,22.7-23s-10.4-23-24.8-23
		c-22.5,0-41.2,9.6-52.7,26.6v-3.7c0-12.7-10.3-23-23-23s-23,10.3-23,23v166.2C650.3,278.4,660.9,289,673.8,289L673.8,289z"/>
	<path class="st0" d="M810.5,65.2c15.5,0,28.1-12.6,28.1-28.1S826,9.1,810.5,9.1s-28.1,12.6-28.1,28.1S795,65.2,810.5,65.2z"/>
	<path class="st0" d="M834,265.5V99.8c0-12.9-10.5-23.5-23.5-23.5S787,86.9,787,99.8v165.6c0,13,10.5,23.5,23.5,23.5
		S834,278.5,834,265.5z"/>
	<path class="st0" d="M869.7,268.2c0.5,0.4,1.3,0.9,2.1,1.4l0.5,0.4c12.8,8.6,34.4,19,64.1,19c21.4,0,40-6,53.6-17.3
		c13.5-11.2,21-27.1,21-44.6c0-40.7-34.9-53.5-63-63.8c-22.9-8.4-36.7-14.4-36.7-26.7c0-18,21-19.4,27.5-19.4
		c16.3,0,27.2,5,35.8,9.9l0.3,0.2c0.2,0.1,0.4,0.2,0.5,0.3c9.8,5.7,22.5,2.3,28.1-7.5c2.8-4.8,3.5-10.3,2.1-15.6
		c-1.4-5.3-4.8-9.7-9.5-12.5l0,0l-0.4-0.2c-10.5-6.5-27.6-15.1-55-15.1c-44.8,0-74.9,24.4-74.9,60.8c0,40.6,35,53.6,63.2,64.1
		c22.7,8.4,36.5,14.4,36.5,26.4c0,15.2-14.4,20.6-27.8,20.6c-19.5,0-33.4-8.1-42.5-13.5c-0.7-0.4-1.4-0.9-2.1-1.2l-0.1-0.1
		c-0.3-0.1-0.5-0.3-0.7-0.4c-0.3-0.2-0.7-0.4-1.3-0.8l-0.1-0.1c-9.7-5.2-21.8-1.9-27.6,7.4C857.2,249.4,859.9,261.1,869.7,268.2
		L869.7,268.2z"/>
	<path class="st0" d="M418,282.2c4-4.1,6.3-9.6,6.2-15.5c0-8.2-4.5-15.4-12.1-19.4c-2.2-1.2-5-1.7-7.5-2.1
		c-6.1-0.8-12.5-1.6-12.5-20.6V23.5c0-13-10.5-23.5-23.5-23.5s-23.5,10.6-23.5,23.5v205.7c0,23.1,6.7,39.6,19.8,49.3
		c11.9,8.7,26.4,9.9,36.4,10c0.1,0,0.3,0,0.4,0c0.2,0,0.3,0,0.5,0h0.4l0,0C408.5,288.4,414,286.2,418,282.2L418,282.2z"/>
	<path class="st0" d="M537.3,288.9c32.7,0,56.7-13.5,68.1-21.4c1.1-0.7,1.8-1.2,2-1.3c9.5-6.7,12-19.3,5.7-28.8
		c-3.1-4.6-8.1-7.9-13.7-8.9c-5.4-1-11,0.2-15.2,3.2l-0.7,0.5c-0.5,0.4-1.1,0.9-1.6,1.2c-12.5,8.9-26.7,13.5-42.2,13.5
		c-27.9,0-57-17.2-61.4-55.3h121.7c13.1,0,20-9.1,20-18c0-28.3-7.9-52.3-22.8-69.5c-15.7-18-38.3-27.5-65.5-27.5
		c-27.2,0-54.2,10.3-72.5,29.1c-19,19.4-29.1,46.1-29.1,77.2C429.9,244.3,475.1,288.9,537.3,288.9L537.3,288.9z M530.8,115.5
		c23.5,0,39,15.5,41.7,41.6c-0.1,0-0.1,0-0.2,0h-91.9c3-12,8.7-22,16.9-29.2C506.3,119.8,517.9,115.5,530.8,115.5L530.8,115.5z"/>
	<path class="st0" d="M74.3,287c3.2,1.4,6.5,2,9.8,2c9.5,0,18.5-5.6,22.7-15c0.4-0.9,0.8-1.9,1.3-3l26.7-64.1H253l27.1,64.2
		c0.4,1,0.8,1.9,1.1,2.5l0.2,0.4c5.4,12.7,20.1,18.6,32.8,13.2c12.5-5.4,18.5-20,13.2-32.7c-0.6-1.4-2-4.8-2-4.9l-97-227
		c-0.9-2.1-2-4.4-3.7-6.7C217.6,5.9,206.3,0,194.3,0c-11.3,0-21.8,5.1-28.9,13.9c-2.4,2.8-4.2,6.5-5.1,8.6L62.6,251.3
		c-0.1,0.2-1,2.4-1.4,3.3C56.1,267.5,61.9,281.7,74.3,287L74.3,287z M194.2,60.2c2.2,5.5,6.7,16.7,10.6,26.6l32.3,78.7h-86.5
		l32.8-78.7C187.3,76.9,191.9,65.7,194.2,60.2z"/>
</g>
</svg>
