<?xml version="1.0" encoding="UTF-8"?>
<svg xmlns="http://www.w3.org/2000/svg" width="60" height="100" viewBox="0 0 60 100" fill="none">
  <path d="M60 0H53.2237L0.115906 71.7028V89.2595H60V0Z" fill="#FDEC05"></path>
  <path d="M53.2237 0H0.115906V71.7028L53.2237 0Z" fill="#E21F26"></path>
  <path d="M0.115906 0V89.2595H60V0H0.115906ZM57.7439 86.7311H2.37193V2.52842H57.7439V86.7311Z" fill="#231F20"></path>
  <path d="M51.351 2.52832L50.8469 11.7023L6.26562 71.9887L0.115906 71.7027L51.351 2.52832Z" fill="#168ACB"></path>
  <path d="M30.6808 77.4238H41.8442C41.0519 75.493 31.185 72.8469 30.6808 77.4238Z" fill="#E21F26"></path>
  <path d="M7.63426 99.0042H3.1902L2.39445 100H-6.10352e-05L4.57309 93.9675H6.35562L10.7776 100H8.36492L7.63426 99.0042ZM6.71048 97.6998L5.3568 95.6817L4.1011 97.6998H6.71048ZM15.9165 93.9675H18.1851V98.8067H21.3541V100H15.9165V93.9675ZM25.7593 93.9675H32.8361V95.4572H30.4888V100H28.1065V95.4572H25.7592L25.7593 93.9675ZM38.1434 93.9675H44.0687V95.1265H40.404V96.3541H43.8924V97.348H40.404V98.8704H44.1393V100H38.1434V93.9675ZM50.121 93.9675H51.8264L57.7315 97.8965V93.9675H59.9999V100H58.3704L52.3922 96.0212V100H50.121V93.9675Z" fill="#231F20"></path>
  <path d="M46.8824 15.2776L45.0131 43.4547L21.4621 28.0791L46.8824 15.2776Z" fill="#231F20"></path>
  <path d="M34.8581 53.8958L26.2875 68.9137H43.5727L34.8581 53.8958Z" fill="#231F20"></path>
</svg>
