<?xml version="1.0" encoding="utf-8"?>
<!-- Generator: Adobe Illustrator 25.0.1, SVG Export Plug-In . SVG Version: 6.00 Build 0)  -->
<svg version="1.1" id="Warstwa_1" xmlns="http://www.w3.org/2000/svg" xmlns:xlink="http://www.w3.org/1999/xlink" x="0px" y="0px"
	 viewBox="0 0 3477.5 979.5" style="enable-background:new 0 0 3477.5 979.5;" xml:space="preserve">
<style type="text/css">
	.st0{fill:none;}
	.st1{enable-background:new    ;}
	.st2{fill:#A88C5B;}
</style>
<g>
	<g>
		<path d="M482.9,468.5c0.2,3.1,0.3,6.2,0.3,9.3c0,34.4-14.1,61.3-42.3,80.5c-24.9,17-55.6,25.5-92,25.5H197.5V207.9h154.2
			c27.1,0,49.9,9.7,68.4,29.2c18.4,19.5,27.7,42.8,27.7,69.9c0,32.4-13.8,58-41.3,77.1C454.1,396.5,479.5,424.5,482.9,468.5
			 M319.6,284.8h-25.8v72.7H320c10,0,18.7-3.8,26.3-11.3c7.6-7.6,11.4-16.2,11.4-25.9c0-10.6-3.6-19.1-10.9-25.6
			C339.4,288.1,330.4,284.8,319.6,284.8 M384,463.9c-2.7-22.7-18.7-34.1-48.2-34.1h-41v80.7H342c11.8,0,21.8-3.5,30-10.4
			s12.3-16.7,12.3-29.3C384.3,468.4,384.2,466.2,384,463.9"/>
	</g>
	<polygon points="720.8,583.8 508.3,583.8 508.3,207.9 606,207.9 606,501.7 720.8,501.7 	"/>
	<path d="M1130.5,583.8h-102.9l-25.2-65H870.3l-26.1,65H741.6l142.7-375.9h106.9L1130.5,583.8z M977.2,445l-39.8-118.2L897.1,445
		H977.2z"/>
	<g>
		<path d="M1391.7,333.3c-20.9-27.7-48.9-41.3-83.9-40.9c-27.4,0.4-50.8,10.3-70.3,29.7c-19.5,19.4-29.7,42.7-30.5,70
			c-0.8,29,8.8,54.5,28.8,76.4s44,31.9,72,29.8c36.9-2.9,64.6-15.9,83-39.1V575c-26.9,12.2-53.4,18.4-79.3,18.4
			c-8.1,0-17.1-0.4-27-1.2c-52.2-4.8-95.6-26.8-130.1-66.1s-50.8-85.1-48.9-137.6c1.9-53.9,23.1-99.2,63.7-135.8
			c40.6-36.7,88.4-54.5,143.3-53.5c27.3,0.4,53.8,6.3,79.3,17.7L1391.7,333.3L1391.7,333.3z"/>
	</g>
	<polygon points="1763.6,583.8 1637.8,583.8 1514.4,420.7 1514.4,583.8 1419.3,583.8 1419.3,207.9 1514.4,207.9 1514.4,364.1 
		1631.7,207.9 1752.1,207.9 1604.8,387 	"/>
	<g>
		<path d="M2093.4,583.8h-120.3l-92.3-144.5v144.5h-96V207.9H1922c38.2,0,68.9,8.3,92.1,24.9c27,19.1,42,48.4,45.1,88
			c0.1,3.3,0.2,6.5,0.2,9.6c0,24.9-7.6,46.2-22.7,64c-14.3,16.6-33.9,28.7-58.7,36.4L2093.4,583.8z M1960.2,330.8
			c0-12.4-4.4-23.3-13.3-32.5s-19.2-13.9-31-13.9h-33.2v91.2h36.3c11.4-1,21.1-5.8,29.2-14.4
			C1956.2,352.5,1960.2,342.4,1960.2,330.8"/>
		<polygon points="2723.2,583.8 2510.5,583.8 2510.5,207.9 2608.3,207.9 2608.3,501.7 2723.2,501.7 		"/>
	</g>
	<polygon points="2962.8,583.8 2750.2,583.8 2750.2,207.9 2848,207.9 2848,501.7 2962.8,501.7 	"/>
	<path d="M2425.7,258.4c-39.2-38.4-87.6-57.7-145.2-57.7c-54.7,0-101.8,18.3-141.2,55c-40.8,37.9-61.3,85.1-61.3,141.4
		c0,57.2,21.3,105.1,63.7,143.9c40.2,36.7,86.7,55,139.6,55c55.1,0,102.8-19.3,142.8-58c40.1-38.6,60.2-85.2,60.2-139.7
		C2484.4,343.5,2464.8,296.8,2425.7,258.4 M2332.1,448.1c-14.3,13.8-31.3,20.7-50.9,20.7c-18.9,0-35.4-6.5-49.8-19.6
		c-15.1-13.8-22.7-30.9-22.7-51.3c0-20.1,7.3-36.9,21.8-50.4c14-13.1,30.8-19.6,50.3-19.6c20.5,0,37.8,6.8,51.7,20.5
		c14,13.7,20.9,30.3,20.9,49.9C2353.5,417.7,2346.4,434.3,2332.1,448.1"/>
	<g>
		<path d="M2995.2,221.5c8.3,8.3,12.8,19.5,12.8,31.3c0,12.1-4.5,23-12.9,31.2c-8.8,8.6-19.9,13.3-31.6,13.3
			c-11.8,0-22.8-4.7-31.3-13.3c-8.4-8.4-13-19.4-13-31.2s4.7-23,13.4-31.7c8.2-8.3,19-12.8,31-12.8
			C2975.6,208.3,2986.6,212.9,2995.2,221.5 M2991.5,225.2c-7.6-7.6-17.2-11.5-28-11.5c-10.5,0-20.1,3.8-27.3,11.1
			c-7.7,7.7-11.8,17.6-11.8,28c0,10.3,4.1,19.9,11.5,27.5c7.4,7.5,17.2,11.5,27.4,11.5c10.5,0,20.3-4,28-11.5
			c7.3-7.2,11.4-16.7,11.4-27.3C3002.7,242.4,2998.8,232.5,2991.5,225.2 M2985.9,240.7c0,7.1-4.5,12.3-11.9,13.5l11.4,23.3h-9.5
			l-10.6-22h-10.8v22h-8.5v-50.8h18.8C2978.8,226.7,2985.9,231.1,2985.9,240.7 M2954.4,232.2v17.6h8.9c9.4,0,13.8-2.1,13.8-8.6
			c0-6.6-4.5-9-14-9H2954.4z"/>
	</g>
</g>
<rect x="2783.1" y="510.4" class="st0" width="1145.7" height="671.5"/>
<g class="st1">
	<path class="st2" d="M2963.1,799.2c-0.3,1,1,2.5,3.8,2.5c3.2,0,8-1.3,8-1.3c-1.9,3.2-10.8,6-15.6,6c-8.9,0-13.7-9.9-13.4-12.4
		c2.2-59.1,114.2-243.9,116.1-288.7c0.6-12.4-12.7-18.1-24.2-18.1c-79.5,0-210.2,136.1-211.1,159.3c-0.3,3.8,1.9,6.7,8,6.7
		c4.1,0,9.2-0.6,9.9-0.3c0,1.3-13,8.6-21.9,8.6c-13.4,0-19.4-8.6-19.1-19.1c1.9-46.7,143.4-163.8,235-163.8
		c18.8,0,44.5,11.4,43.2,38.5c-2.9,62-68.4,167.3-105.3,243.9C3061,638,3220,464.3,3299.5,456.4c7.3-0.6,14.6,9.2,14.6,16.5
		c0,15.3-11.8,26.1-16.2,30.8c2.2-2.5,4.5-9.9,5.4-19.4c0-1.3,1.3-6.7-3.2-6.7C3238.5,477.7,3026.4,678.7,2963.1,799.2z"/>
	<path class="st2" d="M3113.5,746.1c-5.1-1.6-13-9.5-13-15.3c0-18.4,46.1-87.8,66.5-104c1.6-1.6,3.5-1.9,4.8-1.9
		c7.3,0,20,12.7,20,20.7c0,1.3-1.6-0.3-4.1-0.6c-13-1.3-56.6,71.2-60.4,84.3c19.4-5.1,65.8-49.3,85.2-68.1c2.2-1.6,3.8,1,2.9,1.9
		c-27.7,29.9-78.2,81.7-97.9,83.3C3116,746.4,3115.1,746.4,3113.5,746.1z M3219.7,586.5c2.9,3.2,4.8,8,3.5,8c-0.6,0-3.2-1.3-6.7,0.3
		c-5.4,2.2-20,15.3-23.8,20.7c-4.5,5.7-11.1-1-11.4-6.7c-0.3-9.2,11.8-29.9,20-32.4C3208.6,575.3,3215.6,581.7,3219.7,586.5z"/>
	<path class="st2" d="M3248.6,620.2c1.9-1.6,3.8-1.9,4.8-1.9c7.3,0,19.4,12.4,19.4,20.7c0,1-1-0.3-3.2-0.6
		c-4.8-0.6-15.9,12.4-26.1,25.4c-4.1,5.1-17.8,24.8-17.8,24.8c27.7-30.2,87.1-73.5,103-68.1c4.1,1.6,15.3,13.7,15.3,18.4
		c0,28.6-62.3,104.9-105.9,104.9c-12.4,0-27-7.9-27-18.4c0-1.6,1.6-2.2,1.6-1.3c0,3.2,5.4,9.2,12.1,9.2c32.1,0,89.4-82.4,93.2-100.2
		c-4.8,0-56,25.4-111.3,83.6c-30.8,44.2-75.7,111.9-83.6,159c-1.6,7.9-1.6,14.3,5.7,15.3c-14.6,5.7-28.9-6-26.4-25.4
		c6.7-53.4,70.3-153,118.6-215C3229.6,639.9,3242.3,625.2,3248.6,620.2z"/>
</g>
</svg>
