<?xml version="1.0" encoding="utf-8"?>
<!-- Generator: Adobe Illustrator 16.0.0, SVG Export Plug-In . SVG Version: 6.00 Build 0)  -->
<!DOCTYPE svg PUBLIC "-//W3C//DTD SVG 1.1//EN" "http://www.w3.org/Graphics/SVG/1.1/DTD/svg11.dtd">
<svg version="1.1" id="Layer_1" xmlns="http://www.w3.org/2000/svg" xmlns:xlink="http://www.w3.org/1999/xlink" x="0px" y="0px"
	  viewBox="0 0 3000 3000" enable-background="new 0 0 3000 3000" xml:space="preserve">
<g>
	<path fill="#231F20" d="M405.316,1793.432c-1.176,0-3.135,0.146-3.135,0.9c0,29.455-11.255,78.873-86.679,78.873h-44.678
		c-2.185,0-2.576-0.48-2.576-1.392l-0.284-137.488h15.144c29.955,0,48.547,17.799,48.547,46.47c0,1.764,5.857,1.764,5.857,0v-100.08
		c0-0.714-1.832-0.871-2.938-0.871c-1.088,0-2.919,0.157-2.919,0.871c0,29.122-18.161,46.499-48.547,46.499l-14.869,0.274v-129.995
		c0-0.853,0.401-1.371,2.576-1.371h43.472c60.83,0,67.402,49.418,67.402,70.703c0,1.107,2.782,1.146,3.331,1.146
		s3.33-0.039,3.33-1.146v-76.296c0-0.52-0.479-1.489-1.509-1.489H186.79c-0.715,0-0.91,1.92-0.91,3.546
		c0,1.636,0.206,3.536,0.91,3.536h34.02c1.822,0,2.165,0.559,2.165,1.371v274.32c0,0.873-0.343,1.392-2.165,1.392h-34.02
		c-0.715,0-0.91,1.92-0.91,3.507c0,1.655,0.206,3.595,0.91,3.595h220.152c0.999,0,1.509-0.559,1.509-1.509v-84.465
		C408.451,1793.578,406.492,1793.432,405.316,1793.432"/>
	<path fill="#231F20" d="M525.478,1873.186h-22.55c-2.204,0-2.615-0.499-2.615-1.352v-291.942c0-0.568-0.48-1.509-1.469-1.509
		h-59.047c-1.137,0-1.244,2.693-1.244,3.565c0,0.794,0.117,3.536,1.244,3.536h22.529c2.185,0,2.575,0.471,2.575,1.332v285.018
		c0,0.853-0.401,1.352-2.575,1.352h-22.529c-1.137,0-1.244,2.713-1.244,3.555c0,0.834,0.117,3.547,1.244,3.547h85.681
		c0.715,0,0.871-1.92,0.871-3.547C526.349,1875.154,526.192,1873.186,525.478,1873.186"/>
	<path fill="#231F20" d="M641.504,1873.186h-22.961c-1.812,0-2.165-0.539-2.165-1.352v-165.278c0-0.95-0.558-1.499-1.527-1.499
		h-59.449c-0.754,0-0.91,1.979-0.91,3.547c0,1.625,0.166,3.556,0.91,3.556h22.55c2.497,0,2.604,0.45,2.604,1.391v158.284
		c0,0.939-0.097,1.352-2.604,1.352h-22.55c-0.754,0-0.91,1.969-0.91,3.557c0,1.625,0.166,3.545,0.91,3.545h86.103
		c0.734,0,0.871-1.92,0.871-3.545C642.385,1875.154,642.248,1873.186,641.504,1873.186"/>
	<path fill="#231F20" d="M598.453,1629.349c12.842,0,23.225-10.756,23.225-24.058c0-13.498-10.383-24.449-23.225-24.449
		c-12.607,0-22.844,10.951-22.844,24.449S585.66,1629.349,598.453,1629.349"/>
	<path fill="#231F20" d="M816.606,1821.318c-1.195,0-3.135,0.128-3.135,0.882c0,36.214-16.241,50.985-55.893,50.985h-42.277
		c-1.449,0-1.792-0.216-1.792-0.833l103.763-164.044c0.362-1.488,0.362-2.459,0-2.899h-0.617c-0.02,0-0.02-0.039-0.059-0.039
		h-18.543l-111.051-0.313c-0.97,0-1.488,0.559-1.488,1.528v51.22c0,1.479,6.71,1.479,6.71,0c0-33.666,12.979-45.646,49.741-45.646
		h32.813c1.881,0,2.058,0.391,1.803,0.832l-102.93,163.975c-0.617,0.921-0.833,1.773-0.48,2.469
		c0.274,0.519,0.853,0.853,1.548,0.853h143.503c1.392,0,1.509-0.578,1.509-1.527v-56.56
		C819.741,1821.436,817.781,1821.318,816.606,1821.318"/>
	<path fill="#231F20" d="M1017.147,1864.075c-0.216-0.127-0.313-0.167-0.392-0.088c-0.098,0-0.206-0.079-0.324-0.039
		c-1.703,4.251-6.591,8.815-13.262,8.815c-5.839,0-9.188-4.966-9.188-13.674v-83.223c0-49.427-22.146-74.474-65.874-74.474
		c-32.511,0-49.879,18.738-49.879,32.217c0,9.345,5.183,18.729,16.653,18.729c13.537,0,18.337-8.072,18.337-14.997
		c0-3.047-0.873-5.074-1.764-7.161c-0.97-2.233-1.93-4.467-1.93-8.062c0-9.286,5.896-13.615,18.582-13.615
		c15.085,0,30.483,4.319,30.483,36.596v31.208c0,7.817-21.756,9.756-42.718,11.646l-4.183,0.333
		c-20.002,2.067-53.532,11.598-53.532,52.377c0,27.143,20.806,43.335,55.619,43.335c20.168,0,34.97-10.403,42.492-22.55
		c1.606-2.507,3.036-5.045,4.074-7.659c3.331,18.297,15.938,30.209,32.149,30.209c15.408,0,25.986-8.347,28.132-16.173
		c0.137-0.216,0.059-0.559-0.216-1.019C1019.812,1865.859,1018.265,1864.369,1017.147,1864.075 M958.581,1787.025v48.311
		c0,18.856-15.339,39.916-37.438,39.916c-18.591,0-28.005-11.637-28.005-34.578c0-37.153,12.479-42.766,26.438-45.666
		c3.262-0.558,7.023-0.979,10.962-1.391C940.479,1792.5,951.694,1791.306,958.581,1787.025 M960.521,1853.35
		c0.519,3.026,1.449,5.916,2.478,8.679c-1.066-2.625-2.008-5.338-2.624-8.365C960.422,1853.575,960.48,1853.477,960.521,1853.35"/>
	<path fill="#231F20" d="M1139.688,1701.363c-13.058,0-24.117,4.105-33.305,12.5c-1.566,1.352-3.096,2.771-4.525,4.319v-138.291
		c0-0.421,0-1.509-1.527-1.509h-59.048c-0.715,0-0.853,1.939-0.853,3.526c0,1.626,0.138,3.575,0.853,3.575h22.98
		c1.704,0,2.586,0.431,2.586,1.352v284.998c0,0.313,0,1.352-2.586,1.352h-22.98c-0.715,0-0.853,1.969-0.853,3.507
		c0,1.675,0.138,3.595,0.853,3.595h59.048c1.41,0,1.527-0.578,1.527-1.527l-0.274-8.199v-5.731
		c10.678,11.472,27.78,19.151,42.63,19.151c48.713,0,81.458-46.588,81.458-90.089
		C1225.672,1750.224,1188.92,1701.363,1139.688,1701.363 M1139.688,1708.466c7.66,0,21.775,1.146,30.61,8.609
		c12.705,10.678,19.131,36.557,19.131,76.816c0,39.759-6.054,63.435-19.131,74.435c-7.425,6.23-14.486,8.553-26.085,8.553
		c-15.281,0-35.048-8.18-42.355-25.979l-0.039-120.855C1108.049,1715.891,1125.622,1708.466,1139.688,1708.466 M1101.78,1718.271
		l-0.196,0.196v-58.978L1101.78,1718.271z M1101.584,1864.428c1.665,1.832,3.575,3.527,5.632,5.162
		c-1.987-1.548-3.928-3.134-5.632-4.888V1864.428z"/>
	<path fill="#231F20" d="M1338.134,1701.384c-47.322,0-84.358,40.092-84.358,91.273c0,51.211,37.036,91.343,84.358,91.343
		c27.427,0,52.777-14.409,69.508-39.535l-0.156-0.921c-0.676-1.048-2.841-2.771-3.968-2.645
		c-15.644,23.206-38.858,35.988-65.374,35.988c-12.784,0-22.235-2.86-29.778-8.973c-12.822-10.794-16.711-28.377-16.711-75.268
		c0-3.056-0.039-6.23-0.656-8.757c0-0.098,0-0.235-0.02-0.372h118.887c0.989,0,1.509-0.559,1.509-1.509
		C1411.374,1756.757,1392.909,1701.384,1338.134,1701.384 M1290.958,1776.74c0-0.598,0.04-1.107,0.06-1.666
		C1291.018,1775.633,1290.998,1776.143,1290.958,1776.74 M1291.232,1776.74c1.646-34.774,6.015-49.751,17.133-59.264
		c7.543-6.111,16.985-8.972,29.778-8.972c10.207,0,17.906,2.919,23.538,8.924c9.767,9.334,13.4,24.097,14.527,57.999
		c0,0.343,0,0.637,0.039,0.998l-81.969,0.314H1291.232z M1376.237,1776.701L1376.237,1776.701l-4.006,0.039L1376.237,1776.701z
		 M1290.958,1783.254h14.626l-14.626,0.039V1783.254z"/>
	<path fill="#231F20" d="M1528.097,1844.661c-4.674,17.367-13.92,27.711-24.724,27.711c-7.142,0-11.226-4.251-11.226-11.637V1713.55
		c0-0.833,0.361-1.391,2.193-1.391h34.039c0.735,0,0.853-1.911,0.853-3.537c0-1.606-0.117-3.565-0.853-3.565h-34.039
		c-1.832,0-2.193-0.519-2.193-1.352v-68.871c0-0.755-3.37-0.755-4.065-0.755c-2.322,0-2.625,0.354-2.625,0.647
		c-5.134,14.986-14.869,23.596-29.112,25.908v43.07c0,0.931-0.117,1.352-2.586,1.352h-28.349c-0.714,0-0.871,1.959-0.871,3.565
		c0,1.626,0.157,3.537,0.871,3.537h28.349c2.459,0,2.586,0.431,2.586,1.391v129.994c0,26.84,11.832,40.456,35.107,40.456
		c21.256,0,35.146-12.245,41.258-36.4C1532.72,1846.688,1529.624,1844.406,1528.097,1844.661"/>
	<path fill="#231F20" d="M1750.589,1873.205h-22.529c-2.038,0-2.224-0.392-2.224-1.392v-101.666
		c0-43.061-25.517-68.773-68.343-68.773c-13.409,0-29.249,5.104-39.26,18.356c-2.899,3.771-5.377,8.18-7.199,13.263v-153.102
		c0-0.402,0-1.509-1.489-1.509h-59.047c-0.706,0-0.872,1.939-0.872,3.545c0,1.627,0.166,3.557,0.872,3.557h22.95
		c1.754,0,2.606,0.412,2.606,1.352v284.978c0,0.314,0,1.392-2.606,1.392h-22.95c-0.706,0-0.872,1.92-0.872,3.507
		c0,1.655,0.166,3.595,0.872,3.595h85.671c0.754,0,0.91-1.939,0.91-3.595c0-1.587-0.156-3.507-0.91-3.507h-22.51
		c-2.625,0-2.625-1.068-2.625-1.392v-124.587c9.051-27.153,22.97-38.741,46.459-38.741c12.43,0,32.129,11.284,32.129,41.532v121.797
		c0,0.979-0.538,1.391-1.782,1.391h-22.55c-1.116,0-1.194,2.713-1.194,3.507c0,0.813,0.078,3.595,1.194,3.595h85.279
		c0.734,0,0.901-1.939,0.901-3.595C1751.49,1875.125,1751.324,1873.205,1750.589,1873.205 M1611.044,1733.052
		c-0.078,0.206-0.187,0.383-0.235,0.589v-74.396L1611.044,1733.052z"/>
	<path fill="#231F20" d="M2060.977,1873.205h-34.02c-1.528,0-2.567-0.754-2.626-1.068l-103.742-288.631
		c-0.362-1.048-3.536-1.146-4.486-1.146c-0.979,0-4.174,0.099-4.486,1.146l-93.968,272.654c-4.878,15.977-5.711,17.045-9.129,17.045
		h-28.024c-0.275,0-0.578,0-0.578,3.507c0,3.595,0.294,3.595,0.578,3.595h76.678c0.725,0,0.892-1.939,0.892-3.595
		c0-1.587-0.167-3.507-0.892-3.507h-34.029c-0.46,0-0.617-0.156-0.686-0.274c-0.754-1.067,0.686-5.965,4.251-16.583l24.725-72.017
		l93.644-0.186l30.424,88.384c-0.097,0.274-0.695,0.666-1.439,0.666h-35.303c-0.705,0-0.871,1.92-0.871,3.507
		c0,1.655,0.166,3.595,0.871,3.595h122.207c0.735,0,0.901-1.939,0.901-3.595C2061.867,1875.125,2061.712,1873.205,2060.977,1873.205
		 M1943.695,1777.533h-20.402l20.384-0.118L1943.695,1777.533z M1853.51,1777.533l11.431-33.226l-11.353,33.226H1853.51z
		 M1853.783,1777.533l45.206-131.592l34.029,99.913l10.599,31.395l-65.883,0.274h-23.951V1777.533z M1975.767,1872.51
		c0,0.137-0.079,0.273-0.216,0.372C1975.648,1872.793,1975.727,1872.646,1975.767,1872.51"/>
	<path fill="#231F20" d="M2173.731,1701.384c-18.258,0-29.65,6.347-37.076,21.05c-1.625,3.135-3.135,6.554-4.485,10.481v-26.359
		c0-0.931-0.079-1.499-1.47-1.499h-59.037c-0.754,0-0.9,1.94-0.9,3.565c0,1.627,0.146,3.537,0.9,3.537h22.529
		c2.186,0,2.625,0.519,2.625,1.391v158.264c0,0.911-0.439,1.353-2.625,1.353h-22.529c-0.754,0-0.9,1.959-0.9,3.546
		c0,1.655,0.146,3.595,0.9,3.595h85.681c0.754,0,0.872-1.939,0.872-3.595c0-1.587-0.117-3.546-0.872-3.546h-22.95
		c-1.803,0-2.224-0.479-2.224-1.353v-121.315c6.553-26.477,15.839-38.339,30.091-38.339c6.406,0,10.383,4.025,10.383,10.401
		c0,3.136-1.028,5.085-2.125,7.044c-1.313,2.38-2.781,5.044-2.781,10.187c0,8.493,7.865,14.625,18.699,14.625
		c9.129,0,18.337-7.092,18.337-22.804C2204.772,1716.518,2195.173,1701.384,2173.731,1701.384 M2132.17,1732.993
		c-0.06,0.235-0.167,0.401-0.235,0.637v-13.146L2132.17,1732.993z"/>
	<path fill="#231F20" d="M2411.593,1873.166h-22.568c-2.203,0-2.605-0.441-2.605-1.353v-291.952c0-0.47-0.48-1.498-1.087-1.498
		h-59.067c-0.724,0-0.851,1.959-0.851,3.585c0,1.606,0.127,3.517,0.851,3.517h22.569c1.832,0,2.214,0.538,2.214,1.371l0.235,73.357
		v57.852c-10.021-11.226-22.49-16.651-38.134-16.651c-49.184,0-85.984,48.84-85.984,92.527c0,43.472,32.933,90.069,81.89,90.069
		c20.453,0,34.099-10.159,39.544-18.318c1.088-1.548,1.939-3.046,2.439-4.35v17.427c0,0.999,0.519,1.509,1.479,1.509h59.066
		c1.137,0,1.176-2.959,1.176-3.526C2412.769,1876.134,2412.729,1873.166,2411.593,1873.166 M2263.829,1793.932
		c0-40.965,6.406-66.11,19.592-76.895c8.365-7.073,20.795-8.532,29.729-8.532c14.742,0,32.462,7.405,37.889,21.433v112.794
		c0,16.966-12.998,34.156-41.983,34.156c-11.431,0-18.141-2.252-25.634-8.551C2270.03,1857.405,2263.829,1833.739,2263.829,1793.932
		 M2351.293,1718.183v0.274c-1.567-1.783-3.263-3.369-4.986-4.897C2347.991,1714.97,2349.706,1716.508,2351.293,1718.183
		 M2351.293,1860.735v8.64l-0.216-8.121C2351.097,1861.088,2351.253,1860.902,2351.293,1860.735"/>
	<path fill="#231F20" d="M2513.612,1701.384c-47.312,0-84.348,40.092-84.348,91.273c0,51.211,37.036,91.343,84.348,91.343
		c27.457,0,52.777-14.409,69.509-39.535l-0.138-0.921c-0.695-1.048-2.958-2.732-3.986-2.645
		c-15.605,23.206-38.83,35.988-65.385,35.988c-12.744,0-22.235-2.86-29.768-8.973c-12.832-10.794-16.712-28.377-16.712-75.268
		c0-3.056-0.039-6.23-0.617-8.757c-0.038-0.098-0.038-0.235-0.038-0.372h118.896c0.969,0,1.479-0.559,1.479-1.509
		C2586.843,1756.757,2568.427,1701.384,2513.612,1701.384 M2466.447,1776.74c0.04-0.627,0.059-1.147,0.108-1.705
		C2466.506,1775.593,2466.467,1776.113,2466.447,1776.74z M2466.722,1776.74c1.675-34.774,5.995-49.751,17.112-59.264
		c7.543-6.111,17.025-8.972,29.769-8.972c10.207,0,17.906,2.919,23.577,8.924c9.747,9.334,13.382,24.097,14.487,57.999
		c0,0.343,0.04,0.637,0.04,0.998l-81.968,0.314H2466.722z M2551.717,1776.701L2551.717,1776.701l-3.987,0.039L2551.717,1776.701z
		 M2466.447,1783.254h14.605l-14.605,0.039V1783.254z"/>
	<path fill="#231F20" d="M2812.931,1873.205h-22.568c-1.979,0-2.184-0.392-2.184-1.392v-101.666
		c0-43.061-25.371-68.773-67.961-68.773c-16.525,0-30.336,6.367-39.083,17.563l-0.04,0.039c-1.087,1.42-2.105,2.938-3.036,4.525
		c-1.832,2.86-3.419,5.956-4.692,9.491v-26.438c0-0.931-0.078-1.499-1.488-1.499h-59.067c-0.724,0-0.853,1.94-0.853,3.565
		c0,1.626,0.129,3.556,0.853,3.556h22.971c2.606,0,2.606,1.048,2.606,1.372v158.264c0,0.314,0,1.392-2.606,1.392h-22.971
		c-0.724,0-0.853,1.92-0.853,3.507c0,1.655,0.129,3.595,0.853,3.595h85.71c0.735,0,0.892-1.939,0.892-3.595
		c0-1.587-0.156-3.507-0.892-3.507h-22.568c-2.586,0-2.586-1.068-2.586-1.392l-0.039-124.587
		c9.07-27.153,23.078-38.741,46.881-38.741c12.46,0,32.149,11.284,32.149,41.532v121.797c0,0.872-0.373,1.391-2.165,1.391h-22.569
		c-0.44,0-0.636,0.637-0.754,1.273c-0.078,0.598-0.167,1.439-0.167,2.243c0,1.655,0.167,3.595,0.921,3.595h85.279
		c1.136,0,1.214-2.978,1.214-3.595C2814.145,1876.134,2814.067,1873.205,2812.931,1873.205 M2673.347,1733.052
		c-0.088,0.235-0.167,0.383-0.235,0.589v-13.106L2673.347,1733.052z"/>
	<rect x="1365.561" y="896.838" fill="#DD1945" width="268.022" height="526.797"/>
	<path fill="#FFFFFF" d="M1601.992,1191.895h-91.655v-66.383h91.655V1191.895z M1521.886,1180.366h68.549v-43.306h-68.549V1180.366z
		"/>
	<path fill="#FFFFFF" d="M1488.522,1191.895h-91.675v-66.383h91.675V1191.895z M1408.376,1180.366h68.568v-43.306h-68.568V1180.366z
		"/>
	<path fill="#FFFFFF" d="M1601.992,1105.813h-91.655V928.301h91.655V1105.813z M1521.886,1094.255h68.549V939.85h-68.549V1094.255z"
		/>
	<path fill="#FFFFFF" d="M1488.522,1105.813h-91.675V928.301h91.675V1105.813z M1408.376,1094.255h68.568V939.85h-68.568V1094.255z"
		/>
	<path fill="#FFFFFF" d="M1601.992,1389.292h-91.655v-177.463h91.655V1389.292z M1521.886,1377.753h68.549v-154.405h-68.549
		V1377.753z"/>
	<path fill="#FFFFFF" d="M1488.522,1389.292h-91.675v-177.463h91.675V1389.292z M1408.376,1377.753h68.568v-154.405h-68.568
		V1377.753z"/>
	<path fill="#231F20" d="M1044.486,2054.714c-3.242-3.468-7.66-9.109-7.66-9.109s0.833,6.729,0.833,11.725v44.755h-11.686v-81.977
		h1.685l44.775,48.095c3.075,3.312,7.482,9.07,7.482,9.07s-0.832-7.18-0.832-11.705v-44.618h11.706v81.969h-1.548L1044.486,2054.714
		z"/>
	<polygon fill="#231F20" points="1167.635,2020.91 1219.208,2020.91 1219.208,2031.988 1180.28,2031.988 1180.28,2063.52 
		1214.8,2063.52 1214.8,2074.402 1180.28,2074.402 1180.28,2090.996 1220.872,2090.996 1220.872,2102.094 1167.635,2102.094 	"/>
	<path fill="#231F20" d="M1287.442,2020.91h13.264l14.329,43.236c1.549,4.525,3.096,11.568,3.096,11.568s2.028-6.905,3.929-11.568
		l18.64-44.03h1.548l18.739,44.03c1.92,4.525,3.83,11.568,3.83,11.568s1.685-7.043,3.213-11.568l14.331-43.236h12.303
		l-28.064,82.017h-1.547l-20.149-48.33c-1.686-3.968-3.399-9.952-3.399-9.952s-1.88,5.975-3.575,9.952l-20.639,48.33h-1.548
		L1287.442,2020.91z"/>
	<path fill="#231F20" d="M1531.849,2076.45l-30.836-55.511h13.967l18.445,33.441c2.479,4.507,4.858,11.646,4.858,11.646
		s2.527-7.141,4.888-11.646l17.818-33.441h12.998l-29.514,54.795v26.359h-12.626L1531.849,2076.45L1531.849,2076.45z"/>
	<path fill="#231F20" d="M1633.514,2061.521c0-24.224,18.631-41.64,41.915-41.64c23.157,0,41.807,17.416,41.807,41.64
		c0,24.215-18.641,41.641-41.807,41.641C1652.146,2103.162,1633.514,2085.736,1633.514,2061.521 M1704.325,2061.521
		c0-17.318-11.95-30.376-28.896-30.376c-16.945,0-29.023,13.058-29.023,30.376c0,17.309,12.068,30.326,29.023,30.326
		C1692.386,2091.848,1704.325,2078.83,1704.325,2061.521"/>
	<path fill="#231F20" d="M1846.555,2102.094h-14.565l-14.586-21.363c-2.242,0.235-4.476,0.44-6.759,0.44h-7.66v20.923h-12.665
		v-81.184h20.325c22.432,0,34.95,11.695,34.95,30.336c0,12.538-5.573,21.158-16.211,25.763L1846.555,2102.094z M1810.155,2070.357
		c16.123,0,22.568-7.053,22.568-19.111c0-12.146-6.689-19.218-22.568-19.218h-7.181v38.328L1810.155,2070.357L1810.155,2070.357z"/>
	<path fill="#231F20" d="M1937.74,2055.321l26.241-34.421h14.342l-28.75,37.996l32.001,43.169h-15.271l-25.066-33.883l-8.737,10.658
		v23.225h-12.666V2020.9h12.666v33.471c0,3.692-0.52,8.571-0.979,11.862C1933.313,2062.599,1935.703,2058.073,1937.74,2055.321"/>
</g>
</svg>
