<?xml version="1.0" encoding="UTF-8" standalone="no"?>
<!-- Created with Inkscape (http://www.inkscape.org/) -->

<svg
   xmlns:dc="http://purl.org/dc/elements/1.1/"
   xmlns:cc="http://creativecommons.org/ns#"
   xmlns:rdf="http://www.w3.org/1999/02/22-rdf-syntax-ns#"
   xmlns:svg="http://www.w3.org/2000/svg"
   xmlns="http://www.w3.org/2000/svg"
   xmlns:sodipodi="http://sodipodi.sourceforge.net/DTD/sodipodi-0.dtd"
   xmlns:inkscape="http://www.inkscape.org/namespaces/inkscape"
   id="svg2"
   version="1.1"
   inkscape:version="0.91 r13725"
   xml:space="preserve"
   width="1943.75"
   height="452.5"
   viewBox="0 0 1943.75 452.5"
   sodipodi:docname="logo_nd.svg"><metadata
     id="metadata8"><rdf:RDF><cc:Work
         rdf:about=""><dc:format>image/svg+xml</dc:format><dc:type
           rdf:resource="http://purl.org/dc/dcmitype/StillImage" /><dc:title></dc:title></cc:Work></rdf:RDF></metadata><defs
     id="defs6"><clipPath
       clipPathUnits="userSpaceOnUse"
       id="clipPath16"><path
         d="M 0,362 1555,362 1555,0 0,0 0,362 Z"
         id="path18"
         inkscape:connector-curvature="0" /></clipPath></defs><sodipodi:namedview
     pagecolor="#ffffff"
     bordercolor="#666666"
     borderopacity="1"
     objecttolerance="10"
     gridtolerance="10"
     guidetolerance="10"
     inkscape:pageopacity="0"
     inkscape:pageshadow="2"
     inkscape:window-width="1590"
     inkscape:window-height="869"
     id="namedview4"
     showgrid="false"
     inkscape:zoom="0.25517685"
     inkscape:cx="971.875"
     inkscape:cy="226.25"
     inkscape:window-x="0"
     inkscape:window-y="0"
     inkscape:window-maximized="0"
     inkscape:current-layer="g10" /><g
     id="g10"
     inkscape:groupmode="layer"
     inkscape:label="GJW_Norddeutschland_Logo_cmyk RZ Outline_typo"
     transform="matrix(1.25,0,0,-1.25,0,452.5)"><g
       id="g12"><g
         id="g14"
         clip-path="url(#clipPath16)"><g
           id="g20"
           transform="translate(285.1123,66.1465)"><path
             d="m 0,0 c -0.417,-7.777 -6.876,-13.975 -14.757,-13.975 l -87.9,0 c -8.458,0 -15.065,6.585 -15.065,14.737 l 0,102.42 29.625,0 0.027,-78.125 c 0.057,-5.076 4.154,-9.225 9.21,-9.366 l 20.661,-0.013 0.014,19.97 c -0.003,5.435 4.081,9.609 9.167,9.759 l 19.501,0 0,57.775 29.517,0 C 0,103.182 0.015,0.267 0,0 m -125.248,0.704 c 0,-8.068 -6.475,-14.623 -14.512,-14.754 l -88.668,0.002 c -8.15,0 -14.757,6.607 -14.757,14.756 l 0,43.647 27.268,0 -0.075,-19.612 c 0,-5.216 4.296,-9.065 9.512,-9.065 l 42.245,0 c 5.271,0.013 9.497,3.865 9.497,9.082 l 0,39.217 c 0,5.217 -4.217,9.477 -9.433,9.477 l -79.018,0.001 0.018,29.665 103.252,0 c 7.947,0 14.402,-6.454 14.721,-14.323 l -0.05,-88.093 z m -117.923,212.719 c 0,8.178 6.389,14.782 14.567,14.782 l 103.373,0 0,-29.799 -79.042,0.015 c -5.324,0 -9.567,-4.243 -9.567,-9.477 l 0,-39.15 c 0,-5.217 4.257,-9.472 9.47,-9.497 l 41.691,0 c 4.561,0.036 7.972,3.391 7.972,7.629 l -0.002,3.421 -19.287,0.001 0,17.961 48.765,0.032 0,-43.859 c -0.014,-8.269 -6.644,-14.899 -14.823,-14.899 l -88.558,0.15 c -8.179,0 -14.559,6.562 -14.559,14.74 l 0,87.95 z m 172.285,12.285 c 0,7.567 1.411,14.802 3.962,21.472 l -161.777,0 c -17.151,0 -31.182,-14.031 -31.182,-31.181 l 0,-218.268 c 0,-17.15 14.031,-31.181 31.182,-31.181 l 218.267,0 c 17.149,0 31.18,14.031 31.18,31.181 l 0,176.734 c -9.159,-5.641 -19.941,-8.901 -31.488,-8.901 -33.217,0 -60.144,26.927 -60.144,60.144"
             style="fill:#7fba00;fill-opacity:1;fill-rule:nonzero;stroke:none"
             id="path22"
             inkscape:connector-curvature="0" /></g><g
           id="g24"
           transform="translate(263.542,249.0762)"><path
             d="m 0,0 0,45.294 -18.419,0.01 0,18.548 18.407,0.045 0.009,21.665 C -19.135,80.732 -33.297,63.412 -33.297,42.781 -33.297,22.148 -19.134,4.828 0,0"
             style="fill:#7fba00;fill-opacity:1;fill-rule:nonzero;stroke:none"
             id="path26"
             inkscape:connector-curvature="0" /></g><g
           id="g28"
           transform="translate(303.6172,294.3799)"><path
             d="m 0,0 -18.565,-0.009 0,-45.329 c 19.207,4.777 33.442,22.13 33.442,42.816 0,20.685 -14.236,38.039 -33.443,42.815 L -18.571,18.549 0,18.549 0,0 Z"
             style="fill:#7fba00;fill-opacity:1;fill-rule:nonzero;stroke:none"
             id="path30"
             inkscape:connector-curvature="0" /></g><g
           id="g32"
           transform="translate(255.5957,111.5537)"><path
             d="m 0,0 -19.501,0 c -5.086,-0.15 -9.17,-4.324 -9.167,-9.759 l -0.015,-19.971 -20.661,0.014 c -5.055,0.141 -9.152,4.29 -9.21,9.365 l -0.026,78.125 -29.625,0 0,-102.419 c 0,-8.152 6.606,-14.737 15.064,-14.737 l 87.901,0 c 7.881,0 14.34,6.197 14.757,13.975 0.014,0.266 0,103.181 0,103.181 L 0,57.774 0,0 Z"
             style="fill:#ffffff;fill-opacity:1;fill-rule:nonzero;stroke:none"
             id="path34"
             inkscape:connector-curvature="0" /></g><g
           id="g36"
           transform="translate(56.5,176.8799)"><path
             d="m 0,0 88.559,-0.15 c 8.178,0 14.808,6.63 14.822,14.899 l 0,43.858 -48.765,-0.031 0,-17.961 19.287,-0.001 0.002,-3.421 c 0,-4.238 -3.411,-7.594 -7.971,-7.629 l -41.692,0 c -5.213,0.025 -9.47,4.279 -9.47,9.497 l 0,39.149 c 0,5.234 4.244,9.478 9.567,9.478 l 79.042,-0.015 0,29.798 -103.372,0 c -8.179,0 -14.568,-6.603 -14.568,-14.782 l 0,-87.95 C -14.559,6.562 -8.179,0 0,0"
             style="fill:#ffffff;fill-opacity:1;fill-rule:nonzero;stroke:none"
             id="path38"
             inkscape:connector-curvature="0" /></g><g
           id="g40"
           transform="translate(145.1934,169.2666)"><path
             d="m 0,0 -103.252,0 -0.018,-29.665 79.018,-0.001 c 5.216,0 9.433,-4.26 9.433,-9.477 l 0,-39.217 c 0,-5.217 -4.226,-9.069 -9.497,-9.082 l -42.245,0 c -5.216,0 -9.512,3.849 -9.512,9.065 l 0.075,19.612 -27.268,0 0,-43.647 c 0,-8.149 6.607,-14.756 14.757,-14.756 l 88.668,-0.002 c 8.037,0.131 14.512,6.686 14.512,14.754 l 0.05,88.093 C 14.402,-6.454 7.947,0 0,0"
             style="fill:#ffffff;fill-opacity:1;fill-rule:nonzero;stroke:none"
             id="path42"
             inkscape:connector-curvature="0" /></g><g
           id="g44"
           transform="translate(285.0518,249.042)"><path
             d="m 0,0 0,45.329 18.565,0.009 0,18.549 -18.571,0 0.005,21.743 C 19.206,80.854 33.442,63.5 33.442,42.815 33.442,22.13 19.207,4.777 0,0 m 20.807,-185.164 c 0,-17.151 -14.032,-31.182 -31.18,-31.182 l -218.268,0 c -17.15,0 -31.181,14.031 -31.181,31.182 l 0,218.268 c 0,17.149 14.031,31.181 31.181,31.181 l 161.778,0 c -2.551,-6.671 -3.962,-13.905 -3.962,-21.473 0,-33.217 26.927,-60.143 60.143,-60.143 11.547,0 22.329,3.26 31.489,8.9 l 0,-176.733 z m -42.32,270.76 -0.008,-21.664 -18.408,-0.045 0,-18.549 18.419,-0.009 0,-45.295 c -19.134,4.828 -33.297,22.148 -33.297,42.781 0,20.631 14.162,37.952 33.294,42.781 m 10.831,17.361 c -17.904,0 -33.971,-7.833 -44.989,-20.248 l -177.222,0 c -24.945,0 -45.355,-20.409 -45.355,-45.354 l 0,-226.771 c 0,-24.945 20.41,-45.356 45.355,-45.356 l 226.772,0 c 24.945,0 45.353,20.411 45.353,45.356 l 0,198.667 c 6.458,9.586 10.23,21.133 10.23,33.561 0,33.217 -26.927,60.145 -60.144,60.145"
             style="fill:#ffffff;fill-opacity:1;fill-rule:nonzero;stroke:none"
             id="path46"
             inkscape:connector-curvature="0" /></g></g></g><g
       transform="matrix(1,0,0,-1,366,222.812)"
       style="font-variant:normal;font-weight:normal;font-stretch:normal;font-size:78px;font-family:Gothic-TwoOne;-inkscape-font-specification:Gothic-TwoOne;writing-mode:lr-tb;fill:#231f20;fill-opacity:1;fill-rule:nonzero;stroke:none"
       id="text48"><path
         d="m 62.244,-5.148 0,-25.896 -25.974,0 0,10.218 15.6,0 0,10.686 -31.122,0 0,-31.59 31.122,0 0,5.46 10.374,1.17 0,-11.544 c 0,-2.964 -2.262,-5.226 -5.226,-5.226 l -41.496,0 c -2.886,0 -5.148,2.262 -5.148,5.226 l 0,41.496 c 0,2.886 2.262,5.148 5.148,5.148 l 41.496,0 c 2.964,0 5.226,-2.262 5.226,-5.148 z"
         style=""
         id="path3383" /><path
         d="m 129.402,0 0,-10.14 -41.496003,0 0,-10.686 31.122003,0 0,-10.218 -31.122003,0 0,-10.686 41.496003,0 0,-10.14 -51.870003,0 0,51.87 51.870003,0 z"
         style=""
         id="path3385" /><path
         d="m 199.60201,0 0,-51.87 -10.14,0 -18.252,25.818 -18.252,-25.818 -10.374,0 0,51.87 10.374,0 0,-34.008 15.054,21.528 6.24,0 14.976,-21.528 0,34.008 10.374,0 z"
         style=""
         id="path3387" /><path
         d="m 266.76001,0 0,-10.14 -41.496,0 0,-10.686 31.122,0 0,-10.218 -31.122,0 0,-10.686 41.496,0 0,-10.14 -51.87,0 0,51.87 51.87,0 z"
         style=""
         id="path3389" /><path
         d="m 290.31599,0 0,-51.87 -10.374,0 0,51.87 10.374,0 z"
         style=""
         id="path3391" /><path
         d="m 357.47401,0 0,-51.87 -10.374,0 0,35.88 -31.122,-35.88 -10.374,0 0,51.87 10.374,0 0,-35.88 31.122,35.88 10.374,0 z"
         style=""
         id="path3393" /><path
         d="m 424.632,-9.36 0,-33.15 -9.36,-9.36 -42.51,0 0,51.87 42.51,0 9.36,-9.36 z m -10.374,-4.524 -3.744,3.744 -27.378,0 0,-31.59 27.378,0 3.744,3.744 0,24.102 z"
         style=""
         id="path3395" /><path
         d="m 491.78999,0 0,-10.14 -41.496,0 0,-10.686 31.122,0 0,-10.218 -31.122,0 0,-10.686 41.496,0 0,-10.14 -51.87,0 0,51.87 51.87,0 z"
         style=""
         id="path3397" /><path
         d="m 553.72199,-5.148 0,-46.722 -25.896,0 0,10.14 15.522,0 0,31.59 -31.122,0 0,-10.608 -10.374,-1.248 0,16.848 c 0,2.886 2.262,5.148 5.226,5.148 l 41.496,0 c 2.886,0 5.148,-2.262 5.148,-5.148 z"
         style=""
         id="path3399" /><path
         d="m 620.87999,-5.148 0,-46.722 -10.374,0 0,41.73 -31.122,0 0,-41.73 -10.374,0 0,46.722 c 0,2.886 2.262,5.148 5.148,5.148 l 41.496,0 c 2.964,0 5.226,-2.262 5.226,-5.148 z"
         style=""
         id="path3401" /><path
         d="m 688.03801,-5.148 0,-25.896 -25.974,0 0,10.218 15.6,0 0,10.686 -31.122,0 0,-31.59 31.122,0 0,5.46 10.374,1.17 0,-11.544 c 0,-2.964 -2.262,-5.226 -5.226,-5.226 l -41.496,0 c -2.886,0 -5.148,2.262 -5.148,5.226 l 0,41.496 c 0,2.886 2.262,5.148 5.148,5.148 l 41.496,0 c 2.964,0 5.226,-2.262 5.226,-5.148 z"
         style=""
         id="path3403" /><path
         d="m 755.19603,0 0,-10.14 -41.496,0 0,-10.686 31.122,0 0,-10.218 -31.122,0 0,-10.686 41.496,0 0,-10.14 -51.87,0 0,51.87 51.87,0 z"
         style=""
         id="path3405" /><path
         d="m 820.24803,0 0,-51.87 -10.374,0 0,35.88 -31.122,-35.88 -10.374,0 0,51.87 10.374,0 0,-35.88 31.122,35.88 10.374,0 z"
         style=""
         id="path3407" /><path
         d="m 887.40599,-9.36 0,-33.15 -9.36,-9.36 -42.51,0 0,51.87 42.51,0 9.36,-9.36 z m -10.374,-4.524 -3.744,3.744 -27.378,0 0,-31.59 27.378,0 3.744,3.744 0,24.102 z"
         style=""
         id="path3409" /><path
         d="m 962.44201,-51.87 -11.076,0 -4.992,35.256 -10.998,-17.628 -6.24,0 -10.998,17.628 -4.992,-35.256 -11.076,0 7.8,51.87 10.374,0 11.778,-19.422 12.246,19.422 10.374,0 7.8,-51.87 z"
         style=""
         id="path3411" /><path
         d="m 1028.976,0 0,-10.14 -41.49601,0 0,-10.686 31.12201,0 0,-10.218 -31.12201,0 0,-10.686 41.49601,0 0,-10.14 -51.87001,0 0,51.87 51.87001,0 z"
         style=""
         id="path3413" /><path
         d="m 1094.0281,0 -15.6,-20.748 10.374,0 c 2.964,0 5.226,-2.262 5.226,-5.148 l 0,-20.748 c 0,-2.964 -2.262,-5.226 -5.226,-5.226 l -46.644,0 0,51.87 10.374,0 0,-20.748 12.87,0 15.522,20.748 13.104,0 z m -10.374,-30.888 -31.122,0 0,-10.842 31.122,0 0,10.842 z"
         style=""
         id="path3415" /><path
         d="m 1161.186,0 -18.564,-27.066 18.564,-24.804 -12.636,0 -15.6,20.826 -13.26,0 0,-20.826 -10.374,0 0,51.87 10.374,0 0,-20.826 14.43,0 14.274,20.826 12.792,0 z"
         style=""
         id="path3417" /></g><g
       transform="matrix(1,0,0,-1,371,169.1021)"
       style="font-variant:normal;font-weight:normal;font-stretch:normal;font-size:52px;font-family:Gothic-TwoOne;-inkscape-font-specification:Gothic-TwoOne;writing-mode:lr-tb;fill:#7fba00;fill-opacity:1;fill-rule:nonzero;stroke:none"
       id="text52"><path
         d="m 41.496,0 0,-34.58 -6.916,0 0,23.92 -20.748,-23.92 -6.916,0 0,34.58 6.916,0 0,-23.92 L 34.58,0 41.496,0 Z"
         style=""
         id="path3420" /><path
         d="m 86.267999,-3.432 0,-27.664 c 0,-1.976 -1.508,-3.484 -3.484,-3.484 l -27.664,0 c -1.924,0 -3.432,1.508 -3.432,3.484 l 0,27.664 c 0,1.924 1.508,3.432 3.432,3.432 l 27.664,0 c 1.976,0 3.484,-1.508 3.484,-3.432 z m -6.916,-3.328 -20.748,0 0,-21.06 20.748,0 0,21.06 z"
         style=""
         id="path3422" /><path
         d="m 131.04,0 -10.4,-13.832 6.916,0 c 1.976,0 3.484,-1.508 3.484,-3.432 l 0,-13.832 c 0,-1.976 -1.508,-3.484 -3.484,-3.484 l -31.096001,0 0,34.58 6.916001,0 0,-13.832 8.58,0 L 122.304,0 131.04,0 Z m -6.916,-20.592 -20.748,0 0,-7.228 20.748,0 0,7.228 z"
         style=""
         id="path3424" /><path
         d="m 175.81199,-6.24 0,-22.1 -6.24,-6.24 -28.34,0 0,34.58 28.34,0 6.24,-6.24 z m -6.916,-3.016 -2.496,2.496 -18.252,0 0,-21.06 18.252,0 2.496,2.496 0,16.068 z"
         style=""
         id="path3426" /><path
         d="m 220.584,-6.24 0,-22.1 -6.24,-6.24 -28.34,0 0,34.58 28.34,0 6.24,-6.24 z m -6.916,-3.016 -2.496,2.496 -18.252,0 0,-21.06 18.252,0 2.496,2.496 0,16.068 z"
         style=""
         id="path3428" /><path
         d="m 265.356,0 0,-6.76 -27.664,0 0,-7.124 20.748,0 0,-6.812 -20.748,0 0,-7.124 27.664,0 0,-6.76 -34.58,0 0,34.58 34.58,0 z"
         style=""
         id="path3430" /><path
         d="m 308.724,-3.432 0,-31.148 -6.916,0 0,27.82 -20.748,0 0,-27.82 -6.916,0 0,31.148 c 0,1.924 1.508,3.432 3.432,3.432 l 27.664,0 c 1.976,0 3.484,-1.508 3.484,-3.432 z"
         style=""
         id="path3432" /><path
         d="m 351.416,-27.82 0,-6.76 -34.58,0 0,6.76 13.832,0 0,27.82 6.916,0 0,-27.82 13.832,0 z"
         style=""
         id="path3434" /><path
         d="m 394.108,-3.432 0,-13.78 c 0,-1.924 -1.508,-3.484 -3.484,-3.484 l -24.18,0 0,-7.124 20.748,0 0,3.64 6.916,0.78 0,-7.696 c 0,-1.976 -1.508,-3.484 -3.484,-3.484 l -27.664,0 c -1.924,0 -3.432,1.508 -3.432,3.484 l 0,13.728 c 0,1.924 1.508,3.484 3.432,3.484 l 24.232,0 0,7.124 -20.748,0 0,-3.588 -6.916,-0.832 0,7.748 c 0,1.924 1.508,3.432 3.432,3.432 l 27.664,0 c 1.976,0 3.484,-1.508 3.484,-3.432 z"
         style=""
         id="path3436" /><path
         d="m 438.88,-3.432 0,-7.748 -6.916,0.832 0,3.588 -20.748,0 0,-21.06 20.748,0 0,3.64 6.916,0.78 0,-7.696 c 0,-1.976 -1.508,-3.484 -3.484,-3.484 l -27.664,0 c -1.924,0 -3.432,1.508 -3.432,3.484 l 0,27.664 c 0,1.924 1.508,3.432 3.432,3.432 l 27.664,0 c 1.976,0 3.484,-1.508 3.484,-3.432 z"
         style=""
         id="path3438" /><path
         d="m 483.65201,0 0,-34.58 -6.916,0 0,13.884 -20.748,0 0,-13.884 -6.916,0 0,34.58 6.916,0 0,-13.884 20.748,0 0,13.884 6.916,0 z"
         style=""
         id="path3440" /><path
         d="m 528.42401,0 0,-14.664 -6.916,0.832 0,7.072 -20.748,0 0,-27.82 -6.916,0 0,34.58 34.58,0 z"
         style=""
         id="path3442" /><path
         d="m 572.52,0 -15.236,-34.58 -6.916,0 -15.236,34.58 7.54,0 3.276,-7.332 15.756,0 3.276,7.332 7.54,0 z m -13.624,-13.832 -10.14,0 5.044,-11.492 5.096,11.492 z"
         style=""
         id="path3444" /><path
         d="m 615.88803,0 0,-34.58 -6.916,0 0,23.92 -20.748,-23.92 -6.916,0 0,34.58 6.916,0 0,-23.92 20.748,23.92 6.916,0 z"
         style=""
         id="path3446" /><path
         d="m 660.66,-6.24 0,-22.1 -6.24,-6.24 -28.34,0 0,34.58 28.34,0 6.24,-6.24 z m -6.916,-3.016 -2.496,2.496 -18.252,0 0,-21.06 18.252,0 2.496,2.496 0,16.068 z"
         style=""
         id="path3448" /></g></g></svg>