<?xml version="1.0" encoding="utf-8"?>
<!-- Generator: Adobe Illustrator 16.0.0, SVG Export Plug-In . SVG Version: 6.00 Build 0)  -->
<!DOCTYPE svg PUBLIC "-//W3C//DTD SVG 1.1//EN" "http://www.w3.org/Graphics/SVG/1.1/DTD/svg11.dtd">
<svg xmlns="http://www.w3.org/2000/svg" xmlns:xlink="http://www.w3.org/1999/xlink" version="1.1" id="intersport-logo" x="0px" y="0px" width="260" height="260" viewBox="0 0 350 81" enable-background="new 0 0 350 81" xml:space="preserve">
<path fill-rule="evenodd" clip-rule="evenodd" fill="#EE2727" d="M179,41.1c2.5,0.5,3.8,2,4,4.3c0.3,2.7,0.4,5.4,1.1,8  c0.6,2.2-0.7,3.6-3.1,3.8c-3,0.3-4.5-1.9-4.6-4.3c-0.1-1.6,0-3.2-0.3-4.7c-0.4-2.2-1.3-4.1-4.4-4.1c-2,0-3.9,0-5.9,0  c-0.6,0-0.7,0.3-0.7,0.8c0,2.9,0,5.7,0,8.6c0,1.4-0.4,2.7-1.8,3.4c-1.4,0.7-2.8,0.7-4.2-0.2c-1.1-0.7-1.5-1.7-1.5-2.9  c0-8.5-0.1-17.1,0-25.6c0-2.6,1.2-4,4.1-4.1c4.1-0.1,8.2-0.1,12.3,0c2.4,0,4.7,0.5,6.8,1.8c2,1.3,3,3.2,3.5,5.5  c0.5,2.8-0.1,5.2-1.9,7.4C181.5,39.9,180.3,40.5,179,41.1z M165.1,34.2C165.1,34.2,165.1,34.2,165.1,34.2c0,1.2,0,2.5,0,3.7  c0,0.4,0.1,0.7,0.6,0.6c2.6,0,5.1,0.2,7.7-0.1c2.3-0.3,3.7-2.1,3.6-4.6c-0.1-2.2-1.5-3.8-3.8-3.9c-2.5-0.1-4.9,0-7.4,0  c-0.5,0-0.6,0.2-0.6,0.6C165.1,31.8,165.1,33,165.1,34.2z M77.3,35.4c-0.4,0.3-0.2,0.6-0.2,0.9c0,5.6,0,11.1,0,16.7  c0,0.6,0,1.2-0.1,1.8c-0.3,1.5-1.3,2.5-2.8,2.5c-0.7,0-1.4,0.1-2.1-0.2c-1.3-0.5-2-1.3-2-2.8c0-9.1,0-18.2,0-27.4  c0-1.7,0.8-2.8,2.5-3.2c1.8-0.5,3.7-0.5,5.2,0.9c0.6,0.6,1,1.3,1.4,2c3.7,5.9,7.3,11.8,10.9,17.7c0.4,0.6,0.8,1.2,1.3,2  c0-0.5,0-0.8,0-1.1c0-6.1,0-12.1,0-18.2c0-1.4,0.4-2.7,1.8-3.2c1.5-0.6,3.1-0.6,4.4,0.5c0.9,0.7,1,1.9,1,3c0.1,2,0,3.9,0,5.9  c0,6.5,0,13,0,19.5c0,1.5-0.2,3.1-1.9,4c-2.4,1.3-5.4,0.6-6.8-1.6c-3.2-4.9-6.3-9.9-9.4-14.9C79.4,38.7,78.4,37,77.3,35.4z   M129.6,40.4c0,4.2,0,8.4,0,12.5c0,2.3,1.5,3.8,3.5,3.8c6,0,12.1,0,18.1,0c0.5,0,0.9-0.1,1.4-0.2c0.7-0.2,1.2-0.6,1.5-1.3  c0.9-2.1-0.2-4-2.3-4.3c-0.5-0.1-0.9-0.1-1.4-0.1c-4.2,0-8.3,0-12.5,0c-0.7,0-0.9-0.2-0.9-0.8c0-2.1,0-4.2,0-6.4  c0-0.7,0.3-0.7,0.8-0.7c3.5,0,7,0,10.5,0c0.5,0,1.1,0,1.6-0.1c1.1-0.2,1.8-1,1.9-2c0.2-1.7-0.3-2.7-1.3-3.3  c-0.7-0.3-1.4-0.3-2.2-0.3c-3.5,0-7,0-10.5,0c-0.7,0-0.9-0.2-0.9-0.8c0-1.7,0.1-3.4,0-5.1c0-0.9,0.2-1.1,1.1-1.1c4.1,0,8.1,0,12.2,0  c1.1,0,2.2-0.1,3-1c0.9-1,0.8-2.3,0.4-3.4c-0.4-1.2-1.5-1.6-2.6-1.6c-6,0-12-0.1-17.9,0c-2.3,0-3.6,1.5-3.6,3.8  C129.6,32.1,129.6,36.3,129.6,40.4C129.6,40.4,129.6,40.4,129.6,40.4z M117.7,42.7c0-3.7,0-7.5,0-11.2c0-0.8,0.2-1,1-1  c1.4,0.1,2.8,0.1,4.1,0c1.4-0.1,2.7-0.3,3.6-1.5c0.6-1,0.7-2.1,0.1-3.1c-0.6-1.2-1.8-1.7-3.1-1.7c-4.7,0-9.4,0-14,0  c-1.6,0-3.3,0-4.9,0c-1.8,0.1-3.2,1.3-3.3,3c-0.1,1.5,1,2.8,2.8,3.2c1.6,0.3,3.2,0.1,4.8,0.2c1.6,0.1,1.6,0,1.6,1.6  c0,7.2,0,14.4,0,21.5c0,1.1,0.3,2,1.1,2.8c1.3,1.2,2.9,1.2,4.4,0.6c1.5-0.6,2-1.9,2-3.4C117.7,50,117.7,46.3,117.7,42.7  C117.7,42.7,117.7,42.7,117.7,42.7z M56.3,40.5c0,1,0,1.9,0,2.9c0,3.5,0,6.9,0,10.4c0,1.2,0.4,2.3,1.4,3c1.5,0.9,3,0.9,4.4,0  c1.3-0.7,1.5-1.9,1.5-3.2c0-8.7,0-17.5,0-26.2c0-1-0.2-1.9-0.9-2.7c-1-1.1-2.9-1.4-4.4-0.8c-1.4,0.6-2.1,1.7-2.1,3.4  C56.2,31.7,56.3,36.1,56.3,40.5C56.3,40.5,56.3,40.5,56.3,40.5z M17,38.4c3.7,0,7.4-2.7,7.3-7.7c-0.1-3.7-3.1-6.8-6.9-7  c-4.4-0.2-7.9,3.5-7.6,7.2C9.5,35,13,38.4,17,38.4z"/>
<path fill-rule="evenodd" clip-rule="evenodd" fill="#1D52A3" d="M300,41.2c3.2,0.8,3.9,2.6,4,5.7c0.1,2.2,0.3,4.3,0.9,6.3  c0.7,2.7-1.2,4.1-3.2,4.2c-2.8,0.1-4.4-1.8-4.5-4.3c-0.1-1.9-0.1-3.8-0.6-5.7c-0.5-2-1.9-3.2-4-3.2c-1.9,0-3.9,0-5.8,0  c-0.8,0-1,0.2-1,1c0,2.8,0,5.6,0,8.5c0.1,3-2.6,4.4-5.3,3.5c-1.5-0.5-2.2-1.7-2.2-3.5c0-6.2,0-12.4,0-18.6c0-2.2,0-4.4,0-6.6  c0-2.9,1.3-4.2,4.2-4.2c4.1,0,8.2-0.1,12.4,0c3,0.1,5.8,0.7,8,3c2.3,2.5,2.8,5.5,1.9,8.7c-0.7,2.4-2.1,4.1-4.5,5.1  c-0.1,0-0.2,0.1-0.2,0.1C300.1,41.1,300.1,41.1,300,41.2z M285.9,34.2C285.9,34.2,285.9,34.2,285.9,34.2c0,1.2,0,2.4,0,3.6  c0,0.6,0.1,0.8,0.8,0.8c2.1,0,4.1,0,6.2,0c1.5-0.1,3.1-0.3,4.1-1.6c1.2-1.6,1.2-3.4,0.4-5.1c-0.7-1.5-2.1-1.9-3.5-2  c-2.4-0.1-4.8,0-7.2-0.1c-0.5,0-0.6,0.2-0.6,0.7C286,31.8,285.9,33,285.9,34.2z M15.3,49c0,2,0,4.1,0,6.1c0,1.1,0.7,1.9,1.9,1.9  c1.3,0,2.6-0.1,3.9-0.3c3.7-0.6,7-2.2,9.8-4.7c2-1.8,3.8-3.8,5.7-5.8c2.7-2.8,5.7-4.9,9.8-4.9c0.6,0,1.1-0.4,1.4-1  c0.3-0.6,0.2-1.2,0.2-1.8c0-3.5,0-7.1,0-10.6c0-1.6-0.8-2.4-2.4-2.3c-3.5,0.1-6.8,0.9-9.8,2.7c-3.2,1.9-5.5,4.6-8,7.2  c-2.9,3.1-6,5.6-10.6,5.6c-1.1,0-1.8,0.9-1.8,2C15.3,45.1,15.3,47.1,15.3,49C15.3,49,15.3,49,15.3,49z M246.1,40.1  c-0.1-3,0.2-6.2,1.5-9.2c1.8-4.4,5.2-6.7,9.8-7.3c2.8-0.4,5.5-0.3,8.2,0.5c3.6,1.1,6,3.5,7.4,7c0.9,2.1,1.2,4.3,1.4,6.5  c0.3,4,0,8-1.4,11.8c-1.7,4.6-5,7.3-9.9,7.9c-2.9,0.4-5.8,0.3-8.5-0.6c-4.1-1.3-6.4-4.2-7.6-8.2C246.3,45.9,246.1,43.1,246.1,40.1z   M253.6,40.8c0,1.6,0,3.2,0.1,4.8c0.2,2.3,0.9,4.4,3.3,5.3c2,0.8,4.1,0.8,6.1,0.1c2.2-0.8,3.3-2.6,3.6-4.7c0.6-4.2,0.7-8.4-0.2-12.5  c-0.4-1.9-1.4-3.3-3.3-4c-1.2-0.4-2.4-0.5-3.6-0.4c-3.1,0.2-5.1,2.1-5.6,5.1C253.6,36.6,253.6,38.7,253.6,40.8z M206.4,57  c5.4-1.1,8.6-5,8.4-10.4c-0.1-3.5-1.9-6-5.1-7.6c-2.3-1.2-4.8-1.4-7.3-2c-1.9-0.5-3.9-0.7-5.7-1.6c-1.1-0.6-1.9-1.4-1.8-2.7  c0.1-1.2,0.7-2.2,1.8-2.8c2.6-1.4,6.6-1.1,8.9,0.8c0.7,0.6,1.2,1.3,1.8,1.9c0.8,0.9,1.7,1.3,2.9,1.3c1.9,0,3.2-1.4,3.1-3.2  c-0.1-1.6-0.9-2.7-2-3.7c-2.4-2.1-5.3-3.1-8.4-3.5c-3.9-0.5-7.6,0-11,2.1c-4.2,2.5-5.2,7.8-3.4,11.8c1.1,2.5,3.4,3.8,5.9,4.5  c3.2,0.9,6.5,1.7,9.7,2.5c1.9,0.5,3,1.5,3.2,3c0.2,1.5-0.8,3-2.4,3.9c-1.5,0.8-3.1,0.8-4.7,0.7c-2.3-0.2-4.1-1.2-5.5-3.1  c-0.5-0.6-0.9-1.3-1.5-1.8c-1.1-0.9-2.3-1.2-3.7-0.6c-1.2,0.5-1.7,1.5-1.7,2.6c-0.1,1.3,0.4,2.6,1.2,3.6c1.4,1.7,3.2,2.9,5.3,3.7  c2.3,0.8,4.7,1.1,7.1,1.1C203.1,57.6,204.8,57.4,206.4,57z M218.1,41c0-4.1,0-8.2,0-12.4c0-0.7,0.1-1.4,0.2-2  c0.3-1.4,1.6-2.4,3.3-2.5c4.4,0,8.9-0.3,13.3,0.1c4.2,0.4,7.4,2.5,8.6,6.7c1.4,4.7,0,9.8-4.4,12.3c-2.2,1.2-4.6,1.6-7.1,1.6  c-1.9,0-3.8,0-5.6,0c-0.7,0-0.9,0.2-0.9,0.9c0,2.6,0,5.3,0,7.9c0,2.2-1.3,3.6-3.5,3.7c-2.3,0.1-3.9-1.3-3.9-3.5  C218.1,49.5,218.1,45.3,218.1,41C218.1,41,218.1,41,218.1,41z M229.1,29.9c-0.9,0-1.9,0-2.8,0c-0.5,0-0.8,0.1-0.8,0.7  c0,2.6,0,5.1,0,7.7c0,0.6,0.2,0.8,0.8,0.8c1.9-0.1,3.9,0,5.8-0.1c1.6-0.1,3.8-1.3,4.3-3.5c0.4-1.9-0.3-4.2-2.3-5  C232.5,29.9,230.8,29.9,229.1,29.9z M322.5,42.6c0-3.8,0-7.6,0-11.4c0-0.6,0.2-0.7,0.7-0.7c0.9,0,1.8,0,2.6,0c1.2,0,2.4,0.1,3.6-0.3  c1.1-0.4,2-1,2.2-2.3c0.2-1.2-0.1-2.3-1.2-3c-0.8-0.6-1.8-0.7-2.8-0.7c-5.9,0-11.7,0-17.6,0c-0.7,0-1.4,0.1-2.1,0.3  c-1.2,0.4-1.9,1.2-2,2.3c-0.1,1.6,0.3,2.7,1.6,3.2c0.8,0.4,1.6,0.5,2.4,0.5c1.5,0,2.9,0,4.4,0c0.5,0,0.7,0.2,0.7,0.7  c0,0.7,0,1.3,0,2c0,6.8,0,13.7,0,20.5c0,0.6,0,1.1,0.3,1.6c0.8,1.6,2.4,2.4,4.5,1.9c1.6-0.3,2.7-1.7,2.7-3.5  C322.6,50,322.5,46.3,322.5,42.6C322.5,42.6,322.5,42.6,322.5,42.6z M336.9,30.2c-1.6,0-2.9-1.3-2.9-2.9s1.3-2.9,2.9-2.9  s2.9,1.3,2.9,2.9S338.5,30.2,336.9,30.2z M336.9,25c-1.3,0-2.3,1-2.3,2.3s1,2.3,2.3,2.3s2.3-1,2.3-2.3S338.2,25,336.9,25z   M338.2,27.9c0-0.3-0.1-0.5-0.4-0.6c0,0,0,0,0,0c0,0,0,0,0,0c0.2-0.1,0.4-0.3,0.5-0.5c0.1-0.3,0-0.7-0.2-0.9  c-0.2-0.2-0.5-0.3-0.8-0.3c-0.4,0-0.9,0-1.3,0c-0.3,0-0.4,0.1-0.4,0.4c0,0.2,0,0.5,0,0.7c0,0.7,0,1.3,0,2c0,0.2,0.1,0.3,0.2,0.4  c0.3,0.1,0.6-0.1,0.6-0.4c0-0.3,0-0.6,0-0.9c0-0.1,0-0.1,0.1-0.1c0.2,0,0.4,0,0.6,0c0.2,0,0.4,0.1,0.4,0.3c0,0.2,0,0.4,0.1,0.6  c0,0.3,0.2,0.5,0.5,0.5c0.2,0,0.4-0.2,0.3-0.4C338.2,28.4,338.2,28.1,338.2,27.9z M337.4,26.9c-0.1,0.1-0.3,0.2-0.4,0.2  c-0.2,0-0.4,0-0.6,0c-0.1,0-0.1,0-0.1-0.1c0-0.1,0-0.3,0-0.4c0,0,0,0,0,0c0-0.1,0-0.3,0-0.4c0,0,0-0.1,0.1-0.1c0.3,0,0.5,0,0.8,0  c0.2,0,0.3,0.1,0.4,0.2C337.6,26.5,337.6,26.7,337.4,26.9z"/>
</svg>
