<?xml version="1.0" encoding="UTF-8"?>
<!-- Generator: Adobe Illustrator 16.0.0, SVG Export Plug-In . SVG Version: 6.00 Build 0)  -->
<svg xmlns="http://www.w3.org/2000/svg" xmlns:xlink="http://www.w3.org/1999/xlink" version="1.1" id="Ebene_1" x="0px" y="0px" width="463px" height="195.4px" viewBox="75.7 0 463 195.4" xml:space="preserve">
<g>
	<path fill="#1D1D1B" d="M482.5,172.5h-5.3c-3.6,0-6.3-0.4-7.9-1.3c-1.7-0.9-2.5-2.2-2.5-4c0-1.8,0.8-3.1,2.6-4   c1.7-0.9,4.4-1.3,7.9-1.3h11c3.7,0,6.4,0.6,8,1.8c1.6,1.2,2.4,3.1,2.4,5.8c0,7.1-2.8,12.8-8.4,17.2c-5.6,4.4-13,6.6-22.2,6.6   s-16.7-2.4-22.6-7.3c-5.8-4.9-8.8-11.2-8.8-19c0-8,3-14.4,9-19.2c6-4.7,14-7.1,24.1-7.1c6.7,0,12.4,1.1,17.1,3.2s7,4.5,7,7.2   c0,1.4-0.6,2.6-1.9,3.7c-1.3,1.1-2.7,1.6-4.5,1.6c-1.1,0-3.6-0.8-7.4-2.4c-3.8-1.6-7.5-2.4-10.8-2.4c-5.1,0-9.1,1.4-12,4.1   c-3,2.7-4.4,6.4-4.4,11.2s1.5,8.6,4.5,11.4c3,2.8,6.9,4.3,11.9,4.3c4,0,7.1-0.9,9.5-2.7C481.2,177.9,482.4,175.5,482.5,172.5z    M385.9,184.4c0,2.7-0.6,4.7-1.8,6s-3.1,2-5.6,2s-4.4-0.7-5.6-2s-1.8-3.3-1.8-6v-35.3c0-2.6,0.6-4.5,1.7-5.7   c1.1-1.2,2.9-1.9,5.2-1.9c1.5,0,2.9,0.3,4.1,0.8c1.2,0.6,2.5,1.5,3.8,2.8l27.6,27.6v-23.3c0-2.7,0.6-4.7,1.8-6.1   c1.2-1.3,3.1-2,5.6-2s4.4,0.7,5.6,2c1.2,1.3,1.8,3.3,1.8,6.1v36.1c0,2.4-0.6,4.2-1.7,5.3c-1.1,1.1-2.8,1.7-5.2,1.7   c-1.6,0-3-0.3-4.4-1c-1.3-0.7-2.7-1.7-4.2-3.1l-27-27.1L385.9,184.4L385.9,184.4z M358.9,184.4c0,2.7-0.6,4.7-1.8,6s-3.1,2-5.6,2   s-4.4-0.7-5.6-2s-1.8-3.3-1.8-6v-34.9c0-2.7,0.6-4.7,1.8-6.1c1.2-1.3,3.1-2,5.6-2s4.4,0.7,5.6,2s1.8,3.3,1.8,6.1V184.4z    M289.5,184.4c0,2.7-0.6,4.7-1.8,6s-3.1,2-5.6,2s-4.4-0.7-5.6-2s-1.8-3.3-1.8-6v-35.3c0-2.6,0.6-4.5,1.7-5.7   c1.1-1.2,2.9-1.9,5.2-1.9c1.5,0,2.9,0.3,4.1,0.8c1.2,0.6,2.5,1.5,3.8,2.8l27.6,27.6v-23.3c0-2.7,0.6-4.7,1.8-6.1   c1.2-1.3,3.1-2,5.6-2s4.4,0.7,5.6,2c1.2,1.3,1.8,3.3,1.8,6.1v36.1c0,2.4-0.6,4.2-1.7,5.3c-1.1,1.1-2.8,1.7-5.2,1.7   c-1.6,0-3-0.3-4.4-1c-1.3-0.7-2.7-1.7-4.2-3.1l-27-27.1L289.5,184.4L289.5,184.4z M220.5,184.4c0,2.7-0.6,4.7-1.9,6   c-1.2,1.3-3.1,2-5.6,2s-4.4-0.7-5.6-2s-1.8-3.3-1.8-6v-35.3c0-2.6,0.6-4.5,1.7-5.7c1.1-1.2,2.9-1.9,5.2-1.9c1.5,0,2.9,0.3,4.1,0.8   c1.2,0.6,2.5,1.5,3.9,2.8l27.6,27.6v-23.3c0-2.7,0.6-4.7,1.8-6.1c1.2-1.3,3.1-2,5.6-2s4.4,0.7,5.6,2c1.2,1.3,1.8,3.3,1.8,6.1v36.1   c0,2.4-0.6,4.2-1.7,5.3c-1.1,1.1-2.8,1.7-5.2,1.7c-1.6,0-3-0.3-4.4-1c-1.3-0.7-2.7-1.7-4.2-3.1l-27-27.1L220.5,184.4L220.5,184.4z    M186.1,142.1c3.5,0,6.2,0.4,8,1.3c1.8,0.9,2.7,2.2,2.7,4s-0.9,3.1-2.6,3.9c-1.8,0.9-4.4,1.3-8,1.3H174v8.9h10.5   c3.6,0,6.2,0.4,8,1.3c1.8,0.9,2.6,2.2,2.6,4c0,1.8-0.9,3.1-2.6,3.9c-1.8,0.9-4.4,1.3-8,1.3H174v9.3h12.6c3.6,0,6.3,0.4,8,1.3   c1.7,0.9,2.6,2.2,2.6,3.9c0,1.8-0.9,3.1-2.6,4c-1.7,0.9-4.4,1.3-8,1.3h-17.4c-3.9,0-6.5-0.5-8-1.5c-1.4-1-2.2-2.9-2.2-5.6v-34.6   c0-3,0.8-5.1,2.3-6.3c1.5-1.1,4.2-1.7,8-1.7H186.1z M118.1,165.6h6.5c3.4,0,5.9-0.5,7.7-1.7c1.7-1.1,2.6-2.7,2.6-4.9   c0-2.2-0.8-3.8-2.5-4.9s-4.3-1.6-7.7-1.6h-6.5L118.1,165.6L118.1,165.6z M118.1,184.4c0,2.7-0.6,4.7-1.8,6c-1.2,1.3-3.1,2-5.6,2   s-4.4-0.7-5.6-2c-1.2-1.3-1.9-3.3-1.9-6v-34.3c0-3,0.8-5.1,2.3-6.2s4.2-1.7,8-1.7H127c7.4,0,13.3,1.5,17.5,4.5   c4.3,3.1,6.4,7.2,6.4,12.4c0,5.3-2,9.4-6,12.4s-9.6,4.5-16.7,4.5h-10L118.1,184.4L118.1,184.4z M502.6,117.9   c0,4.3-1.9,7.8-5.8,10.4c-3.9,2.7-9,4-15.4,4c-4.9,0-9-0.7-12.5-2.1s-5.2-3-5.2-4.8c0-1.3,0.6-2.4,1.7-3.2c1.1-0.8,2.6-1.2,4.5-1.2   c0.9,0,2.9,0.4,5.8,1.1c3,0.7,5.4,1.1,7.5,1.1c1.7,0,3.2-0.4,4.4-1.3c1.2-0.8,1.8-1.9,1.8-3.1c0-1.4-0.6-2.4-1.8-3.3   c-1.2-0.8-3.8-1.7-7.7-2.6c-5.7-1.3-9.8-2.9-12-4.8c-2.3-1.8-3.4-4.3-3.4-7.4c0-4,1.8-7.2,5.5-9.8c3.7-2.5,8.4-3.8,14.3-3.8   c4.3,0,7.9,0.6,10.7,1.8c2.8,1.2,4.2,2.7,4.2,4.5c0,1.3-0.5,2.3-1.5,3c-1,0.7-2.4,1.1-4.1,1.1c-1,0-2.6-0.3-4.8-0.7   c-2.2-0.5-3.9-0.8-5-0.8c-1.9,0-3.3,0.3-4.4,1c-1.1,0.7-1.7,1.6-1.7,2.7c0,1.7,2.4,3.2,7.3,4.4l2.6,0.6c5.2,1.4,9.1,3.1,11.5,5.2   C501.4,112.2,502.6,114.8,502.6,117.9z M409.9,112.8V94.7c0-2.3,0.5-4.1,1.5-5.2s2.6-1.7,4.7-1.7s3.7,0.6,4.7,1.7   c1,1.2,1.5,2.9,1.5,5.2v17c0,3.8,0.9,6.6,2.8,8.6c1.8,1.9,4.6,2.9,8.2,2.9c3.6,0,6.4-1,8.2-2.9c1.8-1.9,2.8-4.8,2.8-8.6v-17   c0-2.3,0.5-4.1,1.5-5.2s2.6-1.7,4.7-1.7c2.1,0,3.7,0.6,4.7,1.7c1,1.2,1.5,2.9,1.5,5.2v18.1c0,6.2-2.1,11.1-6.2,14.5   c-4.1,3.4-9.9,5.2-17.2,5.2c-7.4,0-13.1-1.7-17.3-5.2C412,123.9,409.9,119,409.9,112.8z M375.5,114.1h13.1l-6.3-15.9L375.5,114.1z    M371.9,123.1l-1.9,4.3c-0.6,1.4-1.4,2.5-2.4,3.3c-1,0.8-2.2,1.1-3.5,1.1c-1.7,0-3.2-0.4-4.3-1.3c-1.1-0.9-1.7-2-1.7-3.4   c0-0.5,0.1-1.1,0.2-1.5c0.1-0.5,0.2-0.9,0.4-1.3L373,94.1c1-2.2,2.3-3.8,3.9-4.8c1.5-1,3.4-1.5,5.7-1.5c2.1,0,4,0.5,5.5,1.4   c1.6,1,2.8,2.4,3.6,4.2l13.9,30.8c0.3,0.6,0.5,1.2,0.6,1.7c0.1,0.5,0.2,1,0.2,1.4c0,1.4-0.6,2.5-1.7,3.3c-1.2,0.9-2.6,1.3-4.4,1.3   c-1.6,0-2.9-0.4-4-1.2c-1.1-0.8-1.9-2-2.5-3.6l-1.5-4H371.9z M317.9,113.9v10.9c0,2.3-0.5,4.1-1.5,5.2c-1,1.1-2.6,1.7-4.7,1.7   c-2.1,0-3.7-0.6-4.7-1.7c-1-1.1-1.5-2.9-1.5-5.2V94.7c0-2.3,0.5-4.1,1.5-5.2s2.6-1.7,4.7-1.7c2.1,0,3.7,0.6,4.7,1.7   c1,1.2,1.5,2.9,1.5,5.2v10.1h22.9V94.7c0-2.3,0.5-4.1,1.5-5.2s2.6-1.7,4.7-1.7c2.1,0,3.7,0.6,4.7,1.7c1,1.2,1.5,2.9,1.5,5.2v30.1   c0,2.3-0.5,4.1-1.5,5.2c-1,1.1-2.6,1.7-4.7,1.7c-2.1,0-3.7-0.6-4.7-1.7c-1-1.1-1.5-2.9-1.5-5.2v-10.9H317.9z M244.8,109.8   c0-6.8,2.5-12.3,7.4-16.4c4.9-4.2,11.4-6.2,19.4-6.2s14.5,2.1,19.5,6.3s7.4,9.6,7.4,16.4c0,6.8-2.5,12.3-7.4,16.4   c-4.9,4.2-11.4,6.2-19.5,6.2c-8.1,0-14.5-2.1-19.5-6.2C247.2,122.1,244.8,116.6,244.8,109.8z M258.3,109.9c0,4,1.2,7.2,3.6,9.6   c2.4,2.4,5.7,3.6,9.7,3.6s7.2-1.2,9.7-3.6c2.4-2.4,3.7-5.6,3.7-9.6c0-4.1-1.2-7.4-3.6-9.8c-2.4-2.4-5.6-3.7-9.7-3.7   s-7.3,1.2-9.7,3.7C259.5,102.5,258.3,105.8,258.3,109.9z M218.3,97.4h-4.6c-3,0-5.2-0.4-6.7-1.1c-1.4-0.7-2.2-1.9-2.2-3.4   s0.7-2.7,2.2-3.5c1.5-0.8,3.7-1.1,6.7-1.1h21.7c3,0,5.2,0.4,6.6,1.1c1.5,0.8,2.2,1.9,2.2,3.5c0,1.5-0.7,2.6-2.2,3.4   c-1.5,0.7-3.7,1.1-6.7,1.1h-4.6v27.4c0,2.3-0.5,4.1-1.5,5.2c-1,1.1-2.6,1.7-4.7,1.7c-2.1,0-3.7-0.6-4.7-1.7c-1-1.1-1.5-2.9-1.5-5.2   V97.4z M154.5,112.8V94.7c0-2.3,0.5-4.1,1.5-5.2s2.6-1.7,4.7-1.7s3.7,0.6,4.7,1.7c1,1.2,1.5,2.9,1.5,5.2v17c0,3.8,0.9,6.6,2.8,8.6   c1.8,1.9,4.6,2.9,8.2,2.9c3.6,0,6.4-1,8.2-2.9c1.9-1.9,2.8-4.8,2.8-8.6v-17c0-2.3,0.5-4.1,1.5-5.2s2.6-1.7,4.7-1.7   c2.1,0,3.7,0.6,4.7,1.7c1,1.2,1.5,2.9,1.5,5.2v18.1c0,6.2-2.1,11.1-6.2,14.5c-4.1,3.4-9.9,5.2-17.2,5.2c-7.4,0-13.1-1.7-17.3-5.2   C156.6,123.9,154.5,119,154.5,112.8z M120.1,114.1h13.1l-6.3-15.9L120.1,114.1z M116.5,123.1l-1.9,4.3c-0.6,1.4-1.4,2.5-2.4,3.3   c-1,0.8-2.2,1.1-3.6,1.1c-1.7,0-3.2-0.4-4.3-1.3c-1.1-0.9-1.7-2-1.7-3.4c0-0.5,0.1-1.1,0.1-1.5c0.1-0.5,0.3-0.9,0.5-1.3L117.4,94   c1-2.2,2.3-3.8,3.8-4.8s3.4-1.5,5.7-1.5c2.1,0,4,0.5,5.5,1.4c1.6,1,2.8,2.4,3.6,4.2l13.9,30.8c0.3,0.6,0.5,1.2,0.6,1.7   c0.1,0.5,0.2,1,0.2,1.4c0,1.4-0.6,2.5-1.7,3.3c-1.2,0.9-2.6,1.3-4.4,1.3c-1.6,0-2.9-0.4-4-1.2c-1.1-0.8-1.9-2-2.5-3.6l-1.5-4   L116.5,123.1L116.5,123.1z"></path>
</g>
<path fill="#1D1D1B" d="M85.7,113.9c0,0-6.2-35.7,29.3-41.3c0,0,34.8-7.7,57.5-6.5c0,0,22.3,1.7,47.5-12.7l54-31.8  c0,0,11-9.5,34.2-10.2l72.2-1.8c0,0,34.5,0,47,6.3c0,0,40.3,19.3,54,30.2c0,0,19.3,14.8,40.2,15.7c0,0-2.2,32.2,3.8,43.5l3.5,2.3  c0,0-3,6.7-17.2,5.5l-0.5,7.8c0,0,13.2,2.3,24.2-8.8c0,0,1.8-5.7,0.7-9.2c0,0-5.5-2.2-5.8-12.5l-1.5-35.5c0,0-29-0.2-67.2-31.3  c0,0-28.8-18.7-51.8-19.7c0,0-76.5-5.2-117,1.3c0,0-14,1.8-72,38c0,0-17.5,15.5-52.3,15c0,0-52,1.3-76,15.7c0,0-17,6.2-14.3,41.2  l7.7-0.1L85.7,113.9z"></path>
</svg>
