<?xml version="1.0" encoding="utf-8"?>
<!-- Generator: Adobe Illustrator 16.0.0, SVG Export Plug-In . SVG Version: 6.00 Build 0)  -->
<!DOCTYPE svg PUBLIC "-//W3C//DTD SVG 1.1//EN" "http://www.w3.org/Graphics/SVG/1.1/DTD/svg11.dtd">
<svg version="1.1" id="Layer_1" xmlns="http://www.w3.org/2000/svg" xmlns:xlink="http://www.w3.org/1999/xlink" x="0px" y="0px"
	  viewBox="0 0 3000 3000" enable-background="new 0 0 3000 3000" xml:space="preserve">
<g>
	<path fill="#ED5153" d="M330.287,1183.368l29.183,50.778c5.836,10.506,5.836,23.346,0,33.852l-173.929,301.748l82.295,142.412
		c12.84,22.179,36.77,36.187,62.451,36.187c25.681,0,49.61-14.008,62.451-36.187l82.295-142.412l-21.596-38.521l-93.384,161.672
		c-5.837,10.506-17.509,16.926-29.183,16.926c-12.257,0-23.346-6.42-29.183-16.926l-71.79-123.151l161.672-280.153l29.183,50.779
		c5.837,10.505,5.837,23.346,0,33.851l-112.645,195.523l22.179,38.521l122.567-212.449l80.543,139.493
		c12.257,21.595,12.257,47.859,0,69.454l-81.711,141.827c-12.256,21.596-51.362,70.039-121.399,70.039
		c-70.039,0-108.56-48.443-121.4-70.039l-81.711-141.827c-12.257-21.595-12.257-47.859,0-69.454L330.287,1183.368z"/>
	<g transform="translate(102 25)">
		<path d="M608.245,1309.534h56.614v334.433h-56.614V1309.534z"/>
		<circle cx="740.734" cy="1337.55" r="33.268"/>
		<path d="M712.135,1411.674h57.198v232.293h-57.198V1411.674z"/>
		<path d="M919.332,1405.837c-64.786,0-117.314,45.525-117.314,117.898s45.525,116.73,117.898,116.73
			c28.599,0,58.949,14.591,58.949,46.692c0,32.1-25.681,50.193-58.949,50.193c-33.269,0-60.7-19.844-60.7-50.193h-57.198
			c0,62.451,50.195,103.89,117.898,103.89c67.12,0,116.147-39.688,116.147-103.89c0-29.767-9.338-57.782-47.86-77.042
			c37.938-17.51,49.027-57.782,49.027-86.965C1037.229,1451.362,984.117,1405.837,919.332,1405.837L919.332,1405.837z
			 M919.916,1593.189c-33.269,0-60.7-28.599-60.7-69.454c0-40.272,27.432-70.039,60.7-70.039c33.268,0,60.116,30.351,60.116,70.039
			C980.032,1564.007,952.6,1593.189,919.916,1593.189z"/>
		<path d="M1202.987,1405.837c-26.265,0-51.361,8.171-72.373,34.435V1308.95h-57.198v334.434h57.198v-117.897
			c0-34.437,23.346-63.035,57.198-63.035c30.35,0,52.529,18.094,52.529,60.116v120.816h57.197v-124.901
			C1298.123,1450.195,1268.94,1405.837,1202.987,1405.837z"/>
		<path d="M1437.031,1604.279c-7.004,0-12.84-2.335-16.343-7.004c-3.501-4.669-5.252-11.673-5.252-22.18V1460.7h46.108l5.253-49.61
			h-50.777v-63.618l-57.783,6.42v57.782h-43.773v49.61h43.773v115.563c0,23.93,5.838,42.023,16.927,54.279
			c11.09,12.257,28.014,18.678,49.61,18.678c9.922,0,19.261-1.168,29.183-4.086c9.923-2.918,18.677-7.004,26.264-12.257
			l-19.843-36.771C1452.79,1601.944,1444.619,1604.279,1437.031,1604.279z"/>
		<path d="M1672.243,1519.066c-23.346-14.592-50.777-16.343-77.626-18.094c-15.759-1.168-39.688-4.669-39.688-25.098
			c0-14.591,15.176-22.763,42.606-22.763c22.18,0,41.44,5.254,57.782,20.429l32.101-37.354c-26.848-23.346-54.279-30.35-91.05-30.35
			c-42.606,0-98.638,18.676-98.638,72.373c0,22.179,11.673,42.606,30.935,54.28c21.595,13.424,49.609,15.175,73.539,18.094
			c16.343,1.75,43.191,5.836,38.521,28.599c-2.917,15.759-22.179,20.427-35.603,21.011c-14.591,0.584-29.183-0.584-43.773-4.085
			c-15.175-4.086-27.433-11.09-40.856-19.845l-29.183,36.77c1.752,1.168,3.503,2.919,3.503,2.919
			c37.354,30.934,89.299,40.856,136.574,30.35c35.603-8.171,65.953-33.852,65.953-72.372
			C1698.508,1552.334,1691.504,1530.738,1672.243,1519.066L1672.243,1519.066z"/>
		<path d="M1860.763,1405.837c-26.264,0-57.197,11.089-75.291,36.77l-1.75-31.518h-55.447v334.434l57.197-6.42v-122.567
			c16.342,25.097,51.945,33.269,76.459,33.269c74.124,0,117.315-55.447,117.315-122.567
			C1979.246,1458.95,1931.969,1405.837,1860.763,1405.837L1860.763,1405.837z M1856.094,1600.193
			c-39.104,0-65.369-35.603-65.369-71.789s24.514-74.708,65.369-74.708c41.44,0,65.37,39.105,65.37,74.708
			C1922.046,1564.591,1895.198,1600.193,1856.094,1600.193z"/>
		<path d="M2053.953,1548.249c6.42,27.431,31.516,51.36,72.373,51.36c21.012,0,49.025-10.506,62.451-23.93l36.77,36.188
			c-24.514,25.097-64.785,37.354-99.805,37.354c-72.373,0-124.902-47.859-124.902-121.983c0-70.038,54.279-121.4,120.816-121.4
			c70.039,0,128.404,47.859,122.566,142.412H2053.953z M2188.777,1504.475c-6.422-27.432-33.854-51.362-67.121-51.362
			c-30.934,0-59.533,21.013-67.703,51.362H2188.777z"/>
		<path d="M2318.932,1548.249c6.42,27.431,31.516,51.36,72.373,51.36c21.01,0,49.025-10.506,62.451-23.93l36.77,36.188
			c-24.514,25.097-64.785,37.354-99.805,37.354c-72.373,0-124.902-47.859-124.902-121.983c0-70.038,54.279-121.4,120.816-121.4
			c70.039,0,128.404,47.859,122.568,142.412H2318.932z M2454.338,1504.475c-6.42-27.432-33.852-51.362-67.119-51.362
			c-30.934,0-59.533,21.013-67.703,51.362H2454.338z"/>
		<path d="M2647.527,1649.805c26.264,0,57.197-11.09,75.291-36.771l1.752,30.934h55.447v-334.433h-57.199v129.571
			c-16.342-25.097-52.527-32.684-77.041-32.684c-74.125,0-116.732,54.863-116.732,122.566
			C2529.045,1596.691,2576.322,1649.805,2647.527,1649.805L2647.527,1649.805z M2651.613,1455.447
			c39.105,0,65.369,35.603,65.369,71.79c0,36.187-24.514,74.707-65.369,74.707c-41.439,0-65.369-39.104-65.369-74.707
			C2586.244,1491.05,2612.508,1455.447,2651.613,1455.447z"/>
	</g>
</g>
</svg>
