<?xml version="1.0" encoding="utf-8"?>
<!-- Generator: Adobe Illustrator 25.2.3, SVG Export Plug-In . SVG Version: 6.00 Build 0)  -->
<svg version="1.1" id="Warstwa_1" xmlns="http://www.w3.org/2000/svg" xmlns:xlink="http://www.w3.org/1999/xlink" x="0px" y="0px"
	 viewBox="0 0 392.8 89.3" style="enable-background:new 0 0 392.8 89.3;" xml:space="preserve">
<style type="text/css">
	.st0{fill:#231F20;}
	.st1{fill-rule:evenodd;clip-rule:evenodd;fill:#231F20;}
</style>
<g>
	<path class="st0" d="M379.2,2.9c-0.2,1-0.4,1.9-0.7,3l-1.2,4.6h-1.9l-3.3-10.3h2l1.2,4.1c0.4,1.3,0.7,2.4,0.9,3.5h0
		c0.2-1.1,0.5-2.3,0.8-3.4l1.1-4.1h1.9l1.1,4.1c0.3,1.2,0.6,2.3,0.8,3.4h0c0.3-1.2,0.6-2.4,0.9-3.5l1.2-4.1h2l-3.3,10.3h-1.9
		l-1.2-4.6C379.6,4.8,379.4,3.8,379.2,2.9L379.2,2.9z M359,2.7c-0.4,1.1-0.7,2-1,2.7l-0.4,0.9h2.7L360,5.4
		C359.7,4.6,359.4,3.7,359,2.7L359,2.7z M360.9,7.8H357l-1,2.6h-2l4.1-10.3h1.7l4.1,10.3h-2L360.9,7.8z M342.6,4.8l-2.7,1v3.1h4.8
		v1.6H338v-4l-1.1,0.4V5.3l1.1-0.4V0.2h1.9v4l2.7-1V4.8z M325.3,1.6c-0.5,0-1,0.1-1.4,0.3c-0.4,0.2-0.8,0.4-1.1,0.7
		c-0.3,0.3-0.6,0.7-0.7,1.2c-0.2,0.5-0.3,1-0.3,1.6c0,0.6,0.1,1.1,0.2,1.6c0.2,0.5,0.4,0.8,0.7,1.1c0.3,0.3,0.7,0.5,1.1,0.7
		c0.4,0.2,0.9,0.2,1.5,0.2c0.4,0,0.8,0,1.2-0.1c0.4-0.1,0.8-0.2,1.1-0.3v1.6c-0.4,0.1-0.7,0.2-1.2,0.2c-0.4,0.1-0.8,0.1-1.3,0.1
		c-0.9,0-1.6-0.1-2.3-0.4c-0.7-0.2-1.2-0.6-1.7-1.1c-0.4-0.5-0.8-1-1-1.6c-0.2-0.6-0.3-1.3-0.3-2.1c0-0.8,0.1-1.5,0.4-2.2
		c0.2-0.7,0.6-1.2,1-1.7c0.4-0.5,1-0.9,1.7-1.2c0.7-0.3,1.4-0.4,2.3-0.4c0.4,0,0.8,0,1.2,0.1c0.4,0.1,0.7,0.1,1,0.2v1.6
		c-0.4-0.1-0.8-0.2-1.1-0.3C326,1.6,325.6,1.6,325.3,1.6 M309.8,5.3c0,0.8-0.1,1.5-0.3,2.2c-0.2,0.7-0.5,1.2-1,1.7
		c-0.4,0.5-1,0.8-1.6,1.1c-0.6,0.3-1.3,0.4-2.1,0.4s-1.5-0.1-2.1-0.4c-0.6-0.3-1.1-0.6-1.6-1.1c-0.4-0.5-0.8-1-1-1.7
		c-0.2-0.7-0.3-1.4-0.3-2.2c0-0.8,0.1-1.5,0.3-2.2c0.2-0.7,0.5-1.2,1-1.7c0.4-0.5,1-0.8,1.6-1.1c0.6-0.3,1.3-0.4,2.1-0.4
		s1.5,0.1,2.1,0.4c0.6,0.3,1.1,0.6,1.6,1.1c0.4,0.5,0.8,1,1,1.7C309.7,3.8,309.8,4.5,309.8,5.3 M307.8,5.3c0-0.6-0.1-1.2-0.2-1.6
		c-0.2-0.5-0.4-0.9-0.6-1.2c-0.3-0.3-0.6-0.5-1-0.7c-0.4-0.2-0.8-0.2-1.2-0.2s-0.9,0.1-1.2,0.2c-0.4,0.2-0.7,0.4-1,0.7
		c-0.3,0.3-0.5,0.7-0.6,1.2c-0.2,0.5-0.2,1-0.2,1.6c0,0.6,0.1,1.2,0.2,1.6c0.2,0.5,0.4,0.9,0.6,1.2c0.3,0.3,0.6,0.5,1,0.7
		c0.4,0.2,0.8,0.2,1.2,0.2s0.9-0.1,1.2-0.2c0.4-0.2,0.7-0.4,1-0.7c0.3-0.3,0.5-0.7,0.6-1.2C307.7,6.5,307.8,6,307.8,5.3 M284.6,4.9
		c0.4,0,0.8,0,1.1-0.1c0.3,0,0.5-0.1,0.8-0.2c0.4-0.1,0.6-0.3,0.8-0.6c0.1-0.2,0.2-0.5,0.2-0.9c0-0.3-0.1-0.5-0.2-0.7
		c-0.1-0.2-0.3-0.4-0.6-0.5c-0.2-0.1-0.4-0.1-0.7-0.2c-0.3,0-0.6-0.1-1-0.1h-1.3v3.1H284.6z M289.4,3.3c0,0.7-0.2,1.3-0.6,1.8
		c-0.4,0.5-1,0.9-1.8,1.1v0l3.1,4.2h-2.3l-2.8-4h-1.3v4h-1.9V0.2h3.1c0.5,0,1,0,1.4,0.1c0.4,0.1,0.8,0.1,1.1,0.3
		c0.6,0.2,1.1,0.6,1.4,1C289.2,2,289.4,2.6,289.4,3.3 M264.8,2.9c-0.2,1-0.4,1.9-0.7,3l-1.2,4.6h-1.9l-3.3-10.3h2l1.2,4.1
		c0.4,1.3,0.7,2.4,0.9,3.5h0c0.2-1.1,0.5-2.3,0.8-3.4l1.1-4.1h1.9l1.1,4.1c0.3,1.2,0.6,2.3,0.8,3.4h0c0.3-1.2,0.6-2.4,0.9-3.5
		l1.2-4.1h2l-3.3,10.3h-1.9l-1.2-4.6C265.3,4.8,265.1,3.8,264.8,2.9L264.8,2.9z"/>
	<path class="st0" d="M370,63.4c-3.4,0-6.4-0.6-9.2-1.8c-2.8-1.2-5.2-2.8-7.1-4.8c-2-2-3.5-4.4-4.7-7.1c-1.1-2.7-1.7-5.6-1.7-8.7
		v-0.1c0-3.1,0.6-6,1.7-8.7c1.1-2.7,2.7-5.1,4.7-7.1c2-2.1,4.4-3.7,7.2-4.9c2.8-1.2,5.8-1.8,9.2-1.8c3.4,0,6.4,0.6,9.2,1.8
		c2.8,1.2,5.2,2.8,7.1,4.8c2,2,3.5,4.4,4.7,7.1c1.1,2.7,1.7,5.6,1.7,8.7v0.1c0,3.1-0.6,6-1.7,8.7c-1.1,2.7-2.7,5.1-4.7,7.1
		c-2,2.1-4.4,3.7-7.2,4.9C376.4,62.8,373.3,63.4,370,63.4 M370.1,56.3c2.2,0,4.1-0.4,5.9-1.2c1.8-0.8,3.3-1.9,4.6-3.3
		c1.3-1.4,2.3-3,3-4.9c0.7-1.9,1.1-3.9,1.1-6v-0.1c0-2.1-0.4-4.1-1.1-6c-0.7-1.9-1.7-3.5-3-4.9c-1.3-1.4-2.9-2.5-4.7-3.3
		c-1.8-0.8-3.8-1.2-6-1.2c-2.2,0-4.1,0.4-5.9,1.2c-1.8,0.8-3.3,1.9-4.6,3.3c-1.3,1.4-2.3,3-3,4.9c-0.7,1.9-1.1,3.9-1.1,6v0.1
		c0,2.1,0.4,4.1,1.1,6c0.7,1.9,1.7,3.5,3,4.9c1.3,1.4,2.9,2.5,4.7,3.3C365.9,55.9,367.9,56.3,370.1,56.3 M308.9,19.1h7.6V41
		l20.7-21.9h9.4l-18.1,18.7l18.9,24.8h-9.3L323.3,43l-6.8,7v12.6h-7.6V19.1z M257.8,19.1h8.1l13.2,20.6l13.2-20.6h8.1v43.5h-7.6
		V31.4l-13.7,20.5h-0.2l-13.6-20.4v31.1h-7.5V19.1z M219,19.1h32.3V26h-24.6v11.3h21.8v6.8h-21.8v11.7h24.9v6.8H219V19.1z
		 M176.9,19.1h19.4c2.7,0,5.2,0.4,7.3,1.1c2.1,0.8,3.9,1.8,5.3,3.2c1.2,1.2,2.1,2.6,2.7,4.2c0.6,1.6,0.9,3.3,0.9,5.2V33
		c0,1.8-0.3,3.4-0.8,4.8c-0.5,1.4-1.2,2.7-2.1,3.8c-0.9,1.1-2,2-3.3,2.8c-1.3,0.8-2.7,1.4-4.2,1.8l11.7,16.5h-9l-10.7-15.2h-9.6
		v15.2h-7.6V19.1z M195.8,40.7c2.7,0,4.9-0.7,6.5-2s2.4-3.1,2.4-5.3v-0.1c0-2.4-0.8-4.2-2.4-5.4c-1.6-1.2-3.8-1.8-6.6-1.8h-11.1
		v14.6H195.8z M148,18.8h7.1l19.1,43.8h-8.1l-4.4-10.5h-20.6l-4.5,10.5h-7.8L148,18.8z M158.9,45.3l-7.5-17.4l-7.5,17.4H158.9z
		 M110.9,63.2c-3.4,0-6.2-0.7-8.4-2c-2.2-1.3-4.1-3-5.5-5l5-5.2c1.3,1.6,2.6,2.9,3.9,3.8c1.3,0.9,3,1.3,4.8,1.3c2.1,0,3.7-0.7,5-2.1
		c1.3-1.4,1.9-3.5,1.9-6.4V19.1h7.8v28.7c0,2.6-0.4,4.9-1.1,6.8c-0.7,1.9-1.7,3.5-3,4.8c-1.3,1.3-2.8,2.2-4.6,2.9
		C115.1,62.9,113.1,63.2,110.9,63.2"/>
	<path class="st0" d="M37.8,79.8L37.8,79.8v-3.1h10.2l-4.3,3.1H37.8z M16.8,89.3L16.8,89.3v-7.6c0-0.6-0.1-1.1-0.4-1.4
		c-0.3-0.3-0.8-0.5-1.5-0.5h-2.3v9.5H8.5v-9.5H4.2v9.5H0V76.6h15.8c3.8,0,5.3,1.1,5.3,4v8.7H16.8z M60.9,86.2L60.9,86.2
		c1.7,0,2.2-0.1,2.6-0.4c0.7-0.5,0.9-1.2,0.9-2.8c0-1.6-0.2-2.3-0.9-2.8c-0.4-0.3-0.9-0.4-2.6-0.4h-3.7v6.5H60.9z M27.2,84L27.2,84
		c-0.6,0-1.1,0.1-1.4,0.4c-0.2,0.2-0.3,0.5-0.3,0.8c0,0.4,0.1,0.6,0.3,0.8c0.3,0.3,0.8,0.4,1.4,0.4h5.2V84H27.2z M27.2,89.3
		L27.2,89.3c-1.7,0-2.7-0.1-3.1-0.2c-1.8-0.5-2.6-2.2-2.6-3.7c0-1.4,0.7-3.2,2.7-3.7c0.6-0.2,1.4-0.2,2.5-0.2h5.7v-0.7
		c0-1-0.6-1.2-1.9-1.2h-7.9v-3h8.8c1.9,0,3.2,0.2,4.2,1.2c0.9,0.9,0.9,2,0.9,3.6v5.5l13.9-10.2h10.8c2.2,0,3.2,0.1,4.3,0.5
		c1.2,0.4,1.9,1,2.4,2c0.6,1.1,0.6,2.8,0.6,3.9s-0.1,2.8-0.6,3.9c-0.5,1-1.2,1.6-2.4,2c-1.1,0.4-2.1,0.5-4.3,0.5h-8.3V79.1l-14,10.2
		H27.2z M41.4,89.3L41.4,89.3l4.3-3.1h5.5v3.1H41.4z M74.6,84L74.6,84c-0.5,0-1.2,0-1.6,0.4c-0.2,0.2-0.3,0.5-0.3,0.8
		c0,0.4,0.1,0.6,0.3,0.8c0.4,0.4,1,0.4,1.6,0.4h5.1V84H74.6z M74.6,89.3c-1.9,0-2.9-0.1-3.2-0.2c-1.8-0.5-2.6-2.2-2.6-3.7
		c0-1.4,0.7-3.2,2.7-3.7c0.6-0.2,1.5-0.2,2.6-0.2h5.6v-0.7c0-1-0.6-1.2-1.9-1.2h-8.1v-3h9.1c1.9,0,3.2,0.2,4.2,1.2
		c0.9,0.9,0.9,2,0.9,3.6v8H74.6z"/>
	<path class="st1" d="M68.4,35.8c0,0.3,0.3,1.4,0.3,4.2c0,3.5-0.3,6.3-1,8.9c-0.8,3-2.1,5.4-3.6,7.3c-1.8,2.2-3.8,3.7-6.1,5
		c-2.6,1.4-5.3,2.1-7.9,2.5c-4.1,0.6-11.3,0.7-16.2,0.1c-3.2-0.4-7.1-1.3-10.4-3.8c-3.4-2.6-6.3-6.4-7.6-11.9
		c-0.5-2.3-0.8-4.8-0.8-8c0-1.7,0.3-4.1,0.3-4.1c-1-1.4-2.3-4.8-2.8-6.5c-2.2,5.2-2,10.7-2,11c0,4.9,0.8,8.8,2.1,12
		c0.7,2.1,3.4,3.1,4.8,3.8c2.5,1.4,4.3,3.3,5.1,3.9c4.6,4.1,10.2,5.2,19.3,5.2c7.5,0,13.1-1.3,17.7-4.3c1.8-1.1,3.7-2.6,5-4.3
		c0.5-0.6,1.5-2.1,2.8-3.1c1.5-1.1,3.8-2.5,4.5-4.7c0,0,1-3.1,1.1-7.3c0.2-4.3-0.3-8.1-1.8-12C70.8,31.2,68.8,35.1,68.4,35.8"/>
	<path class="st1" d="M16.3,19.4L16.3,19.4C22,15.1,30,12.9,41.8,13c5.5,0,10.2,0.5,14.2,1.3c1.6,0.3,3.5,0.9,4.7,1.4
		c2.7,1.1,4.3,1.8,6.8,3.9c0.7,0.5,1.3,1.1,1.9,1.7c-0.6,0.4-1.9,1-1.9,1s-0.3,0.2-0.7,0.4c-0.1-0.2-0.9-0.8-0.9-0.9
		c-1.6-1.5-5.7-4.9-13.1-6.4c-5.9-1.2-10.3-1-11-1c-6.5,0-11.9,0.8-16.1,2.3c-0.3,0.1-3.3,1.3-5.1,2.6c-1.5,1-2.7,2.2-2.8,2.3
		c-0.1,0.1-0.9,0.9-0.9,0.9c0,0-2.2-1.3-2.5-1.5C15.1,20.4,15.6,19.9,16.3,19.4 M14.1,21.4c0.3,0.4,2,1.9,2.1,2
		c0.9,0.8,1.8,1.4,2.4,1.8c0.3,0.2,0.6,0.4,0.6,0.4c0,0,0.5-0.6,0.5-0.6c0.8-1,1.5-1.8,2.7-2.9c1.4-1.2,3.2-2.3,4.7-3
		c3.7-1.7,8.5-2.6,14.8-2.7c5.3,0,9.7,0.6,13.3,2c1.9,0.7,3.2,1.4,4.6,2.4c2,1.4,3.1,2.4,4.6,4.3c0,0,0.4,0.6,0.5,0.7
		c0.1-0.1,2-1.6,2.9-2.4c0.5-0.5,1.8-1.7,2-1.9c0.2-0.2,0.3-0.3,0.5-0.6c-0.7-0.8-1.5-1.6-2.4-2.2c-5.6-4.4-13.9-6.5-26.1-6.5
		c-4.7,0-8.8,0.3-12.4,1c-2.7,0.5-5,1.1-7,1.9c-2.4,0.9-4.6,2.1-6.5,3.6c-0.8,0.6-1.6,1.3-2.2,2C13.8,21,14,21.3,14.1,21.4"/>
	<path class="st1" d="M15.6,34.8c0,0,0.5,0.8,0.6,0.9c2.8,1.6,5.9,2.4,9.1,3.3c1.7,0.5,3.3,1,4.5,1.4c4.2,1.7,7.8,5.1,10,9.2
		c0.4,0.7,0.8,1.7,1,2.3c0.5,1.1,0.7,1.5,1.2,1.5c0.6,0,0.9-0.5,1.1-1.2c0.3-0.7,0.5-1.5,0.9-2.5c1.6-3.9,4.8-7,9.6-9.2
		c2.6-1.3,6.5-2.3,6.6-2.3c1.5-0.4,4.7-1.1,7.6-2.8c0.1-0.2,0.9-2,1.4-3.1c0.5-1,1.1-2.6,1.3-3.3c-2.3,1.3-6.2,3.4-10.3,4.8
		c-2,0.7-7.8,2.5-10.5,4.8c-2.7,2.2-3.3,3-4.7,4.9c-1.2,1.5-1.9,2.9-2.4,3.9c-0.2,0.3-0.5,1.2-0.6,1.3c0,0.1-0.1,0.2-0.2,0.2l0,3.8
		c-0.4-0.5-1.1-2.4-1.8-3.6c-0.8-1.4-2.1-3.1-3.6-4.7c-1.6-1.7-3.7-3.3-6.1-4.2c-1.1-0.5-4.6-1.6-7.4-2.4c1.8,0.5,3.5,0.9,5,1.3
		c1.6,0.4,3.2,0.8,4.1,1.2c2.6,1.2,4.5,2.5,6,3.9c1.3,1.2,2.2,2.4,2.8,3.6c0.1,0.1,0.2,0,0.1-0.1c-0.6-1.3-2.4-4-2.4-4
		s-1.2-1.7-3.7-4c-1-0.8-2.1-2-6.3-3.5c-0.6-0.2-1.6-0.6-2.6-0.9c-2.1-0.7-4-1.4-5.4-2c-0.8-0.3-1.8-0.8-2.3-1c-2-0.8-2.1-0.9-5.5-3
		c0,0,0.6,1.9,1,2.9C14.6,33,15.2,34.2,15.6,34.8"/>
	<path class="st1" d="M72.9,48.7L72.9,48.7c-0.5,2.4-1.9,5-2.7,6.3c-2.1,3.6-4.9,5.7-6.4,6.8c-4.3,2.9-9.3,4.2-13.2,4.6
		c-3.2,0.5-6.2,0.6-8.7,0.6c-1.7,0-5.2-0.1-10.2-0.7c-5.9-0.8-10.7-2.9-14.3-6.2c-0.7-0.7-1.3-1.3-1.9-2c-0.3-0.4-0.6-0.8-0.9-1.2
		c-0.4-0.5-0.7-1-1-1.4c-0.4-0.5-1-1.1-1.4-1.3c-0.5-0.2-0.9-0.3-1.3-0.5c-1.3-0.6-1.6-2.1-1.9-2.8c-1-3-1.6-6.4-1.7-10.2
		C7,34.3,8.9,28.2,12.3,23.5c0.1-0.2,0.3-0.4,0.4-0.6c0.1,0.1,0.2,0.3,0.4,0.5c0.7,0.9,1.7,1.9,4.8,3.9c0,0,1.6,1.1,3.7,2.1
		c0.9,0.4,2,0.9,3,1.4c3.1,1.4,6.7,2.9,8.6,4.1c1,0.6,2.3,1.7,3.1,2.5c1,1,1.5,1.7,2.1,2.5c0.2,0.2,0.5,0.5,0.8,1
		c0.5,1,1,1.9,1.4,2.8c0.7,1.6,1.1,3.4,1.3,4.2c0,0.1,0.1,0.1,0.1-0.1c0-0.1,0.2-1.3,0.3-1.9c0.2-0.8,0.3-1.4,0.5-1.9
		c0.3-0.9,1.2-2.5,1.5-2.9c1.7-2.5,3.9-4.8,5.7-6c2.3-1.5,5.6-2.8,8.8-4.1c1.5-0.6,3-1.2,4.1-1.7c1.6-0.7,3-1.6,3-1.6
		c2.5-1.6,4.5-3.7,5.3-4.5c0.1,0.4,0.1,1,0.1,1.7c0,0.7,0,1.4,0,2.2c0,0.6-0.1,1.1-0.1,1.3c0,0,0.2,0.2,0.2,0.3
		c1.7,3.6,2.4,7.1,2.4,11.6C73.9,43.3,73.5,45.9,72.9,48.7 M71.4,22.5C71.4,22.5,71.4,22.5,71.4,22.5l-0.2-0.2
		c-2.8,3-5.6,4.8-5.6,4.8c-0.2,0.1-1.3,0.9-2.9,1.6c-1.1,0.5-2.9,1.2-3.9,1.6c-2.4,1-6.7,2.6-9.2,4.3c-1.4,0.9-2.9,2.3-4.4,4.1
		c-1.5,1.7-2.4,3.4-2.7,3.9c0,0.1-0.3,0.4-0.3,0.5c-0.1,0.1-0.2,0.2-0.3,0.1c-0.1,0-0.2-0.1-0.5-0.6c-1.7-3.1-4.2-6-7-7.9
		c-1.7-1.2-5.7-3-9.3-4.6c-1-0.4-2.1-0.9-3-1.4c-1.9-0.9-3.6-1.9-3.6-1.9c-3.8-2.5-5.2-4.5-5.6-5.1c-1.4,1.6-4.2,5.3-5.6,11.5
		c-0.6,2.6-0.7,5.3-0.7,7.3c0.3,9.4,3.1,16.4,8.7,21c5.7,4.8,15.2,7.4,26.7,7.4c11.2,0,20.6-2.7,26.4-7.5c5.7-4.7,8.5-11.4,8.8-20.8
		C77.4,34,75.2,27.3,71.4,22.5"/>
</g>
</svg>
