<?xml version="1.0" encoding="utf-8"?>
<!-- Generator: Adobe Illustrator 26.2.1, SVG Export Plug-In . SVG Version: 6.00 Build 0)  -->
<svg version="1.1" id="Layer_1" xmlns="http://www.w3.org/2000/svg" xmlns:xlink="http://www.w3.org/1999/xlink" x="0px" y="0px"
	 viewBox="0 0 873.25 152.34" style="enable-background:new 0 0 873.25 152.34;" xml:space="preserve">
<style type="text/css">
	.st0{stroke:#000000;stroke-width:0.5;stroke-miterlimit:10;}
	.st1{fill:none;stroke:#000000;stroke-width:13.1;stroke-miterlimit:10;}
	.st2{fill:#278541;}
</style>
<g>
	<path id="XMLID_14_" class="st0" d="M147.59,137.14h-12.64V32.43h-0.16L89.39,137.14H77.84L32.75,33.21v103.92H20.11V14.96h18.1
		l45.72,104.71l45.25-104.71h18.41V137.14z"/>
	<path id="XMLID_12_" class="st0" d="M279.32,14.96l-47.43,70.53v51.65h-12.95V85.64l-47.28-70.69h15.45l38.54,58.36l39.01-58.36
		H279.32z"/>
	<path id="XMLID_10_" class="st0" d="M321.41,76.7c0-36.38,28.08-61.6,61.48-61.6s50.4,22.93,54.61,39.44l-12.32,4.28
		c-1.87-7.8-12.33-31.64-42.6-31.64c-25.9,0-47.75,19.87-47.75,48.76c0,28.43,20.29,49.52,47.9,49.52
		c29.49,0,39.48-22.01,42.91-32.1l12.33,4.43c-4.37,14.67-20.29,39.58-55.71,39.58C348.56,137.38,321.41,112.77,321.41,76.7z"/>
	<path id="XMLID_9_" class="st0" d="M601.95,15.1h43.85c22.31,0,39.32,10.77,39.32,30.74c0,5.46-1.4,20.29-18.57,27.93
		c18.1,4.68,24.03,20.59,24.03,29.96c0,23.56-20.13,33.55-43.22,33.55h-45.41V15.1z M614.59,69.4h29.18
		c20.12,0,28.39-10.14,28.39-22.16c0-14.82-13.42-20.44-27.46-20.44h-30.12V69.4z M614.59,125.58h33.08c13.26,0,29.8-5.3,29.8-22.78
		c0-17.32-17.94-22-32.14-22h-30.74V125.58z"/>
	<path id="XMLID_19_" class="st0" d="M726.58,15.1v122.18h-12.8V15.1H726.58z"/>
	<path id="XMLID_21_" class="st0" d="M853.14,15.1v122.18h-13.73L766.23,33.2v104.08h-12.64V15.1h14.83l72.09,102.05V15.1H853.14z"
		/>
	<polyline id="XMLID_23_" class="st1" points="471.67,137.28 471.67,58.28 522.1,16.49 568.69,59.37 568.69,137.28 	"/>
	
		<rect id="XMLID_42_" x="506.18" y="76.79" transform="matrix(-1.836970e-16 1 -1 -1.836970e-16 610.9653 -429.3904)" class="st2" width="27.99" height="27.99"/>
</g>
</svg>
