<?xml version="1.0" encoding="utf-8"?>
<!-- Generator: Adobe Illustrator 22.1.0, SVG Export Plug-In . SVG Version: 6.00 Build 0)  -->
<svg version="1.1" id="Capa_1" xmlns="http://www.w3.org/2000/svg" xmlns:xlink="http://www.w3.org/1999/xlink" x="0px" y="0px"
	 viewBox="0 0 500 82" style="enable-background:new 0 0 500 82;" xml:space="preserve">
<style type="text/css">
	.st0{fill:#FFFFFF;}
	.st1{fill:#F9B200;}
</style>
<g>
	<path class="st0" d="M155.8,45.9c-1.7,12-10.5,18.8-20.3,18.8s-16.6-6.8-14.9-18.8s10.5-19,20.3-19C150.6,26.9,157.5,34,155.8,45.9
		 M143.3,9.8c-20,0-38.6,14.4-41.5,36.1c-3.1,21.7,11.3,35.9,31.3,35.9s38.3-14.2,41.5-35.9C177.5,24.2,163.3,9.8,143.3,9.8"/>
	<path class="st0" d="M400.5,28.1h25.6l2.4-16.6h-25.6L404.4,0h-11.2l-6.8,11.5l-8.5,5.6l-1.5,11h5.6L377.9,57
		c-2.7,19.3,4.6,27.1,41.5,23.4l2.4-16.8c-23.2,2.9-26.1-1.2-24.9-10L400.5,28.1z"/>
	<path class="st0" d="M74.4,51.5L43.8,6.9C41.1,3,37.7,2,31.4,2H20.8L9.4,80.3h20l7-49.9l31.3,45.8c2,2.9,4.9,4.1,9.3,4.1h13.2
		l11.1-78.5h-20L74.4,51.5z"/>
	<path class="st0" d="M226.3,11.5c-13.9-1.1-18,2.1-25.7,11.9l-0.1-11.9h-14.4l-9.8,68.8h18.5l5.1-35.9c2-12.1,8.6-15.2,23.7-14.1
		L226.3,11.5z"/>
	<path class="st0" d="M348,48.5c-1.7,12.9-7.8,17.6-16.4,17.6c-9.5,0-13.7-4.6-12-17.6l5.1-36.8h-18.5l-5.4,37.8
		c-3.4,24.6,9.3,32.5,28.1,32.5c18.3,0,33.9-7.8,37.3-32.5l5.4-37.8h-18.5L348,48.5z"/>
	<path class="st0" d="M271.2,63c-2.7,1.2-5.9,2.4-12,2.4c-12.4,0-18.1-7.1-16.3-19.5c1.7-12,10.3-18.5,22-18.5c4.4,0,8.1,0.7,11,2
		L271.2,63z M223.3,46.4c-3.2,23.2,9.5,35.1,26.8,35.1c7.4,0,15.5-2.4,21.2-8.1l0.2,6.9h15.6l8.8-63.4c-8.3-4.1-16.8-6.3-29-6.3
		C246.3,10.5,226.8,22.5,223.3,46.4"/>
	<path class="st1" d="M480.5,45.9c-1.7,12-10.5,18.8-20.3,18.8s-16.6-6.8-14.9-18.8s10.5-19,20.3-19C475.4,26.9,482.2,34,480.5,45.9
		 M468.1,9.8c-20,0-38.6,14.4-41.5,36.1c-3.2,21.7,11.2,35.9,31.2,35.9s38.3-14.2,41.5-35.9C502.2,24.2,488.1,9.8,468.1,9.8"/>
</g>
</svg>
