<?xml version="1.0" encoding="utf-8"?>
<!-- Generator: Adobe Illustrator 16.0.0, SVG Export Plug-In . SVG Version: 6.00 Build 0)  -->
<!DOCTYPE svg PUBLIC "-//W3C//DTD SVG 1.1//EN" "http://www.w3.org/Graphics/SVG/1.1/DTD/svg11.dtd">
<svg version="1.1" id="Layer_1" xmlns="http://www.w3.org/2000/svg" xmlns:xlink="http://www.w3.org/1999/xlink" x="0px" y="0px"
	  viewBox="0 0 3000 3000" enable-background="new 0 0 3000 3000" xml:space="preserve">
<g transform="matrix(3.79 0 0 3.79 -3175.436 -234.627)">
	<path fill="#1961B5" d="M1173.739,491.343h-15.45v-21.811h14c10.631,0,14.985,2.904,14.985,10.369
		c0,7.643-3.632,11.484-13.536,11.484 M1178.564,443.917h-54.127V546.75h33.805v-30.691h25.189
		c19.339,0,37.309-12.805,37.309-35.171c0-26.342-19.933-36.925-42.172-36.925"/>
	<path fill="#1961B5" d="M1233.588,546.708h35.171V444.005h-35.171V546.708z"/>
	<path fill="#1961B5" d="M1479.206,444.005v27.489h30.179v75.258h35.132v-75.345h30.051v-27.362"/>
	<path fill="#1961B5" d="M1325.236,444.005h-35.218v102.703h68.343v-26.636h-33.125"/>
	<path fill="#1961B5" d="M1417.952,519.047c-14.77,0-23.051-9.647-23.051-23.692c0-14.511,9.39-23.604,23.051-23.604
		c14.597,0,23.18,9.647,23.18,23.648C1441.132,510.041,1432.084,519.047,1417.952,519.047 M1418.423,442.169
		c-30.694,0-57.247,20.403-57.247,53.057c0,31.631,23.991,53.361,57.247,53.361c31.631,0,56.773-20.192,56.773-53.06
		C1475.195,463.98,1451.205,442.169,1418.423,442.169"/>
	<path fill="#1961B5" d="M940.544,546.625h93.95V479.99c-32.314,34.19-62.063,49.813-93.95,62.534"/>
	<path fill="#1961B5" d="M940.544,538.469c56.987-23.988,82.127-63.9,77.006-82.811c-3.075-11.396-13.533-18.015-38.546-11.312
		c-10.927,2.989-24.76,10.545-38.46,19.634"/>
	<path fill="#1961B5" d="M897.429,488.742c23.347-29.755,81.956-87.039,132.457-87.039c31.288,0,29.922,22.239,25.783,39.313
		c15.239-16.861,19.637-35.515,19.637-44.311c0-12.249-8.752-29.922-32.698-29.922c-56.302,0-125.244,80.891-145.176,117.176
		c-5.338,9.519-7.258,14.171,0,4.822"/>
</g>
</svg>
