<?xml version="1.0" encoding="UTF-8" standalone="no"?>
<svg preserveAspectRatio="xMinYMin meet" viewBox="0 0 886 177" version="1.1" xmlns="http://www.w3.org/2000/svg" xmlns:xlink="http://www.w3.org/1999/xlink" xmlns:sketch="http://www.bohemiancoding.com/sketch/ns">
    <!-- Generator: Sketch 3.3 (11970) - http://www.bohemiancoding.com/sketch -->
    <title>shield-logo-mono-whitetext</title>
    <desc>Created with Sketch.</desc>
    <defs></defs>
    <g id="Page-1" stroke="none" stroke-width="1" fill="none" fill-rule="evenodd" sketch:type="MSPage">
        <g id="shield-logo-mono-whitetext" sketch:type="MSLayerGroup" fill="#455A64">
            <g id="Group" sketch:type="MSShapeGroup">
                <g transform="translate(222.000000, 47.000000)" id="Shape">
                    <path d="M7.95,53.888 L7.95,87.71 L0.935,87.71 L0.935,4.666 L29.225,4.666 C33.787,4.666 37.808,5.274 41.288,6.491 C44.767,7.708 47.685,9.41 50.042,11.596 C52.399,13.782 54.178,16.395 55.375,19.438 C56.572,22.48 57.172,25.827 57.172,29.476 C57.172,33.318 56.572,36.749 55.375,39.771 C54.178,42.793 52.409,45.352 50.07,47.441 C47.733,49.534 44.813,51.13 41.316,52.232 C37.817,53.336 33.787,53.886 29.225,53.886 L7.95,53.886 L7.95,53.888 Z M7.95,47.957 L29.224,47.957 C32.911,47.957 36.087,47.492 38.748,46.561 C41.41,45.628 43.577,44.337 45.25,42.683 C46.922,41.029 48.159,39.081 48.957,36.836 C49.757,34.593 50.156,32.18 50.156,29.593 C50.156,27.046 49.757,24.622 48.957,22.322 C48.159,20.021 46.922,18.006 45.25,16.276 C43.578,14.545 41.41,13.177 38.748,12.17 C36.086,11.163 32.911,10.659 29.224,10.659 L7.95,10.659 L7.95,47.957 L7.95,47.957 Z"></path>
                    <path d="M97.685,31.816 C96.24,31.55 94.699,31.417 93.065,31.417 C90.746,31.417 88.655,31.759 86.791,32.443 C84.927,33.128 83.283,34.089 81.859,35.324 C80.433,36.559 79.236,38.024 78.265,39.716 C77.296,41.408 76.526,43.28 75.956,45.333 L75.956,87.71 L69.168,87.71 L69.168,25.997 L75.841,25.997 L75.956,35.807 C77.628,32.424 79.899,29.752 82.772,27.794 C85.641,25.836 89.169,24.856 93.352,24.856 C94.188,24.856 95.043,24.932 95.919,25.085 C96.793,25.236 97.438,25.408 97.857,25.597 L97.685,31.816 L97.685,31.816 Z"></path>
                    <path d="M101.581,55.941 C101.581,51.456 102.236,47.31 103.548,43.508 C104.86,39.706 106.713,36.426 109.109,33.67 C111.505,30.914 114.394,28.756 117.779,27.196 C121.164,25.637 124.927,24.857 129.072,24.857 C133.293,24.857 137.105,25.637 140.508,27.196 C143.911,28.755 146.81,30.913 149.206,33.67 C151.602,36.427 153.445,39.706 154.739,43.508 C156.031,47.31 156.679,51.456 156.679,55.941 L156.679,57.823 C156.679,62.312 156.031,66.456 154.739,70.258 C153.446,74.06 151.602,77.34 149.206,80.096 C146.81,82.852 143.921,85 140.536,86.541 C137.151,88.08 133.369,88.85 129.187,88.85 C125.005,88.85 121.221,88.08 117.838,86.541 C114.453,85 111.554,82.852 109.14,80.096 C106.724,77.34 104.861,74.06 103.549,70.258 C102.237,66.456 101.582,62.312 101.582,57.823 L101.582,55.941 L101.581,55.941 Z M108.426,57.823 C108.426,61.208 108.882,64.431 109.794,67.492 C110.707,70.553 112.037,73.234 113.787,75.533 C115.534,77.834 117.702,79.669 120.289,81.037 C122.874,82.405 125.84,83.09 129.186,83.09 C132.531,83.09 135.488,82.405 138.055,81.037 C140.622,79.669 142.78,77.833 144.529,75.533 C146.278,73.234 147.61,70.552 148.521,67.492 C149.434,64.431 149.891,61.208 149.891,57.823 L149.891,55.941 C149.891,52.633 149.434,49.449 148.521,46.389 C147.61,43.328 146.278,40.637 144.529,38.318 C142.78,35.999 140.602,34.145 137.999,32.757 C135.394,31.369 132.418,30.676 129.072,30.676 C125.764,30.676 122.828,31.369 120.261,32.757 C117.694,34.145 115.535,35.999 113.787,38.318 C112.036,40.637 110.706,43.329 109.794,46.389 C108.881,49.45 108.426,52.633 108.426,55.941 L108.426,57.823 L108.426,57.823 Z"></path>
                    <path d="M176.078,25.997 L176.078,95.068 C176.078,100.772 174.708,105.124 171.972,108.128 C169.234,111.132 165.203,112.635 159.879,112.635 C158.93,112.635 157.922,112.539 156.857,112.349 C155.793,112.158 154.804,111.893 153.891,111.551 L154.006,105.904 C154.653,106.095 155.451,106.265 156.402,106.418 C157.351,106.569 158.264,106.646 159.138,106.646 C162.408,106.646 164.918,105.695 166.667,103.795 C168.416,101.893 169.29,98.984 169.29,95.069 L169.29,25.998 L176.078,25.998 L176.078,25.997 Z M168.094,8.146 C168.094,6.854 168.501,5.76 169.319,4.866 C170.137,3.973 171.267,3.526 172.714,3.526 C174.197,3.526 175.356,3.973 176.192,4.866 C177.028,5.76 177.447,6.854 177.447,8.146 C177.447,9.439 177.028,10.523 176.192,11.398 C175.356,12.272 174.197,12.71 172.714,12.71 C171.268,12.71 170.137,12.273 169.319,11.398 C168.501,10.524 168.094,9.44 168.094,8.146 L168.094,8.146 Z"></path>
                    <path d="M216.766,88.851 C212.736,88.851 209.029,88.1 205.644,86.598 C202.259,85.097 199.342,83.005 196.89,80.324 C194.438,77.644 192.526,74.459 191.158,70.77 C189.788,67.083 189.105,63.033 189.105,58.623 L189.105,56.171 C189.105,51.418 189.818,47.111 191.243,43.252 C192.669,39.393 194.599,36.104 197.033,33.384 C199.465,30.666 202.27,28.565 205.445,27.082 C208.62,25.599 211.975,24.858 215.511,24.858 C219.428,24.858 222.907,25.563 225.949,26.969 C228.99,28.375 231.546,30.334 233.619,32.842 C235.692,35.352 237.26,38.338 238.325,41.798 C239.389,45.258 239.921,49.041 239.921,53.147 L239.921,57.311 L195.89,57.311 L195.89,58.623 C195.89,62.008 196.404,65.191 197.431,68.175 C198.457,71.161 199.901,73.756 201.765,75.96 C203.629,78.166 205.853,79.907 208.438,81.18 C211.023,82.453 213.894,83.09 217.051,83.09 C220.702,83.09 223.923,82.425 226.718,81.093 C229.513,79.763 232.051,77.633 234.332,74.706 L238.609,77.956 C237.583,79.439 236.395,80.847 235.045,82.177 C233.695,83.509 232.126,84.667 230.34,85.656 C228.551,86.645 226.536,87.423 224.294,87.995 C222.051,88.566 219.543,88.851 216.766,88.851 L216.766,88.851 Z M215.511,30.676 C212.926,30.676 210.53,31.17 208.326,32.159 C206.12,33.148 204.17,34.555 202.479,36.38 C200.787,38.204 199.399,40.4 198.316,42.967 C197.232,45.534 196.499,48.377 196.12,51.494 L233.136,51.494 L233.136,50.753 C233.06,48.168 232.641,45.668 231.881,43.254 C231.12,40.838 230.007,38.701 228.545,36.837 C227.08,34.975 225.265,33.482 223.097,32.36 C220.931,31.236 218.401,30.676 215.511,30.676 L215.511,30.676 Z"></path>
                    <path d="M275.454,83.09 C277.622,83.09 279.703,82.776 281.7,82.149 C283.697,81.522 285.474,80.6 287.033,79.383 C288.592,78.166 289.876,76.665 290.883,74.878 C291.89,73.091 292.471,71.018 292.622,68.661 L299.182,68.661 C299.029,71.59 298.298,74.288 296.986,76.76 C295.674,79.232 293.944,81.362 291.796,83.147 C289.646,84.936 287.166,86.332 284.352,87.34 C281.539,88.347 278.573,88.851 275.455,88.851 C271.121,88.851 267.319,88.061 264.049,86.484 C260.777,84.908 258.031,82.73 255.807,79.954 C253.583,77.179 251.909,73.918 250.788,70.172 C249.666,66.428 249.106,62.387 249.106,58.053 L249.106,55.657 C249.106,51.321 249.666,47.282 250.788,43.536 C251.908,39.792 253.573,36.54 255.779,33.784 C257.983,31.026 260.731,28.85 264.021,27.252 C267.309,25.656 271.101,24.856 275.399,24.856 C278.707,24.856 281.778,25.37 284.611,26.397 C287.444,27.423 289.916,28.887 292.025,30.787 C294.135,32.689 295.817,35 297.072,37.718 C298.327,40.436 299.03,43.47 299.183,46.815 L292.623,46.815 C292.472,44.305 291.93,42.062 290.997,40.085 C290.066,38.108 288.831,36.416 287.29,35.008 C285.751,33.602 283.964,32.528 281.929,31.786 C279.896,31.045 277.718,30.674 275.399,30.674 C271.863,30.674 268.869,31.357 266.417,32.727 C263.963,34.095 261.958,35.94 260.399,38.26 C258.84,40.579 257.709,43.241 257.006,46.245 C256.301,49.249 255.95,52.386 255.95,55.656 L255.95,58.052 C255.95,61.36 256.301,64.526 257.006,67.548 C257.709,70.57 258.831,73.234 260.371,75.533 C261.91,77.834 263.925,79.669 266.417,81.037 C268.904,82.406 271.918,83.09 275.454,83.09 L275.454,83.09 Z"></path>
                    <path d="M321.983,10.199 L321.983,25.997 L334.759,25.997 L334.759,31.588 L321.983,31.588 L321.983,72.71 C321.983,74.878 322.202,76.617 322.64,77.928 C323.077,79.24 323.667,80.267 324.409,81.008 C325.151,81.749 326.005,82.243 326.974,82.491 C327.945,82.739 328.961,82.862 330.026,82.862 C331.052,82.862 332.041,82.796 332.992,82.663 C333.941,82.53 334.797,82.405 335.559,82.292 L335.843,87.881 C335.007,88.185 333.913,88.423 332.565,88.594 C331.213,88.765 329.874,88.85 328.544,88.85 C326.604,88.85 324.809,88.594 323.154,88.08 C321.5,87.566 320.082,86.682 318.905,85.428 C317.726,84.173 316.804,82.51 316.139,80.437 C315.472,78.364 315.14,75.789 315.14,72.708 L315.14,31.586 L303.79,31.586 L303.79,25.995 L315.139,25.995 L315.139,10.197 L321.983,10.197 L321.983,10.199 Z"></path>
                    <path d="M428.238,67.292 C428.238,65.009 427.867,62.985 427.126,61.217 C426.385,59.448 425.129,57.832 423.361,56.369 C421.594,54.904 419.265,53.564 416.375,52.348 C413.484,51.131 409.872,49.914 405.538,48.697 C401.355,47.518 397.59,46.237 394.245,44.847 C390.899,43.461 388.057,41.835 385.718,39.971 C383.379,38.109 381.574,35.96 380.3,33.526 C379.025,31.094 378.388,28.241 378.388,24.971 C378.388,21.777 379.073,18.868 380.441,16.245 C381.811,13.622 383.729,11.367 386.203,9.486 C388.673,7.604 391.621,6.141 395.042,5.094 C398.465,4.05 402.209,3.526 406.278,3.526 C410.65,3.526 414.595,4.173 418.113,5.464 C421.629,6.757 424.625,8.526 427.097,10.769 C429.567,13.013 431.469,15.637 432.799,18.641 C434.131,21.645 434.796,24.877 434.796,28.336 L427.724,28.336 C427.724,25.636 427.249,23.138 426.298,20.837 C425.347,18.536 423.961,16.55 422.135,14.876 C420.31,13.204 418.065,11.892 415.404,10.941 C412.742,9.992 409.702,9.515 406.279,9.515 C402.858,9.515 399.844,9.924 397.239,10.742 C394.634,11.56 392.468,12.662 390.737,14.05 C389.006,15.438 387.695,17.064 386.802,18.926 C385.908,20.79 385.462,22.768 385.462,24.858 C385.462,26.836 385.833,28.662 386.574,30.334 C387.315,32.008 388.559,33.556 390.309,34.982 C392.058,36.408 394.359,37.74 397.21,38.975 C400.061,40.21 403.579,41.379 407.761,42.483 C412.133,43.7 416.032,45.03 419.453,46.475 C422.876,47.921 425.765,49.622 428.123,51.58 C430.48,53.538 432.267,55.791 433.484,58.338 C434.701,60.887 435.309,63.834 435.309,67.179 C435.309,70.564 434.596,73.596 433.169,76.276 C431.744,78.958 429.766,81.23 427.237,83.092 C424.708,84.956 421.696,86.382 418.197,87.369 C414.699,88.358 410.897,88.852 406.791,88.852 C404.319,88.852 401.837,88.643 399.348,88.225 C396.856,87.806 394.46,87.169 392.161,86.313 C389.86,85.458 387.712,84.366 385.716,83.035 C383.719,81.703 381.989,80.117 380.526,78.272 C379.061,76.428 377.903,74.317 377.047,71.941 C376.191,69.565 375.764,66.912 375.764,63.985 L382.779,63.985 C382.779,67.483 383.5,70.439 384.947,72.854 C386.392,75.268 388.255,77.216 390.536,78.699 C392.817,80.182 395.384,81.257 398.236,81.922 C401.087,82.587 403.938,82.919 406.791,82.919 C410.023,82.919 412.959,82.548 415.602,81.807 C418.245,81.066 420.508,80.01 422.39,78.642 C424.272,77.274 425.717,75.63 426.726,73.708 C427.732,71.789 428.238,69.65 428.238,67.292 L428.238,67.292 Z"></path>
                    <path d="M455.055,36.436 C456.119,34.687 457.354,33.099 458.762,31.673 C460.168,30.247 461.718,29.031 463.41,28.022 C465.101,27.016 466.926,26.237 468.886,25.685 C470.843,25.133 472.926,24.857 475.13,24.857 C478.211,24.857 480.967,25.276 483.401,26.112 C485.833,26.948 487.896,28.28 489.589,30.105 C491.281,31.929 492.575,34.278 493.467,37.149 C494.361,40.02 494.809,43.49 494.809,47.557 L494.809,87.71 L488.021,87.71 L488.021,47.501 C488.021,44.306 487.679,41.646 486.994,39.516 C486.311,37.386 485.34,35.676 484.086,34.382 C482.831,33.089 481.3,32.168 479.494,31.616 C477.687,31.066 475.682,30.788 473.476,30.788 C471.042,30.788 468.838,31.197 466.861,32.015 C464.883,32.833 463.134,33.925 461.613,35.295 C460.092,36.663 458.78,38.233 457.678,40 C456.574,41.769 455.7,43.584 455.055,45.448 L455.055,87.71 L448.267,87.71 L448.267,0.103 L455.055,0.103 L455.055,36.436 L455.055,36.436 Z"></path>
                    <path d="M509.476,8.146 C509.476,6.854 509.893,5.76 510.731,4.866 C511.567,3.973 512.708,3.526 514.152,3.526 C515.597,3.526 516.747,3.973 517.603,4.866 C518.457,5.76 518.886,6.854 518.886,8.146 C518.886,9.439 518.457,10.523 517.603,11.398 C516.747,12.272 515.596,12.71 514.152,12.71 C512.707,12.71 511.567,12.273 510.731,11.398 C509.893,10.524 509.476,9.44 509.476,8.146 L509.476,8.146 Z M517.517,87.71 L510.673,87.71 L510.673,25.997 L517.517,25.997 L517.517,87.71 L517.517,87.71 Z"></path>
                    <path d="M557.908,88.851 C553.878,88.851 550.171,88.1 546.786,86.598 C543.401,85.097 540.484,83.005 538.032,80.324 C535.58,77.644 533.668,74.459 532.3,70.77 C530.93,67.083 530.247,63.033 530.247,58.623 L530.247,56.171 C530.247,51.418 530.96,47.111 532.385,43.252 C533.811,39.393 535.741,36.104 538.175,33.384 C540.607,30.666 543.412,28.565 546.587,27.082 C549.762,25.599 553.117,24.858 556.653,24.858 C560.57,24.858 564.049,25.563 567.091,26.969 C570.132,28.375 572.688,30.334 574.761,32.842 C576.834,35.352 578.402,38.338 579.467,41.798 C580.531,45.258 581.063,49.041 581.063,53.147 L581.063,57.311 L537.032,57.311 L537.032,58.623 C537.032,62.008 537.546,65.191 538.573,68.175 C539.599,71.161 541.043,73.756 542.907,75.96 C544.771,78.166 546.995,79.907 549.58,81.18 C552.165,82.453 555.036,83.09 558.193,83.09 C561.844,83.09 565.065,82.425 567.86,81.093 C570.655,79.763 573.193,77.633 575.474,74.706 L579.751,77.956 C578.725,79.439 577.537,80.847 576.187,82.177 C574.837,83.509 573.268,84.667 571.482,85.656 C569.693,86.645 567.678,87.423 565.436,87.995 C563.193,88.566 560.684,88.851 557.908,88.851 L557.908,88.851 Z M556.652,30.676 C554.067,30.676 551.671,31.17 549.467,32.159 C547.261,33.148 545.311,34.555 543.62,36.38 C541.928,38.204 540.539,40.4 539.457,42.967 C538.373,45.534 537.64,48.377 537.261,51.494 L574.277,51.494 L574.277,50.753 C574.201,48.168 573.782,45.668 573.022,43.254 C572.261,40.838 571.148,38.701 569.685,36.837 C568.22,34.975 566.405,33.482 564.237,32.36 C562.072,31.236 559.542,30.676 556.652,30.676 L556.652,30.676 Z"></path>
                    <path d="M600.394,87.71 L593.55,87.71 L593.55,0.103 L600.394,0.103 L600.394,87.71 L600.394,87.71 Z"></path>
                    <path d="M614.208,56.284 C614.208,51.493 614.76,47.169 615.862,43.309 C616.964,39.45 618.544,36.151 620.597,33.414 C622.65,30.676 625.15,28.565 628.096,27.082 C631.044,25.599 634.36,24.858 638.049,24.858 C642.421,24.858 646.177,25.734 649.314,27.481 C652.451,29.232 655.046,31.645 657.099,34.726 L657.099,0.104 L663.887,0.104 L663.887,87.711 L657.498,87.711 L657.214,79.499 C655.161,82.427 652.546,84.717 649.371,86.371 C646.196,88.025 642.385,88.851 637.937,88.851 C634.286,88.851 630.996,88.081 628.069,86.542 C625.141,85.001 622.651,82.853 620.598,80.097 C618.545,77.341 616.966,74.042 615.863,70.201 C614.761,66.361 614.209,62.122 614.209,57.483 L614.209,56.284 L614.208,56.284 Z M621.11,57.482 C621.11,61.094 621.471,64.449 622.192,67.548 C622.915,70.647 624.017,73.337 625.5,75.619 C626.983,77.9 628.856,79.687 631.119,80.98 C633.38,82.272 636.071,82.918 639.188,82.918 C641.507,82.918 643.608,82.642 645.49,82.092 C647.374,81.54 649.046,80.77 650.511,79.781 C651.974,78.794 653.247,77.613 654.331,76.245 C655.415,74.877 656.336,73.394 657.097,71.796 L657.097,42.821 C656.412,41.263 655.576,39.762 654.588,38.316 C653.599,36.871 652.382,35.588 650.937,34.466 C649.491,33.346 647.818,32.451 645.918,31.786 C644.016,31.121 641.812,30.787 639.301,30.787 C636.144,30.787 633.426,31.444 631.145,32.755 C628.864,34.067 626.981,35.864 625.498,38.145 C624.015,40.426 622.913,43.127 622.19,46.244 C621.469,49.363 621.108,52.709 621.108,56.282 L621.108,57.482 L621.11,57.482 Z"></path>
                </g>
                <g id="Shape">
                    <path d="M100.203,2.008 C93.858,1.07 87.425,0.426 80.825,0.426 C79.471,0.426 78.154,0.555 76.816,0.606 C65.032,13.144 57.317,29.513 55.778,47.68 C63.735,45.304 72.104,43.901 80.825,43.901 C93.951,43.901 106.381,46.839 117.604,51.975 C134.056,59.502 147.784,71.888 157.006,87.313 C159.661,76.881 161.221,66.02 161.221,54.775 C161.221,44.65 159.976,34.828 157.81,25.349 C141.084,13.319 121.472,5.152 100.203,2.008 L100.203,2.008 Z"></path>
                    <path d="M61.448,2.008 C40.179,5.152 20.567,13.319 3.841,25.35 C1.675,34.829 0.426,44.651 0.426,54.776 C0.426,66.021 1.99,76.881 4.641,87.314 C8.9,104.047 16.369,119.458 26.318,132.961 C26.641,132.965 26.957,133.009 27.284,133.009 C43.829,133.009 59.157,127.875 71.822,119.148 C54.691,102.967 43.905,80.151 43.905,54.776 C43.905,53.83 44.018,52.913 44.046,51.975 C44.633,33.287 51.002,16.073 61.448,2.008 L61.448,2.008 Z"></path>
                    <path d="M117.204,63.63 C114.606,89.542 100.882,112.185 80.825,126.695 C67.671,136.21 51.846,142.175 34.683,143.28 C47.437,157.394 63.093,168.834 80.825,176.426 C98.558,168.835 114.209,157.394 126.967,143.28 C137.975,131.102 146.692,116.879 152.58,101.258 C145.347,85.083 132.836,71.811 117.204,63.63 L117.204,63.63 Z"></path>
                </g>
            </g>
        </g>
    </g>
</svg>