<?xml version="1.0" encoding="utf-8"?>
<!-- Generator: Adobe Illustrator 24.0.2, SVG Export Plug-In . SVG Version: 6.00 Build 0)  -->
<svg version="1.1" id="Layer_1" xmlns="http://www.w3.org/2000/svg" xmlns:xlink="http://www.w3.org/1999/xlink" x="0px" y="0px"
	 viewBox="0 0 89 46" style="enable-background:new 0 0 89 46;" xml:space="preserve">
<style type="text/css">
	.st0{fill:#FAE81D;}
	.st1{fill:url(#SVGID_1_);}
	.st2{fill:url(#SVGID_2_);}
	.st3{fill:url(#SVGID_3_);}
	.st4{fill:url(#SVGID_4_);}
	.st5{fill:url(#SVGID_5_);}
	.st6{fill:url(#SVGID_6_);}
	.st7{fill:url(#SVGID_7_);}
	.st8{fill:url(#SVGID_8_);}
	.st9{fill:#1D1D1B;}
	.st10{fill:#3C3C3B;}
</style>
<path class="st0" d="M253.2,486.3L253.2,486.3"/>
<g>
	
		<linearGradient id="SVGID_1_" gradientUnits="userSpaceOnUse" x1="86.3409" y1="-1853.0043" x2="0.4391" y2="-1853.0043" gradientTransform="matrix(1 0 0 -1 0 -1842.4781)">
		<stop  offset="0" style="stop-color:#D5DA3B"/>
		<stop  offset="1" style="stop-color:#769A47"/>
	</linearGradient>
	<path class="st1" d="M6.3,14.2l-1.4,1.4c-0.3,0.1-0.5,0.2-0.8,0.2c-0.3,0.1-0.5,0.1-0.8,0.1c-0.5,0-1-0.1-1.4-0.3
		c-0.4-0.2-0.7-0.4-0.9-0.7S0.5,14.3,0.4,14c-0.1-0.4-0.2-0.7-0.2-1c0-0.2,0-0.4,0.1-0.5s0.1-0.5,0.2-0.6c0.1-0.2,0.2-0.5,0.3-0.6
		c0.2-0.2,0.4-0.4,0.5-0.5l0.5-0.2c0.3-0.2,0.6-0.2,0.8-0.3c0.4-0.1,0.8-0.2,1.5-0.3c0.8-0.2,1.4-0.2,2.2-0.2V8.9
		c0.1-0.5-0.1-0.8-0.4-1.1C5.5,7.5,5,7.4,4.5,7.4c-0.5,0-1,0.1-1.4,0.2C2.6,7.6,2,7.7,1.5,7.8L1.1,6.3c0.7-0.4,1.4-0.6,2-0.8
		c0.8-0.2,1.6-0.3,2.4-0.3c1-0.1,2,0.2,2.7,0.7c0.8,0.7,1.1,1.7,1,2.6v5l1.6,0.4V15C10,15.4,9,15.7,8,15.7c-0.2,0-0.4,0-0.5-0.1
		c-0.2-0.1-0.4-0.1-0.5-0.2S6.8,15.2,6.7,15c-0.2-0.3-0.2-0.5-0.2-0.8L6.3,14.2z"/>
	
		<linearGradient id="SVGID_2_" gradientUnits="userSpaceOnUse" x1="86.3409" y1="-1850.458" x2="0.4391" y2="-1850.458" gradientTransform="matrix(1 0 0 -1 0 -1842.4781)">
		<stop  offset="0" style="stop-color:#D5DA3B"/>
		<stop  offset="1" style="stop-color:#769A47"/>
	</linearGradient>
	<path class="st2" d="M16,13.9l1.4,0.5l-0.1,1.1h-5.6l-0.1-1.1l1.6-0.7V2.5l-1.4-0.4V1.1l4-0.6L16,0.6L16,13.9z"/>
	
		<linearGradient id="SVGID_3_" gradientUnits="userSpaceOnUse" x1="86.3409" y1="-1852.8987" x2="0.4391" y2="-1852.8987" gradientTransform="matrix(1 0 0 -1 0 -1842.4781)">
		<stop  offset="0" style="stop-color:#D5DA3B"/>
		<stop  offset="1" style="stop-color:#769A47"/>
	</linearGradient>
	<path class="st3" d="M18.4,10.6c0-0.8,0.2-1.6,0.4-2.4c0.2-0.7,0.6-1.3,1.1-1.7c0.5-0.5,1.1-0.8,1.7-1.1c0.7-0.2,1.4-0.3,2.1-0.3
		c0.5,0,0.9,0.1,1.4,0.2c0.4,0.1,0.8,0.2,1.1,0.4c0.3,0.2,0.5,0.4,0.8,0.7c0.2,0.2,0.3,0.5,0.3,0.8c0,0.4-0.2,0.7-0.4,1
		c-0.2,0.3-0.6,0.5-0.9,0.7l-2.3-1.9c-0.4,0.1-0.7,0.2-1,0.4c-0.3,0.2-0.5,0.5-0.7,0.8c-0.2,0.3-0.3,0.7-0.4,1
		c-0.1,0.4-0.2,0.8-0.2,1.2c0,0.5,0.1,0.9,0.2,1.4c0.1,0.4,0.2,0.7,0.5,1c0.2,0.3,0.5,0.5,0.8,0.6c0.5,0.2,1,0.2,1.4,0.2
		c0.4,0,0.8-0.1,1.1-0.2c0.5-0.1,0.8-0.2,1.4-0.3l0.5,1.7c-0.3,0.2-0.6,0.3-0.9,0.5c-0.4,0.2-0.7,0.2-1,0.3c-0.4,0.1-0.7,0.2-1,0.2
		c-0.3,0.1-0.6,0.1-0.9,0.1c-1.8,0-3.1-0.5-3.8-1.4C18.8,13.3,18.3,12,18.4,10.6z"/>
	
		<linearGradient id="SVGID_4_" gradientUnits="userSpaceOnUse" x1="86.3409" y1="-1850.4956" x2="0.4391" y2="-1850.4956" gradientTransform="matrix(1 0 0 -1 0 -1842.4781)">
		<stop  offset="0" style="stop-color:#D5DA3B"/>
		<stop  offset="1" style="stop-color:#769A47"/>
	</linearGradient>
	<path class="st4" d="M31.9,6.9l1.6-1.4c0.4-0.1,0.7-0.2,1.1-0.2c0.4-0.1,0.7-0.1,1-0.1c0.8-0.1,1.6,0.2,2.2,0.7
		c0.5,0.6,0.8,1.4,0.8,2.2v6l1.4,0.5v1.1h-5.4v-1.1c0.2-0.2,0.4-0.2,0.6-0.3c0.2-0.1,0.5-0.2,0.6-0.2V9.1c0.1-0.5-0.1-0.9-0.4-1.3
		c-0.3-0.3-0.8-0.5-1.3-0.4c-0.4,0-0.7,0.1-1.1,0.2c-0.4,0.2-0.8,0.3-1.1,0.5V14l0.7,0.2l0.7,0.2l-0.1,1.1h-5.4
		c-0.1-0.2-0.1-0.4-0.1-0.5v-0.5l1.4-0.5V2.8l-1.4-0.4V1.1l4-0.6c0.1,0.1,0.2,0.1,0.3,0.2V6.9L31.9,6.9z"/>
	
		<linearGradient id="SVGID_5_" gradientUnits="userSpaceOnUse" x1="86.3409" y1="-1852.8987" x2="0.4324" y2="-1852.8987" gradientTransform="matrix(1 0 0 -1 0 -1842.4781)">
		<stop  offset="0" style="stop-color:#D5DA3B"/>
		<stop  offset="1" style="stop-color:#769A47"/>
	</linearGradient>
	<path class="st5" d="M45.8,5.2c0.8-0.1,1.7,0.2,2.4,0.5c0.5,0.2,1.1,0.6,1.4,1.1c0.3,0.5,0.5,0.9,0.7,1.4c0.2,0.5,0.2,1.1,0.2,1.6
		l-0.2,0.2l-6.5,0.4c-0.1,0.9,0.2,1.8,0.8,2.5c0.7,0.5,1.5,0.8,2.3,0.7c0.5,0,0.8-0.1,1.3-0.2c0.5-0.1,1-0.2,1.5-0.4l0.5,1.6
		c-0.6,0.4-1.3,0.7-2,0.8c-0.8,0.2-1.6,0.3-2.4,0.3c-0.8,0.1-1.6-0.2-2.4-0.4c-0.6-0.2-1.1-0.5-1.6-1c-0.5-0.5-0.8-1-0.9-1.7
		c-0.2-0.7-0.3-1.4-0.3-2.2c0-0.7,0.1-1.4,0.2-2c0.2-0.6,0.4-1.3,0.8-1.7c0.5-0.5,0.9-1,1.6-1.3C44.1,5.3,45,5.2,45.8,5.2z"/>
	
		<linearGradient id="SVGID_6_" gradientUnits="userSpaceOnUse" x1="86.3409" y1="-1852.7052" x2="0.4391" y2="-1852.7052" gradientTransform="matrix(1 0 0 -1 0 -1842.4781)">
		<stop  offset="0" style="stop-color:#D5DA3B"/>
		<stop  offset="1" style="stop-color:#769A47"/>
	</linearGradient>
	<path class="st6" d="M55.4,6.8L55.4,6.8l1.4-1.4c0.3-0.1,0.6-0.2,1-0.2c0.3-0.1,0.6-0.1,0.8,0c0.7-0.1,1.4,0.2,2,0.4
		c0.5,0.3,0.8,0.8,1,1.4l1.5-1.6c0.3-0.1,0.7-0.2,1-0.2c0.3-0.1,0.6-0.1,0.9-0.1c0.8-0.1,1.6,0.2,2.3,0.7C67.7,6.3,68,7.2,68,7.9V14
		l1.4,0.5l-0.1,1h-5.3l-0.1-1l1.4-0.5V9c0.1-0.5-0.1-0.9-0.3-1.4c-0.3-0.3-0.8-0.5-1.2-0.5c-0.3,0-0.7,0.1-1,0.2
		c-0.4,0.2-0.8,0.3-1.1,0.5v6l1.4,0.5l-0.1,1h-5.3l-0.1-1l1.4-0.5v-5c0.1-0.5-0.1-0.9-0.4-1.4C58.4,7.2,58,7,57.4,7
		c-0.4,0-0.7,0.1-1,0.2c-0.4,0.2-0.8,0.3-1.1,0.5v6.1l1.4,0.5l-0.1,1.1h-5.3l-0.1-1l1.4-0.5V7.2l-1.4-0.5v-1l3.5-0.5L55,5.4
		L55.4,6.8z"/>
	
		<linearGradient id="SVGID_7_" gradientUnits="userSpaceOnUse" x1="86.3409" y1="-1850.3757" x2="0.4391" y2="-1850.3757" gradientTransform="matrix(1 0 0 -1 0 -1842.4781)">
		<stop  offset="0" style="stop-color:#D5DA3B"/>
		<stop  offset="1" style="stop-color:#769A47"/>
	</linearGradient>
	<path class="st7" d="M74.7,13.9l1.4,0.5l-0.1,1h-5.8l-0.1-1l1.6-0.7V7.2l-1.4-0.5V5.7l4-0.6c0.1,0,0.1,0.1,0.2,0.1
		c0.1,0.1,0.1,0.1,0.2,0.1L74.7,13.9z M75,2.1c0,0.5-0.2,0.9-0.5,1.3s-0.8,0.5-1.4,0.5c-0.5,0.1-1-0.2-1.4-0.5
		c-0.3-0.4-0.5-0.8-0.5-1.3c0-0.2,0.1-0.5,0.2-0.7s0.2-0.4,0.4-0.5c0.2-0.2,0.4-0.3,0.6-0.4s0.5-0.2,0.8-0.2c0.5-0.1,1,0.2,1.4,0.5
		C74.9,1.3,75,1.7,75,2.1z"/>
	
		<linearGradient id="SVGID_8_" gradientUnits="userSpaceOnUse" x1="86.3409" y1="-1853.0806" x2="0.4391" y2="-1853.0806" gradientTransform="matrix(1 0 0 -1 0 -1842.4781)">
		<stop  offset="0" style="stop-color:#D5DA3B"/>
		<stop  offset="1" style="stop-color:#769A47"/>
	</linearGradient>
	<path class="st8" d="M83.1,14.2l-1.4,1.4c-0.3,0.1-0.5,0.2-0.8,0.2c-0.3,0.1-0.5,0.1-0.8,0.1c-0.5,0-1-0.1-1.4-0.3
		c-0.4-0.2-0.7-0.4-0.9-0.7c-0.2-0.3-0.4-0.6-0.5-0.9C77,13.6,77,13.3,77,13c0-0.2,0-0.4,0.1-0.5c0.1-0.2,0.1-0.5,0.2-0.6
		c0.1-0.2,0.2-0.5,0.3-0.6c0.2-0.2,0.4-0.4,0.5-0.5c0.2-0.1,0.3-0.2,0.5-0.2c0.3-0.2,0.6-0.2,0.8-0.3c0.4-0.1,0.8-0.2,1.4-0.3
		c0.8-0.2,1.4-0.2,2.2-0.2V8.9c0.1-0.5-0.1-0.8-0.4-1.1c-0.4-0.2-0.8-0.4-1.4-0.3c-0.5,0-1,0.1-1.4,0.2c-0.5,0.1-1.1,0.2-1.6,0.4
		l-0.5-1.6c0.7-0.4,1.4-0.6,2-0.8c0.8-0.2,1.6-0.3,2.4-0.3c1-0.1,2,0.2,2.8,0.7c0.8,0.7,1.1,1.7,1,2.6v5l1.6,0.4v1.1
		c-0.4,0.2-0.8,0.5-1.3,0.5c-0.5,0.2-1,0.2-1.5,0.2c-0.2,0-0.4,0-0.5-0.1c-0.2-0.1-0.4-0.2-0.5-0.2c-0.2-0.2-0.3-0.3-0.4-0.5
		C83.1,14.8,83.1,14.6,83.1,14.2L83.1,14.2z"/>
	<path class="st9" d="M3.7,19.5c0.1,0.1,0.2,0.1,0.2,0.2l0.5,1.5l0,0L6,19.7c0.4-0.1,0.7-0.2,1.1-0.2c0.4-0.1,0.7-0.1,1-0.1
		c0.8-0.1,1.6,0.2,2.3,0.6c0.5,0.6,0.8,1.4,0.8,2.2v6l1.3,0.5v1.1H6.9v-1.1l1-0.4C8,28.2,8,28.2,8.2,28.2v-4.8
		c0.1-0.5-0.1-0.9-0.3-1.3c-0.4-0.3-0.8-0.5-1.3-0.4c-0.2,0-0.3,0.1-0.5,0.1c-0.2,0-0.4,0.1-0.5,0.1C5.4,21.9,5.3,22,5,22.1
		c-0.2,0.1-0.4,0.2-0.5,0.3v5.9l0.6,0.2l0.7,0.2l-0.1,1.1H0.3c-0.1-0.2-0.1-0.4-0.1-0.5v-0.5l1.4-0.5v-6.6l-1.5-0.4v-1.1
		c0.6-0.2,1.1-0.2,1.7-0.3C2.5,19.7,3.2,19.5,3.7,19.5z"/>
	<path class="st9" d="M23.7,24.7c0,0.7-0.2,1.4-0.3,2c-0.2,0.6-0.5,1.3-1,1.7c-0.5,0.5-1,0.9-1.7,1.2c-0.8,0.3-1.6,0.5-2.3,0.5
		s-1.6-0.2-2.3-0.4c-0.6-0.2-1.1-0.6-1.6-1.1c-0.5-0.5-0.8-1.1-0.9-1.7c-0.2-0.7-0.3-1.4-0.3-2.1c0-0.7,0.2-1.4,0.4-2
		c0.5-1.4,1.4-2.4,2.7-2.9c0.8-0.3,1.6-0.5,2.4-0.5c0.8,0,1.5,0.2,2.2,0.4c0.6,0.2,1.1,0.6,1.6,1.1c0.5,0.5,0.8,1.1,0.9,1.7
		C23.7,23.2,23.7,24,23.7,24.7z"/>
	<path class="st9" d="M30.5,26.5L30.5,26.5l0.5-1.1l0.6-1.5c0.2-0.5,0.4-1.1,0.5-1.5c0.2-0.5,0.3-0.8,0.5-1.1l-1.4-0.5v-1.1l4.3-0.2
		l0.2,1.1c-0.5,0.4-0.8,0.8-1.1,1.4c-0.4,0.5-0.6,1.1-0.9,1.7l-2.7,6l-1.8,0.4c-0.2-0.3-0.4-0.8-0.5-1.2l-0.8-1.5L27,25.7
		c-0.3-0.6-0.5-1.1-0.8-1.7l-0.8-1.6c-0.2-0.5-0.4-0.8-0.5-1.1l-1-0.5v-1.1l4.1-0.2c0.1,0.4,0.2,0.8,0.2,1.1
		c0.2,0.4,0.2,0.8,0.4,1.1L30.5,26.5z"/>
	<path class="st9" d="M41.8,28.5l-1.4,1.4c-0.3,0.1-0.5,0.2-0.8,0.2c-0.3,0.1-0.5,0.1-0.8,0.1c-0.5,0-1-0.1-1.4-0.3
		c-0.4-0.2-0.7-0.4-0.9-0.7c-0.2-0.3-0.4-0.6-0.5-0.9c-0.1-0.4-0.2-0.7-0.2-1c0-0.2,0-0.4,0.1-0.5c0.1-0.2,0.1-0.5,0.2-0.6
		c0.1-0.2,0.2-0.5,0.3-0.6c0.2-0.2,0.4-0.4,0.5-0.5c0.2-0.1,0.3-0.2,0.5-0.2c0.3-0.2,0.6-0.2,0.8-0.3c0.4-0.1,0.8-0.2,1.5-0.3
		c0.6-0.1,1.3-0.2,2.2-0.2v-0.8c0.1-0.5-0.1-0.8-0.4-1.1c-0.4-0.2-0.8-0.4-1.4-0.3c-0.5,0-1,0.1-1.4,0.2c-0.5,0.1-1.1,0.2-1.7,0.4
		l-0.5-1.6c0.7-0.4,1.4-0.6,2-0.8c0.8-0.2,1.6-0.3,2.4-0.3c1-0.1,2,0.2,2.8,0.8c0.8,0.7,1.1,1.7,1,2.6v5l1.6,0.4v1.1
		c-0.8,0.5-1.8,0.8-2.8,0.8c-0.2,0-0.4,0-0.5-0.1c-0.2-0.1-0.4-0.1-0.5-0.2c-0.2-0.2-0.3-0.3-0.4-0.5C42,29,41.9,28.8,41.8,28.5
		L41.8,28.5z"/>
</g>
<g>
	<path class="st10" d="M4.3,42c-0.6,0.3-1.2,0.4-1.9,0.4c-1.2,0.1-2.3-0.8-2.4-2c0-0.1,0-0.2,0-0.4c0-2.2,1.6-4.4,3.8-4.4
		c0.5,0,0.9,0.1,1.4,0.3L5,36.5c-0.4-0.2-0.8-0.3-1.2-0.3c-1.9,0-3.1,2-3.1,3.7c0,1.2,0.5,2,1.8,2c0.6,0,1.1-0.2,1.6-0.4L4.3,42z"/>
	<path class="st10" d="M5.6,42.3l1.2-6.5h0.6l-1.2,6.5H5.6z M7,34c0-0.3,0.2-0.5,0.5-0.5c0.3,0,0.5,0.2,0.5,0.5c0,0,0,0,0,0
		c0,0.3-0.2,0.5-0.5,0.5C7.2,34.5,7,34.3,7,34C7,34,7,34,7,34L7,34z"/>
	<path class="st10" d="M8.4,42.3l0.8-4.4c0.1-0.8,0.2-1.5,0.3-2.1h0.6c-0.1,0.5-0.1,0.9-0.2,1.5h0c0.4-0.9,1.1-1.6,1.9-1.6
		c0.1,0,0.2,0,0.3,0l-0.1,0.6c-0.1,0-0.2,0-0.3,0c-0.8,0-1.9,1.2-2.2,2.9L9,42.3H8.4z"/>
	<path class="st10" d="M16.5,42c-0.6,0.3-1.2,0.4-1.9,0.4c-1.2,0.1-2.3-0.9-2.3-2.1c0-0.1,0-0.2,0-0.3c0-2.2,1.6-4.4,3.8-4.4
		c0.5,0,0.9,0.1,1.4,0.3l-0.2,0.5c-0.4-0.2-0.8-0.3-1.2-0.3c-1.9,0-3.1,2-3.1,3.7c0,1.2,0.5,2,1.8,2c0.6,0,1.1-0.1,1.6-0.4L16.5,42z
		"/>
	<path class="st10" d="M23.7,35.8l-0.9,4.7c-0.1,0.6-0.2,1.2-0.3,1.7H22l0.2-1.4l0,0c-0.5,0.9-1.4,1.4-2.3,1.5
		c-0.7,0-1.7-0.3-1.7-1.9c0-0.3,0-0.7,0.1-1l0.7-3.7h0.6l-0.7,3.7c-0.1,0.3-0.1,0.7-0.1,1c0,0.8,0.3,1.4,1.3,1.4s2.2-1.1,2.5-2.6
		l0.7-3.5L23.7,35.8z"/>
	<path class="st10" d="M24.7,42.3l1.8-9.6h0.6l-1.8,9.6H24.7z"/>
	<path class="st10" d="M31.9,42.3c0-0.6,0.1-1.3,0.2-1.9l0,0c-0.8,1.5-1.7,2.1-2.7,2.1c-1.1,0-1.8-0.9-1.8-2.1
		c0-2.3,1.8-4.7,4.4-4.7c0.5,0,1,0.1,1.5,0.2l-0.7,3.4c-0.2,1-0.3,2-0.3,3.1L31.9,42.3z M32.7,36.3c-0.3-0.1-0.6-0.1-0.9-0.1
		c-2,0-3.6,1.9-3.6,4.1c0,0.8,0.2,1.7,1.3,1.7s2.5-1.6,2.8-3.4L32.7,36.3z"/>
	<path class="st10" d="M34.3,42.3l0.8-4.4c0.1-0.8,0.2-1.5,0.3-2.1H36c-0.1,0.5-0.1,0.9-0.2,1.5h0c0.4-0.9,1.1-1.6,1.9-1.6
		c0.1,0,0.2,0,0.3,0l-0.1,0.6c-0.1,0-0.2,0-0.3,0c-0.8,0-1.9,1.2-2.2,2.9l-0.6,3.2H34.3z"/>
	<path class="st10" d="M42.9,32.7L42,37.2l0,0c0.5-0.9,1.4-1.5,2.5-1.6c1.5,0,2,1.2,2,2.4c0,1.9-1.5,4.4-3.9,4.4
		c-0.9,0-1.8-0.4-1.8-1.6c0-0.3,0-0.6,0.1-0.9l1.4-7.3L42.9,32.7z M41.5,39.9c-0.1,0.3-0.1,0.6-0.1,0.9c0,0.7,0.4,1.1,1.3,1.1
		c2,0,3.2-2.3,3.2-3.9c0-0.9-0.4-1.8-1.5-1.8c-1.1,0-2.3,1.2-2.7,3L41.5,39.9z"/>
	<path class="st10" d="M48.1,35.8l0.8,3.9c0.2,0.8,0.3,1.3,0.3,1.8h0c0.2-0.4,0.4-0.9,0.8-1.6l2-4.1h0.7l-2.5,5.1
		c-0.5,1.2-1.2,2.3-2.1,3.2c-0.5,0.5-1.1,0.9-1.8,1.1l-0.2-0.5c0.5-0.2,0.9-0.4,1.2-0.7c0.6-0.5,1-1.1,1.4-1.8
		c0.1-0.1,0.1-0.2,0-0.3l-1.3-6.2L48.1,35.8z"/>
	<path class="st10" d="M55.3,42.3l0.9-4.7c0.1-0.7,0.2-1.2,0.3-1.7H57l-0.2,1.4l0,0c0.5-0.9,1.5-1.5,2.5-1.5c0.9,0,1.6,0.7,1.6,1.6
		c0,0.1,0,0.2,0,0.3c0,0.3-0.1,0.7-0.1,1l-0.7,3.8h-0.6l0.7-3.9c0.1-0.3,0.1-0.6,0.1-0.9c0-0.8-0.3-1.4-1.2-1.4s-2.3,1.1-2.6,2.8
		l-0.6,3.3H55.3z"/>
	<path class="st10" d="M66.6,42.3c0-0.6,0.1-1.3,0.2-1.9l0,0C66,41.9,65,42.5,64,42.5c-1.1,0-1.8-0.9-1.8-2.1c0-2.3,1.8-4.7,4.4-4.7
		c0.5,0,1,0.1,1.5,0.2l-0.7,3.4c-0.2,1-0.3,2-0.3,3.1L66.6,42.3z M67.4,36.3c-0.3-0.1-0.6-0.1-0.9-0.1c-2,0-3.6,1.9-3.6,4.1
		c0,0.8,0.2,1.7,1.3,1.7c1.1,0,2.5-1.6,2.8-3.4L67.4,36.3z"/>
	<path class="st10" d="M71.5,34.1l-0.3,1.7h1.7l-0.1,0.5H71l-0.7,3.8c-0.1,0.4-0.1,0.8-0.1,1.2c0,0.3,0.2,0.6,0.5,0.7
		c0.1,0,0.1,0,0.2,0c0.2,0,0.4,0,0.5-0.1l0.1,0.5c-0.2,0.1-0.4,0.1-0.7,0.1c-0.6,0.1-1.1-0.4-1.2-1c0-0.1,0-0.1,0-0.2
		c0-0.4,0.1-0.8,0.1-1.2l0.6-3.7h-1l0.1-0.5h1l0.3-1.5L71.5,34.1z"/>
	<path class="st10" d="M78.9,35.8L78,40.5c-0.1,0.6-0.2,1.2-0.2,1.8h-0.6l0.2-1.4l0,0c-0.5,0.9-1.4,1.4-2.3,1.5
		c-0.7,0-1.7-0.3-1.7-1.9c0-0.3,0-0.7,0.1-1l0.7-3.7h0.6L74,39.5c-0.1,0.3-0.1,0.7-0.1,1c0,0.8,0.3,1.4,1.3,1.4
		c0.9,0,2.2-1.1,2.5-2.6l0.7-3.5L78.9,35.8z"/>
	<path class="st10" d="M79.8,42.3l0.8-4.4c0.1-0.8,0.2-1.5,0.3-2.1h0.6c-0.1,0.5-0.1,0.9-0.2,1.5h0c0.4-0.9,1.1-1.6,1.9-1.6
		c0.1,0,0.2,0,0.3,0l-0.1,0.6c-0.1,0-0.2,0-0.3,0c-0.8,0-1.9,1.2-2.2,2.9l-0.6,3.2H79.8z"/>
	<path class="st10" d="M87.8,41.9c-0.6,0.4-1.3,0.5-2,0.5c-1.7,0-2.3-1.2-2.3-2.5c0-1.9,1.5-4.2,3.4-4.2c0.8-0.1,1.6,0.5,1.7,1.3
		c0,0.1,0,0.1,0,0.2c0,1.7-2.1,2.1-4.4,2c-0.1,0.5-0.1,1.1,0.1,1.6c0.2,0.7,0.9,1.1,1.6,1.1c0.6,0,1.2-0.2,1.7-0.5L87.8,41.9z
		 M86.9,36.2c-1.2,0-2.2,1.2-2.5,2.5c1.9,0,3.7-0.2,3.7-1.5C88.1,36.5,87.6,36.2,86.9,36.2z"/>
</g>
</svg>
