<?xml version="1.0" encoding="utf-8"?>
<!-- Generator: Adobe Illustrator 24.2.1, SVG Export Plug-In . SVG Version: 6.00 Build 0)  -->
<svg version="1.1" id="Ebene_1" xmlns="http://www.w3.org/2000/svg" xmlns:xlink="http://www.w3.org/1999/xlink" x="0px" y="0px"
	 viewBox="0 0 95 95" style="enable-background:new 0 0 95 95;" xml:space="preserve">
<style type="text/css">
	.st0{fill:#B164A5;}
	.st1{fill:#FFFFFF;}
</style>
<g>
	<rect class="st0" width="95" height="95"/>
	<g>
		<g>
			<g>
				<g>
					<path class="st1" d="M18.2,45.6C18,43.5,16.4,43,14.4,43c-1.9,0-3.4,0.8-3.4,2.1c0,1.6,1.5,1.9,4.4,2.4
						c2.2,0.4,4.4,0.9,4.4,3.2c0,3-2.7,3.8-5,3.8c-3.1,0-5.3-1-5.5-4.3h1.3c0.2,2.5,1.9,3.1,4.2,3.1c1.8,0,3.7-0.5,3.7-2.4
						c0-1.8-2.2-2.1-4.4-2.4c-2.9-0.5-4.4-1.3-4.4-3.2c0-2.6,2.4-3.5,4.8-3.5c2.5,0,4.9,0.9,5,3.7H18.2z"/>
					<path class="st1" d="M37.3,42.1H39l0,12.1h-1.2l0-10.4h0l-5.3,10.4h-1.1L26,43.7h0l0,10.4h-1.3l0-12.1h1.8l5.4,10.5L37.3,42.1z
						"/>
					<path class="st1" d="M52.8,50.5h-6.4l-1.6,3.7h-1.4l5.5-12.1h1.5l5.5,12.1h-1.5L52.8,50.5z M49.6,43.4l-2.7,6h5.3L49.6,43.4z"
						/>
					<path class="st1" d="M60.4,42.1H67c2,0,3.9,0.7,3.9,3.3c0,1.3-0.8,2.6-2.4,2.9v0c1.7,0.3,2.1,1.4,2.1,3.3
						c0.1,0.8,0.1,2.2,0.4,2.5h-1.4c-0.3-0.3-0.3-1.1-0.3-2.5c-0.1-2.1-0.8-2.8-2.9-2.8h-4.8l0,5.3h-1.3L60.4,42.1z M61.7,47.7H67
						c1.4,0,2.6-0.5,2.6-2.3c0-1.8-1.3-2.1-2.5-2.1h-5.4V47.7z"/>
					<path class="st1" d="M79.7,43.3H75v-1.1h10.7v1.1H81l0,10.9h-1.2L79.7,43.3z"/>
				</g>
			</g>
		</g>
	</g>
	<g>
		<path class="st1" d="M11.9,75.4v3.5c0,1.6,0.8,2.3,2.3,2.3c1.5,0,2.3-0.7,2.3-2.3v-1.5c0-1.3-0.4-1.9-1.8-2.6l-3.7-1.9
			c-1-0.5-1.9-1.3-2.2-2c-0.3-0.6-0.5-1.6-0.5-3.1v-1.4c0-3.8,1.9-5.5,6-5.5s6,1.7,6,5.5v2.7h-3.7v-2.7c0-1.6-0.7-2.3-2.2-2.3
			c-1.5,0-2.2,0.7-2.2,2.3v1c0,1.3,0.3,1.8,1.3,2.4l3.8,1.9c1,0.5,2.1,1.4,2.5,2.1c0.4,0.7,0.6,1.5,0.6,3.3v1.9c0,3.8-1.8,5.5-6,5.5
			c-4.2,0-6-1.7-6-5.5v-3.5H11.9z"/>
		<path class="st1" d="M34,78.9c0,3.8-1.9,5.5-6,5.5c-4.1,0-6-1.7-6-5.5V66.4c0-3.8,1.9-5.5,6-5.5c4.2,0,6,1.7,6,5.5V70h-3.8v-3.6
			c0-1.6-0.7-2.3-2.2-2.3c-1.5,0-2.2,0.7-2.2,2.3v12.5c0,1.6,0.7,2.3,2.2,2.3c1.5,0,2.2-0.7,2.2-2.3v-3.7H34V78.9z"/>
		<path class="st1" d="M35.9,61.2h3.7v9.5H44v-9.5h3.7V84H44V73.8h-4.4V84h-3.7V61.2z"/>
		<path class="st1" d="M55.8,84.4c-4.1,0-6-1.7-6-5.5V66.4c0-3.8,1.9-5.5,6-5.5c4.2,0,6,1.7,6,5.5v12.5
			C61.8,82.7,59.9,84.4,55.8,84.4z M55.8,81.2c1.5,0,2.2-0.7,2.2-2.3V66.4c0-1.6-0.7-2.3-2.2-2.3c-1.5,0-2.2,0.7-2.2,2.3v12.5
			C53.6,80.5,54.2,81.2,55.8,81.2z"/>
		<path class="st1" d="M69.6,84.4c-4.1,0-6-1.7-6-5.5V66.4c0-3.8,1.9-5.5,6-5.5c4.2,0,6,1.7,6,5.5v12.5
			C75.6,82.7,73.8,84.4,69.6,84.4z M69.6,81.2c1.5,0,2.2-0.7,2.2-2.3V66.4c0-1.6-0.7-2.3-2.2-2.3c-1.5,0-2.2,0.7-2.2,2.3v12.5
			C67.4,80.5,68.1,81.2,69.6,81.2z"/>
		<path class="st1" d="M77.6,61.2h3.8v19.7h5.8V84h-9.6V61.2z"/>
	</g>
</g>
</svg>
