<?xml version="1.0" encoding="UTF-8"?>
<svg width="570px" height="570px" viewBox="0 0 570 570" version="1.1" xmlns="http://www.w3.org/2000/svg" xmlns:xlink="http://www.w3.org/1999/xlink">
    <!-- Generator: Sketch 64 (93537) - https://sketch.com -->
    <title>Group</title>
    <desc>Created with Sketch.</desc>
    <defs>
        <path d="M201.883645,0.0206861738 C123.266146,0.0206861738 52.0916465,31.8798729 0.568239846,83.4032795 L0.568239846,83.4032795 L72.4647234,155.299763 C105.5841,122.180386 151.344762,101.689166 201.883645,101.689166 L201.883645,101.689166 C252.409401,101.689166 298.183189,122.180386 331.289439,155.299763 L331.289439,155.299763 L403.185922,83.4032795 C351.675643,31.8798729 280.501143,0.0206861738 201.883645,0.0206861738 Z" id="path-1"></path>
        <linearGradient x1="69.7438224%" y1="100%" x2="-27.013043%" y2="100%" id="linearGradient-3">
            <stop stop-color="#FFFFFF" offset="0%"></stop>
            <stop stop-color="#FFFFFF" stop-opacity="0.100387893" offset="100%"></stop>
        </linearGradient>
        <polygon id="path-4" points="0.00748938866 0.724869539 569.437078 0.724869539 569.437078 514.882523 0.00748938866 514.882523"></polygon>
    </defs>
    <g id="Page-1" stroke="none" stroke-width="1" fill="none" fill-rule="evenodd">
        <g id="4-Homepage/Commercial" transform="translate(-556.000000, -515.000000)">
            <g id="Group" transform="translate(556.000000, 515.000000)">
                <g id="Group-17" transform="translate(82.840607, 0.000000)">
                    <mask id="mask-2" fill="white">
                        <use xlink:href="#path-1"></use>
                    </mask>
                    <g id="Clip-16"></g>
                    <path d="M201.883645,0.0206861738 C123.266146,0.0206861738 52.0916465,31.8798729 0.568239846,83.4032795 L0.568239846,83.4032795 L72.4647234,155.299763 C105.5841,122.180386 151.344762,101.689166 201.883645,101.689166 L201.883645,101.689166 C252.409401,101.689166 298.183189,122.180386 331.289439,155.299763 L331.289439,155.299763 L403.185922,83.4032795 C351.675643,31.8798729 280.501143,0.0206861738 201.883645,0.0206861738 Z" id="Fill-15" fill="url(#linearGradient-3)" mask="url(#mask-2)"></path>
                </g>
                <g id="Group-20" transform="translate(0.000000, 54.547286)">
                    <mask id="mask-5" fill="white">
                        <use xlink:href="#path-4"></use>
                    </mask>
                    <g id="Clip-19"></g>
                    <path d="M496.080486,420.853947 C497.616343,419.147439 499.112819,417.388424 500.609295,415.629408 C502.145152,413.844138 503.707263,412.071996 505.203739,410.247345 C506.306405,408.895266 507.356564,407.516933 508.419849,406.138599 C510.218246,403.854504 512.02977,401.570409 513.762531,399.233807 C514.484515,398.236156 515.167119,397.238505 515.875976,396.253982 C517.871277,393.471061 519.866578,390.675014 521.756864,387.826459 C522.176927,387.209491 522.55761,386.579395 522.951419,385.962427 C525.07799,382.720063 527.165181,379.438317 529.173609,376.104063 C529.357387,375.789016 529.541164,375.447714 529.724942,375.132667 C531.877767,371.509619 533.951831,367.847191 535.947132,364.119128 C536.039021,363.948477 536.13091,363.7647 536.222799,363.580922 C538.270608,359.721589 540.252782,355.822875 542.116814,351.858526 C542.182449,351.727257 542.234957,351.595987 542.300592,351.464717 C544.164623,347.500368 545.96302,343.483512 547.6564,339.414147 C547.827051,339.007211 547.971448,338.587147 548.142099,338.167084 C549.691083,334.386513 551.200686,330.592815 552.592146,326.733482 C552.933447,325.762085 553.235368,324.777561 553.57667,323.806165 C554.718717,320.511292 555.860765,317.216419 556.884669,313.869039 C557.541018,311.755595 558.092352,309.615897 558.696193,307.489325 C559.326288,305.257738 559.995764,303.039278 560.560224,300.781437 C561.597256,296.790835 562.516145,292.760851 563.356272,288.704613 C563.44816,288.297677 563.553176,287.877613 563.645065,287.470677 C568.423287,264.222791 570.339826,240.08227 569.040255,215.521685 C568.97462,214.130225 568.817096,212.765019 568.725207,211.386686 C568.515176,208.144321 568.318271,204.901957 567.990096,201.633338 C565.548478,177.151515 559.995764,153.575455 551.765146,131.325219 C551.752019,131.259584 551.725765,131.207076 551.699511,131.154568 C548.496527,122.556395 544.912861,114.141999 540.935385,105.950762 C540.620338,105.30754 540.279036,104.677445 539.950862,104.021095 C536.209672,96.4599535 532.153434,89.0563353 527.782149,81.8890028 C527.178308,80.9176061 526.548212,79.9724634 525.931244,79.0141936 C521.664975,72.2144167 517.16242,65.5852904 512.357944,59.179323 C511.596579,58.1816723 510.782706,57.2102756 510.021341,56.2126249 C505.164358,49.9248002 500.084216,43.8207533 494.728407,37.9792461 C493.980169,37.1653732 493.205677,36.3908812 492.444312,35.5901353 C490.330867,33.3191673 488.217423,31.0481993 486.038344,28.8559932 L485.815185,29.0660249 C475.61552,18.8794864 464.864521,9.24428123 453.273396,0.724869539 L393.073054,82.6634948 C401.448068,88.8200496 409.192988,95.7904774 416.439083,103.285984 C418.644416,105.570079 420.75786,107.932936 422.831923,110.322047 C424.564685,112.317348 426.284319,114.338904 427.938319,116.39984 C429.946748,118.946475 431.889541,121.558744 433.7667,124.210395 C435.302557,126.36322 436.81216,128.542299 438.256128,130.760759 C439.988889,133.425536 441.629762,136.155949 443.218127,138.925742 C444.609587,141.367361 445.98792,143.822107 447.287492,146.32936 C448.652698,148.981011 449.939142,151.685169 451.173078,154.402455 C452.459523,157.237883 453.706586,160.086438 454.848634,162.987501 C455.846284,165.534136 456.7783,168.120151 457.670935,170.706167 C458.773601,173.948532 459.810633,177.21715 460.742649,180.538277 C461.438379,183.00615 462.055347,185.487149 462.659188,187.994403 C463.473061,191.459926 464.195045,194.964831 464.812013,198.522243 C465.284585,201.18702 465.704648,203.864925 466.04595,206.569083 C466.466013,209.824575 466.794188,213.06694 467.030473,216.309304 C467.279886,219.538542 467.463664,222.780907 467.529299,226.049525 C467.594934,228.779938 467.581807,231.497223 467.529299,234.214509 C467.463664,237.811302 467.279886,241.381841 466.991092,244.926126 C466.781061,247.499015 466.531648,250.071904 466.2166,252.618538 C465.809664,256.031554 465.284585,259.418315 464.680744,262.778823 C464.181918,265.482981 463.656839,268.160886 463.052998,270.825663 C462.357268,273.88425 461.556522,276.890329 460.716395,279.883281 C459.902522,282.75809 459.049268,285.619772 458.104125,288.442074 C457.185236,291.133105 456.200713,293.771629 455.189935,296.397025 C454.034761,299.363723 452.827078,302.304167 451.527507,305.192103 C450.437967,307.620595 449.269666,310.009706 448.061984,312.372563 C446.604889,315.273626 445.108413,318.135308 443.480667,320.944483 C442.167968,323.254831 440.776508,325.499545 439.358794,327.744259 C437.67854,330.422164 435.932652,333.073814 434.121128,335.646703 C432.506509,337.930798 430.826255,340.149258 429.106621,342.354591 C427.268843,344.704321 425.417939,347.040924 423.475145,349.298765 C421.532352,351.569733 419.497669,353.761939 417.436733,355.927891 C415.533321,357.962573 413.590527,359.957875 411.595226,361.887541 C409.311131,364.079747 406.948274,366.206318 404.57229,368.280382 C402.563862,370.013143 400.555434,371.719651 398.48137,373.373651 C395.934736,375.395206 393.322466,377.324873 390.683943,379.202031 C388.517991,380.737888 386.352038,382.260618 384.120451,383.704586 C381.455674,385.424221 378.725262,387.065094 375.968595,388.653459 C373.526977,390.058046 371.072231,391.436379 368.55185,392.73595 C365.9002,394.101156 363.196041,395.387601 360.478756,396.621537 C357.643328,397.907981 354.807899,399.141918 351.893709,400.283965 C349.347075,401.294743 346.761059,402.226759 344.161916,403.119393 C340.932679,404.22206 337.677187,405.259092 334.369187,406.17798 C331.888188,406.87371 329.394061,407.516933 326.886807,408.107647 C323.421284,408.92152 319.903253,409.643504 316.358967,410.260472 C313.69419,410.733043 311.016285,411.13998 308.312127,411.494408 C305.056635,411.914472 301.814271,412.229519 298.571906,412.478932 C295.342668,412.728345 292.100304,412.898995 288.818558,412.977757 C286.101273,413.030265 283.37086,413.030265 280.666702,412.977757 C277.069909,412.898995 273.499369,412.728345 269.955084,412.439551 C267.382195,412.229519 264.809307,411.980107 262.262672,411.665059 C258.849657,411.244996 255.462895,410.719916 252.102388,410.116075 C249.398229,409.630377 246.707198,409.105297 244.04242,408.488329 C241.010087,407.805726 237.990881,407.00498 235.011056,406.164853 C232.12312,405.35098 229.261438,404.497727 226.439137,403.539457 C223.748105,402.633695 221.109582,401.649171 218.484185,400.638394 C215.517487,399.470092 212.577043,398.275537 209.67598,396.962839 C207.260615,395.873299 204.884631,394.704998 202.521774,393.523569 C199.620711,392.053347 196.759029,390.556871 193.936728,388.942252 C191.626379,387.616427 189.368538,386.224967 187.136951,384.807253 C184.459046,383.113872 181.807396,381.38111 179.234507,379.55646 C176.950412,377.954968 174.745079,376.261587 172.539746,374.555079 C170.176889,372.730429 167.840287,370.866397 165.595573,368.923604 C163.324605,366.967683 161.119271,364.946128 158.953319,362.885192 C156.918637,360.981779 154.936463,359.038986 153.006796,357.030558 C150.801463,354.75959 148.674892,352.396733 146.600829,349.994495 C144.868067,347.999194 143.161559,346.003892 141.520686,343.929829 C139.486004,341.383194 137.556338,338.770925 135.666052,336.119274 C134.130195,333.966449 132.633719,331.78737 131.176624,329.56891 C129.456989,326.904133 127.829244,324.160593 126.227752,321.403927 C124.823165,318.962308 123.457958,316.507562 122.14526,314.000309 C120.780054,311.348658 119.506737,308.6445 118.259673,305.927214 C116.973229,303.091786 115.75242,300.243231 114.597245,297.342168 C113.599595,294.795533 112.654452,292.209518 111.761817,289.610375 C110.65915,286.381137 109.635246,283.112519 108.70323,279.804519 C108.0075,277.336646 107.377405,274.84252 106.773564,272.335266 C105.972818,268.869743 105.250834,265.351711 104.620738,261.807426 C104.161294,259.142649 103.741231,256.464744 103.386802,253.760586 C102.966739,250.505094 102.651691,247.262729 102.402278,244.020365 C102.165993,240.791127 101.982215,237.548762 101.91658,234.267017 C101.837818,231.536604 101.850945,228.819319 101.903453,226.11516 C101.982215,222.518367 102.165993,218.947828 102.441659,215.403543 C102.664818,212.817527 102.901104,210.257765 103.229278,207.711131 C103.636215,204.284988 104.161294,200.911354 104.778262,197.550846 C105.263961,194.846688 105.78904,192.155656 106.392881,189.504006 C107.088611,186.445419 107.87623,183.43934 108.729484,180.459515 C109.53023,177.571579 110.383484,174.69677 111.35488,171.874468 C112.247515,169.196564 113.232039,166.55804 114.242817,163.932644 C115.397991,160.965946 116.605674,158.025502 117.918372,155.124439 C119.007911,152.695947 120.176213,150.319963 121.370768,147.957106 C122.827863,145.056043 124.337466,142.194361 125.938958,139.385186 C127.27791,137.074838 128.656244,134.816997 130.073958,132.572283 C131.767338,129.907505 133.5001,127.255855 135.324751,124.682966 C141.336909,116.163554 147.952908,108.103587 155.304018,100.752477 C164.506033,91.550462 170.190016,78.8435429 170.190016,64.8107985 C170.190016,36.7190558 147.440956,13.969995 119.36234,13.969995 C105.329595,13.969995 92.6095494,19.6539784 83.4075346,28.8559932 C73.273504,38.9768968 63.9402194,49.8854193 55.4339347,61.4502909 C55.3814268,61.5027989 55.3289189,61.5553068 55.2764109,61.6078147 C54.6856967,62.4216876 54.1474904,63.2618145 53.5567762,64.0756875 C51.5614749,66.8586078 49.5793005,69.654655 47.675888,72.5032103 C47.2689516,73.1201784 46.8882691,73.7634006 46.4682056,74.3803688 C44.3547614,77.6227335 42.2675712,80.8913521 40.2853968,84.2124787 C40.0753651,84.5537803 39.8784604,84.9082088 39.6815556,85.2626373 C37.5418575,88.8725575 35.4677942,92.5087317 33.4856199,96.2105408 C33.393731,96.3811916 33.3149691,96.5649693 33.2362072,96.7356201 C31.1752709,100.581826 29.2062235,104.493667 27.315938,108.444889 C27.2371761,108.628666 27.1715412,108.812444 27.0796524,108.996222 C25.2287478,112.92119 23.4434782,116.885538 21.7763514,120.915522 C21.6057006,121.335585 21.4481768,121.768776 21.2643991,122.188839 C19.7285421,125.956283 18.2451931,129.736854 16.8537329,133.569933 C16.4861774,134.606965 16.1711298,135.643996 15.8035743,136.681028 C14.6746538,139.923393 13.5588603,143.165757 12.5480826,146.46063 C11.9179875,148.560947 11.3535272,150.687518 10.749686,152.800963 C10.1195909,155.058804 9.43698777,157.290391 8.85940054,159.548232 C7.86174987,163.486327 6.96911505,167.450675 6.11586118,171.428151 C6.01084532,171.913849 5.89270248,172.386421 5.8008136,172.885246 C1.00946496,196.120005 -0.893947513,220.247399 0.405623762,244.807984 C1.88897279,274.278059 7.88800383,302.55358 17.6676058,328.991323 C17.8120027,329.372005 17.9695264,329.752688 18.1270502,330.146497 C19.5710183,334.032084 21.1068753,337.891417 22.7214941,341.685115 C23.6272559,343.824813 24.6117796,345.898876 25.5831763,347.999194 C26.5020651,350.033876 27.368446,352.068558 28.3398427,354.06386 C29.8494457,357.188081 31.4509376,360.220414 33.0655564,363.265874 C33.5643817,364.224144 34.0238261,365.195541 34.5357785,366.140684 C36.5048258,369.72435 38.5395081,373.242381 40.6398254,376.734158 C40.876111,377.127968 41.0861428,377.534904 41.3355554,377.928714 C43.5802695,381.617396 45.9168724,385.25357 48.3191102,388.837236 C48.45038,389.021014 48.5685228,389.217919 48.6997927,389.414824 C51.1545384,393.037871 53.688046,396.60841 56.3003156,400.113314 C56.4184584,400.257711 56.5234743,400.415235 56.6416171,400.559632 C59.1488708,403.920139 61.7348864,407.215012 64.4127908,410.44425 C64.6622035,410.772424 64.9116161,411.087472 65.1610288,411.402519 C67.6026476,414.356091 70.1230282,417.2309 72.6696628,420.079455 C73.2078691,420.670169 73.7198215,421.287137 74.2711547,421.877852 C76.5552497,424.385105 78.9181066,426.826724 81.2940904,429.242089 C82.1473443,430.134724 83.0005981,431.053612 83.880106,431.919993 C85.9410422,433.967802 88.0413594,435.93685 90.1548036,437.905897 C91.4543749,439.11358 92.7145652,440.347516 94.0141365,441.515817 C95.7468982,443.091055 97.5321678,444.574404 99.3043105,446.097134 C101.076453,447.619864 102.822342,449.155721 104.633865,450.63907 C105.999072,451.754864 107.390532,452.805022 108.755738,453.881435 C111.039833,455.679832 113.323928,457.478228 115.660531,459.21099 C116.645054,459.932974 117.655832,460.615577 118.653483,461.337561 C121.423276,463.332863 124.206196,465.30191 127.054752,467.205322 C127.684847,467.625386 128.328069,468.006068 128.958164,468.426132 C132.200529,470.539576 135.456021,472.626766 138.790274,474.608941 C139.105322,474.805845 139.420369,474.976496 139.761671,475.173401 C143.371591,477.326226 147.047146,479.413416 150.788336,481.395591 C150.919606,481.474352 151.07713,481.553114 151.221527,481.631876 C155.107113,483.692812 159.032081,485.674987 163.009557,487.565272 C163.167081,487.630907 163.324605,487.696542 163.455874,487.762177 C167.420223,489.626209 171.423953,491.424605 175.467063,493.104859 C175.887127,493.27551 176.30719,493.419907 176.714127,493.590557 C180.481571,495.139541 184.288396,496.636017 188.147729,498.027477 C189.132252,498.381906 190.116776,498.683827 191.088173,499.025128 C194.383045,500.167176 197.677918,501.309223 201.012171,502.333128 C203.112489,502.97635 205.23906,503.527683 207.365631,504.131524 C209.610345,504.76162 211.841932,505.444223 214.1129,506.02181 C218.037868,507.032588 222.002217,507.912095 225.979692,508.752222 C226.465391,508.857238 226.937962,508.988508 227.42366,509.093524 C250.671547,513.871745 274.798941,515.788285 299.359525,514.488714 C328.829601,512.992238 357.105121,507.006334 383.555991,497.213605 C383.871039,497.095462 384.186086,496.951065 384.501134,496.832922 C388.452356,495.349573 392.377323,493.813716 396.249783,492.159716 C398.350101,491.267081 400.384783,490.295685 402.458846,489.350542 C404.532909,488.418526 406.606973,487.512764 408.628528,486.541368 C411.739623,485.031765 414.771956,483.4434 417.791162,481.841908 C418.762558,481.329956 419.747082,480.857384 420.692225,480.332305 C424.289018,478.389512 427.793922,476.354829 431.272573,474.267639 C431.666382,474.018226 432.073319,473.795068 432.480255,473.558782 C436.208318,471.287814 439.870746,468.924957 443.46754,466.509592 C443.63819,466.391449 443.795714,466.299561 443.966365,466.194545 C447.602539,463.739799 451.159951,461.180037 454.677983,458.567768 C454.82238,458.462752 454.966776,458.357736 455.111173,458.25272 C458.458554,455.745467 461.727172,453.172578 464.943283,450.534055 C465.284585,450.245261 465.625886,449.982721 465.967188,449.707055 C468.933886,447.265436 471.821822,444.731928 474.65725,442.185294 C475.247965,441.660214 475.851806,441.161389 476.429393,440.623183 C478.936647,438.339088 481.365138,435.989358 483.780503,433.613374 C484.673138,432.733866 485.592027,431.880612 486.484662,430.987977 C488.506217,428.953295 490.475264,426.866105 492.418058,424.765788 C493.651994,423.466216 494.88593,422.179772 496.080486,420.853947 Z" id="Fill-18" fill="#FFFFFF" mask="url(#mask-5)"></path>
                </g>
            </g>
        </g>
    </g>
</svg>