<?xml version="1.0" encoding="utf-8"?>
<!-- Generator: Adobe Illustrator 25.4.1, SVG Export Plug-In . SVG Version: 6.00 Build 0)  -->
<svg version="1.1" id="a21ee4c9-30b5-41a4-9cd2-1d8304d073bd"
	 xmlns="http://www.w3.org/2000/svg" xmlns:xlink="http://www.w3.org/1999/xlink" x="0px" y="0px" viewBox="0 0 137.6 45.2"
	 style="enable-background:new 0 0 137.6 45.2;" xml:space="preserve">
<style type="text/css">
	.st0{fill:#003781;}
</style>
<g>
	<path class="st0" d="M9.6,11H3.8l-1.4,3.5H0L5.4,0.8H8l5.4,13.7H11L9.6,11z M8.8,8.8L6.7,3.3L4.6,8.8H8.8z"/>
	<path class="st0" d="M18.6,0.1v11.4c0,0.3,0.1,0.6,0.2,0.8c0.2,0.2,0.5,0.3,0.7,0.3c0.2,0,0.5,0,0.7-0.1l0.2,1.9
		c-0.5,0.2-1,0.2-1.5,0.2c-0.7,0.1-1.4-0.2-1.9-0.6c-0.4-0.6-0.6-1.3-0.6-2V0.1H18.6z"/>
	<path class="st0" d="M25.8,0.1v11.4c0,0.3,0.1,0.6,0.2,0.8c0.2,0.2,0.5,0.3,0.7,0.3c0.2,0,0.5,0,0.7-0.1l0.2,1.9
		c-0.5,0.2-1,0.2-1.5,0.2c-0.7,0.1-1.4-0.2-1.9-0.6c-0.4-0.6-0.7-1.3-0.6-2V0.1H25.8z"/>
	<path class="st0" d="M31.1,2.4c-0.3-0.3-0.4-0.6-0.4-1c0-0.4,0.1-0.7,0.4-1c0.3-0.3,0.6-0.4,1-0.4c0.4,0,0.7,0.1,1,0.4
		c0.3,0.3,0.4,0.6,0.4,1c0,0.4-0.1,0.7-0.4,1c-0.3,0.3-0.6,0.4-1,0.4C31.7,2.8,31.4,2.6,31.1,2.4z M33.2,4.6v9.8H31V4.7L33.2,4.6z"
		/>
	<path class="st0" d="M39.1,14c-0.7-0.4-1.2-1.1-1.6-1.8c-0.4-0.8-0.5-1.7-0.5-2.6c0-0.9,0.2-1.8,0.6-2.7c0.4-0.7,0.9-1.3,1.6-1.8
		c0.7-0.4,1.5-0.7,2.3-0.7c1.3,0,2.5,0.6,3.3,1.7V4.7h2v9.8h-2V13c-0.7,1.1-2,1.7-3.3,1.7C40.6,14.7,39.8,14.5,39.1,14z M43.9,11.8
		c0.5-0.6,0.8-1.4,0.7-2.3c0.1-0.8-0.2-1.6-0.7-2.3c-0.5-0.6-1.2-0.9-2-0.8c-0.8,0-1.5,0.3-2,0.9c-0.5,0.6-0.8,1.4-0.8,2.2
		c0,0.8,0.2,1.6,0.8,2.2c0.5,0.6,1.2,0.9,2,0.9C42.6,12.7,43.4,12.4,43.9,11.8L43.9,11.8z"/>
	<path class="st0" d="M59,5.6c0.7,0.9,1.1,2,1,3.1v5.7h-2.1V9.1c0.1-0.7-0.1-1.4-0.6-2c-0.4-0.5-1-0.7-1.7-0.7
		c-0.6,0-1.3,0.2-1.7,0.7c-0.4,0.5-0.7,1.2-0.6,1.9v5.4h-2.1V4.7h2v1.5c0.3-0.6,0.7-1,1.3-1.3c0.6-0.3,1.2-0.4,1.8-0.4
		C57.3,4.4,58.3,4.8,59,5.6z"/>
	<path class="st0" d="M71.6,12.5v2h-8v-1.7l4.9-6.2h-4.7v-2h7.6v1.7l-4.9,6.2H71.6z"/>
</g>
<g>
	<path class="st0" d="M1.6,27.6h4.3c1.3,0,2.7,0.3,3.9,0.9c1,0.5,1.9,1.4,2.4,2.4c0.6,1.1,0.9,2.4,0.8,3.6c0,1.2-0.3,2.5-0.8,3.6
		c-0.5,1-1.4,1.9-2.4,2.4c-1.2,0.6-2.5,0.9-3.9,0.8H1.6V27.6z M5.9,39.2c1.3,0.1,2.6-0.4,3.6-1.2c0.9-0.9,1.3-2.2,1.2-3.4
		c0.1-1.3-0.4-2.5-1.2-3.5c-1-0.9-2.3-1.4-3.6-1.3h-2v9.4L5.9,39.2z"/>
	<path class="st0" d="M18.6,40.9c-0.7-0.4-1.2-1.1-1.6-1.8c-0.8-1.7-0.8-3.6,0-5.3c0.4-0.7,0.9-1.4,1.6-1.8c0.7-0.4,1.5-0.7,2.4-0.6
		c1.3,0,2.5,0.6,3.2,1.7v-1.5h2v9.8h-2v-1.5c-0.7,1.1-1.9,1.7-3.2,1.7C20.2,41.6,19.3,41.3,18.6,40.9z M23.4,38.7c1-1.4,1-3.2,0-4.5
		c-0.5-0.6-1.2-0.9-2-0.8c-0.8,0-1.5,0.3-2,0.9c-1,1.3-1,3.2,0,4.5c0.5,0.6,1.2,0.9,2,0.8C22.2,39.6,22.9,39.2,23.4,38.7z"/>
	<path class="st0" d="M36.7,31.6l-0.3,2.1c-0.3-0.1-0.7-0.2-1-0.2c-0.6,0-1.3,0.2-1.7,0.7c-0.5,0.6-0.7,1.4-0.6,2.2v4.9h-2.1v-9.8h2
		v1.7c0.4-1.1,1.4-1.9,2.6-1.9C35.9,31.4,36.3,31.4,36.7,31.6z"/>
	<path class="st0" d="M45.2,41.2c-0.6,0.2-1.2,0.3-1.9,0.3c-0.8,0.1-1.6-0.2-2.2-0.8c-0.6-0.6-0.8-1.5-0.8-2.3v-4.9H39v-2h1.3v-2.3
		l2.1-0.4v2.8h2.6v2h-2.6v4.5c0,1,0.4,1.4,1.3,1.4c0.4,0,0.8-0.1,1.1-0.2L45.2,41.2z"/>
	<path class="st0" d="M50.4,40.9c-0.7-0.4-1.2-1.1-1.6-1.8c-0.8-1.7-0.8-3.6,0-5.3c0.4-0.7,0.9-1.4,1.6-1.8c0.7-0.4,1.5-0.7,2.3-0.6
		c1.3,0,2.6,0.6,3.3,1.7v-1.5h2v9.8h-2v-1.5c-0.7,1.1-2,1.7-3.3,1.7C51.9,41.5,51,41.3,50.4,40.9z M55.1,38.7c1-1.4,1-3.2,0-4.5
		c-0.5-0.6-1.2-0.9-2-0.8c-0.8,0-1.5,0.3-2,0.9c-1,1.3-1,3.2,0,4.5c0.5,0.6,1.2,0.9,2,0.8C53.9,39.6,54.6,39.3,55.1,38.7z"/>
	<path class="st0" d="M69.3,38.5c1.1,0.7,2.4,1,3.7,1c0.8,0.1,1.6-0.1,2.3-0.5c0.5-0.3,0.8-0.8,0.9-1.4c0-0.3-0.1-0.7-0.4-0.9
		c-0.3-0.2-0.6-0.4-0.9-0.6c-0.4-0.2-0.9-0.3-1.6-0.6c-0.8-0.3-1.5-0.6-2.3-0.9c-0.6-0.3-1.1-0.7-1.5-1.2c-0.4-0.6-0.7-1.3-0.6-2.1
		c0-1.1,0.4-2.2,1.3-2.9c1-0.7,2.3-1.1,3.5-1c0.8,0,1.5,0.1,2.3,0.3c0.6,0.1,1.3,0.4,1.8,0.7l-0.5,2.2c-0.5-0.3-1.1-0.6-1.7-0.7
		c-0.6-0.2-1.2-0.2-1.8-0.2c-0.7,0-1.4,0.1-2,0.5c-0.4,0.3-0.7,0.7-0.7,1.2c0,0.4,0.1,0.7,0.4,1c0.3,0.3,0.6,0.5,1,0.6
		c0.4,0.2,0.9,0.4,1.6,0.6c0.8,0.2,1.5,0.5,2.2,0.8c0.6,0.3,1.1,0.7,1.4,1.2c0.4,0.6,0.6,1.3,0.6,2c0,1.2-0.5,2.3-1.5,3
		c-1.2,0.8-2.6,1.2-4,1.1c-1.5,0.1-2.9-0.3-4.2-0.9L69.3,38.5z"/>
	<path class="st0" d="M84,40.9c-0.7-0.4-1.2-1.1-1.6-1.8c-0.4-0.8-0.6-1.7-0.6-2.7c0-0.9,0.2-1.8,0.6-2.7c0.3-0.7,0.9-1.4,1.6-1.8
		c0.7-0.4,1.5-0.7,2.3-0.6c1.3,0,2.6,0.6,3.3,1.7v-1.5h2v9.8h-2v-1.5c-0.7,1.1-2,1.7-3.3,1.7C85.5,41.5,84.7,41.3,84,40.9z
		 M88.8,38.7c1-1.4,1-3.2,0-4.5c-0.5-0.6-1.2-0.9-2-0.8c-0.8,0-1.5,0.3-2,0.9c-1,1.3-1,3.2,0,4.5c0.5,0.6,1.2,0.9,2,0.8
		C87.5,39.5,88.2,39.2,88.8,38.7L88.8,38.7z"/>
	<path class="st0" d="M105.1,31.5l-4,9.8h-2.2L95,31.5h2.3l2.7,7.4l2.8-7.4H105.1z"/>
	<path class="st0" d="M108.6,29.2c-0.5-0.6-0.5-1.4,0-2c0.6-0.5,1.4-0.5,2,0c0.3,0.3,0.4,0.6,0.4,1c0,0.4-0.1,0.7-0.4,1
		c-0.3,0.3-0.6,0.4-1,0.4C109.2,29.6,108.8,29.5,108.6,29.2z M110.6,31.5v9.8h-2.1v-9.8H110.6z"/>
	<path class="st0" d="M123.1,32.4c0.7,0.9,1.1,2,1,3.2v5.7H122V36c0.1-0.7-0.1-1.4-0.6-2c-0.4-0.5-1-0.7-1.7-0.7
		c-0.7-0.1-1.3,0.2-1.8,0.7c-0.5,0.6-0.7,1.3-0.6,2v5.4h-2.1v-9.9h2V33c0.3-0.6,0.7-1,1.3-1.3c0.6-0.3,1.2-0.4,1.8-0.4
		C121.4,31.2,122.4,31.7,123.1,32.4z"/>
	<path class="st0" d="M137.6,31.5v8.7c0.1,1.3-0.4,2.7-1.4,3.6c-1.1,0.9-2.5,1.4-3.9,1.3c-1.4,0-2.7-0.3-3.9-0.9l0.6-1.9
		c0.5,0.3,1,0.5,1.5,0.6c0.5,0.2,1.1,0.2,1.7,0.2c0.9,0.1,1.8-0.2,2.5-0.8c0.6-0.6,0.9-1.4,0.8-2.3v-0.5c-0.7,1-1.9,1.6-3.2,1.5
		c-0.8,0-1.6-0.2-2.3-0.6c-0.7-0.4-1.2-1-1.6-1.7c-0.8-1.6-0.8-3.5,0-5.1c0.4-0.7,0.9-1.3,1.6-1.7c0.7-0.4,1.5-0.6,2.3-0.6
		c1.3-0.1,2.6,0.6,3.3,1.6v-1.5H137.6z M134.8,38.3c1-1.3,1-3,0-4.3c-0.5-0.5-1.3-0.8-2-0.8c-0.8,0-1.5,0.3-2,0.8
		c-1.1,1.2-1.1,3,0,4.2c0.5,0.5,1.2,0.8,2,0.8C133.5,39.2,134.3,38.9,134.8,38.3z"/>
</g>
</svg>
