<?xml version="1.0" encoding="UTF-8"?>
<svg width="63px" height="31px" viewBox="0 0 63 31" version="1.1" xmlns="http://www.w3.org/2000/svg" xmlns:xlink="http://www.w3.org/1999/xlink">
    <!-- Generator: Sketch 51.3 (57544) - http://www.bohemiancoding.com/sketch -->
    <title>zwitserleven</title>
    <desc>Created with Sketch.</desc>
    <defs></defs>
    <g id="zwitserleven" stroke="none" stroke-width="1" fill="none" fill-rule="evenodd">
        <g id="logo-zwitserleven" transform="translate(-6.000000, 12.198163)">
            <g id="Bounding_box">
                <rect id="Rectangle-path" x="0" y="0" width="75.8920455" height="22.0227273"></rect>
            </g>
            <g id="Logo" transform="translate(7.340909, 6.693182)" fill-rule="nonzero">
                <path d="M15.9556818,2.59090909 L15.9556818,7.79431818 C15.9556818,7.90227273 15.8693182,7.98863636 15.7613636,7.98863636 L14.5738636,7.98863636 C14.4659091,7.98863636 14.3795455,7.90227273 14.3795455,7.79431818 L14.3795455,2.59090909 C14.3795455,2.48295455 14.4659091,2.39659091 14.5738636,2.39659091 L15.7613636,2.39659091 C15.8693182,2.39659091 15.9556818,2.48295455 15.9556818,2.59090909 Z M24.6352273,4.87954545 L23.4261364,4.18863636 C23.2318182,4.08068182 23.1238636,3.99431818 23.1238636,3.84318182 C23.1238636,3.62727273 23.2534091,3.5625 23.6420455,3.5625 C24.1386364,3.5625 24.9806818,3.64886364 25.2613636,3.69204545 C25.2613636,3.69204545 25.2829545,3.69204545 25.2829545,3.69204545 C25.3909091,3.69204545 25.4556818,3.62727273 25.4556818,3.49772727 L25.4556818,2.69886364 C25.4556818,2.59090909 25.3909091,2.50454545 25.2613636,2.48295455 C24.7647727,2.35340909 24.2897727,2.26704545 23.5125,2.26704545 C22.1738636,2.26704545 21.5045455,2.78522727 21.5045455,3.77840909 C21.5045455,4.40454545 21.8284091,4.90113636 22.3681818,5.225 L23.6420455,5.95909091 C23.9227273,6.11022727 24.0090909,6.21818182 24.0090909,6.36931818 C24.0090909,6.62840909 23.9011364,6.75795455 23.4261364,6.75795455 C23.1238636,6.75795455 22.3034091,6.69318182 21.7636364,6.62840909 C21.7636364,6.62840909 21.7420455,6.62840909 21.7204545,6.62840909 C21.6125,6.62840909 21.5261364,6.71477273 21.5261364,6.82272727 L21.5261364,7.62159091 C21.5261364,7.72954545 21.5909091,7.81590909 21.7204545,7.8375 C22.2170455,7.96704545 22.9511364,8.05340909 23.4909091,8.05340909 C24.9159091,8.05340909 25.5852273,7.34090909 25.5852273,6.4125 C25.6284091,5.85113636 25.4556818,5.33295455 24.6352273,4.87954545 Z M35.3443182,2.31022727 C34.8693182,2.31022727 34.3943182,2.48295455 34.0272727,2.78522727 L34.0272727,2.59090909 C34.0272727,2.48295455 33.9409091,2.39659091 33.8329545,2.39659091 L32.6670455,2.39659091 C32.5590909,2.39659091 32.4727273,2.48295455 32.4727273,2.59090909 L32.4727273,7.77272727 C32.4727273,7.88068182 32.5806818,7.98863636 32.6886364,7.98863636 L33.8761364,7.98863636 C33.9840909,7.98863636 34.0704545,7.88068182 34.0704545,7.77272727 L34.0704545,3.97272727 C34.4375,3.77840909 34.8477273,3.62727273 35.3227273,3.62727273 L35.4090909,3.62727273 C35.4954545,3.62727273 35.5602273,3.51931818 35.5602273,3.43295455 L35.5602273,2.50454545 C35.5386364,2.39659091 35.4522727,2.31022727 35.3443182,2.31022727 Z M4.87954545,6.67159091 L2.02954545,6.67159091 C1.96477273,6.67159091 1.92159091,6.65 1.92159091,6.60681818 C1.92159091,6.58522727 1.94318182,6.54204545 1.96477273,6.49886364 L4.94431818,2.09431818 C4.9875,2.00795455 5.03068182,1.92159091 5.03068182,1.83522727 L5.03068182,0.928409091 C5.03068182,0.734090909 4.83636364,0.647727273 4.64204545,0.647727273 L0.280681818,0.647727273 C0.172727273,0.647727273 0.0863636364,0.734090909 0.0863636364,0.842045455 L0.0863636364,1.79204545 C0.0863636364,1.9 0.172727273,1.98636364 0.280681818,1.98636364 L3.02272727,1.98636364 C3.0875,1.98636364 3.13068182,2.00795455 3.13068182,2.07272727 C3.13068182,2.09431818 3.13068182,2.1375 3.0875,2.18068182 L0.151136364,6.49886364 C0.0215909091,6.67159091 -7.10542736e-15,6.80113636 -7.10542736e-15,6.93068182 L-7.10542736e-15,7.72954545 C-7.10542736e-15,7.94545455 0.172727273,8.03181818 0.410227273,8.03181818 L4.90113636,8.03181818 C5.00909091,8.03181818 5.09545455,7.94545455 5.09545455,7.8375 L5.09545455,6.8875 C5.07386364,6.73636364 4.9875,6.67159091 4.87954545,6.67159091 Z M20.3170455,2.39659091 L19.4318182,2.39659091 L19.4318182,1.05795455 C19.4318182,0.95 19.3454545,0.885227273 19.2590909,0.885227273 C19.2590909,0.885227273 19.2375,0.885227273 19.2375,0.885227273 L18.05,1.07954545 C17.9420455,1.10113636 17.8556818,1.16590909 17.8556818,1.27386364 L17.8556818,2.39659091 L17.0568182,2.39659091 C16.9488636,2.39659091 16.8409091,2.50454545 16.8409091,2.6125 L16.8409091,3.28181818 C16.8409091,3.38977273 16.9488636,3.47613636 17.0568182,3.49772727 L17.8556818,3.62727273 L17.8556818,6.4125 C17.8556818,7.79431818 18.4170455,8.075 19.4965909,8.075 C19.7772727,8.075 20.0363636,8.05340909 20.3386364,7.98863636 C20.4465909,7.96704545 20.5329545,7.88068182 20.5329545,7.79431818 L20.5329545,7.03863636 C20.5329545,6.93068182 20.4465909,6.86590909 20.3170455,6.86590909 L19.7772727,6.86590909 C19.475,6.86590909 19.4534091,6.80113636 19.4534091,6.4125 L19.4534091,3.62727273 L20.3386364,3.62727273 C20.4465909,3.62727273 20.5329545,3.54090909 20.5329545,3.43295455 L20.5329545,2.59090909 C20.5113636,2.48295455 20.425,2.39659091 20.3170455,2.39659091 Z M9.06818182,2.39659091 C8.74431818,2.39659091 8.61477273,2.50454545 8.52840909,2.82840909 L7.8375,6.58522727 C7.8375,6.62840909 7.81590909,6.62840909 7.79431818,6.62840909 C7.77272727,6.62840909 7.75113636,6.62840909 7.75113636,6.58522727 L7.14659091,2.54772727 C7.125,2.39659091 7.06022727,2.375 6.93068182,2.375 L5.78636364,2.375 C5.76477273,2.375 5.54886364,2.35340909 5.61363636,2.63409091 C5.61363636,2.63409091 6.49886364,6.99545455 6.60681818,7.44886364 C6.65,7.66477273 6.84431818,7.98863636 7.14659091,7.98863636 L8.26931818,7.98863636 C8.57159091,7.98863636 8.76590909,7.66477273 8.80909091,7.44886364 C8.85227273,7.23295455 9.43522727,4.08068182 9.43522727,4.08068182 C9.43522727,4.0375 9.45681818,4.0375 9.47840909,4.0375 C9.5,4.0375 9.52159091,4.0375 9.52159091,4.08068182 C9.52159091,4.08068182 10.1045455,7.23295455 10.1477273,7.44886364 C10.1909091,7.66477273 10.4068182,7.98863636 10.6875,7.98863636 L11.8102273,7.98863636 C12.0909091,7.98863636 12.3068182,7.68636364 12.35,7.44886364 C12.4363636,6.99545455 13.3431818,2.63409091 13.3431818,2.63409091 C13.4079545,2.375 13.1920455,2.375 13.1704545,2.375 L12.0261364,2.375 C11.9181818,2.375 11.8318182,2.39659091 11.8102273,2.54772727 L11.2056818,6.58522727 C11.2056818,6.62840909 11.1840909,6.62840909 11.1625,6.62840909 C11.1409091,6.62840909 11.1193182,6.62840909 11.1193182,6.58522727 L10.4284091,2.82840909 C10.3420455,2.48295455 10.1909091,2.39659091 9.88863636,2.39659091 L9.06818182,2.39659091 Z M31.3715909,4.87954545 L31.3715909,5.33295455 C31.3715909,5.33295455 31.3715909,5.33295455 31.3715909,5.33295455 C31.3715909,5.52727273 31.2204545,5.67840909 31.0261364,5.67840909 C31.0261364,5.67840909 31.0261364,5.67840909 31.0261364,5.67840909 L28.0681818,5.67840909 L28.0681818,5.7 C28.0681818,6.26136364 28.3056818,6.75795455 29.0829545,6.75795455 C29.6875,6.75795455 30.5727273,6.71477273 30.9613636,6.67159091 C30.9613636,6.67159091 30.9829545,6.67159091 30.9829545,6.67159091 C31.0909091,6.67159091 31.1772727,6.71477273 31.1772727,6.82272727 L31.1772727,7.55681818 C31.1772727,7.70795455 31.1340909,7.77272727 30.9613636,7.81590909 C30.3352273,7.96704545 29.8170455,8.05340909 28.9534091,8.05340909 C27.7659091,8.05340909 26.4920455,7.42727273 26.4920455,5.54886364 L26.4920455,4.85795455 C26.4920455,3.28181818 27.4204545,2.28863636 28.975,2.28863636 C30.5727273,2.31022727 31.3715909,3.41136364 31.3715909,4.87954545 Z M29.8386364,4.66363636 C29.8386364,3.95113636 29.5147727,3.58409091 28.9534091,3.58409091 C28.4136364,3.58409091 28.0465909,3.95113636 28.0465909,4.66363636 L28.0465909,4.75 L29.8170455,4.75 L29.8170455,4.66363636 L29.8386364,4.66363636 Z" id="Shape" fill="#646363"></path>
                <path d="M61.2102273,4.53409091 L61.2102273,7.77272727 C61.2102273,7.88068182 61.1022727,7.98863636 60.9943182,7.98863636 L59.8068182,7.98863636 C59.6988636,7.98863636 59.6125,7.88068182 59.6125,7.77272727 L59.6125,4.53409091 C59.6125,3.84318182 59.4829545,3.62727273 58.9,3.62727273 C58.6193182,3.62727273 58.3170455,3.75681818 57.9715909,3.92954545 L57.9715909,7.77272727 C57.9715909,7.88068182 57.8852273,7.98863636 57.7772727,7.98863636 L56.5897727,7.98863636 C56.4818182,7.98863636 56.3954545,7.88068182 56.3954545,7.77272727 L56.3954545,2.59090909 C56.3954545,2.48295455 56.4818182,2.39659091 56.5897727,2.39659091 L57.6909091,2.39659091 C57.7988636,2.39659091 57.8852273,2.48295455 57.8852273,2.59090909 L57.8852273,2.82840909 C58.425,2.43977273 58.8568182,2.31022727 59.4829545,2.31022727 C60.9079545,2.31022727 61.2102273,3.30340909 61.2102273,4.53409091 Z M37.8920455,0.388636364 C37.8920455,0.388636364 37.8704545,0.388636364 37.8704545,0.388636364 L36.6829545,0.582954545 C36.575,0.604545455 36.4886364,0.669318182 36.4886364,0.777272727 L36.4886364,7.77272727 C36.4886364,7.88068182 36.5965909,7.98863636 36.6829545,7.98863636 L37.8704545,7.98863636 C37.9784091,7.98863636 38.0647727,7.88068182 38.0647727,7.77272727 L38.0647727,0.539772727 C38.0863636,0.453409091 38,0.388636364 37.8920455,0.388636364 Z M15.7613636,0.0215909091 L14.5738636,0.0215909091 C14.4659091,0.0215909091 14.3795455,0.107954545 14.3795455,0.215909091 L14.3795455,1.38181818 C14.3795455,1.48977273 14.4659091,1.57613636 14.5738636,1.57613636 L15.7613636,1.57613636 C15.8693182,1.57613636 15.9556818,1.48977273 15.9556818,1.38181818 L15.9556818,0.215909091 C15.9556818,0.107954545 15.8693182,0.0215909091 15.7613636,0.0215909091 Z M49.7238636,2.39659091 L48.3852273,2.39659091 C48.2772727,2.39659091 48.1909091,2.41818182 48.1693182,2.56931818 L47.3056818,6.60681818 C47.3056818,6.65 47.2840909,6.65 47.2625,6.65 C47.2409091,6.65 47.2193182,6.65 47.2193182,6.60681818 L46.3556818,2.56931818 C46.3340909,2.41818182 46.2693182,2.39659091 46.1397727,2.39659091 L44.8011364,2.39659091 C44.7147727,2.39659091 44.65,2.48295455 44.65,2.56931818 C44.65,2.56931818 44.65,2.59090909 44.65,2.6125 C44.65,2.6125 45.9886364,7.25454545 46.0534091,7.47045455 C46.1181818,7.68636364 46.2909091,8.01022727 46.5931818,8.01022727 L47.2409091,8.01022727 L47.8886364,8.01022727 C48.1693182,8.01022727 48.3636364,7.68636364 48.4284091,7.47045455 C48.5363636,7.21136364 49.875,2.59090909 49.875,2.59090909 C49.875,2.59090909 49.875,2.56931818 49.875,2.54772727 C49.875,2.46136364 49.8318182,2.39659091 49.7238636,2.39659091 Z M44.1318182,4.87954545 L44.1318182,5.33295455 C44.1318182,5.33295455 44.1318182,5.33295455 44.1318182,5.33295455 C44.1318182,5.52727273 43.9806818,5.67840909 43.7863636,5.67840909 C43.7863636,5.67840909 43.7863636,5.67840909 43.7863636,5.67840909 L40.8068182,5.67840909 L40.8068182,5.7 C40.8068182,6.26136364 41.0443182,6.75795455 41.8215909,6.75795455 C42.4261364,6.75795455 43.3113636,6.71477273 43.7,6.67159091 C43.7,6.67159091 43.7215909,6.67159091 43.7215909,6.67159091 C43.8295455,6.67159091 43.9159091,6.71477273 43.9159091,6.82272727 L43.9159091,7.55681818 C43.9159091,7.70795455 43.8727273,7.77272727 43.7,7.81590909 C43.0738636,7.96704545 42.5556818,8.05340909 41.6920455,8.05340909 C40.5045455,8.05340909 39.2306818,7.42727273 39.2306818,5.54886364 L39.2306818,4.85795455 C39.2306818,3.28181818 40.1590909,2.28863636 41.7136364,2.28863636 C43.3113636,2.31022727 44.1318182,3.41136364 44.1318182,4.87954545 Z M42.5772727,4.66363636 C42.5772727,3.95113636 42.2534091,3.58409091 41.6920455,3.58409091 C41.1522727,3.58409091 40.7852273,3.95113636 40.7852273,4.66363636 L40.7852273,4.75 L42.5556818,4.75 L42.5556818,4.66363636 L42.5772727,4.66363636 Z M55.3375,4.87954545 L55.3375,5.33295455 C55.3375,5.33295455 55.3375,5.33295455 55.3375,5.33295455 C55.3375,5.52727273 55.1863636,5.67840909 54.9920455,5.67840909 C54.9920455,5.67840909 54.9920455,5.67840909 54.9920455,5.67840909 L52.0340909,5.67840909 L52.0340909,5.7 C52.0340909,6.26136364 52.2715909,6.75795455 53.0488636,6.75795455 C53.675,6.75795455 54.5386364,6.71477273 54.9272727,6.67159091 C54.9272727,6.67159091 54.9488636,6.67159091 54.9488636,6.67159091 C55.0568182,6.67159091 55.1431818,6.71477273 55.1431818,6.82272727 L55.1431818,7.55681818 C55.1431818,7.70795455 55.1,7.77272727 54.9272727,7.81590909 C54.3011364,7.96704545 53.7829545,8.05340909 52.9193182,8.05340909 C51.7318182,8.05340909 50.4579545,7.42727273 50.4579545,5.54886364 L50.4579545,4.85795455 C50.4579545,3.28181818 51.3863636,2.28863636 52.9409091,2.28863636 C54.5386364,2.31022727 55.3375,3.41136364 55.3375,4.87954545 Z M53.8045455,4.66363636 C53.8045455,3.95113636 53.4806818,3.58409091 52.9193182,3.58409091 C52.3795455,3.58409091 52.0125,3.95113636 52.0125,4.66363636 L52.0125,4.75 L53.7829545,4.75 L53.7829545,4.66363636 L53.8045455,4.66363636 Z" id="Shape" fill="#DB0812"></path>
            </g>
        </g>
    </g>
</svg>