<?xml version="1.0" encoding="utf-8"?>
<!-- Generator: Adobe Illustrator 25.4.1, SVG Export Plug-In . SVG Version: 6.00 Build 0)  -->
<svg version="1.1" id="Warstwa_1" xmlns="http://www.w3.org/2000/svg" xmlns:xlink="http://www.w3.org/1999/xlink" x="0px" y="0px"
	 viewBox="0 0 2335.6 387.6" style="enable-background:new 0 0 2335.6 387.6;" xml:space="preserve">
<style type="text/css">
	.st0{fill:#FFFFFF;}
	.st1{fill:#E01E26;}
	.st2{display:none;}
	.st3{display:inline;}
</style>
<g id="v02">
	<g>
		<path class="st0" d="M596.3,1.9v229.6c0,41.3-1.5,75.6-44.2,75.6c-43.7,0-45.7-38.6-45.7-74.6V1.9h-98.9v242.8
			c0,85.2,37,142.9,143,142.9c112.3,0,144.5-57.1,144.5-142.3V1.9H596.3z"/>
		<path class="st0" d="M954.3,1.9v163c0,19.9,2.6,44.1,6.3,66.1l-1,0.5c-5.7-19.4-16.6-41.4-26-59.8L847.2,1.9h-90.4v384.4H854
			V221.1c0-24.1-2.1-48.8-5.2-70.8l1-0.5c7.3,23.1,16.6,44.6,27,63.4l89.4,173.1h85.3V1.9H954.3z"/>
		<rect x="1118.4" y="1.9" class="st0" width="98.8" height="384.4"/>
		<path class="st0" d="M1531.1,1.9l-47.8,157.3c-6.2,19.9-15.6,56.6-19.2,80.3h-1.5c-4.2-23.6-14.1-58.2-20.8-80.3L1394.9,1.9h-104
			l-25.5,384.4h93.1l12.5-218.7h2.6c2.6,17.3,7.8,35.7,12,47.2l45.3,169.3h58.7l48.3-165.2c4.7-15.2,8.8-34.1,12.5-51.4h2.1
			l10.9,218.7h90.5L1631.5,1.9H1531.1z"/>
		<path class="st0" d="M1854.9,0c-99.8,0-165.3,67.7-165.3,188.5c0,149.2,67.6,197.8,159.6,197.8c94.1,0,163.2-50.6,163.2-200.4
			C2012.4,65.6,1959.9,0,1854.9,0 M1850.7,309.8c-36.4,0-57.2-32.5-57.2-120.8c0-86.2,27.5-110.5,59.3-110.5
			c31.7,0,55.6,22.7,55.6,107.9C1908.4,286.6,1883.5,309.8,1850.7,309.8"/>
		<polygon class="st0" points="2335.6,76.9 2335.6,1.9 2035.1,1.9 2035.1,76.9 2136,76.9 2136,386.3 2234.8,386.3 2234.8,76.9 		"/>
		<path class="st1" d="M297.6,182.4c-9-15.9-18.5-21.3-18.5-21.3s0,0-0.1,0l0,0c-1.5-1-2.9-1.9-4.2-2.6c-2.4-1.2-4.9-2.2-7.4-3
			c-24.4-7.8-52.6,0.4-60.1,3c-2.7,0.9-5.5,2-8.1,3.3c-0.7,0.3-1.3,0.5-1.9,0.8c-2.6,1.2-5.2,2.5-7.7,3.8c-0.2,0.1-0.4,0.2-0.6,0.3
			c-2.4,1.3-4.8,2.7-7.1,4.1c-0.4,0.2-0.8,0.5-1.2,0.8c-2.5,1.5-4.7,3-6.8,4.3c-2.8,1.8-5.3,3.7-6.4,4.5c0.2,0.2,0.4,0.3,0.6,0.5
			c10.2,8.1,23.5,21.9,31.6,39.2c9.3,20.2,15.7,42.4,15.7,67.2c0,27.8-8.1,52.2-22.3,72.5c-0.3,0.5-0.5,0.8-0.5,0.8
			c-0.5,0.8-1.2,1.5-1.7,2.3c-0.3,0.4-0.6,0.8-0.9,1.1c-4.2,5.9-8.8,11.4-14.2,16.2l0,0l-4.2,3.3c-1,0.9-2.1,1.8-3.2,2.6
			c64.8-4.8,126.7-43.5,140.8-123.9c1-5.7,1.6-11.5,1.8-17.3c0-0.9,0-1.8,0-2.8c0-1.9,0.1-3.8,0-5.7c-0.4-11.3-2.2-22.9-5.6-34.7
			C303.5,195.1,301.1,188.5,297.6,182.4"/>
		<path class="st1" d="M278.4,145.4c0.5,0.2,0.7,0.4,0.7,0.4s-0.4-0.2-1.1-0.6L278.4,145.4z"/>
		<path class="st1" d="M37.6,189.4c2.5,8.5,6.5,17.2,12.7,25.6c22.1,30,46.5,43,67,48.1c-0.5-0.5-0.8-1-1.3-1.5
			c-0.8-0.9-1.4-1.8-2.1-2.8c-0.1-0.1-0.2-0.4-0.3-0.5c-0.7-1-1.3-2.1-1.9-3.2c-0.1-0.2-0.2-0.3-0.2-0.5c-0.5-1.1-1-2.2-1.5-3.3
			c0-0.1-0.1-0.3-0.2-0.4c-0.4-1.2-0.8-2.4-1.1-3.6l0,0c-1.1-4.6-1.3-9.5-0.3-14.5c0.1-0.5,0.3-0.9,0.4-1.4c0.3-1.5,0.8-3,1.2-4.5
			c3-9.9,8.1-18.8,14.1-26.2c0.7-0.9,1.3-1.6,2-2.4c0.2-0.2,0.3-0.5,0.5-0.7c3.2-3.8,5.9-6.3,6.9-7.3c3.5-3.3,7-6.4,10.5-9.3
			c73.7-63.2,125.9-40,134.1-35.7c0.7,0.4,1.1,0.6,1.1,0.6c-7-10.6-15.2-21.2-24.7-32l-48.1-55.3l-2.9-3.3L156.1,0.9l-0.2-0.2
			L108,55.6l-2.5,2.9l-48.3,55.4c-1.1,1.2-2.2,2.5-3.2,3.7c-15.6,18.4-23,42.9-17.8,66.5C36.6,185.8,37.1,187.6,37.6,189.4"/>
		<path class="st1" d="M197.6,259.1c-1.3,1.8-2.8,3.3-4.3,4.8c-0.4,0.4-0.9,0.8-1.3,1.2c-1.2,1.1-2.5,2.2-3.9,3.2
			c-0.2,0.2-0.5,0.4-0.8,0.6c-5.5,3.8-11.4,6.3-17.6,8l0,0c-1.8,0.5-3.6,0.9-5.4,1.3c-0.5,0.1-1,0.2-1.5,0.3
			c-0.5,0.1-1.1,0.2-1.7,0.3c-17.1,2.8-33.3,0.2-38-0.7c-0.5-0.1-0.8-0.1-0.8-0.1c-0.2,0-0.4-0.1-0.6-0.1c-3.8-0.7-7-1.3-10.7-2.3
			c-0.7-0.2-1.4-0.4-2-0.6c-36-10-57.8-31.2-70.8-52.1c-0.1-0.2-0.2-0.3-0.3-0.5c-0.4-0.6-0.7-1.2-1.1-1.8c-0.8-1.3-1.6-2.5-2.3-3.8
			c-9.8-15.4-14-31.4-15.3-45.5c-0.2-2-0.3-3.1-0.3-3.1c-0.5,1-1.1,1.9-1.5,2.9c-0.1,0.2-0.2,0.4-0.2,0.5c-0.4,0.8-0.8,1.7-1.2,2.5
			c-1.4,3-2.8,6.1-4,9.1c-0.5,1.1-0.9,2.3-1.3,3.4c-1,2.5-1.9,5-2.8,7.6c-0.4,1.2-0.9,2.5-1.3,3.7c-0.6,2-1.1,3.9-1.6,5.8
			c-0.4,1.7-0.9,3.3-1.3,5c-0.1,0.2-0.1,0.5-0.2,0.7c-1.3,5.8-2.2,11.4-2.9,17.1c0,0.2,0,0.4,0,0.5c-0.3,3-0.5,5.9-0.6,8.8
			c0,0,0,0.1,0,0.2c-0.3,8.9,0.4,17.6,1.8,26.1c11.1,65.4,54.5,104.4,104.3,117.3c31,8,61.3-5,78.2-31.4c7-10.8,10.7-24,13.3-36.5
			C201.4,294.1,201.4,276.5,197.6,259.1"/>
	</g>
</g>
<g id="v03" class="st2">
	<g class="st3">
		<path class="st0" d="M596.3,1.9v229.6c0,41.3-1.5,75.6-44.2,75.6c-43.7,0-45.7-38.6-45.7-74.6V1.9h-98.9v242.8
			c0,85.2,37,142.9,143,142.9c112.3,0,144.5-57.1,144.5-142.3V1.9H596.3z"/>
		<path class="st0" d="M954.3,1.9v163c0,19.9,2.6,44.1,6.3,66.1l-1,0.5c-5.7-19.4-16.6-41.4-26-59.8L847.2,1.9h-90.4v384.4H854
			V221.1c0-24.1-2.1-48.8-5.2-70.8l1-0.5c7.3,23.1,16.6,44.6,27,63.4l89.4,173.1h85.3V1.9H954.3z"/>
		<rect x="1118.4" y="1.9" class="st0" width="98.8" height="384.4"/>
		<path class="st0" d="M1531.1,1.9l-47.8,157.3c-6.2,19.9-15.6,56.6-19.2,80.3h-1.5c-4.2-23.6-14.1-58.2-20.8-80.3L1394.9,1.9h-104
			l-25.5,384.4h93.1l12.5-218.7h2.6c2.6,17.3,7.8,35.7,12,47.2l45.3,169.3h58.7l48.3-165.2c4.7-15.2,8.8-34.1,12.5-51.4h2.1
			l10.9,218.7h90.5L1631.5,1.9H1531.1z"/>
		<path class="st0" d="M1854.9,0c-99.8,0-165.3,67.7-165.3,188.5c0,149.2,67.6,197.8,159.6,197.8c94.1,0,163.2-50.6,163.2-200.4
			C2012.4,65.6,1959.9,0,1854.9,0 M1850.7,309.8c-36.4,0-57.2-32.5-57.2-120.8c0-86.2,27.5-110.5,59.3-110.5
			c31.7,0,55.6,22.7,55.6,107.9C1908.4,286.6,1883.5,309.8,1850.7,309.8"/>
		<polygon class="st0" points="2335.6,76.9 2335.6,1.9 2035.1,1.9 2035.1,76.9 2136,76.9 2136,386.3 2234.8,386.3 2234.8,76.9 		"/>
		<path class="st1" d="M297.6,182.4c-9-15.9-18.5-21.3-18.5-21.3s0,0-0.1,0l0,0c-1.5-1-2.9-1.9-4.2-2.6c-2.4-1.2-4.9-2.2-7.4-3
			c-24.4-7.8-52.6,0.4-60.1,3c-2.7,0.9-5.5,2-8.1,3.3c-0.7,0.3-1.3,0.5-1.9,0.8c-2.6,1.2-5.2,2.5-7.7,3.8c-0.2,0.1-0.4,0.2-0.6,0.3
			c-2.4,1.3-4.8,2.7-7.1,4.1c-0.4,0.2-0.8,0.5-1.2,0.8c-2.5,1.5-4.7,3-6.8,4.3c-2.8,1.8-5.3,3.7-6.4,4.5c0.2,0.2,0.4,0.3,0.6,0.5
			c10.2,8.1,23.5,21.9,31.6,39.2c9.3,20.2,15.7,42.4,15.7,67.2c0,27.8-8.1,52.2-22.3,72.5c-0.3,0.5-0.5,0.8-0.5,0.8
			c-0.5,0.8-1.2,1.5-1.7,2.3c-0.3,0.4-0.6,0.8-0.9,1.1c-4.2,5.9-8.8,11.4-14.2,16.2l0,0l-4.2,3.3c-1,0.9-2.1,1.8-3.2,2.6
			c64.8-4.8,126.7-43.5,140.8-123.9c1-5.7,1.6-11.5,1.8-17.3c0-0.9,0-1.8,0-2.8c0-1.9,0.1-3.8,0-5.7c-0.4-11.3-2.2-22.9-5.6-34.7
			C303.5,195.1,301.1,188.5,297.6,182.4"/>
		<path class="st1" d="M278.4,145.4c0.5,0.2,0.7,0.4,0.7,0.4s-0.4-0.2-1.1-0.6L278.4,145.4z"/>
		<path class="st1" d="M37.6,189.4c2.5,8.5,6.5,17.2,12.7,25.6c22.1,30,46.5,43,67,48.1c-0.5-0.5-0.8-1-1.3-1.5
			c-0.8-0.9-1.4-1.8-2.1-2.8c-0.1-0.1-0.2-0.4-0.3-0.5c-0.7-1-1.3-2.1-1.9-3.2c-0.1-0.2-0.2-0.3-0.2-0.5c-0.5-1.1-1-2.2-1.5-3.3
			c0-0.1-0.1-0.3-0.2-0.4c-0.4-1.2-0.8-2.4-1.1-3.6l0,0c-1.1-4.6-1.3-9.5-0.3-14.5c0.1-0.5,0.3-0.9,0.4-1.4c0.3-1.5,0.8-3,1.2-4.5
			c3-9.9,8.1-18.8,14.1-26.2c0.7-0.9,1.3-1.6,2-2.4c0.2-0.2,0.3-0.5,0.5-0.7c3.2-3.8,5.9-6.3,6.9-7.3c3.5-3.3,7-6.4,10.5-9.3
			c73.7-63.2,125.9-40,134.1-35.7c0.7,0.4,1.1,0.6,1.1,0.6c-7-10.6-15.2-21.2-24.7-32l-48.1-55.3l-2.9-3.3L156.1,0.9l-0.2-0.2
			L108,55.6l-2.5,2.9l-48.3,55.4c-1.1,1.2-2.2,2.5-3.2,3.7c-15.6,18.4-23,42.9-17.8,66.5C36.6,185.8,37.1,187.6,37.6,189.4"/>
		<path class="st1" d="M197.6,259.1c-1.3,1.8-2.8,3.3-4.3,4.8c-0.4,0.4-0.9,0.8-1.3,1.2c-1.2,1.1-2.5,2.2-3.9,3.2
			c-0.2,0.2-0.5,0.4-0.8,0.6c-5.5,3.8-11.4,6.3-17.6,8l0,0c-1.8,0.5-3.6,0.9-5.4,1.3c-0.5,0.1-1,0.2-1.5,0.3
			c-0.5,0.1-1.1,0.2-1.7,0.3c-17.1,2.8-33.3,0.2-38-0.7c-0.5-0.1-0.8-0.1-0.8-0.1c-0.2,0-0.4-0.1-0.6-0.1c-3.8-0.7-7-1.3-10.7-2.3
			c-0.7-0.2-1.4-0.4-2-0.6c-36-10-57.8-31.2-70.8-52.1c-0.1-0.2-0.2-0.3-0.3-0.5c-0.4-0.6-0.7-1.2-1.1-1.8c-0.8-1.3-1.6-2.5-2.3-3.8
			c-9.8-15.4-14-31.4-15.3-45.5c-0.2-2-0.3-3.1-0.3-3.1c-0.5,1-1.1,1.9-1.5,2.9c-0.1,0.2-0.2,0.4-0.2,0.5c-0.4,0.8-0.8,1.7-1.2,2.5
			c-1.4,3-2.8,6.1-4,9.1c-0.5,1.1-0.9,2.3-1.3,3.4c-1,2.5-1.9,5-2.8,7.6c-0.4,1.2-0.9,2.5-1.3,3.7c-0.6,2-1.1,3.9-1.6,5.8
			c-0.4,1.7-0.9,3.3-1.3,5c-0.1,0.2-0.1,0.5-0.2,0.7c-1.3,5.8-2.2,11.4-2.9,17.1c0,0.2,0,0.4,0,0.5c-0.3,3-0.5,5.9-0.6,8.8
			c0,0,0,0.1,0,0.2c-0.3,8.9,0.4,17.6,1.8,26.1c11.1,65.4,54.5,104.4,104.3,117.3c31,8,61.3-5,78.2-31.4c7-10.8,10.7-24,13.3-36.5
			C201.4,294.1,201.4,276.5,197.6,259.1"/>
	</g>
</g>
</svg>
