<?xml version="1.0" standalone="no"?>
<!DOCTYPE svg PUBLIC "-//W3C//DTD SVG 20010904//EN"
 "http://www.w3.org/TR/2001/REC-SVG-20010904/DTD/svg10.dtd">
<svg version="1.0" xmlns="http://www.w3.org/2000/svg"
 width="1014.000000pt" height="373.000000pt" viewBox="0 0 1014.000000 373.000000"
 preserveAspectRatio="xMidYMid meet">

<g transform="translate(0.000000,373.000000) scale(0.100000,-0.100000)"
fill="#2968FE" stroke="none">
<path d="M1385 3708 c-43 -24 -64 -52 -85 -117 l-22 -68 -131 -6 c-141 -7
-262 -30 -367 -70 -397 -149 -684 -496 -757 -912 -23 -134 -14 -368 20 -498
117 -447 464 -774 919 -868 148 -30 388 -24 533 15 203 53 408 177 562 340
109 115 163 197 163 248 0 72 -40 120 -112 133 -54 10 -100 -15 -149 -82 -142
-193 -332 -327 -544 -384 -110 -30 -317 -32 -425 -5 -352 89 -596 330 -692
684 -28 101 -30 313 -5 416 84 339 338 599 673 692 33 9 104 18 159 21 l100 5
1 -148 c1 -183 23 -286 91 -424 113 -228 334 -363 541 -329 349 55 452 478
192 787 -110 132 -266 242 -427 304 l-81 31 14 40 c29 83 7 159 -55 192 -35
17 -87 19 -116 3z m208 -546 c280 -145 417 -392 286 -517 -26 -26 -38 -30 -82
-29 -172 2 -307 217 -307 486 0 79 3 98 14 98 8 0 48 -17 89 -38z"/>
<path d="M4099 3357 c-18 -12 -39 -38 -46 -57 -7 -19 -69 -417 -138 -885 -70
-467 -132 -863 -139 -880 -34 -80 -117 -135 -206 -135 -111 0 -202 77 -223
187 -4 19 14 172 43 370 28 185 50 356 50 380 0 86 -48 133 -134 133 -36 0
-52 -6 -80 -30 -19 -17 -37 -43 -40 -58 -4 -15 -31 -196 -61 -402 -30 -206
-60 -394 -66 -417 -15 -54 -72 -121 -123 -144 -132 -60 -297 32 -313 173 -3
25 17 194 47 400 31 211 50 368 46 384 -4 15 -22 42 -41 61 -28 28 -40 33 -79
33 -55 0 -96 -19 -120 -55 -11 -17 -34 -143 -72 -408 -52 -357 -55 -387 -45
-457 40 -267 292 -453 558 -412 89 14 183 57 244 111 l44 39 42 -38 c174 -153
435 -156 631 -9 l53 41 52 -41 c190 -146 457 -143 628 7 l44 40 41 -37 c176
-156 444 -161 632 -12 l52 42 53 -40 c103 -77 199 -111 315 -111 101 0 228 44
299 104 l29 25 41 -33 c23 -18 70 -46 105 -61 55 -26 75 -29 158 -30 109 0
181 19 263 71 28 18 53 31 55 30 2 -3 -22 -171 -34 -227 l-5 -27 -182 -5
c-208 -5 -275 -20 -417 -90 -110 -54 -231 -170 -277 -267 -82 -170 -63 -353
49 -476 143 -156 396 -178 606 -52 77 46 195 159 264 252 58 77 140 233 154
289 4 20 11 26 22 22 90 -34 153 -26 197 26 20 25 25 41 25 86 0 49 -4 59 -33
88 -20 20 -55 40 -90 51 -53 17 -57 20 -53 43 23 114 216 1355 216 1388 0 87
-48 133 -136 133 -42 0 -51 -4 -83 -37 l-35 -38 -70 35 c-67 34 -74 35 -180
35 -108 0 -113 -1 -190 -38 -165 -78 -294 -217 -392 -422 -64 -132 -95 -253
-97 -380 -2 -80 -6 -97 -27 -129 -49 -72 -137 -110 -221 -96 -93 16 -176 102
-186 193 -3 24 17 196 47 399 32 215 50 367 46 383 -4 16 -22 43 -41 62 -28
28 -40 33 -79 33 -59 0 -101 -21 -121 -61 -10 -18 -41 -197 -76 -432 -32 -221
-64 -416 -69 -433 -16 -48 -75 -110 -122 -129 -135 -54 -281 26 -312 170 -4
18 40 340 114 834 66 443 120 822 120 844 0 32 -7 46 -39 78 -34 34 -44 39
-86 39 -54 0 -95 -21 -118 -59 -10 -17 -60 -326 -141 -871 -69 -465 -131 -864
-137 -887 -14 -54 -71 -121 -123 -144 -81 -37 -186 -17 -250 47 -38 38 -66
100 -66 146 0 20 54 398 120 840 66 447 117 814 113 828 -23 91 -126 130 -204
77z m2596 -1166 c120 -54 143 -199 66 -411 -88 -239 -277 -412 -413 -377 -48
12 -103 72 -119 129 -50 185 122 546 304 639 82 43 107 46 162 20z m-101
-1479 c8 -13 -50 -129 -99 -198 -57 -79 -163 -176 -228 -209 -59 -29 -150 -34
-197 -10 -120 62 -80 232 78 334 57 36 114 58 202 76 73 15 236 19 244 7z"/>
<path d="M5467 2959 c-125 -66 -121 -262 6 -320 53 -24 111 -24 163 0 98 45
130 179 64 270 -47 68 -156 91 -233 50z"/>
<path d="M7729 2447 c-100 -34 -173 -84 -263 -178 -249 -262 -347 -654 -226
-904 61 -126 201 -221 341 -232 150 -11 277 40 410 164 l81 77 26 -35 c149
-196 401 -258 619 -153 92 44 166 116 215 209 41 79 46 101 88 385 17 113 38
226 46 252 19 58 86 135 139 159 113 52 244 -15 290 -149 12 -34 9 -72 -36
-382 -27 -189 -49 -357 -49 -373 0 -67 58 -117 134 -117 54 0 90 20 112 62 15
29 114 695 114 768 0 149 -95 316 -227 400 -111 71 -290 92 -413 49 l-60 -21
-26 21 c-55 43 -162 22 -194 -39 -6 -11 -37 -203 -70 -427 -33 -224 -64 -420
-70 -435 -26 -77 -124 -148 -203 -148 -102 0 -190 63 -221 158 -17 51 -17 53
33 397 55 375 58 412 37 454 -42 80 -164 84 -227 7 -16 -19 -18 -19 -42 -3
-89 58 -243 73 -358 34z m183 -247 c45 -13 103 -75 117 -127 40 -142 -49 -396
-191 -548 -132 -141 -257 -165 -341 -65 -139 165 71 647 322 736 44 16 47 16
93 4z"/>
<path d="M9780 1340 c0 -5 14 -10 30 -10 l30 0 0 -80 c0 -47 4 -80 10 -80 6 0
10 33 10 80 l0 80 30 0 c17 0 30 5 30 10 0 6 -30 10 -70 10 -40 0 -70 -4 -70
-10z"/>
<path d="M9950 1261 c0 -108 18 -123 22 -18 l3 72 26 -70 c14 -38 32 -71 40
-73 10 -2 21 15 33 50 35 99 40 101 47 18 l5 -75 2 93 c3 119 -15 124 -54 17
-16 -41 -31 -72 -34 -69 -3 3 -16 36 -30 72 -16 42 -32 68 -43 70 -15 3 -17
-7 -17 -87z"/>
</g>
</svg>
