<?xml version="1.0" encoding="UTF-8"?>
<svg id="DAAD_Logo-Supplement" xmlns="http://www.w3.org/2000/svg" viewBox="0 0 316 109">
  <defs>
    <style>
      .cls-1 {
        fill: #fff;
      }

      .cls-1, .cls-2 {
        stroke-width: 0px;
      }

      .cls-2 {
        fill: #0060af;
      }
    </style>
  </defs>
  <g>
    <path class="cls-1" d="M97.31,45.27h1.65c2.03,0,3.11,1.17,3.11,3.26s-1.08,3.32-3.07,3.32h-1.69v-6.58h0ZM98.89,51.17c1.55,0,2.31-.97,2.31-2.64s-.76-2.58-2.31-2.58h-.74v5.22h.74Z"/>
    <path class="cls-1" d="M105.28,46.85c1.25,0,1.95.89,1.95,2.29,0,.17-.01.33-.03.45h-3.29c.06,1.05.69,1.72,1.63,1.72.46,0,.85-.15,1.21-.38l.29.54c-.42.27-.94.5-1.61.5-1.31,0-2.34-.95-2.34-2.55s1.07-2.57,2.19-2.57ZM106.5,49.05c0-.99-.44-1.55-1.2-1.55-.68,0-1.31.56-1.41,1.55h2.61Z"/>
    <path class="cls-1" d="M108.41,46.97h.83v2.98c0,.91.27,1.31.91,1.31.5,0,.85-.25,1.32-.82v-3.46h.82v4.88h-.68l-.07-.76h-.03c-.45.53-.93.88-1.61.88-1.03,0-1.5-.66-1.5-1.91v-3.1s0,0,0,0Z"/>
    <path class="cls-1" d="M114.13,47.65h-.72v-.62l.76-.05.1-1.37h.69v1.37h1.31v.67h-1.31v2.71c0,.6.19.94.75.94.17,0,.39-.07.55-.13l.16.62c-.27.09-.6.18-.9.18-1.04,0-1.4-.66-1.4-1.63v-2.69s0,0,0,0Z"/>
    <path class="cls-1" d="M117.3,50.75c.42.34.85.58,1.44.58.64,0,.96-.34.96-.76,0-.5-.58-.72-1.11-.92-.69-.25-1.46-.58-1.46-1.41,0-.78.62-1.39,1.68-1.39.61,0,1.14.25,1.52.55l-.39.52c-.33-.25-.68-.43-1.11-.43-.61,0-.89.33-.89.7,0,.45.53.63,1.08.84.7.26,1.49.55,1.49,1.48,0,.79-.63,1.46-1.79,1.46-.69,0-1.36-.29-1.82-.67l.4-.55Z"/>
    <path class="cls-1" d="M123.67,46.85c.64,0,1.09.27,1.43.58l-.41.53c-.29-.25-.59-.43-.98-.43-.88,0-1.53.76-1.53,1.89s.61,1.87,1.51,1.87c.46,0,.85-.23,1.14-.49l.37.54c-.44.39-1,.63-1.59.63-1.29,0-2.29-.93-2.29-2.55s1.1-2.57,2.35-2.57Z"/>
    <path class="cls-1" d="M126.31,44.71h.82v1.95l-.03,1c.46-.44.95-.8,1.63-.8,1.02,0,1.49.66,1.49,1.91v3.09h-.82v-2.98c0-.91-.28-1.31-.92-1.31-.5,0-.84.26-1.34.75v3.53h-.82v-7.14h-.01Z"/>
    <path class="cls-1" d="M133.65,46.85c1.24,0,1.95.89,1.95,2.29,0,.17,0,.33-.03.45h-3.29c.06,1.05.69,1.72,1.63,1.72.46,0,.85-.15,1.21-.38l.29.54c-.42.27-.94.5-1.61.5-1.31,0-2.34-.95-2.34-2.55s1.07-2.57,2.19-2.57ZM134.87,49.05c0-.99-.44-1.55-1.2-1.55-.68,0-1.31.56-1.41,1.55h2.61Z"/>
    <path class="cls-1" d="M136.85,46.97h.68l.07.88h.03c.33-.61.83-1,1.39-1,.21,0,.36.03.52.1l-.16.72c-.16-.05-.27-.08-.47-.08-.41,0-.9.3-1.23,1.12v3.13h-.82v-4.87h0Z"/>
    <path class="cls-1" d="M145.52,49.85h-2.4l-.63,2.01h-.85l2.23-6.59h.94l2.23,6.59h-.88l-.64-2.01ZM145.31,49.17l-.31-1c-.23-.73-.44-1.46-.65-2.22h-.04c-.21.76-.42,1.49-.65,2.22l-.32,1h1.97Z"/>
    <path class="cls-1" d="M147.91,44.71h.81v4.83h.03l2.08-2.57h.91l-1.64,1.96,1.86,2.92h-.9l-1.43-2.35-.91,1.06v1.29h-.81v-7.14h0Z"/>
    <path class="cls-1" d="M155.59,48.76c0-.62-.21-1.23-1-1.23-.57,0-1.07.26-1.46.52l-.33-.57c.45-.29,1.13-.63,1.92-.63,1.19,0,1.7.79,1.7,2.01v2.99h-.68l-.07-.58h-.02c-.47.38-1.01.7-1.62.7-.82,0-1.44-.51-1.44-1.39,0-1.06.92-1.59,3-1.82ZM154.25,51.31c.47,0,.86-.23,1.33-.65v-1.36c-1.64.2-2.19.6-2.19,1.23,0,.55.38.78.86.78Z"/>
    <path class="cls-1" d="M159.78,46.85c.56,0,.93.21,1.37.56l-.04-.83v-1.88h.83v7.15h-.68l-.07-.57h-.03c-.38.37-.9.69-1.48.69-1.23,0-2.02-.92-2.02-2.55s1.01-2.57,2.12-2.57ZM159.86,51.28c.45,0,.84-.22,1.24-.67v-2.55c-.41-.37-.78-.51-1.18-.51-.78,0-1.41.75-1.41,1.87,0,1.16.5,1.86,1.35,1.86Z"/>
    <path class="cls-1" d="M165.46,46.85c1.25,0,1.95.89,1.95,2.29,0,.17,0,.33-.03.45h-3.29c.06,1.05.69,1.72,1.63,1.72.46,0,.85-.15,1.21-.38l.29.54c-.42.27-.94.5-1.61.5-1.3,0-2.34-.95-2.34-2.55,0-1.59,1.08-2.57,2.19-2.57ZM166.69,49.05c0-.99-.44-1.55-1.21-1.55-.68,0-1.31.56-1.41,1.55h2.62Z"/>
    <path class="cls-1" d="M168.66,46.97h.68l.07.7h.03c.42-.46.93-.82,1.52-.82.74,0,1.15.35,1.35.93.51-.55,1.01-.93,1.61-.93,1,0,1.49.66,1.49,1.91v3.09h-.82v-2.98c0-.91-.29-1.31-.9-1.31-.38,0-.77.25-1.22.75v3.53h-.82v-2.98c0-.91-.29-1.31-.91-1.31-.36,0-.77.25-1.22.75v3.53h-.82v-4.86s-.04,0-.04,0Z"/>
    <path class="cls-1" d="M176.88,45.44c0-.32.25-.53.57-.53s.57.21.57.53-.25.53-.57.53-.57-.22-.57-.53ZM177.03,46.97h.82v4.88h-.82v-4.88Z"/>
    <path class="cls-1" d="M179.42,50.75c.42.34.85.58,1.44.58.64,0,.96-.34.96-.76,0-.5-.58-.72-1.12-.92-.69-.25-1.46-.58-1.46-1.41,0-.78.62-1.39,1.68-1.39.61,0,1.14.25,1.52.55l-.39.52c-.33-.25-.68-.43-1.11-.43-.61,0-.89.33-.89.7,0,.45.53.63,1.08.84.7.26,1.49.55,1.49,1.48,0,.79-.63,1.46-1.79,1.46-.69,0-1.36-.29-1.82-.67l.41-.55Z"/>
    <path class="cls-1" d="M185.79,46.85c.64,0,1.09.27,1.43.58l-.41.53c-.29-.25-.59-.43-.98-.43-.88,0-1.53.76-1.53,1.89s.61,1.87,1.51,1.87c.46,0,.85-.23,1.14-.49l.37.54c-.44.39-1,.63-1.59.63-1.29,0-2.29-.93-2.29-2.55,0-1.63,1.1-2.57,2.35-2.57Z"/>
    <path class="cls-1" d="M188.43,44.71h.82v1.95l-.03,1c.46-.44.95-.8,1.63-.8,1.02,0,1.49.66,1.49,1.91v3.09h-.82v-2.98c0-.91-.28-1.31-.92-1.31-.5,0-.84.26-1.34.75v3.53h-.82v-7.14h-.01Z"/>
    <path class="cls-1" d="M195.77,46.85c1.25,0,1.95.89,1.95,2.29,0,.17,0,.33-.03.45h-3.29c.06,1.05.69,1.72,1.63,1.72.46,0,.85-.15,1.21-.38l.29.54c-.42.27-.94.5-1.61.5-1.3,0-2.34-.95-2.34-2.55,0-1.59,1.07-2.57,2.19-2.57ZM196.99,49.05c0-.99-.44-1.55-1.21-1.55-.68,0-1.31.56-1.41,1.55h2.62Z"/>
    <path class="cls-1" d="M198.97,46.97h.68l.07.88h.03c.33-.61.83-1,1.39-1,.21,0,.36.03.52.1l-.16.72c-.16-.05-.27-.08-.47-.08-.41,0-.9.3-1.24,1.12v3.13h-.82v-4.87h0Z"/>
    <path class="cls-1" d="M207.64,49.85h-2.4l-.63,2.01h-.85l2.23-6.59h.94l2.23,6.59h-.88l-.64-2.01ZM207.43,49.17l-.31-1c-.23-.73-.44-1.46-.65-2.22h-.04c-.21.76-.42,1.49-.65,2.22l-.32,1h1.97Z"/>
    <path class="cls-1" d="M209.9,46.97h.83v2.98c0,.91.27,1.31.91,1.31.5,0,.85-.25,1.32-.82v-3.46h.82v4.88h-.68l-.07-.76h-.03c-.45.53-.93.88-1.61.88-1.03,0-1.5-.66-1.5-1.91v-3.1s0,0,0,0Z"/>
    <path class="cls-1" d="M215.35,50.75c.42.34.85.58,1.44.58.64,0,.96-.34.96-.76,0-.5-.58-.72-1.12-.92-.69-.25-1.46-.58-1.46-1.41,0-.78.62-1.39,1.68-1.39.61,0,1.14.25,1.52.55l-.39.52c-.33-.25-.68-.43-1.11-.43-.61,0-.89.33-.89.7,0,.45.53.63,1.08.84.7.26,1.49.55,1.49,1.48,0,.79-.63,1.46-1.79,1.46-.69,0-1.36-.29-1.82-.67l.41-.55Z"/>
    <path class="cls-1" d="M219.87,47.65h-.72v-.62l.76-.05.1-1.37h.69v1.37h1.32v.67h-1.32v2.71c0,.6.19.94.75.94.17,0,.39-.07.55-.13l.16.62c-.27.09-.6.18-.9.18-1.04,0-1.4-.66-1.4-1.63v-2.69s0,0,0,0Z"/>
    <path class="cls-1" d="M225.76,48.76c0-.62-.21-1.23-1-1.23-.57,0-1.07.26-1.46.52l-.33-.57c.45-.29,1.13-.63,1.92-.63,1.19,0,1.7.79,1.7,2.01v2.99h-.68l-.07-.58h-.02c-.47.38-1.01.7-1.62.7-.82,0-1.44-.51-1.44-1.39,0-1.06.92-1.59,3-1.82ZM224.42,51.31c.47,0,.86-.23,1.33-.65v-1.36c-1.64.2-2.19.6-2.19,1.23.01.55.38.78.86.78Z"/>
    <path class="cls-1" d="M228.11,46.97h.83v2.98c0,.91.27,1.31.91,1.31.5,0,.85-.25,1.32-.82v-3.46h.82v4.88h-.68l-.07-.76h-.03c-.45.53-.93.88-1.61.88-1.03,0-1.5-.66-1.5-1.91v-3.1s0,0,0,0Z"/>
    <path class="cls-1" d="M233.56,50.75c.42.34.85.58,1.44.58.64,0,.96-.34.96-.76,0-.5-.58-.72-1.12-.92-.69-.25-1.46-.58-1.46-1.41,0-.78.62-1.39,1.68-1.39.61,0,1.14.25,1.52.55l-.39.52c-.33-.25-.68-.43-1.11-.43-.61,0-.89.33-.89.7,0,.45.53.63,1.08.84.7.26,1.49.55,1.49,1.48,0,.79-.63,1.46-1.79,1.46-.69,0-1.36-.29-1.82-.67l.41-.55Z"/>
    <path class="cls-1" d="M239.94,46.85c.64,0,1.09.27,1.43.58l-.41.53c-.29-.25-.59-.43-.98-.43-.88,0-1.53.76-1.53,1.89s.61,1.87,1.51,1.87c.46,0,.85-.23,1.14-.49l.37.54c-.44.39-1,.63-1.59.63-1.29,0-2.29-.93-2.29-2.55s1.09-2.57,2.35-2.57Z"/>
    <path class="cls-1" d="M242.58,44.71h.82v1.95l-.03,1c.46-.44.95-.8,1.63-.8,1.02,0,1.49.66,1.49,1.91v3.09h-.82v-2.98c0-.91-.28-1.31-.92-1.31-.5,0-.84.26-1.34.75v3.53h-.82v-7.14h-.01Z"/>
    <path class="cls-1" d="M249.85,46.85c.56,0,.93.21,1.37.56l-.04-.83v-1.88h.83v7.15h-.68l-.07-.57h-.03c-.38.37-.9.69-1.48.69-1.23,0-2.02-.92-2.02-2.55,0-1.58,1.01-2.57,2.12-2.57ZM249.93,51.28c.45,0,.84-.22,1.25-.67v-2.55c-.41-.37-.78-.51-1.18-.51-.78,0-1.41.75-1.41,1.87s.49,1.86,1.34,1.86Z"/>
    <path class="cls-1" d="M253.56,45.44c0-.32.25-.53.57-.53s.57.21.57.53-.25.53-.57.53-.57-.22-.57-.53ZM253.71,46.97h.82v4.88h-.82v-4.88Z"/>
    <path class="cls-1" d="M258.05,46.85c1.25,0,1.95.89,1.95,2.29,0,.17-.01.33-.03.45h-3.29c.06,1.05.69,1.72,1.63,1.72.46,0,.85-.15,1.21-.38l.29.54c-.42.27-.94.5-1.61.5-1.3,0-2.34-.95-2.34-2.55,0-1.59,1.08-2.57,2.19-2.57ZM259.28,49.05c0-.99-.44-1.55-1.21-1.55-.68,0-1.31.56-1.41,1.55h2.62Z"/>
    <path class="cls-1" d="M261.25,46.97h.68l.07.7h.03c.46-.46.96-.82,1.64-.82,1.02,0,1.49.66,1.49,1.91v3.09h-.82v-2.98c0-.91-.28-1.31-.92-1.31-.5,0-.84.26-1.34.75v3.53h-.82v-4.87h0Z"/>
    <path class="cls-1" d="M266.66,50.75c.42.34.85.58,1.44.58.64,0,.96-.34.96-.76,0-.5-.58-.72-1.12-.92-.69-.25-1.46-.58-1.46-1.41,0-.78.62-1.39,1.68-1.39.61,0,1.14.25,1.52.55l-.39.52c-.33-.25-.68-.43-1.11-.43-.61,0-.89.33-.89.7,0,.45.53.63,1.08.84.7.26,1.49.55,1.49,1.48,0,.79-.63,1.46-1.79,1.46-.69,0-1.36-.29-1.82-.67l.41-.55Z"/>
    <path class="cls-1" d="M271.19,47.65h-.72v-.62l.76-.05.1-1.37h.69v1.37h1.32v.67h-1.32v2.71c0,.6.19.94.75.94.17,0,.39-.07.55-.13l.16.62c-.27.09-.6.18-.9.18-1.04,0-1.4-.66-1.4-1.63v-2.69s0,0,0,0Z"/>
    <path class="cls-1" d="M99.97,57.1c.89,0,1.5.41,1.89.81l-.48.53c-.33-.35-.74-.61-1.4-.61-1.34,0-2.19,1.02-2.19,2.66s.78,2.7,2.19,2.7c.47,0,.93-.15,1.19-.39v-1.72h-1.4v-.69h2.16v2.77c-.43.42-1.16.76-2.05.76-1.73,0-2.96-1.27-2.96-3.41s1.28-3.41,3.05-3.41Z"/>
    <path class="cls-1" d="M105.28,58.81c1.25,0,1.95.89,1.95,2.29,0,.17-.01.33-.03.45h-3.29c.06,1.05.69,1.72,1.63,1.72.46,0,.85-.15,1.21-.38l.29.54c-.42.27-.94.5-1.61.5-1.31,0-2.34-.95-2.34-2.55s1.07-2.57,2.19-2.57ZM106.5,61.01c0-.99-.44-1.55-1.2-1.55-.68,0-1.31.56-1.41,1.55h2.61Z"/>
    <path class="cls-1" d="M108.48,58.93h.68l.07.88h.03c.33-.61.83-1,1.39-1,.21,0,.36.03.52.1l-.16.72c-.16-.05-.27-.08-.47-.08-.41,0-.9.3-1.23,1.12v3.13h-.82v-4.87h0Z"/>
    <path class="cls-1" d="M112.01,58.93h.68l.07.7h.03c.42-.46.93-.82,1.52-.82.74,0,1.14.35,1.35.93.51-.55,1.01-.93,1.61-.93,1,0,1.49.66,1.49,1.91v3.09h-.82v-2.98c0-.91-.29-1.31-.9-1.31-.38,0-.77.25-1.23.75v3.53h-.82v-2.98c0-.91-.29-1.31-.91-1.31-.36,0-.77.25-1.23.75v3.53h-.82v-4.86s-.02,0-.02,0Z"/>
    <path class="cls-1" d="M123.14,60.72c0-.62-.21-1.23-1-1.23-.57,0-1.07.26-1.46.52l-.33-.57c.45-.29,1.13-.63,1.92-.63,1.19,0,1.7.79,1.7,2.01v2.99h-.68l-.07-.58h-.02c-.47.38-1.01.7-1.62.7-.82,0-1.44-.51-1.44-1.39,0-1.06.92-1.59,3-1.82ZM121.8,63.27c.47,0,.86-.23,1.34-.65v-1.36c-1.64.2-2.19.6-2.19,1.23,0,.55.37.78.85.78Z"/>
    <path class="cls-1" d="M125.57,58.93h.68l.07.7h.03c.46-.46.96-.82,1.64-.82,1.02,0,1.49.66,1.49,1.91v3.09h-.82v-2.98c0-.91-.28-1.31-.92-1.31-.5,0-.84.26-1.34.75v3.53h-.82v-4.87h0Z"/>
    <path class="cls-1" d="M136.25,61.8h-2.4l-.63,2.01h-.85l2.23-6.59h.94l2.23,6.59h-.88l-.64-2.01ZM136.04,61.13l-.31-1c-.23-.73-.44-1.46-.65-2.22h-.04c-.21.76-.42,1.49-.65,2.22l-.32,1h1.97Z"/>
    <path class="cls-1" d="M140.62,58.81c.64,0,1.09.27,1.43.58l-.41.53c-.29-.25-.59-.43-.98-.43-.88,0-1.53.76-1.53,1.89s.61,1.87,1.51,1.87c.46,0,.85-.23,1.14-.49l.37.54c-.44.39-1,.63-1.59.63-1.29,0-2.29-.93-2.29-2.55,0-1.64,1.1-2.57,2.35-2.57Z"/>
    <path class="cls-1" d="M145.92,60.72c0-.62-.21-1.23-1-1.23-.57,0-1.07.26-1.46.52l-.33-.57c.45-.29,1.13-.63,1.92-.63,1.19,0,1.7.79,1.7,2.01v2.99h-.68l-.07-.58h-.02c-.47.38-1.01.7-1.62.7-.82,0-1.44-.51-1.44-1.39,0-1.06.92-1.59,3-1.82ZM144.59,63.27c.47,0,.86-.23,1.34-.65v-1.36c-1.64.2-2.19.6-2.19,1.23,0,.55.36.78.85.78Z"/>
    <path class="cls-1" d="M150.12,58.81c.56,0,.93.21,1.37.56l-.04-.83v-1.88h.83v7.15h-.69l-.07-.57h-.03c-.38.37-.9.69-1.48.69-1.23,0-2.02-.92-2.02-2.55.01-1.59,1.01-2.57,2.13-2.57ZM150.2,63.24c.45,0,.84-.22,1.24-.67v-2.55c-.41-.37-.78-.51-1.18-.51-.78,0-1.41.75-1.41,1.87s.49,1.86,1.35,1.86Z"/>
    <path class="cls-1" d="M155.8,58.81c1.24,0,1.95.89,1.95,2.29,0,.17,0,.33-.03.45h-3.29c.06,1.05.69,1.72,1.63,1.72.46,0,.85-.15,1.21-.38l.29.54c-.42.27-.94.5-1.61.5-1.31,0-2.34-.95-2.34-2.55,0-1.6,1.07-2.57,2.19-2.57ZM157.02,61.01c0-.99-.44-1.55-1.21-1.55-.68,0-1.3.56-1.41,1.55h2.62Z"/>
    <path class="cls-1" d="M159,58.93h.68l.07.7h.03c.42-.46.93-.82,1.52-.82.74,0,1.14.35,1.35.93.51-.55,1.01-.93,1.61-.93,1,0,1.49.66,1.49,1.91v3.09h-.82v-2.98c0-.91-.29-1.31-.9-1.31-.38,0-.77.25-1.22.75v3.53h-.82v-2.98c0-.91-.29-1.31-.91-1.31-.36,0-.77.25-1.22.75v3.53h-.82v-4.86s-.04,0-.04,0Z"/>
    <path class="cls-1" d="M167.21,57.39c0-.32.25-.53.57-.53s.57.21.57.53-.25.53-.57.53-.57-.21-.57-.53ZM167.37,58.93h.82v4.88h-.82v-4.88Z"/>
    <path class="cls-1" d="M171.87,58.81c.64,0,1.09.27,1.43.58l-.41.53c-.29-.25-.59-.43-.98-.43-.88,0-1.53.76-1.53,1.89s.61,1.87,1.51,1.87c.46,0,.85-.23,1.14-.49l.37.54c-.44.39-1,.63-1.59.63-1.29,0-2.29-.93-2.29-2.55,0-1.64,1.1-2.57,2.35-2.57Z"/>
    <path class="cls-1" d="M176.64,57.22h3.8v.7h-2.95v2.07h2.49v.71h-2.49v2.39h3.05v.71h-3.9v-6.58h0Z"/>
    <path class="cls-1" d="M182.79,61.26l-1.48-2.33h.89l.65,1.07c.15.26.31.54.48.81h.04c.14-.27.29-.55.44-.81l.59-1.07h.86l-1.48,2.42,1.59,2.46h-.89l-.71-1.13c-.17-.29-.35-.59-.53-.87h-.04c-.17.28-.33.57-.49.87l-.66,1.13h-.86l1.6-2.55Z"/>
    <path class="cls-1" d="M188.22,58.81c.64,0,1.09.27,1.43.58l-.41.53c-.29-.25-.59-.43-.98-.43-.88,0-1.53.76-1.53,1.89s.61,1.87,1.51,1.87c.46,0,.85-.23,1.14-.49l.37.54c-.44.39-1,.63-1.59.63-1.29,0-2.29-.93-2.29-2.55s1.1-2.57,2.35-2.57Z"/>
    <path class="cls-1" d="M190.86,56.66h.82v1.95l-.03,1c.46-.44.95-.8,1.63-.8,1.02,0,1.49.66,1.49,1.91v3.09h-.82v-2.98c0-.91-.28-1.31-.92-1.31-.5,0-.84.26-1.34.75v3.53h-.82v-7.14h-.01Z"/>
    <path class="cls-1" d="M199.13,60.72c0-.62-.21-1.23-1-1.23-.57,0-1.07.26-1.46.52l-.33-.57c.45-.29,1.13-.63,1.92-.63,1.19,0,1.7.79,1.7,2.01v2.99h-.68l-.07-.58h-.02c-.47.38-1.01.7-1.62.7-.82,0-1.44-.51-1.44-1.39,0-1.06.92-1.59,3-1.82ZM197.8,63.27c.47,0,.86-.23,1.33-.65v-1.36c-1.64.2-2.19.6-2.19,1.23,0,.55.37.78.86.78Z"/>
    <path class="cls-1" d="M201.56,58.93h.68l.07.7h.03c.46-.46.96-.82,1.64-.82,1.02,0,1.49.66,1.49,1.91v3.09h-.82v-2.98c0-.91-.28-1.31-.92-1.31-.5,0-.84.26-1.34.75v3.53h-.82v-4.87h0Z"/>
    <path class="cls-1" d="M207.44,63.64v-.04c-.24-.15-.43-.41-.43-.79,0-.41.28-.73.53-.9v-.04c-.32-.26-.63-.73-.63-1.32,0-1.06.84-1.74,1.84-1.74.27,0,.51.05.69.12h1.7v.63h-1c.23.22.4.59.4,1,0,1.04-.79,1.7-1.79,1.7-.24,0-.51-.06-.73-.17-.17.15-.31.31-.31.58,0,.31.2.53.86.53h.94c1.13,0,1.71.35,1.71,1.17,0,.9-.95,1.69-2.47,1.69-1.19,0-2.02-.47-2.02-1.32,0-.41.27-.8.71-1.1ZM208.86,65.49c.93,0,1.55-.48,1.55-.99,0-.45-.35-.6-.98-.6h-.84c-.19,0-.42-.02-.63-.08-.35.25-.5.54-.5.82-.01.51.52.85,1.4.85ZM209.78,60.55c0-.71-.46-1.13-1.03-1.13s-1.03.42-1.03,1.13.47,1.16,1.03,1.16,1.03-.45,1.03-1.16Z"/>
    <path class="cls-1" d="M213.89,58.81c1.25,0,1.95.89,1.95,2.29,0,.17,0,.33-.03.45h-3.29c.06,1.05.69,1.72,1.63,1.72.46,0,.85-.15,1.21-.38l.29.54c-.42.27-.94.5-1.61.5-1.3,0-2.34-.95-2.34-2.55,0-1.6,1.08-2.57,2.19-2.57ZM215.12,61.01c0-.99-.44-1.55-1.21-1.55-.68,0-1.31.56-1.41,1.55h2.62Z"/>
    <path class="cls-1" d="M219.25,62.37c.47.49,1.12.82,1.82.82.86,0,1.38-.43,1.38-1.07s-.48-.88-1.1-1.17l-.94-.41c-.61-.26-1.33-.73-1.33-1.7s.88-1.75,2.08-1.75c.78,0,1.48.33,1.94.81l-.44.54c-.4-.38-.89-.62-1.5-.62-.74,0-1.23.37-1.23.96,0,.63.58.87,1.09,1.09l.94.4c.76.33,1.36.78,1.36,1.76,0,1.04-.86,1.88-2.25,1.88-.92,0-1.73-.38-2.3-.97l.48-.57Z"/>
    <path class="cls-1" d="M226.36,58.81c1.25,0,1.95.89,1.95,2.29,0,.17,0,.33-.03.45h-3.29c.06,1.05.69,1.72,1.63,1.72.46,0,.85-.15,1.21-.38l.29.54c-.42.27-.94.5-1.61.5-1.3,0-2.34-.95-2.34-2.55,0-1.6,1.07-2.57,2.19-2.57ZM227.58,61.01c0-.99-.44-1.55-1.21-1.55-.68,0-1.31.56-1.41,1.55h2.62Z"/>
    <path class="cls-1" d="M229.56,58.93h.68l.07.88h.03c.33-.61.83-1,1.39-1,.21,0,.36.03.52.1l-.16.72c-.16-.05-.27-.08-.47-.08-.41,0-.9.3-1.24,1.12v3.13h-.82v-4.87h0Z"/>
    <path class="cls-1" d="M232.58,58.93h.85l.92,2.77c.14.48.3.97.45,1.44h.04c.14-.46.3-.95.44-1.44l.92-2.77h.81l-1.73,4.88h-.96l-1.74-4.88Z"/>
    <path class="cls-1" d="M237.87,57.39c0-.32.25-.53.57-.53s.57.21.57.53-.25.53-.57.53-.57-.21-.57-.53ZM238.02,58.93h.82v4.88h-.82v-4.88Z"/>
    <path class="cls-1" d="M242.52,58.81c.64,0,1.09.27,1.43.58l-.41.53c-.29-.25-.59-.43-.98-.43-.88,0-1.53.76-1.53,1.89s.61,1.87,1.51,1.87c.46,0,.85-.23,1.14-.49l.37.54c-.44.39-1,.63-1.59.63-1.29,0-2.29-.93-2.29-2.55s1.1-2.57,2.35-2.57Z"/>
    <path class="cls-1" d="M246.78,58.81c1.25,0,1.95.89,1.95,2.29,0,.17,0,.33-.03.45h-3.29c.06,1.05.69,1.72,1.63,1.72.46,0,.85-.15,1.21-.38l.29.54c-.42.27-.94.5-1.61.5-1.3,0-2.34-.95-2.34-2.55,0-1.6,1.07-2.57,2.19-2.57ZM248,61.01c0-.99-.44-1.55-1.21-1.55-.68,0-1.31.56-1.41,1.55h2.62Z"/>
  </g>
  <path class="cls-1" d="M88.03,54.5c0,18.79-15.23,34.01-34.01,34.01-18.79,0-34.02-15.23-34.02-34.01s15.23-34.01,34.02-34.01c18.79-.01,34.01,15.22,34.01,34.01"/>
  <g>
    <path class="cls-2" d="M42.7,46.59c0,.74-.16,1.39-.47,1.96s-.74,1.02-1.29,1.34c-.55.33-1.17.49-1.88.49h-1.63v-7.56h1.63c.71,0,1.34.16,1.88.48s.97.76,1.29,1.33c.31.57.47,1.22.47,1.96M43.96,46.59c0-.73-.12-1.39-.35-1.99-.24-.6-.57-1.12-1.01-1.56s-.96-.79-1.55-1.03c-.6-.24-1.26-.36-1.98-.36h-2.29c-.19,0-.34.06-.47.18s-.19.28-.19.47v8.58c0,.19.06.34.19.47.13.13.28.19.47.19h2.29c.73,0,1.39-.12,1.98-.36.6-.24,1.11-.58,1.55-1.03.44-.44.78-.97,1.01-1.57s.35-1.26.35-1.99"/>
    <path class="cls-2" d="M60.22,48.28h-3.66l1.84-4.5,1.82,4.5ZM62.57,50.62l-3.57-8.53c-.11-.3-.32-.44-.62-.44s-.49.15-.62.44l-3.56,8.5c-.1.23-.09.44.04.65.13.2.31.3.55.3.12,0,.23-.03.35-.1.11-.07.2-.17.26-.3l.73-1.77h4.54l.71,1.77c.05.13.13.23.25.3.11.07.23.11.36.11.25,0,.43-.09.55-.29.11-.19.13-.4.03-.64"/>
    <path class="cls-2" d="M50.75,48.28h-3.66l1.84-4.5,1.82,4.5ZM53.11,50.62l-3.57-8.53c-.11-.3-.32-.44-.62-.44s-.49.15-.62.44l-3.56,8.5c-.1.23-.09.44.04.65.13.2.31.3.55.3.12,0,.23-.03.35-.1.11-.07.2-.17.26-.3l.73-1.77h4.54l.71,1.77c.05.13.13.23.25.3.11.07.23.11.36.11.25,0,.43-.09.55-.29.1-.19.12-.4.03-.64"/>
    <path class="cls-2" d="M70.66,46.59c0,.74-.16,1.39-.47,1.96s-.74,1.02-1.29,1.34c-.55.33-1.17.49-1.88.49h-1.63v-7.56h1.63c.71,0,1.34.16,1.88.48s.97.76,1.29,1.33c.32.57.47,1.22.47,1.96M71.93,46.59c0-.73-.12-1.39-.35-1.99-.24-.6-.57-1.12-1.01-1.56-.44-.44-.96-.79-1.55-1.03-.6-.24-1.26-.36-1.98-.36h-2.29c-.19,0-.34.06-.47.18-.13.12-.19.28-.19.47v8.58c0,.19.06.34.19.47.13.13.28.19.47.19h2.29c.73,0,1.39-.12,1.98-.36.6-.24,1.11-.58,1.55-1.03.44-.44.78-.97,1.01-1.57s.35-1.26.35-1.99"/>
  </g>
  <g>
    <path class="cls-2" d="M38.58,61.28h-2.87l-.85,2.49h-.52l2.56-7.25h.51l2.55,7.25h-.54l-.84-2.49ZM38.43,60.85l-.46-1.35c-.29-.86-.55-1.62-.8-2.51h-.04c-.25.89-.51,1.65-.8,2.51l-.46,1.35h2.56Z"/>
    <path class="cls-2" d="M40.84,58.49h.48v3.32c0,1.12.35,1.65,1.2,1.65.63,0,1.09-.33,1.71-1.08v-3.89h.48v5.28h-.41l-.05-.88h-.02c-.52.6-1.07,1.01-1.79,1.01-1.09,0-1.6-.66-1.6-2.02v-3.39h0Z"/>
    <path class="cls-2" d="M46.36,62.81c.45.37.92.67,1.68.67.83,0,1.25-.48,1.25-1.04,0-.66-.68-.95-1.29-1.17-.8-.29-1.68-.6-1.68-1.51,0-.77.6-1.41,1.71-1.41.56,0,1.12.23,1.51.55l-.26.34c-.35-.26-.73-.47-1.27-.47-.81,0-1.19.47-1.19.96,0,.58.62.84,1.24,1.07.83.31,1.73.58,1.73,1.62,0,.79-.64,1.48-1.78,1.48-.78,0-1.46-.33-1.94-.73l.29-.36Z"/>
    <path class="cls-2" d="M51.31,58.9h-.83v-.37l.84-.04.07-1.53h.42v1.53h1.53v.42h-1.53v3.44c0,.67.17,1.12.89,1.12.2,0,.47-.08.66-.17l.13.4c-.31.11-.64.2-.86.2-1.02,0-1.32-.65-1.32-1.6v-3.4h0Z"/>
    <path class="cls-2" d="M54.63,58.49h.42l.04.98h.03c.35-.65.87-1.11,1.5-1.11.2,0,.35.02.53.11l-.11.44c-.18-.07-.27-.09-.48-.09-.47,0-1.03.36-1.44,1.35v3.6h-.48v-5.28s0,0,0,0Z"/>
    <path class="cls-2" d="M60.97,60.46c.02-.8-.21-1.67-1.24-1.67-.71,0-1.33.35-1.68.62l-.22-.36c.37-.26,1.1-.68,1.96-.68,1.25,0,1.67.9,1.67,2.04v3.38h-.41l-.06-.68h-.02c-.54.43-1.18.81-1.87.81-.84,0-1.54-.45-1.54-1.45,0-1.19,1.07-1.75,3.41-2.01ZM59.18,63.48c.6,0,1.14-.3,1.79-.86v-1.79c-2.17.25-2.9.76-2.9,1.6,0,.75.5,1.05,1.11,1.05Z"/>
    <path class="cls-2" d="M63.35,55.86h.48v7.27c0,.23.1.34.23.34.04,0,.09,0,.2-.02l.09.4c-.1.03-.2.05-.35.05-.43,0-.65-.26-.65-.84v-7.2h0Z"/>
    <path class="cls-2" d="M65.77,56.78c0-.28.2-.44.44-.44s.44.17.44.44c0,.25-.2.43-.44.43s-.44-.18-.44-.43ZM65.95,58.49h.48v5.28h-.48v-5.28Z"/>
    <path class="cls-2" d="M71.59,60.46c.02-.8-.21-1.67-1.24-1.67-.71,0-1.33.35-1.68.62l-.22-.36c.37-.26,1.1-.68,1.96-.68,1.25,0,1.67.9,1.67,2.04v3.38h-.41l-.06-.68h-.02c-.54.43-1.18.81-1.87.81-.84,0-1.54-.45-1.54-1.45,0-1.19,1.06-1.75,3.41-2.01ZM69.79,63.48c.6,0,1.14-.3,1.79-.86v-1.79c-2.17.25-2.9.76-2.9,1.6,0,.75.51,1.05,1.11,1.05Z"/>
  </g>
</svg>