<?xml version="1.0" encoding="UTF-8"?>
<svg id="Layer_1" data-name="Layer 1" xmlns="http://www.w3.org/2000/svg" viewBox="0 0 79 30">
  <defs>
    <style>
      .cls-1 {
        fill: #fff;
      }

      .cls-2 {
        fill: #c4007b;
      }
    </style>
  </defs>
  <rect class="cls-2" x="-1" y="-1.01" width="81" height="32.02"/>
  <g>
    <path class="cls-1" d="m11.95,11.55c-.76,0-1.35.29-1.75.86-.4.57-.61,1.35-.61,2.34s.19,1.78.56,2.33.97.82,1.8.82c.39,0,.77-.04,1.15-.13s.8-.21,1.25-.37v1.67c-.41.17-.82.29-1.23.37-.4.08-.86.12-1.36.12-.97,0-1.76-.2-2.39-.6s-1.09-.96-1.39-1.69-.45-1.57-.45-2.54.17-1.79.51-2.52c.34-.73.84-1.3,1.5-1.71s1.46-.62,2.4-.62c.46,0,.93.06,1.4.18s.92.28,1.35.48l-.65,1.62c-.35-.17-.71-.31-1.06-.43s-.71-.18-1.05-.18Zm1.22,9.49c0,.49-.14.87-.43,1.15-.29.27-.81.41-1.56.41-.19,0-.37-.01-.52-.04-.15-.03-.29-.06-.42-.09v-1.08c.12.03.27.07.46.09.18.03.34.04.47.04.12,0,.23-.03.32-.08.09-.06.14-.16.14-.31,0-.16-.08-.3-.24-.42s-.43-.21-.83-.28l.5-.99h1.24l-.17.4c.26.09.5.23.72.43.21.2.32.46.32.78Z"/>
    <path class="cls-1" d="m22.72,15.82c0,1.19-.31,2.12-.94,2.77-.63.65-1.48.97-2.56.97-.67,0-1.26-.14-1.79-.43s-.93-.71-1.23-1.27c-.3-.56-.45-1.24-.45-2.04,0-1.19.31-2.11.94-2.75.62-.64,1.48-.96,2.57-.96.68,0,1.27.15,1.79.44.52.29.93.71,1.23,1.26.3.55.45,1.22.45,2.02Zm-4.97,0c0,.71.12,1.25.35,1.61.23.37.61.55,1.14.55s.89-.18,1.13-.55c.23-.36.35-.9.35-1.61s-.12-1.25-.35-1.6c-.23-.36-.61-.53-1.14-.53s-.89.18-1.13.53c-.23.36-.35.89-.35,1.6Z"/>
    <path class="cls-1" d="m26.31,9.41v4.48c0,.27-.01.54-.03.81-.02.27-.05.54-.07.81h.03c.13-.18.27-.37.41-.56.14-.19.29-.37.45-.53l2.02-2.19h2.21l-2.86,3.12,3.03,4.07h-2.27l-2.07-2.91-.84.67v2.24h-1.96v-10.01h1.96Z"/>
    <path class="cls-1" d="m41.64,16.82c0,.83-.3,1.5-.9,2-.6.5-1.46.74-2.56.74-.99,0-1.88-.19-2.66-.57v-1.86c.45.19.91.37,1.39.53.48.16.96.24,1.43.24s.84-.09,1.05-.28c.21-.19.31-.43.31-.72,0-.24-.08-.44-.24-.61-.16-.17-.38-.32-.65-.47-.27-.15-.58-.3-.94-.47-.22-.11-.46-.23-.71-.38-.25-.14-.5-.32-.73-.54-.23-.21-.42-.48-.57-.78s-.22-.68-.22-1.11c0-.84.29-1.5.86-1.97.57-.47,1.35-.71,2.33-.71.49,0,.96.06,1.4.17.44.11.91.28,1.39.49l-.65,1.55c-.43-.17-.82-.31-1.16-.41s-.69-.14-1.05-.14c-.38,0-.67.09-.87.26s-.3.4-.3.68c0,.33.15.6.45.79.3.19.74.43,1.33.71.48.23.89.47,1.23.71.34.25.6.54.78.87s.28.75.28,1.24Z"/>
    <path class="cls-1" d="m46.15,12.09c.97,0,1.71.21,2.22.63s.77,1.06.77,1.92v4.8h-1.37l-.38-.97h-.05c-.31.39-.63.67-.97.84s-.81.26-1.41.26c-.64,0-1.17-.19-1.59-.56-.42-.37-.63-.95-.63-1.72s.27-1.33.8-1.69c.54-.37,1.34-.56,2.41-.6l1.25-.04v-.32c0-.38-.1-.65-.3-.83-.2-.18-.47-.26-.82-.26s-.69.05-1.03.15-.67.23-1,.38l-.65-1.33c.39-.2.81-.36,1.28-.47s.96-.17,1.47-.17Zm1.04,4l-.76.03c-.63.02-1.07.13-1.32.34s-.37.49-.37.83c0,.3.09.51.26.64s.4.19.69.19c.42,0,.78-.12,1.07-.38.29-.25.43-.6.43-1.06v-.59Z"/>
    <path class="cls-1" d="m54.18,17.99c.22,0,.43-.02.63-.07.2-.04.4-.1.61-.16v1.46c-.21.09-.47.16-.78.23-.31.07-.65.1-1.02.1-.43,0-.81-.07-1.15-.21-.34-.14-.61-.38-.8-.73-.2-.35-.3-.83-.3-1.44v-3.46h-.94v-.83l1.08-.66.57-1.52h1.25v1.53h2.02v1.48h-2.02v3.46c0,.27.08.48.24.61.16.14.36.21.62.21Z"/>
    <path class="cls-1" d="m59.82,12.09c.97,0,1.71.21,2.22.63s.77,1.06.77,1.92v4.8h-1.37l-.38-.97h-.05c-.31.39-.63.67-.97.84s-.81.26-1.41.26c-.64,0-1.17-.19-1.59-.56-.42-.37-.63-.95-.63-1.72s.27-1.33.8-1.69c.54-.37,1.34-.56,2.41-.6l1.25-.04v-.32c0-.38-.1-.65-.3-.83-.2-.18-.47-.26-.82-.26s-.69.05-1.03.15-.67.23-1,.38l-.65-1.33c.39-.2.81-.36,1.28-.47s.96-.17,1.47-.17Zm1.04,4l-.76.03c-.63.02-1.07.13-1.32.34s-.37.49-.37.83c0,.3.09.51.26.64s.4.19.69.19c.42,0,.78-.12,1.07-.38.29-.25.43-.6.43-1.06v-.59Z"/>
    <path class="cls-1" d="m68.91,12.1c.77,0,1.39.21,1.86.63.47.42.7,1.09.7,2.01v4.69h-1.96v-4.2c0-.52-.09-.91-.28-1.17-.18-.26-.48-.39-.88-.39-.6,0-1.01.2-1.22.61-.22.41-.33,1-.33,1.76v3.39h-1.96v-7.19h1.5l.26.92h.11c.23-.37.54-.64.94-.8.4-.17.82-.25,1.27-.25Z"/>
  </g>
</svg>