<svg width="34" height="34" viewBox="0 0 34 34" fill="none" xmlns="http://www.w3.org/2000/svg">
<path d="M4.47021 11.0566C4.47021 8.24151 6.75152 5.96021 9.56659 5.96021C12.3817 5.96021 14.663 8.24151 14.663 11.0566C14.663 13.8716 12.3817 16.153 9.56659 16.153C6.75152 16.153 4.47021 13.8716 4.47021 11.0566Z" fill="#E30613"/>
<path d="M9.57448 29.1646C8.87862 29.1646 8.31323 28.5479 8.31323 27.7887V19.4345C8.31323 18.6754 8.85885 18.0586 9.57448 18.0586C17.5927 18.0586 18.2292 7.20557 29.7504 7.20557C30.4463 7.20557 31.0117 7.82235 31.0117 8.58147V16.8487C31.0117 17.6079 30.4463 18.2246 29.7504 18.2246C21.8943 18.2246 21.4041 29.1646 9.57448 29.1646Z" fill="#164196"/>
</svg>
