<svg xmlns="http://www.w3.org/2000/svg" viewBox="0 0 200 24"><g fill="none" fill-rule="evenodd"><path d="M28.17 3.37a2.25 2.25 0 014.498 0v15.965a2.249 2.249 0 11-4.498.004V3.37zm8.28.383c0-1.866.908-2.632 2.824-2.632a2.478 2.478 0 012.249 1.18L49.42 15.01V3.29a2.17 2.17 0 014.337-.003V18.79c0 1.786-.766 2.805-2.662 2.805a2.331 2.331 0 01-2.472-1.21L40.847 8.07h-.06v11.357a1.957 1.957 0 01-2.17 2.168 1.957 1.957 0 01-2.167-2.168V3.753zm24.498 1.513H57.74c-1.29 0-2.329-.655-2.329-1.896 0-1.24 1.008-1.896 2.33-1.896h10.912c1.291 0 2.33.655 2.33 1.896 0 1.241-1.009 1.896-2.33 1.896h-3.197v14.12a2.25 2.25 0 01-4.498 0V5.266h-.01zm11.669-1.16c0-2.017 1.01-2.632 2.632-2.632h9.864c1.321 0 2.28.383 2.28 1.815s-1.009 1.816-2.28 1.816h-7.998v4.276h6.93c1.18 0 2.117.332 2.117 1.725 0 1.391-.938 1.724-2.118 1.724h-6.929v4.771h8.22c1.322 0 2.28.382 2.28 1.815 0 1.433-1.009 1.815-2.28 1.815H75.25c-1.623 0-2.632-.625-2.632-2.632V4.106zm16.974 0c0-2.017 1.01-2.632 2.633-2.632h6.797c5.356 0 6.778 2.935 6.778 5.486a4.718 4.718 0 01-3.399 4.75v.051c2.3.333 2.713 2.017 2.713 4.035 0 2.28.605 3.126.605 4.033a2.017 2.017 0 01-2.107 1.756c-2.472 0-2.663-2.39-2.663-3.187 0-3.459-.636-4.862-3.107-4.862h-3.75v5.79a2.25 2.25 0 01-4.5.002V4.106zm4.5 6.152h3.801c1.704 0 3.4-.444 3.4-2.662 0-2.219-1.292-2.663-3.269-2.663H94.09v5.325z" fill="#E30F1B"/><path d="M162.854 4.117c0-2.018 1.01-2.633 2.633-2.633h6.798c5.356 0 6.778 2.935 6.778 5.487a4.72 4.72 0 01-3.4 4.75v.05c2.3.334 2.713 2.018 2.713 4.035 0 2.28.606 3.127.606 4.035a2.018 2.018 0 01-2.108 1.755c-2.471 0-2.663-2.391-2.663-3.188 0-3.46-.635-4.861-3.106-4.861h-3.752v5.789a2.25 2.25 0 11-4.498 0V4.106l-.001.01zm4.499 6.142h3.802c1.705 0 3.399-.444 3.399-2.663 0-2.218-1.291-2.662-3.267-2.662h-3.945v5.325h.01zm-48.21-.464c4.115.938 5.164 3.378 5.164 5.678 0 3.57-2.693 6.234-8.12 6.234-5.708 0-8.26-2.856-8.26-5.043a1.805 1.805 0 011.897-1.867c2.44 0 1.815 3.57 6.364 3.57 2.33 0 3.62-1.29 3.62-2.602 0-.797-.382-1.674-1.915-2.016l-5.043-1.291c-4.085-1.01-4.832-3.288-4.832-5.407 0-4.387 4.035-6.051 7.877-6.051 3.51 0 7.656 2.017 7.656 4.609a1.866 1.866 0 01-2.017 1.786c-2.088 0-1.705-2.935-5.901-2.935-2.088 0-3.237 1.008-3.237 2.329 0 1.32 1.643 1.816 3.025 2.138l3.722.868zm7.13-5.689c0-2.017 1.008-2.632 2.633-2.632h6.191c3.784 0 6.84 1.865 6.84 6.253 0 3.59-2.502 6.253-6.859 6.253h-4.297v5.355a2.25 2.25 0 01-4.498.004V4.106h-.01zm4.499 6.425h3.5a2.855 2.855 0 003.156-2.804c0-2.017-1.401-2.804-3.62-2.804h-3.026v5.598l-.01.01zM151.82 1.01c6.475 0 8.594 4.307 8.594 10.085 0 5.568-1.846 10.591-8.594 10.591-7.06 0-8.593-4.61-8.593-10.59 0-5.79 2.118-10.086 8.593-10.086m0 17.065c4.085 0 4.095-3.187 4.095-6.969 0-3.783-.413-6.475-4.095-6.475s-4.095 2.692-4.095 6.475c0 3.782-.13 6.97 4.095 6.97m33.233-12.81h-3.207c-1.311 0-2.32-.666-2.32-1.896s1.009-1.896 2.33-1.896h10.913c1.29 0 2.329.655 2.329 1.896 0 1.241-1.008 1.896-2.33 1.896h-3.207v14.12a2.248 2.248 0 11-4.498 0V5.266h-.01zm14.131-.958l-.494-.928a.515.515 0 00.182-.948.94.94 0 00-.526-.12h-.867v2.016h.293v-.887h.584l.433.867h.394zM197.8 3.24v-.716h.575a.576.576 0 01.324.06c.1.054.163.16.16.273 0 .1-.043.197-.12.262a.549.549 0 01-.404.111h-.545l.01.01z" fill="#11448F"/><path d="M198.256 5.115a1.756 1.756 0 11-.001-3.511 1.756 1.756 0 010 3.51m-.01-3.206a1.443 1.443 0 101.452 1.452 1.452 1.452 0 00-1.441-1.442" fill="#11448F"/><path d="M0 5.68a4.428 4.428 0 114.448 4.408h-.02A4.428 4.428 0 010 5.68" fill="#E30F1B"/><path d="M4.428 21.394a1.15 1.15 0 01-1.101-1.197v-7.245a1.14 1.14 0 011.089-1.19l.012-.001c6.959 0 7.514-9.42 17.509-9.42a1.15 1.15 0 011.099 1.191v7.171a1.148 1.148 0 01-1.1 1.189c-6.817 0-7.241 9.491-17.508 9.491" fill="#11448F"/></g></svg>