<svg xmlns="http://www.w3.org/2000/svg" viewBox="0 0 125.1 12.2"><defs><style>.cls-1{fill:#153759;}</style></defs><title>logo</title><g id="レイヤー_2" data-name="レイヤー 2"><g id="レイヤー_1-2" data-name="レイヤー 1"><path class="cls-1" d="M6.1,8.6a3.42,3.42,0,0,1-3.7,3.5A7.36,7.36,0,0,1,0,11.6V9.7a3.39,3.39,0,0,0,1.9.5A1.84,1.84,0,0,0,3.8,8.3V.2H6.1ZM14,0c3.3,0,5.7,2.5,5.7,6.1s-2.4,6.1-5.7,6.1S8.3,9.7,8.3,6.1,10.7,0,14,0m0,10.2c2,0,3.4-1.7,3.4-4.2S16,1.8,14,1.8,10.6,3.5,10.6,6,12,10.2,14,10.2"/><path class="cls-1" d="M22,.2h2.2V5.1h5.4V.2h2.3V11.9H29.6v-5H24.2v5H22ZM34.9.2h1.9l5.9,8.1V.2h2.1V11.9h-2L37,3.8v8.1H34.9ZM51.6,9.3a6.18,6.18,0,0,0,3.3,1.1c1.3,0,2.2-.7,2.2-1.7,0-2.4-5.7-1.2-5.7-5.3,0-2,1.7-3.4,4.2-3.4a8.53,8.53,0,0,1,3.1.6v2a5.79,5.79,0,0,0-3-.9c-1.2,0-2.1.6-2.1,1.6,0,2.3,5.7,1.2,5.7,5.3,0,2.1-1.8,3.5-4.2,3.5a8.44,8.44,0,0,1-3.4-.8v-2ZM61.5.2h1.9l3.8,5.2L70.9.2h2V11.9H70.8V3.8L67.9,7.9H66.5L63.6,3.8v8.1H61.5ZM75.9.2H83V2H78.1V5.1h4.2V6.9H78.1v3.2h5v1.8H75.9Zm9.6,0h4.2A5.54,5.54,0,0,1,95.4,6a5.54,5.54,0,0,1-5.7,5.8H85.5Zm2.2,9.9h1.9c2.1,0,3.6-1.6,3.6-4s-1.5-4-3.6-4H87.7ZM97.7.2H100v9.9h4.6v1.8H97.7Zm8.8,0h7.1V2h-4.9V5.1h4.2V6.9h-4.2v3.2h5v1.8h-7.2ZM118.7,7,114.5.2h2.6l2.7,4.7L122.5.2h2.6L120.9,7v4.9h-2.2Z"/></g></g></svg>