<svg width="140" height="25" viewBox="0 0 140 25" fill="none" xmlns="http://www.w3.org/2000/svg">
<path d="M0.141579 9.3651V0.126312H3.26328C3.98807 0.126312 4.58053 0.257135 5.04066 0.51878C5.50381 0.777418 5.84665 1.12778 6.0692 1.56987C6.29175 2.01196 6.40303 2.50518 6.40303 3.04952C6.40303 3.59387 6.29175 4.08859 6.0692 4.53368C5.84966 4.97878 5.50982 5.33366 5.04969 5.59831C4.58955 5.85996 4.0001 5.99078 3.28132 5.99078H1.0438V4.99833H3.24524C3.74146 4.99833 4.13994 4.91262 4.44068 4.7412C4.74143 4.56977 4.95946 4.3382 5.0948 4.04648C5.23314 3.75175 5.30231 3.41944 5.30231 3.04952C5.30231 2.67961 5.23314 2.34879 5.0948 2.05707C4.95946 1.76536 4.73992 1.53679 4.43617 1.37138C4.13242 1.20297 3.72943 1.11876 3.22719 1.11876H1.26034V9.3651H0.141579Z" fill="white"/>
<path d="M16.0005 4.74571C16.0005 5.72011 15.8245 6.56219 15.4726 7.27194C15.1208 7.98169 14.6381 8.52904 14.0246 8.91399C13.4111 9.29894 12.7103 9.49141 11.9224 9.49141C11.1344 9.49141 10.4337 9.29894 9.8202 8.91399C9.20669 8.52904 8.724 7.98169 8.37213 7.27194C8.02026 6.56219 7.84433 5.72011 7.84433 4.74571C7.84433 3.7713 8.02026 2.92923 8.37213 2.21948C8.724 1.50972 9.20669 0.962374 9.8202 0.577425C10.4337 0.192475 11.1344 0 11.9224 0C12.7103 0 13.4111 0.192475 14.0246 0.577425C14.6381 0.962374 15.1208 1.50972 15.4726 2.21948C15.8245 2.92923 16.0005 3.7713 16.0005 4.74571ZM14.9178 4.74571C14.9178 3.94573 14.784 3.27057 14.5163 2.72021C14.2516 2.16985 13.8923 1.75333 13.4381 1.47063C12.987 1.18793 12.4818 1.04658 11.9224 1.04658C11.363 1.04658 10.8563 1.18793 10.4021 1.47063C9.95103 1.75333 9.59164 2.16985 9.32398 2.72021C9.05933 3.27057 8.927 3.94573 8.927 4.74571C8.927 5.54568 9.05933 6.22085 9.32398 6.7712C9.59164 7.32156 9.95103 7.73809 10.4021 8.02079C10.8563 8.30348 11.363 8.44483 11.9224 8.44483C12.4818 8.44483 12.987 8.30348 13.4381 8.02079C13.8923 7.73809 14.2516 7.32156 14.5163 6.7712C14.784 6.22085 14.9178 5.54568 14.9178 4.74571Z" fill="white"/>
<path d="M19.5597 9.3651L17.0335 0.126312H18.1703L20.1011 7.65087H20.1913L22.1581 0.126312H23.4213L25.3881 7.65087H25.4783L27.4091 0.126312H28.5459L26.0197 9.3651H24.8648L22.8258 2.00294H22.7536L20.7146 9.3651H19.5597Z" fill="white"/>
<path d="M29.9398 9.3651V0.126312H35.5156V1.11876H31.0586V4.24046H35.2269V5.23291H31.0586V8.37265H35.5878V9.3651H29.9398Z" fill="white"/>
<path d="M37.5321 9.3651V0.126312H40.6538C41.3755 0.126312 41.968 0.249616 42.4312 0.496224C42.8943 0.739825 43.2371 1.07515 43.4597 1.50221C43.6822 1.92926 43.7935 2.41496 43.7935 2.9593C43.7935 3.50364 43.6822 3.98633 43.4597 4.40737C43.2371 4.82841 42.8958 5.15923 42.4357 5.39982C41.9755 5.63741 41.3876 5.7562 40.6718 5.7562H38.1456V4.74571H40.6357C41.1289 4.74571 41.5259 4.67353 41.8267 4.52917C42.1304 4.38482 42.35 4.18031 42.4853 3.91566C42.6236 3.648 42.6928 3.32921 42.6928 2.9593C42.6928 2.58939 42.6236 2.26609 42.4853 1.98941C42.3469 1.71273 42.1259 1.4992 41.8222 1.34883C41.5184 1.19545 41.1169 1.11876 40.6177 1.11876H38.6508V9.3651H37.5321ZM41.8808 5.21486L44.1544 9.3651H42.8552L40.6177 5.21486H41.8808Z" fill="white"/>
<path d="M45.6577 9.3651V0.126312H51.2335V1.11876H46.7765V4.24046H50.9448V5.23291H46.7765V8.37265H51.3057V9.3651H45.6577Z" fill="white"/>
<path d="M56.101 9.3651H53.25V0.126312H56.2273C57.1235 0.126312 57.8904 0.311268 58.528 0.681181C59.1656 1.04809 59.6543 1.57589 59.9941 2.26459C60.3339 2.95028 60.5039 3.7713 60.5039 4.72766C60.5039 5.69004 60.3324 6.51858 59.9896 7.21329C59.6467 7.905 59.1475 8.43731 58.4919 8.81023C57.8363 9.18015 57.0393 9.3651 56.101 9.3651ZM54.3687 8.37265H56.0288C56.7927 8.37265 57.4258 8.22529 57.928 7.93056C58.4302 7.63584 58.8047 7.2163 59.0513 6.67196C59.2979 6.12762 59.4212 5.47952 59.4212 4.72766C59.4212 3.98182 59.2994 3.33974 59.0558 2.80141C58.8122 2.26008 58.4483 1.84505 57.9641 1.55634C57.4799 1.26462 56.8769 1.11876 56.1551 1.11876H54.3687V8.37265Z" fill="white"/>
<path d="M65.9533 9.3651V0.126312H69.1833C69.8269 0.126312 70.3577 0.237586 70.7757 0.460136C71.1937 0.679677 71.505 0.975907 71.7095 1.34883C71.914 1.71874 72.0163 2.12925 72.0163 2.58037C72.0163 2.97735 71.9456 3.30515 71.8042 3.56379C71.6659 3.82243 71.4824 4.02693 71.2539 4.17731C71.0283 4.32768 70.7832 4.43895 70.5186 4.51113V4.60135C70.8013 4.6194 71.0855 4.71864 71.3712 4.89909C71.6569 5.07953 71.896 5.33817 72.0884 5.675C72.2809 6.01183 72.3771 6.42385 72.3771 6.91105C72.3771 7.37419 72.2719 7.79072 72.0614 8.16063C71.8509 8.53054 71.5185 8.82377 71.0644 9.0403C70.6103 9.25684 70.0193 9.3651 69.2915 9.3651H65.9533ZM67.0721 8.37265H69.2915C70.0223 8.37265 70.5411 8.23131 70.8479 7.94861C71.1576 7.6629 71.3125 7.31705 71.3125 6.91105C71.3125 6.59828 71.2328 6.30956 71.0734 6.04491C70.914 5.77725 70.687 5.56372 70.3923 5.40433C70.0975 5.24193 69.7487 5.16073 69.3457 5.16073H67.0721V8.37265ZM67.0721 4.18633H69.1472C69.484 4.18633 69.7878 4.12016 70.0584 3.98784C70.3321 3.85551 70.5486 3.66905 70.708 3.42846C70.8704 3.18786 70.9516 2.90517 70.9516 2.58037C70.9516 2.17436 70.8103 1.83001 70.5276 1.54732C70.2449 1.26161 69.7968 1.11876 69.1833 1.11876H67.0721V4.18633Z" fill="white"/>
<path d="M73.4215 0.126312H74.7026L77.265 4.43895H77.3732L79.9355 0.126312H81.2167L77.8785 5.55771V9.3651H76.7597V5.55771L73.4215 0.126312Z" fill="white"/>
<path d="M0 12.7852H9.87649V15.3329H6.56106V24.9476H3.31543V15.3329H0V12.7852V12.7852Z" fill="white"/>
<path d="M32.404 24.9476L31.5839 22.9933H26.9772L26.3316 24.9476H22.9812L27.6054 12.7852H30.9732L35.7718 24.9476H32.404ZM27.7275 20.7423H30.9383L29.3329 16.0308L27.7275 20.7423Z" fill="white"/>
<path d="M50.22 12.7852H60.1139V15.3154H53.4307V17.5141H59.224V19.8698H53.4307V22.6094H60.0964V24.9476H50.2025V12.7852H50.22Z" fill="white"/>
<path d="M75.0334 24.9476V12.7852H84.1072V14.3906H76.7086V18.0725H83.1126V19.4859H76.7086V23.5691H84.1072V24.9651H75.0334V24.9476Z" fill="white"/>
<path d="M86.0266 24.9476V12.7852H87.6669L94.4025 22.3825V12.7852H96.0078V24.9476H94.2803L87.6146 15.5248V24.9476H86.0266Z" fill="white"/>
<path d="M111.259 24.9476V12.7852H112.934V24.9476H111.259Z" fill="white"/>
<path d="M115.604 24.9476V12.7852H117.331L123.997 22.208V12.7852H125.603V24.9476H123.997L117.209 15.3503V24.9476H115.604Z" fill="white"/>
<path d="M36.8537 24.9476V12.7852H41.8617C44.0429 12.7852 45.6657 13.4134 46.7476 14.6349C47.8295 15.8389 48.3704 17.2349 48.3704 18.8228C48.3704 20.6376 47.7946 22.1033 46.6255 23.2375C45.4563 24.3718 43.9557 24.9476 42.106 24.9476H36.8537ZM40.1167 22.3651H41.6349C42.5946 22.3651 43.4147 22.051 44.0778 21.4053C44.7409 20.7772 45.0724 19.9047 45.0724 18.8053C45.0724 17.8631 44.7758 17.0604 44.1825 16.3798C43.5892 15.6993 42.7342 15.3678 41.6174 15.3678H40.0993V22.3651H40.1167Z" fill="white"/>
<path d="M65.5235 24.9476H63.7087V12.7852H68.8214C70.4268 12.7852 71.6134 13.2215 72.3812 13.9369C73.149 14.6698 73.5329 15.5074 73.5329 16.4322C73.5329 17.4792 73.1141 18.3342 72.2939 19.0147C71.4563 19.6953 70.3745 20.0443 69.0308 20.0443H65.5235V24.9476ZM65.5409 18.4912H68.9785C69.8684 18.4912 70.5664 18.2993 71.1074 17.9154C71.6483 17.5315 71.91 17.0255 71.91 16.3973C71.91 15.8564 71.6657 15.3678 71.1946 14.949C70.706 14.5302 70.008 14.3033 69.1006 14.3033H65.5409V18.4912Z" fill="white"/>
<path d="M98.3113 24.9476V12.7852H102.935C104.872 12.7852 106.39 13.4134 107.472 14.5825C108.554 15.7517 109.095 17.1825 109.095 18.8577C109.095 20.5678 108.572 22.0161 107.507 23.1852C106.443 24.3543 105.117 24.9476 103.494 24.9476H98.3113V24.9476ZM100.039 23.6563H102.831C104.314 23.6563 105.431 23.2027 106.199 22.3127C106.966 21.4053 107.35 20.2188 107.35 18.753C107.35 17.549 106.984 16.4845 106.251 15.5248C105.518 14.5651 104.384 14.0939 102.831 14.0939H100.039V23.6563Z" fill="white"/>
<path d="M22.6323 24.9476H19.1074L16.5249 20.3933L14.6229 20.4107L14.5705 24.9302H11.3773V12.7852H18.0256C19.4913 12.7852 20.6256 13.1517 21.3061 13.8845C22.0215 14.6523 22.4403 15.5423 22.4403 16.3798C22.4403 17.0255 22.3531 17.6362 21.9866 18.247C21.6725 18.7704 20.835 19.5906 19.9101 19.9047L22.6323 24.9476ZM14.6229 17.9852H17.1007C17.7464 17.9852 18.235 17.8282 18.5665 17.5141C18.8806 17.2 19.0551 16.8161 19.0551 16.3449C19.0551 15.8913 18.8806 15.5248 18.5491 15.2805C18.2175 15.0188 17.7813 14.8966 17.2578 14.8966H14.6403V17.9852H14.6229Z" fill="white"/>
<path d="M139.527 18.596V24.9128H137.992V23.098C137.172 24.4242 135.636 25 133.839 25C131.902 25 130.384 24.3195 129.302 23.1852C128.22 22.051 127.679 20.6725 127.679 19.0322C127.679 17.2873 128.255 15.7517 129.389 14.5826C130.541 13.4134 132.094 12.8202 134.048 12.8202C136.753 12.8202 138.637 14.0416 139.457 16.2577L137.817 16.5893C137.573 15.7342 137.102 15.2108 136.404 14.8269C135.706 14.443 134.763 14.251 133.943 14.251C132.495 14.251 131.221 14.8094 130.523 15.7168C129.825 16.6242 129.494 17.5839 129.494 18.9624C129.494 20.4457 129.878 21.4228 130.645 22.2604C131.413 23.098 132.67 23.4295 133.996 23.4295C135.025 23.4295 135.898 23.255 136.596 22.7141C137.294 22.1732 137.643 21.6322 137.643 20.6899C137.643 20.5154 137.643 20.2188 137.625 19.9745H133.874V18.5785H139.527V18.596Z" fill="white"/>
</svg>
