<svg xmlns="http://www.w3.org/2000/svg" width="147.922" height="48.731" viewBox="0 0 147.922 48.731">
  <g id="EXP_Logo_RGB_HOR" transform="translate(-126.49 -210.932)">
    <path id="Path_2824" data-name="Path 2824" d="M189.92,212.52a5.4,5.4,0,0,0-7.638,0l-8.17,8.152a5.4,5.4,0,1,0,7.635,7.644l8.168-8.155A5.409,5.409,0,0,0,189.92,212.52Z" transform="translate(-18.409 -0.002)" fill="#5c7d70"/>
    <path id="Path_2825" data-name="Path 2825" d="M189.915,266.727l-8.168-8.153a5.4,5.4,0,1,0-7.635,7.644l8.17,8.152a5.362,5.362,0,0,0,3.816,1.58h0a5.4,5.4,0,0,0,3.818-9.222Z" transform="translate(-18.409 -18.419)" fill="#4c79af"/>
    <path id="Path_2826" data-name="Path 2826" d="M155.16,234.231h0v-.018a5.368,5.368,0,0,0-1.576-3.8l-17.88-17.9a5.4,5.4,0,1,0-7.635,7.626l14.075,14.09L128.068,248.32a5.4,5.4,0,0,0,7.635,7.627l17.879-17.9a5.348,5.348,0,0,0,1.576-3.8.08.08,0,0,0,0-.018Z" fill="#c25700"/>
    <path id="Path_2827" data-name="Path 2827" d="M231,275.033l2.532,6.751,2.543-6.751h1.463v8.034h-1.013v-6.684H236.5l-2.51,6.684h-.911l-2.509-6.684h-.023v6.684h-1.013v-8.034Z" transform="translate(-41.206 -25.632)" fill="#386097"/>
    <path id="Path_2828" data-name="Path 2828" d="M247.461,278.5q2.172,0,2.172,1.564v3.353q0,.326.3.326a.8.8,0,0,0,.293-.056v.743a1.389,1.389,0,0,1-.687.157q-.81,0-.81-.9a2.55,2.55,0,0,1-2.048.9,2.156,2.156,0,0,1-1.412-.422,1.477,1.477,0,0,1-.512-1.21,1.593,1.593,0,0,1,.506-1.238,4.826,4.826,0,0,1,2.352-.7,1.944,1.944,0,0,0,.849-.242.558.558,0,0,0,.219-.478q0-.956-1.294-.956a1.774,1.774,0,0,0-1.063.264,1.062,1.062,0,0,0-.388.839h-.956Q245.1,278.5,247.461,278.5Zm-1.688,4.388a.749.749,0,0,0,.293.63,1.337,1.337,0,0,0,.832.225,2.045,2.045,0,0,0,1.277-.382,1.123,1.123,0,0,0,.5-.912v-1a1.537,1.537,0,0,1-.675.236l-.979.146a1.889,1.889,0,0,0-.945.343A.878.878,0,0,0,245.773,282.89Z" transform="translate(-47.292 -27.019)" fill="#386097"/>
    <path id="Path_2829" data-name="Path 2829" d="M258.113,278.5q2,0,2,2.082v3.871h-.956v-3.972a1.144,1.144,0,0,0-.3-.81,1.157,1.157,0,0,0-.889-.326,1.613,1.613,0,0,0-1.266.5,1.862,1.862,0,0,0-.444,1.294v3.319H255.3v-5.817h.9v.922h.022A2.061,2.061,0,0,1,258.113,278.5Z" transform="translate(-51.508 -27.018)" fill="#386097"/>
    <path id="Path_2830" data-name="Path 2830" d="M268.673,278.492a2.446,2.446,0,0,1,1.957.839,3.292,3.292,0,0,1,.72,2.222,3.223,3.223,0,0,1-.726,2.194,2.434,2.434,0,0,1-1.93.832,2.684,2.684,0,0,1-1.058-.219,1.779,1.779,0,0,1-.821-.692h-.023v3h-.956v-8.045h.956v.788h.023A1.87,1.87,0,0,1,268.673,278.492Zm-1.913,3.038a2.5,2.5,0,0,0,.478,1.609,1.637,1.637,0,0,0,1.356.6,1.534,1.534,0,0,0,1.289-.591,2.663,2.663,0,0,0,.455-1.66,2.368,2.368,0,0,0-.489-1.552,1.621,1.621,0,0,0-1.322-.6,1.576,1.576,0,0,0-1.288.586,2.467,2.467,0,0,0-.478,1.609Z" transform="translate(-55.721 -27.009)" fill="#386097"/>
    <path id="Path_2831" data-name="Path 2831" d="M279.1,278.5a2.656,2.656,0,0,1,2.065.833,3.565,3.565,0,0,1,0,4.4,2.621,2.621,0,0,1-2.065.855,2.673,2.673,0,0,1-2.054-.827,3.112,3.112,0,0,1-.771-2.211,3.158,3.158,0,0,1,.76-2.222A2.666,2.666,0,0,1,279.1,278.5Zm-1.812,3.049a2.4,2.4,0,0,0,.506,1.587,1.705,1.705,0,0,0,2.605.005,2.374,2.374,0,0,0,.512-1.592,2.418,2.418,0,0,0-.506-1.592,1.626,1.626,0,0,0-1.316-.614,1.6,1.6,0,0,0-1.288.619,2.4,2.4,0,0,0-.512,1.587Z" transform="translate(-59.895 -27.017)" fill="#386097"/>
    <path id="Path_2832" data-name="Path 2832" d="M287.275,278.727l1.317,4.759h.022l1.17-4.759h1.047l1.226,4.759h.012l1.305-4.759h.99l-1.845,5.806-.012.011h-1.013L290.3,279.92h-.011l-1.17,4.625h-1.035l-1.868-5.817Z" transform="translate(-63.871 -27.11)" fill="#386097"/>
    <path id="Path_2833" data-name="Path 2833" d="M302.957,278.5a2.324,2.324,0,0,1,1.935.889,3.666,3.666,0,0,1,.7,2.329v.113h-4.354v.068a1.851,1.851,0,0,0,.484,1.344,1.758,1.758,0,0,0,1.327.5,1.373,1.373,0,0,0,1.508-1.136h.945a2.349,2.349,0,0,1-.844,1.48,2.619,2.619,0,0,1-1.643.5,2.488,2.488,0,0,1-2.082-.9,3.417,3.417,0,0,1-.709-2.182,3.078,3.078,0,0,1,.777-2.15,2.533,2.533,0,0,1,1.958-.855Zm1.62,2.487a1.76,1.76,0,0,0-.512-1.176,1.6,1.6,0,0,0-1.176-.467,1.561,1.561,0,0,0-1.125.445,1.824,1.824,0,0,0-.529,1.2Z" transform="translate(-69.471 -27.018)" fill="#386097"/>
    <path id="Path_2834" data-name="Path 2834" d="M313.822,278.5v1.013a2.041,2.041,0,0,0-1.592.568,2.588,2.588,0,0,0-.512,1.772v2.6h-.956v-5.817h.9v1.226h.023a2.133,2.133,0,0,1,2-1.361Z" transform="translate(-73.685 -27.019)" fill="#386097"/>
    <path id="Path_2835" data-name="Path 2835" d="M321.241,274.712a3.835,3.835,0,0,1,2.346.68,2.872,2.872,0,0,1,1.108,1.986h-1.069a2.007,2.007,0,0,0-.776-1.311,2.648,2.648,0,0,0-1.609-.455,2.457,2.457,0,0,0-2,.922,3.812,3.812,0,0,0-.754,2.487,3.475,3.475,0,0,0,.76,2.284,2.461,2.461,0,0,0,2,.922,2.589,2.589,0,0,0,1.845-.686,2.367,2.367,0,0,0,.731-1.811v-.124h-2.565v-.9h3.522v4.231H324.1l-.281-1a2.894,2.894,0,0,1-1.113.883,3.47,3.47,0,0,1-1.463.309,3.582,3.582,0,0,1-2.735-1.17,4.065,4.065,0,0,1-1.092-2.881,4.747,4.747,0,0,1,1.019-3.139,3.452,3.452,0,0,1,2.808-1.227Z" transform="translate(-76.344 -25.502)" fill="#386097"/>
    <path id="Path_2836" data-name="Path 2836" d="M335.253,278.5v1.013a2.041,2.041,0,0,0-1.592.568,2.589,2.589,0,0,0-.512,1.772v2.6h-.956v-5.817h.9v1.226h.023a2.133,2.133,0,0,1,2-1.361Z" transform="translate(-82.255 -27.019)" fill="#386097"/>
    <path id="Path_2837" data-name="Path 2837" d="M340.357,278.5a2.657,2.657,0,0,1,2.065.833,3.565,3.565,0,0,1,0,4.4,2.622,2.622,0,0,1-2.065.855,2.673,2.673,0,0,1-2.054-.827,3.115,3.115,0,0,1-.771-2.211,3.158,3.158,0,0,1,.76-2.222A2.666,2.666,0,0,1,340.357,278.5Zm-1.812,3.049a2.4,2.4,0,0,0,.506,1.587,1.705,1.705,0,0,0,2.605.005,2.374,2.374,0,0,0,.512-1.592,2.418,2.418,0,0,0-.506-1.592,1.627,1.627,0,0,0-1.317-.614,1.6,1.6,0,0,0-1.288.619,2.4,2.4,0,0,0-.512,1.587Z" transform="translate(-84.389 -27.017)" fill="#386097"/>
    <path id="Path_2838" data-name="Path 2838" d="M349.555,278.727v3.961a1.131,1.131,0,0,0,.315.827,1.16,1.16,0,0,0,.867.321,1.625,1.625,0,0,0,1.283-.495,1.879,1.879,0,0,0,.438-1.294v-3.319h.956v5.817h-.9v-.922h-.022a2.014,2.014,0,0,1-1.891,1.057,1.8,1.8,0,0,1-2-2.07v-3.882Z" transform="translate(-88.816 -27.11)" fill="#386097"/>
    <path id="Path_2839" data-name="Path 2839" d="M361.577,278.492a2.447,2.447,0,0,1,1.958.839,3.291,3.291,0,0,1,.72,2.222,3.22,3.22,0,0,1-.726,2.194,2.433,2.433,0,0,1-1.93.832,2.684,2.684,0,0,1-1.058-.219,1.782,1.782,0,0,1-.821-.692H359.7v3h-.956v-8.045h.956v.788h.023A1.871,1.871,0,0,1,361.577,278.492Zm-1.913,3.038a2.5,2.5,0,0,0,.478,1.609,1.638,1.638,0,0,0,1.356.6,1.533,1.533,0,0,0,1.289-.591,2.663,2.663,0,0,0,.455-1.66,2.368,2.368,0,0,0-.489-1.552,1.621,1.621,0,0,0-1.322-.6,1.577,1.577,0,0,0-1.288.586A2.471,2.471,0,0,0,359.664,281.53Z" transform="translate(-92.872 -27.009)" fill="#386097"/>
    <path id="Path_2840" data-name="Path 2840" d="M242.407,225.448v2.112H231.9v5.994h9.8v2.113h-9.8v6.522h10.588V244.3h-13.1V225.448Z" transform="translate(-41.147 -5.805)" fill="#386097"/>
    <path id="Path_2841" data-name="Path 2841" d="M257.145,234.116l3.248,4.753h.026l3.407-4.753h2.693l-4.7,6.284,5.282,7.367h-2.879l-3.8-5.651-3.8,5.651H253.9l5.122-7.182-4.753-6.47Z" transform="translate(-50.947 -9.271)" fill="#386097"/>
    <path id="Path_2842" data-name="Path 2842" d="M284.795,233.584a5.745,5.745,0,0,1,4.595,1.967,7.728,7.728,0,0,1,1.69,5.215,7.557,7.557,0,0,1-1.7,5.149,5.708,5.708,0,0,1-4.528,1.954,6.3,6.3,0,0,1-2.482-.515,4.18,4.18,0,0,1-1.928-1.624h-.053v7.05h-2.245V233.9h2.245v1.848h.053Q281.52,233.584,284.795,233.584Zm-4.489,7.129a5.866,5.866,0,0,0,1.122,3.777,3.845,3.845,0,0,0,3.182,1.4,3.6,3.6,0,0,0,3.023-1.386,6.248,6.248,0,0,0,1.07-3.895,5.558,5.558,0,0,0-1.149-3.644,3.8,3.8,0,0,0-3.1-1.4,3.7,3.7,0,0,0-3.023,1.373A5.8,5.8,0,0,0,280.306,240.713Z" transform="translate(-60.641 -9.055)" fill="#386097"/>
    <path id="Path_2843" data-name="Path 2843" d="M308.49,233.584a5.451,5.451,0,0,1,4.541,2.086,8.6,8.6,0,0,1,1.637,5.466v.264H304.45v.158a4.349,4.349,0,0,0,1.135,3.155,4.13,4.13,0,0,0,3.116,1.175,3.222,3.222,0,0,0,3.539-2.667h2.218a5.514,5.514,0,0,1-1.98,3.472,6.147,6.147,0,0,1-3.855,1.175,5.841,5.841,0,0,1-4.885-2.113,8.023,8.023,0,0,1-1.664-5.123,7.218,7.218,0,0,1,1.822-5.043A5.94,5.94,0,0,1,308.49,233.584Zm3.8,5.836a4.136,4.136,0,0,0-1.2-2.76,3.743,3.743,0,0,0-2.76-1.1,3.663,3.663,0,0,0-2.64,1.043,4.283,4.283,0,0,0-1.241,2.813Z" transform="translate(-70.21 -9.056)" fill="#386097"/>
    <path id="Path_2844" data-name="Path 2844" d="M333.458,233.588v2.377a4.787,4.787,0,0,0-3.737,1.334,6.078,6.078,0,0,0-1.2,4.159v6.1h-2.245V233.9h2.113v2.878h.053a5.007,5.007,0,0,1,4.7-3.2Z" transform="translate(-79.889 -9.059)" fill="#386097"/>
    <path id="Path_2845" data-name="Path 2845" d="M343.524,225.448v2.746h-2.245v-2.746Zm0,5.2V244.3h-2.245V230.65Z" transform="translate(-85.889 -5.805)" fill="#386097"/>
    <path id="Path_2846" data-name="Path 2846" d="M354.039,233.582a6.507,6.507,0,0,1,4.106,1.07,4.224,4.224,0,0,1,1.466,3.208h-2.245v-.026a2.183,2.183,0,0,0-.964-1.69,3.856,3.856,0,0,0-2.2-.581,4.26,4.26,0,0,0-2.126.449,1.452,1.452,0,0,0-.093,2.521,6.358,6.358,0,0,0,2.086.779l2.113.475a6.943,6.943,0,0,1,3.01,1.333,3.049,3.049,0,0,1,1.03,2.443,3.7,3.7,0,0,1-1.558,3.168,7.083,7.083,0,0,1-4.251,1.136,6.759,6.759,0,0,1-4.146-1.149,4.324,4.324,0,0,1-1.637-3.472h2.244a2.4,2.4,0,0,0,1,1.954,4.49,4.49,0,0,0,2.667.686q3.3,0,3.3-2.033a1.629,1.629,0,0,0-.805-1.426,11.789,11.789,0,0,0-3.446-1.082,8.285,8.285,0,0,1-3.591-1.4,3.048,3.048,0,0,1-1.083-2.482,3.383,3.383,0,0,1,1.387-2.812A5.965,5.965,0,0,1,354.039,233.582Z" transform="translate(-88.827 -9.054)" fill="#386097"/>
    <path id="Path_2847" data-name="Path 2847" d="M366.341,226.34a2.01,2.01,0,0,1,.442-.64,2.06,2.06,0,0,1,.651-.426,2.038,2.038,0,0,1,2.661,1.066,1.951,1.951,0,0,1,.162.8,2,2,0,0,1-.162.811,2.067,2.067,0,0,1-.439.646,1.978,1.978,0,0,1-.646.426,2.119,2.119,0,0,1-1.576,0,2,2,0,0,1-.651-.426,2.032,2.032,0,0,1-.442-.646,2,2,0,0,1-.163-.811,1.951,1.951,0,0,1,.163-.8Zm.333,1.489a1.694,1.694,0,0,0,.353.551,1.63,1.63,0,0,0,.531.366,1.651,1.651,0,0,0,.664.133,1.617,1.617,0,0,0,.656-.133,1.637,1.637,0,0,0,.529-.366,1.687,1.687,0,0,0,.353-.55,1.835,1.835,0,0,0,.128-.692,1.786,1.786,0,0,0-.128-.678,1.646,1.646,0,0,0-.882-.909,1.617,1.617,0,0,0-.656-.133,1.654,1.654,0,0,0-1.2.5,1.673,1.673,0,0,0-.353.545,1.794,1.794,0,0,0-.128.678A1.844,1.844,0,0,0,366.674,227.829Zm1.674-1.869a.971.971,0,0,1,.626.168.622.622,0,0,1,.2.51.577.577,0,0,1-.179.469.805.805,0,0,1-.445.176l.678,1.047h-.4l-.645-1.02H367.8v1.02h-.369V225.96Zm-.163,1.052q.125,0,.236-.008a.6.6,0,0,0,.2-.046.311.311,0,0,0,.138-.117.4.4,0,0,0,.052-.22.342.342,0,0,0-.046-.19.317.317,0,0,0-.119-.108.524.524,0,0,0-.168-.052,1.353,1.353,0,0,0-.187-.013H367.8v.754Z" transform="translate(-95.845 -5.671)" fill="#386097"/>
  </g>
</svg>
