<?xml version="1.0" encoding="utf-8"?>
<!-- Generator: Adobe Illustrator 22.0.1, SVG Export Plug-In . SVG Version: 6.00 Build 0)  -->
<svg version="1.1" id="Livello_1" xmlns="http://www.w3.org/2000/svg" xmlns:xlink="http://www.w3.org/1999/xlink" x="0px" y="0px"
	 viewBox="0 0 340.2 85" style="enable-background:new 0 0 340.2 85;" xml:space="preserve">
<style type="text/css">
	.st0{fill:#027398;}
	.st1{fill:#76B82D;}
	.st2{clip-path:url(#SVGID_2_);fill:url(#SVGID_3_);}
	.st3{fill:none;stroke:#FFFFFF;stroke-width:1.079;stroke-linecap:round;stroke-linejoin:round;stroke-miterlimit:10;}
</style>
<g>
	<path class="st0" d="M93.9,39.9c0,1.1-0.8,1.9-2.5,2.3c-1,0.3-2.1,0.4-3.5,0.4H73.3V33h14.6c4,0,6,0.9,6,2.7V39.9z M98.7,41.8v-7.9
		c0-4.9-3.6-7.3-10.8-7.3H68.5v32.7h4.8V49h14.6c2.5,0,4.8-0.4,6.7-1.3C97.3,46.5,98.7,44.5,98.7,41.8 M102.2,59.2h4.8V26.6h-4.8
		V59.2z M123,59.2h19.4v-6.4H123c-3.9,0-5.9-0.9-5.9-2.8V36.5c0-2.3,2-3.5,5.9-3.5h19.4v-6.4H123c-2.5,0-4.7,0.5-6.7,1.4
		c-2.8,1.3-4.1,3.3-4.1,5.9V52c0,2.8,1.4,4.8,4.1,6C118.1,58.8,120.3,59.2,123,59.2 M159,59.2h19.4v-6.4H159c-3.9,0-5.9-0.9-5.9-2.8
		V36.5c0-2.3,2-3.5,5.9-3.5h19.4v-6.4H159c-2.5,0-4.7,0.5-6.7,1.4c-2.8,1.3-4.1,3.3-4.1,5.9V52c0,2.8,1.4,4.8,4.1,6
		C154.1,58.8,156.3,59.2,159,59.2 M183.9,59.2h4.8V26.6h-4.8V59.2z M222.8,58.4c0.4-0.7,0.6-1.5,0.6-2.4V26.6h-4.8v23L197,27.3
		c-0.6-0.6-1.2-0.9-1.7-0.9c-0.7,0-1.2,0.3-1.6,1c-0.4,0.7-0.6,1.5-0.6,2.4v29.5h4.8V36.3l21.5,22.2c0.6,0.6,1.2,0.9,1.8,0.9
		C221.9,59.5,222.4,59.1,222.8,58.4 M232.9,26.6h-4.8v32.7h4.8V26.6z"/>
	<path class="st1" d="M250.3,59.5h19.4V40.3c0-0.9-0.2-1.6-0.7-2.3c-0.5-0.6-1-0.9-1.7-0.9h-18.7v6.4h16.3V53h-14.6
		c-4,0-6-0.9-6-2.7V35.9c0-1.8,2-2.7,6-2.7h19.4v-6.4h-19.4c-2.7,0-4.9,0.4-6.7,1.2c-2.7,1.2-4.1,3.3-4.1,6.1v18.1
		c0,2.9,1.4,4.9,4.1,6.1C245.3,59.1,247.6,59.5,250.3,59.5 M300.1,42.8h-20.6v-4.3c0-1.4,0.8-2.7,2.3-3.8c1.3-1,2.6-1.5,3.7-1.5h8.2
		c1.3,0,2.7,0.4,4,1.3c1.5,1,2.3,2.3,2.3,4V42.8z M300.1,59.5h4.8V37.1c0-3.2-1.3-5.9-3.9-7.8c-2.2-1.7-4.6-2.5-7.2-2.5h-8.2
		c-2.7,0-5.1,0.8-7.2,2.4c-2.5,1.9-3.7,4.6-3.7,7.9v22.3h4.8V49.2h20.6V59.5z M313.7,35.6v-0.5c0-0.9,0.7-1.5,2.1-1.7
		c0.4-0.1,1.4-0.1,2.9-0.1h18.4v-6.4h-18.4c-6.6,0-9.9,2.2-9.9,6.5v4.1c0,4.1,3.3,6.1,9.9,6.1h8.6c4,0,6,0.8,6,2.4v4.7
		c0,1.7-2,2.5-6,2.5h-18.5v6.4h18.5c2.5,0,4.8-0.4,6.7-1.3c2.7-1.2,4.1-3.2,4.1-6v-8c0-2.8-1.4-4.9-4.1-6.1c-1.8-0.8-4-1.1-6.7-1.1
		h-8.6h-1.1c-0.2,0-0.5,0-0.6,0h-0.4C314.7,37.1,313.7,36.6,313.7,35.6"/>
</g>
<g>
	<path class="st0" d="M38.9,17.3h-16c-4.9,0-9,0.6-12.5,1.9c-5.1,1.9-7.7,5.1-7.7,9.5v28.4c0,4.1,2.6,7.1,7.8,9.2
		c3.8,1.5,7.9,2.2,12.3,2.2h16c4.7,0,8.8-0.6,12.4-2c5.1-1.9,7.7-5.1,7.7-9.4V28.7C59.1,21.1,52.4,17.3,38.9,17.3"/>
	<path class="st1" d="M30.8,37.7c-14,16,2,25,2,25c2,1.1,4.3,1.7,6.7,1.7c3.9,0,7.2-1.4,10-4.2c2.8-2.8,4.2-6.3,4.1-10.3
		c-0.1-3.9-2-7.8-5.7-11.4L30.9,21.4L30.4,22l-16,16l-0.5,0.5C10.2,42.2,8.3,46,8.2,50c-0.1,4,1.3,7.4,4.1,10.3
		c2.8,2.8,6.1,4.2,10,4.2c2.5,0,4.7-0.6,6.7-1.7c0,0,16-9,2-25"/>
</g>
<g>
	<defs>
		<path id="SVGID_1_" d="M25.7,46.4c-0.2,1.1-0.4,2.4-0.4,3.7v0.8c0,1.9,0.4,3.9,1.1,5.5c1.2,2.8,4,5.8,6.6,3.2
			c2.4-2.5,3.5-6.2,3.6-9.5c0.1-2.6,0-4.9-1.1-7.2c-0.8-1.6-2.5-4.8-4.3-5.2l-0.4-0.2C28.5,37.8,26.1,44.4,25.7,46.4"/>
	</defs>
	<clipPath id="SVGID_2_">
		<use xlink:href="#SVGID_1_"  style="overflow:visible;"/>
	</clipPath>
	
		<linearGradient id="SVGID_3_" gradientUnits="userSpaceOnUse" x1="-115.257" y1="544.4994" x2="-113.1063" y2="544.4994" gradientTransform="matrix(-5.000000e-07 -10.7449 10.7449 -5.000000e-07 -5819.6265 -1177.8363)">
		<stop  offset="0" style="stop-color:#04488C"/>
		<stop  offset="1" style="stop-color:#00A8E2"/>
	</linearGradient>
	<rect x="25.3" y="37.5" class="st2" width="11.4" height="24.7"/>
</g>
<g>
	<path class="st3" d="M30.9,21.4L13.8,38.5 M30.9,21.4L48,38.5c3.7,3.7,5.6,7.5,5.7,11.4c0.1,4-1.3,7.4-4.1,10.3
		c-2.8,2.8-6.1,4.2-10,4.2c-2.5,0-4.7-0.5-6.7-1.7c0,0-16-9-2-25 M13.8,38.5C10.2,42.2,8.3,46,8.2,50c-0.1,4,1.3,7.4,4.1,10.3
		c2.8,2.8,6.1,4.2,10,4.2c2.5,0,4.7-0.5,6.7-1.7c0,0,16-9,2-25"/>
</g>
</svg>
