<svg xmlns="http://www.w3.org/2000/svg" width="149" height="45" viewBox="0 0 149 45"><g><g><g><g><path fill="#a1cf77" d="M107.655.252l.009 18.327c0 10.2 8.403 18.5 18.733 18.5v-6.156c-6.892 0-12.5-5.538-12.5-12.344l.006-.734h.027l3.155-.003c4.775-.004 8.641-3.83 8.637-8.545L125.714 0l-18.06.016v.237"></path></g><g><path fill="#fff" d="M17.649 17.274c6.281 0 10.378 4.059 10.378 10.24 0 6.182-4.097 10.204-10.378 10.204-4.404 0-8.16-2.16-9.524-5.512H8.09v12.736H0V17.907h5.76a1.48 1.48 0 0 1 1.452 1.163l.81 3.79h.034c1.366-3.39 5.155-5.586 9.593-5.586zm2.29 10.24c0-2.644-2.39-4.394-6.078-4.394-3.654 0-6.078 1.75-6.078 4.394s2.424 4.357 6.078 4.357c3.687 0 6.078-1.713 6.078-4.357z"></path></g><g><path fill="#fff" d="M92.95 17.274c-3.892 0-7.477 2.085-9.115 5.586h-.034c-.99-3.426-3.687-5.586-7.783-5.586-4.028 0-7.34 2.122-8.944 5.511h-.034l-.808-3.722a1.476 1.476 0 0 0-1.448-1.156h-5.485a.042.042 0 0 0-.043.042V37.08c0 .023.02.042.043.042h8.005c.024 0 .043-.02.043-.042v-8.784c0-3.388 1.809-5.436 4.882-5.436 2.491 0 3.993 1.6 3.993 4.282v9.938c0 .023.02.042.043.042h7.97c.024 0 .044-.02.044-.042v-8.784c0-3.388 1.809-5.436 4.881-5.436 2.526 0 3.995 1.6 3.995 4.282v9.938c0 .023.019.042.042.042h8.006c.023 0 .042-.02.042-.042V25.839c0-5.14-3.072-8.565-8.295-8.565"></path></g><g><path fill="#fff" d="M44.288 22.665c2.482 0 4.222 1.162 4.807 3.035l7.46-1.551c-1.242-4.175-6.104-6.872-12.608-6.872-8.193 0-13.655 4.05-13.655 10.219 0 6.168 5.462 10.218 13.655 10.218 6.504 0 11.366-2.697 12.609-6.872l-7.461-1.55c-.585 1.873-2.325 3.035-4.807 3.035-3.619 0-5.94-1.821-5.94-4.831 0-3.01 2.321-4.83 5.94-4.83"></path></g><g><path fill="#fff" d="M148.904 36.827l-.01-18.327C148.894 8.3 140.49 0 130.158 0v6.156c6.893 0 12.501 5.538 12.501 12.344l-.005.734h-.026l-3.157.003c-4.775.004-8.642 3.83-8.638 8.545l.009 9.297 18.062-.016v-.237"></path></g></g></g></g></svg>