<?xml version="1.0" encoding="utf-8"?>
<!-- Generator: Adobe Illustrator 21.0.0, SVG Export Plug-In . SVG Version: 6.00 Build 0)  -->
<svg version="1.1" id="Capa_1" xmlns="http://www.w3.org/2000/svg" xmlns:xlink="http://www.w3.org/1999/xlink" x="0px" y="0px"
	 viewBox="0 0 345.7 43.6" style="enable-background:new 0 0 345.7 43.6;" xml:space="preserve">
<style type="text/css">
	.st0{fill:#00ABCD;}
	.st1{fill:#FFFFFF;}
</style>
<title>logo-mbl</title>
<circle class="st0" cx="21.8" cy="21.8" r="21.8"/>
<path class="st1" d="M19,20.5c1-1.1,1.5-2.6,1.4-4.1c0.1-1.4-0.4-2.8-1.3-3.9c-1-1-2.3-1.5-3.6-1.4c-1.4-0.1-2.9,0.5-3.9,1.5
	c-1,1.1-1.5,2.6-1.4,4.1c-0.1,1.4,0.4,2.8,1.4,3.8c0.9,1,2.2,1.5,3.6,1.4C16.6,22.1,18,21.5,19,20.5z M13.3,16.6c0-2,0.7-3,2.1-3
	c1.3,0,2,0.9,2,2.8s-0.7,2.9-2.1,3C14,19.4,13.3,18.5,13.3,16.6z"/>
<polygon class="st1" points="26.8,11.4 13.2,32.3 16.8,32.3 30.4,11.4 "/>
<path class="st1" d="M32.1,23c-1-1-2.3-1.5-3.6-1.4c-1.4-0.1-2.9,0.5-3.9,1.5c-1,1.1-1.5,2.6-1.5,4.1c-0.1,1.4,0.4,2.8,1.4,3.8
	c0.9,1,2.2,1.5,3.6,1.4C29.6,32.6,31,32,32,31c1-1.1,1.5-2.6,1.4-4.1C33.5,25.5,33.1,24.1,32.1,23z M28.3,30c-1.4,0-2-0.9-2-2.8
	c0-2,0.7-3,2.1-3c0.6,0,1.1,0.3,1.5,0.7c0.4,0.6,0.6,1.4,0.5,2.1C30.4,29,29.7,30,28.3,30z"/>
<path class="st1" d="M72.6,37.2V26.6c-0.1-2.2-1.7-4-3.9-4.4v-0.1c3.3-1.5,4.2-4.1,4.2-7.7c0-6.7-3.2-9.3-9.7-9.3H51.6v33.7h7.9
	V25.5h2.6c1.8,0.1,2.5,1.5,2.7,3.5c0.2,1.4,0.1,3.2,0.1,5.1l0,0v4.6h7.7 M62.2,19.5h-2.7v-8.3c3.9-0.1,5.5,0.1,5.5,4.1
	C65.1,17.4,64.5,19.5,62.2,19.5z"/>
<path class="st1" d="M83.3,5.1L76,38.8h8l0.9-6.6h6.2l1.1,6.6h8L92.9,5.1H83.3z M85.7,26.3L88,11.3h0.1l2.2,15.1L85.7,26.3z"/>
<polygon class="st1" points="99.2,11.9 105.3,11.9 105.3,38.8 113.3,38.8 113.3,11.9 119.6,11.9 119.6,5.1 99.2,5.1 "/>
<rect x="122.6" y="5.1" class="st1" width="7.9" height="33.7"/>
<path class="st1" d="M144.6,4.3c-6.9,0-10.8,3.6-10.8,10.1v13.7c0,7.6,2.8,11.6,10.8,11.6s10.6-4,10.6-11.5V14.4
	C155.3,7.9,151.6,4.3,144.6,4.3z M147.4,28.8c0,1.9-0.2,4.8-2.7,4.8s-2.9-2.9-2.9-4.8V14.9c0-2.1,0.3-4.5,2.8-4.5s2.8,2.5,2.8,4.5
	L147.4,28.8z"/>
<polygon class="st1" points="172.9,24 172.7,24 166.6,5.1 158.5,5.1 158.5,38.8 166,38.8 165.3,20.1 165.4,20 171.5,38.8 
	179.6,38.8 179.6,5.1 172.1,5.1 "/>
<path class="st1" d="M189.5,5.1l-7.4,33.7h8l0.9-6.6h6.2l1.1,6.6h8L199,5.1H189.5z M191.8,26.3l2.3-15.1h0.1l2.2,15.1H191.8z"/>
<polygon class="st1" points="216.6,5.1 208.6,5.1 208.6,38.8 226.2,38.8 226.2,32.1 216.6,32.1 "/>
<path class="st0" d="M238.4,16.8c-1.6-1.1-2.6-2.1-2.4-4.1c0-1.3,1.1-2.3,2.4-2.3c0.1,0,0.2,0,0.3,0c2.6,0.2,2.5,2.9,2.6,4.8h7.3
	c0.4-6.3-3.1-10.9-10-10.9c-6.1,0-9.9,3.2-9.9,9.6c-0.1,2.4,0.7,4.9,2.3,6.7c1.7,1.8,3.8,3.3,6,4.4c2.1,1.3,4.4,2.3,4.4,5.2
	c0,1.7-0.8,3.4-2.6,3.4c-2.5,0-3.1-1.7-3.1-3.6v-2.4h-7.3v3.6c0,4.5,3.1,8.5,10.3,8.5c6.6,0,10.2-3.6,10.2-10.1c0-4.1-1.1-6.3-2.9-8
	S241.4,18.7,238.4,16.8z"/>
<polygon class="st0" points="251.1,11.9 257.3,11.9 257.3,38.8 265.2,38.8 265.2,11.9 271.6,11.9 271.6,5.1 251.1,5.1 "/>
<path class="st0" d="M285,4.3c-6.9,0-10.8,3.6-10.8,10.1v13.7c0,7.6,2.8,11.6,10.8,11.6s10.6-4,10.6-11.5V14.4
	C295.7,7.9,291.9,4.3,285,4.3z M287.7,28.8c0,1.9-0.2,4.8-2.7,4.8s-2.9-2.9-2.9-4.8V14.9c0-2.1,0.3-4.5,2.8-4.5s2.8,2.5,2.8,4.5
	V28.8z"/>
<path class="st0" d="M312.3,28.7c0,2.1-0.2,4.8-2.9,4.8c-2.1,0-2.8-1.1-2.8-3V13.9c0-2.2,0.6-3.6,3.1-3.5c1.5,0,2.5,1.5,2.5,4.4v2.2
	h7.9v-2.8c0-6.9-4-9.8-10.8-9.8c-7.2,0-10.6,3.4-10.6,10.7v13.8c0,6.9,2.8,10.7,10.1,10.7c8.1,0,11.4-4,11.4-9.8v-4.1h-7.9V28.7z"/>
<polygon class="st0" points="338,20 345.2,5.1 337.1,5.1 331.3,18.6 331.2,18.6 331.2,5.1 323.3,5.1 323.3,38.8 331.2,38.8 
	331.2,30.5 333,27.1 337.3,38.8 345.7,38.8 "/>
</svg>
