<?xml version="1.0" encoding="UTF-8"?> <svg xmlns="http://www.w3.org/2000/svg" xmlns:xlink="http://www.w3.org/1999/xlink" version="1.1" id="Layer_1" x="0px" y="0px" viewBox="0 0 713.8 259.4" style="enable-background:new 0 0 713.8 259.4;" xml:space="preserve"> <style type="text/css"> .st0{fill:#2EBA9C;} .st1{fill:#404544;} </style> <path id="XMLID_57_" class="st0" d="M87.7,127.3c40.7-9.7,40.7-49.6,40.7-57.8V9.1c0-5.6-2.6-8.1-7.8-8.1H8.5C3,1,0.4,3.6,0.4,9.1 v13.3c0,5.2,2.6,7.8,8.1,7.8h87.3v44c0,6.3,0,39.2-42.2,39.2H38.5c-5.6,0-8.1,2.6-8.1,8.1v14.1c0,5.2,2.6,8.1,8.1,8.1h15.2 c43.3,0,43.3,34.4,43.3,41.8v45.1H8.1c-5.6,0-8.1,2.6-8.1,8.1v13.3c0,5.2,2.6,7.8,8.1,7.8h113.6c5.2,0,7.8-2.6,7.8-8.1v-61.8 C129.5,180.5,129.5,137.1,87.7,127.3z"></path> <path class="st1" d="M457,182.2v-9.6c0-5.2-6-8-16.8-8c-20.6,0-34.9,11.4-34.9,35.2c0,21.5,11.4,32.4,32.3,32.4 c13.3,0,20.1-3.3,20.1-8.9c0-3.5-2.3-5.7-5.4-5.7c-3,0-6.3,1.5-11.7,1.5c-11.3,0-18.2-6.8-18.2-20.8c0-15.7,7.1-20.9,16.7-20.9h3.2 l1.1,5.1c0.8,3.4,3.3,5.6,6.8,5.6C454.5,188.1,457,185.8,457,182.2z M377.4,201.5v15.6c-2.4,1.8-6,3.4-9.5,3.4 c-5.7,0-9.5-3.2-9.5-9.1c0-5.2,2.5-10.1,13.5-10.1C373.3,201.3,375.6,201.4,377.4,201.5z M394.2,215.2v-29.6c0-15.3-7.8-21-23.8-21 c-9.8,0-18.5,2.5-22,5.2c-1.5,1.1-2.7,2.9-2.7,5.1c0,3.5,2.8,6.1,5.4,6.1c3.3,0,8.7-3.7,16.1-3.7c5.2,0,10.1,1.6,10.1,7v7.2 c-1.9-0.1-4-0.4-6.6-0.4c-20,0-28.9,7.1-28.9,21.3c0,11.9,7.3,19.9,20.1,19.9c8.4,0,12.7-3,16.7-6.7c2.1,5.4,6.2,6.6,12.4,6.6 c7.7,0,11.4-1.8,11.4-7c0-3.3-0.8-4.8-4-5.1C395.6,219.8,394.2,219.5,394.2,215.2z M304.6,230.6h26.2c3.3,0,6-2.7,6-6s-2.7-6-6-6h-4 V178h4c3.7,0,6-2.3,6-6s-2.3-6-6-6h-24.4c-3.3,0-6,2.7-6,6s2.7,6,6,6h3.5v16.2c-3.8,1.4-10.1,2.5-14.9,2.5c-5.6,0-8.6-2.9-8.6-9V178 h3.5c3.3,0,6-2.7,6-6s-2.7-6-6-6h-23.2c-3.3,0-6,2.7-6,6s2.7,6,6,6h2.8v10.3c0,17.6,10.6,21.3,19.6,21.3c8.2,0,15.7-2.7,20.8-5.3 v14.6h-5.3c-3.3,0-6,2.7-6,6S301.3,230.6,304.6,230.6z M204.1,219.6c-7.6,0-15.7-4.4-16-32.9h11.8c11,0,17.5,6.1,17.5,17.7 C217.4,215.3,210.1,219.6,204.1,219.6z M204.6,148.1c5.1,0,10.1,2.3,10.1,10.1c0,8.6-4.8,17.9-16.6,17.9h-9.8 C188.4,151.9,199.6,148.1,204.6,148.1z M218.6,180.4c8.1-4.3,12.8-11.6,12.8-21.5c0-17-11.3-23.7-26.7-23.7 c-21.5,0-33.5,15.2-33.5,48.7c0,35.5,11.1,48.6,31.9,48.6c18.7,0,30.8-11.4,30.8-28.5C233.8,191.3,226.6,183.4,218.6,180.4z"></path> <path class="st1" d="M551.9,102.2c-10.3,0-15.6-8.9-15.6-21c0-12.3,5.7-20.9,15.6-20.9s15.6,8.6,15.6,20.9 C567.5,93.3,562.2,102.2,551.9,102.2z M551.9,115c19.1,0,32.7-13.7,32.7-34.3c0-21.1-13.2-33.3-32.7-33.3s-32.7,13.2-32.7,34.3 C519.3,102.3,532.3,115,551.9,115z M486.4,113.5h24.2c3.3,0,6-2.7,6-5.9s-2.7-5.9-6-5.9h-4V60.8h4c3.3,0,6-2.7,6-5.9s-2.7-5.9-6-5.9 h-24.2c-3.3,0-6,2.7-6,5.9s2.7,5.9,6,5.9h3.5v13.6h-24.2V60.8h3.5c3.3,0,6-2.7,6-5.9s-2.7-5.9-6-5.9h-24.2c-3.3,0-6,2.7-6,5.9 s2.7,5.9,6,5.9h4v40.8h-4c-3.3,0-6,2.7-6,5.9s2.7,5.9,6,5.9h24.2c3.3,0,6-2.7,6-5.9s-2.7-5.9-6-5.9h-3.5V84.7h24.2v16.8h-3.5 c-3.3,0-6,2.7-6,5.9S483.1,113.5,486.4,113.5z M414.8,60.8v36.1c-2.7,1.6-6.7,3.3-11.3,3.3c-7.7,0-15.6-4.9-15.6-19.9 c0-13.8,5.6-20.9,17.2-20.9C408.8,59.4,412.9,60.1,414.8,60.8z M431.7,113.2V59.8c0-7.2-3-9.4-9.9-11c-4.3-1-10.3-1.4-14.7-1.4 c-22.2,0-36.2,11.5-36.2,33.4c0,20.5,12.4,32.4,28.1,32.4c7,0,11.8-2.4,15.8-5.6v4.7c0,15.7-7.5,18.5-14.8,18.5 c-3.9,0-7.7-0.9-9.5-1.8l-1.1-4.7c-0.9-3.4-3.4-5.7-7.1-5.7c-4,0-6.7,2.8-6.7,6.3v8.1c0,6.7,13.3,9.8,24.6,9.8 C419.9,142.9,431.7,132.6,431.7,113.2z M348.1,74.4h-25.4c0.6-7.5,4.7-14.1,13.2-14.1C342.9,60.3,347.4,65,348.1,74.4z M322.4,84.8 h35.5c4.6,0,6.2-1.8,6.2-6.2v-3.2c0-18.4-12.5-28-27.6-28c-18.4,0-31.4,14.6-31.4,35.4c0,20.4,12.9,32.2,33.3,32.2 c9.5,0,16.5-2.4,21.3-5.2c1.8-1,2.9-2.9,2.9-5.1c0-3.3-2.5-5.9-5.7-5.9s-8.6,3.8-16.7,3.8C329.1,102.6,322.7,95.9,322.4,84.8z M276.5,84.4v15.6c-2.4,1.8-6,3.4-9.5,3.4c-5.7,0-9.5-3.2-9.5-9.1c0-5.2,2.5-10.1,13.5-10.1C272.4,84.1,274.7,84.2,276.5,84.4z M293.3,98V68.4c0-15.3-7.9-21-23.8-21c-9.8,0-18.5,2.5-22,5.2c-1.5,1.1-2.7,2.9-2.7,5.1c0,3.5,2.8,6.1,5.4,6.1 c3.3,0,8.7-3.7,16.1-3.7c5.2,0,10.1,1.6,10.1,7v7.2c-1.9-0.1-4-0.4-6.6-0.4c-20,0-28.9,7.1-28.9,21.3c0,11.9,7.3,19.9,20.1,19.9 c8.4,0,12.7-3,16.7-6.7c2.1,5.4,6.2,6.6,12.4,6.6c7.7,0,11.4-1.8,11.4-7c0-3.3-0.8-4.8-4-5.1C294.7,102.6,293.3,102.3,293.3,98z M172.5,36.5v7.3c0,3.5,2.5,6.1,6,6.1c3.7,0,5.7-2.3,6.8-5.6l1.9-5.8c2.1-0.9,7-2,11.3-2c10.3,0,14.2,4.6,14.2,10.9 c0,8.7-7.6,14.1-22.5,14.1c-4.2,0-6.7,2.4-6.7,6.2c0,3.8,2.7,6.1,7,6.1h3.8c11.5,0,22.8,2.1,22.8,14.4c0,10.3-8.1,14.9-18.4,14.9 c-4.7,0-9-1-12.3-2.3l-2.7-7.5c-1.3-3.4-3-5.6-6.5-5.6c-3.8,0-6.2,2.5-6.2,6.1l-0.1,10.3c-0.1,8.6,18.4,11.1,28.1,11.1 c18.6,0,35.5-9.6,35.5-27.9c0-13.7-9.8-20.6-18.6-23c8-3.7,13.9-9.6,13.9-18.4c0-11-9.4-21.6-29.8-21.6 C184.4,24.4,172.5,27.6,172.5,36.5z"></path> </svg> 