<?xml version="1.0" encoding="UTF-8"?><svg id="Ebene_1" xmlns="http://www.w3.org/2000/svg" viewBox="0 0 383.6 125.24"><defs><style>.cls-1{isolation:isolate;}.cls-2{fill:#9f9172;stroke-width:0px;}</style></defs><g id="verlässlich_und_nah"><g class="cls-1"><path class="cls-2" d="m14.84,18.27v4.41h-4.34l8.33,23.17c.35,1.05.49,1.68.77,3.08h.14c.35-1.54.56-2.45,1.12-3.92l8.19-22.33h-4.69v-4.41h14.42v4.41h-3.99l-12.46,31.71h-5.74L4.06,22.68H0v-4.41h14.84Z"/><path class="cls-2" d="m76.37,36.68v.14h-26.32c.35,9.31,5.11,13.65,13.72,13.65,3.92,0,7.77-1.12,10.85-2.73l-.21,4.97c-2.03,1.12-8.12,2.52-11.9,2.52-11.76,0-18.48-6.58-18.48-18.83,0-11.41,6.51-18.97,16.73-18.97s15.61,6.58,15.61,19.25Zm-6.02-4.27c-.07-6.23-3.99-10.57-9.66-10.57s-10.22,4.2-10.64,10.57h20.3Z"/><path class="cls-2" d="m111.51,18.2l-.56,5.18c-1.12-.35-2.59-.56-3.92-.56-6.58,0-10.71,6.3-10.85,13.44l-.28,13.72h6.09v4.41h-16.94v-4.41h5.11l.28-27.3h-6.16v-4.41h11.9v.7c0,3.71-.49,7.77-.77,10.57h.21c2.1-9.24,6.3-11.9,12.18-11.9.42,0,3.43.35,3.71.56Z"/><path class="cls-2" d="m128.1.56l-.28,49.43h5.74v4.41h-16.66v-4.41h5.18l.28-45.01h-7V.56h12.74Z"/><path class="cls-2" d="m170.52,30.52c0,.28-.42,16.24-.42,19.46h5.18v4.41h-10.36v-.63c0-2.94.35-5.32.7-7.21h-.14c-2.17,5.88-5.81,8.68-12.04,8.68-7.07,0-11.27-3.71-11.27-10.36,0-7.56,5.67-11.06,21.49-11.06h1.4v-2.45c0-6.86-2.45-9.52-8.26-9.52-2.8,0-5.81.56-8.05,1.47v5.6h-5.18v-8.68c3.99-1.61,8.26-2.8,12.74-2.8,10.01,0,14.21,4.13,14.21,13.09Zm-16.87-24.99c0,2.31-1.89,4.13-4.13,4.13s-4.13-1.82-4.13-4.13,1.89-4.13,4.13-4.13,4.13,1.82,4.13,4.13Zm1.05,45.29c6.09,0,10.36-4.41,10.36-13.02h-3.01c-12.95,0-14.14,3.71-14.14,7,0,3.57,2.8,6.02,6.79,6.02Zm14.21-45.29c0,2.31-1.89,4.13-4.13,4.13s-4.13-1.82-4.13-4.13,1.82-4.13,4.13-4.13,4.13,1.82,4.13,4.13Z"/><path class="cls-2" d="m209.37,19.6l.28,8.68h-5.18l-.28-5.11c-1.33-.98-3.92-1.33-6.37-1.33-4.83,0-8.33,1.89-8.33,5.53,0,3.36,2.31,4.9,8.68,6.02,9.73,1.68,13.16,4.41,13.16,10.29,0,7.35-5.46,11.55-14.77,11.55-4.76,0-10.78-1.26-12.39-2.17l-.28-9.24h5.18l.28,5.39c2.03,1.05,5.46,1.61,8.19,1.61,4.76,0,8.33-2.31,8.33-6.02,0-2.8-2.1-4.55-7.7-5.67-11.83-2.38-14.42-5.11-14.42-10.85,0-6.79,5.11-10.85,14.14-10.85,2.94,0,8.75,1.05,11.48,2.17Z"/><path class="cls-2" d="m246.47,19.6l.28,8.68h-5.18l-.28-5.11c-1.33-.98-3.92-1.33-6.37-1.33-4.83,0-8.33,1.89-8.33,5.53,0,3.36,2.31,4.9,8.68,6.02,9.73,1.68,13.16,4.41,13.16,10.29,0,7.35-5.46,11.55-14.77,11.55-4.76,0-10.78-1.26-12.39-2.17l-.28-9.24h5.18l.28,5.39c2.03,1.05,5.46,1.61,8.19,1.61,4.76,0,8.33-2.31,8.33-6.02,0-2.8-2.1-4.55-7.7-5.67-11.83-2.38-14.42-5.11-14.42-10.85,0-6.79,5.11-10.85,14.14-10.85,2.94,0,8.75,1.05,11.48,2.17Z"/><path class="cls-2" d="m268.66.56l-.28,49.43h5.74v4.41h-16.66v-4.41h5.18l.28-45.01h-7V.56h12.74Z"/><path class="cls-2" d="m292.74,18.27l-.28,31.71h5.74v4.41h-17.22v-4.41h5.74l.28-27.3h-6.58v-4.41h12.32Zm.77-13.93c0,2.45-2.03,4.34-4.34,4.34-2.45,0-4.34-1.89-4.34-4.34,0-2.31,1.89-4.34,4.34-4.34,2.31,0,4.34,2.03,4.34,4.34Z"/><path class="cls-2" d="m335.44,19.25v9.45h-5.18v-5.67c-1.4-.56-4.13-.84-6.02-.84-8.19,0-12.53,5.46-12.53,14.07s4.55,14.21,13.72,14.21c3.57,0,6.44-.98,9.8-2.03l-.28,5.04c-2.73.84-6.44,1.75-10.43,1.75-12.25,0-18.83-7.21-18.83-18.9s8.12-18.9,18.13-18.9c3.85,0,7.91.49,11.62,1.82Z"/><path class="cls-2" d="m353.99.56c-.07,11.48-.07,17.92-.07,19.32s-.21,3.5-.7,6.37h.14c1.54-5.25,7-8.82,12.81-8.82,8.05,0,12.39,4.34,12.39,13.86,0,7.21-.28,16.38-.28,18.69h5.32v4.41h-15.68v-4.41h4.62c0-2.87.28-14.42.28-17.5,0-7-2.45-10.29-8.19-10.29-6.65,0-10.64,4.83-10.71,12.25l-.21,15.54h5.32v4.41h-16.24v-4.41h5.18l.28-45.01h-7V.56h12.74Z"/></g><g class="cls-1"><path class="cls-2" d="m13.02,88.27c0,3.99-.28,15.61-.28,20.79,0,7.49,1.89,11.41,7.98,11.41,6.93,0,10.64-4.62,10.64-16.1v-11.69h-5.67v-4.41h11.55l-.28,31.71h5.04v4.41h-10.71c0-2.1.14-4.13.28-4.9l.49-3.08h-.14c-2.03,5.25-6.93,8.82-12.18,8.82-8.26,0-12.74-3.71-12.74-15.26,0-2.45.07-8.19.28-17.29H1.47v-4.41h11.55Z"/><path class="cls-2" d="m85.75,101.29c0,8.05-.28,16.38-.28,18.69h5.32v4.41h-15.68v-4.41h4.62c.21-10.08.28-14.35.28-16.94,0-7.56-2.31-10.85-8.19-10.85-6.65,0-10.57,4.76-10.64,12.25l-.21,15.54h5.25v4.41h-15.68v-4.41h4.62l.28-27.3h-5.81v-4.41h11.55c0,3.92,0,3.5-.77,7.98h.14c1.54-5.25,7-8.82,12.81-8.82,8.05,0,12.39,4.34,12.39,13.86Z"/><path class="cls-2" d="m131.88,70.56l-.28,49.43h5.39v4.41h-11.13c0-2.87.21-4.97.7-7.28l-.14-.14c-1.96,5.25-6.3,8.26-12.11,8.26-8.89,0-14.98-6.65-14.98-17.43,0-12.46,7.21-20.37,19.18-20.37,2.73,0,6.02.56,7.49,1.61l.14-14.07h-7.21v-4.41h12.95Zm-16.38,49.92c6.93,0,10.5-5.25,10.5-14.84v-11.83c-2.45-1.12-4.13-1.61-7.14-1.61-8.47,0-13.51,5.67-13.51,15.68,0,7.63,3.92,12.6,10.15,12.6Z"/><path class="cls-2" d="m202.3,101.29c0,8.05-.28,16.38-.28,18.69h5.32v4.41h-15.68v-4.41h4.62c.21-10.08.28-14.35.28-16.94,0-7.56-2.31-10.85-8.19-10.85-6.65,0-10.57,4.76-10.64,12.25l-.21,15.54h5.25v4.41h-15.68v-4.41h4.62l.28-27.3h-5.81v-4.41h11.55c0,3.92,0,3.5-.77,7.98h.14c1.54-5.25,7-8.82,12.81-8.82,8.05,0,12.39,4.34,12.39,13.86Z"/><path class="cls-2" d="m244.86,100.52c0,.28-.42,16.24-.42,19.46h5.18v4.41h-10.36v-.63c0-2.94.35-5.32.7-7.21h-.14c-2.17,5.88-5.81,8.68-12.04,8.68-7.07,0-11.27-3.71-11.27-10.36,0-7.56,5.67-11.06,21.49-11.06h1.4v-2.45c0-6.86-2.45-9.52-8.26-9.52-2.8,0-5.81.56-8.05,1.47v5.6h-5.18v-8.68c3.99-1.61,8.26-2.8,12.74-2.8,10.01,0,14.21,4.13,14.21,13.09Zm-15.82,20.3c6.09,0,10.36-4.41,10.36-13.02h-3.01c-12.95,0-14.14,3.71-14.14,7,0,3.57,2.8,6.02,6.79,6.02Z"/><path class="cls-2" d="m268.8,70.56c-.07,11.48-.07,17.92-.07,19.32s-.21,3.5-.7,6.37h.14c1.54-5.25,7-8.82,12.81-8.82,8.05,0,12.39,4.34,12.39,13.86,0,7.21-.28,16.38-.28,18.69h5.32v4.41h-15.68v-4.41h4.62c0-2.87.28-14.42.28-17.5,0-7-2.45-10.29-8.19-10.29-6.65,0-10.64,4.83-10.71,12.25l-.21,15.54h5.32v4.41h-16.24v-4.41h5.18l.28-45.01h-7v-4.41h12.74Z"/></g></g></svg>