<?xml version="1.0" encoding="UTF-8"?> <svg xmlns="http://www.w3.org/2000/svg" width="260.001" height="51.178" viewBox="0 0 260.001 51.178"><g id="steelhouse-logo-landscape-ee" transform="translate(-109.185)"><path id="logotekst-steelhouse" d="M18.554,201.1a6.607,6.607,0,0,1-1.131,3.82,7.212,7.212,0,0,1-3.181,2.515,12.264,12.264,0,0,1-4.839.87,12.216,12.216,0,0,1-5.1-.959,7.349,7.349,0,0,1-3.21-2.683A7.137,7.137,0,0,1,0,200.756v-.494H6.131v.494a1.842,1.842,0,0,0,.33,1.078,2.151,2.151,0,0,0,1.022.778,5.129,5.129,0,0,0,1.922.307,5.15,5.15,0,0,0,1.73-.257,2.2,2.2,0,0,0,.986-.646,1.4,1.4,0,0,0,.3-.916,1.1,1.1,0,0,0-.544-1,5.284,5.284,0,0,0-2.37-.567l-1.345-.112a9.045,9.045,0,0,1-5.432-2.156,6.449,6.449,0,0,1-2.073-4.99,6.772,6.772,0,0,1,1.035-3.787,6.6,6.6,0,0,1,2.914-2.406,10.614,10.614,0,0,1,4.311-.814,10.54,10.54,0,0,1,4.568.906,6.777,6.777,0,0,1,2.937,2.6,7.375,7.375,0,0,1,1.015,3.87v.494H11.309v-.494a1.912,1.912,0,0,0-.27-1,1.884,1.884,0,0,0-.788-.712,2.886,2.886,0,0,0-1.332-.277,2.921,2.921,0,0,0-1.233.227,1.465,1.465,0,0,0-.9,1.394,1.422,1.422,0,0,0,.405,1.028,2.5,2.5,0,0,0,1.569.534l1.342.115a13.082,13.082,0,0,1,4.3,1.055,7.557,7.557,0,0,1,3.023,2.37A6.146,6.146,0,0,1,18.554,201.1Zm-.418-15.2v5.613h5.712v16.224l6.3-4.592V191.51H35.86V185.9ZM44.343,202.4v-3.1h7.624v-5.33H44.343v-2.752H52.4V185.9H38.216v21.837H52.567V202.4Zm16.576,0v-3.1h7.627v-5.33H60.92v-2.752h8.056V185.9H54.792v21.837H69.144V202.4Zm39.75-16.507v8.023H93.721V185.9l-6.3,4.592v17.246h6.3v-8.2h6.948v8.2h6.3V185.9Zm30.911,6.5a11.106,11.106,0,0,0-2.255-3.6,10.862,10.862,0,0,0-3.692-2.574,13.825,13.825,0,0,0-10.1,0,10.853,10.853,0,0,0-5.936,6.177,11.463,11.463,0,0,0-.745,4.044v.626a11.189,11.189,0,0,0,.715,3.824,11.636,11.636,0,0,0,2.175,3.655,10.9,10.9,0,0,0,3.679,2.723,13.437,13.437,0,0,0,10.327,0,10.9,10.9,0,0,0,3.679-2.723,11.983,11.983,0,0,0,2.189-3.652,11.016,11.016,0,0,0,.728-3.827v-.626A11.225,11.225,0,0,0,131.58,192.4ZM125.614,199a5.15,5.15,0,0,1-1.068,1.76,4.852,4.852,0,0,1-1.684,1.164,6.334,6.334,0,0,1-4.529,0,4.834,4.834,0,0,1-1.688-1.164,5.2,5.2,0,0,1-1.068-1.76,6.512,6.512,0,0,1-.369-2.218,6.917,6.917,0,0,1,.369-2.317,4.846,4.846,0,0,1,1.061-1.737,4.739,4.739,0,0,1,1.684-1.111,6.2,6.2,0,0,1,2.274-.392,6.12,6.12,0,0,1,2.245.392,4.726,4.726,0,0,1,1.681,1.111,4.975,4.975,0,0,1,1.078,1.744,6.649,6.649,0,0,1,.382,2.311A6.433,6.433,0,0,1,125.614,199ZM147.432,185.9v12.918a4.258,4.258,0,0,1-.4,1.932,2.669,2.669,0,0,1-1.14,1.173,4.607,4.607,0,0,1-3.866,0,2.756,2.756,0,0,1-1.154-1.19,4.144,4.144,0,0,1-.415-1.915V185.9l-6.3,4.592V198.7a10.717,10.717,0,0,0,1.144,5.073,8.049,8.049,0,0,0,3.359,3.359,12.572,12.572,0,0,0,10.607,0,7.988,7.988,0,0,0,3.346-3.362,10.81,10.81,0,0,0,1.127-5.07V185.9Zm25.083,11.481a7.557,7.557,0,0,0-3.023-2.37,13.082,13.082,0,0,0-4.3-1.055l-1.342-.115a2.5,2.5,0,0,1-1.569-.534,1.422,1.422,0,0,1-.405-1.028,1.465,1.465,0,0,1,.9-1.394,2.92,2.92,0,0,1,1.233-.227,2.886,2.886,0,0,1,1.332.277,1.859,1.859,0,0,1,1.058,1.714v.494h6.131v-.494a7.355,7.355,0,0,0-1.015-3.866,6.763,6.763,0,0,0-2.937-2.6,11.9,11.9,0,0,0-8.88-.092,6.6,6.6,0,0,0-2.914,2.406,6.772,6.772,0,0,0-1.035,3.787,6.449,6.449,0,0,0,2.073,4.99,9.045,9.045,0,0,0,5.432,2.156l1.345.112a5.284,5.284,0,0,1,2.37.567,1.1,1.1,0,0,1,.544,1,1.4,1.4,0,0,1-.3.916,2.2,2.2,0,0,1-.986.646,6.069,6.069,0,0,1-3.652-.049,2.151,2.151,0,0,1-1.022-.778,1.842,1.842,0,0,1-.33-1.078v-.494h-6.131v.494a7.137,7.137,0,0,0,1.091,3.906,7.349,7.349,0,0,0,3.211,2.683,13.972,13.972,0,0,0,9.941.089,7.212,7.212,0,0,0,3.181-2.515,6.607,6.607,0,0,0,1.131-3.82A6.146,6.146,0,0,0,172.515,197.377Zm8.676,5.027v-3.1h7.624v-5.33h-7.624v-2.752h8.053V185.9H175.06v21.837h14.355V202.4Zm-103.522-.287V185.9l-6.3,4.592v17.246H85.553v-5.617Z" transform="translate(179.771 -165.715)" fill="#fff"></path><path id="logomark" d="M257.383,50.882,236.305,35.416l13.943,2.545,2-3.094ZM234.68,40.04l-1.83-14.774-8.43,25.913,13.657-9.953Zm32.932-20.345H250.947l1.71,2.965-7.329,13.278ZM241.065,0l-5.128,15.776,3.026-.6L248.8,24.1Zm.586,19.694H214.873l13.289,9.748.225-3.322Z" transform="translate(-105.688)" fill="#b4b8ba" fill-rule="evenodd"></path></g></svg> 