<?xml version="1.0" encoding="UTF-8"?>
<svg id="Layer_1" xmlns="http://www.w3.org/2000/svg" viewBox="0 0 84.64 28.46">
  <g opacity=".25">
    <path d="M8.81,25.21L.01,24.04l1.49-1.67-.5-2.34-1-1.51,.66-1.23,.32-1.81s.98-.94,2.35-2.07c1.31-1.08,2.94-2.33,5.47-2.92,5.02-1.17,6.23-1.34,6.23-1.34l2.48-.48,1.89-.34,.5-.52h2.1l7.22-4.2S33.69,.76,41.5,.3,55.49,.05,55.49,.05l3.95,.23h1.04s.98-.26,1.56-.13,.67,.21,.67,.21l.21,.47v.41l2.49,.5s1.91,.88,6.39,2.64c4.48,1.76,4.77,1.88,4.77,1.88l.87,.42s.82,.54,1.73,.5,2.3-.16,2.93-.16,1.32-.36,.99,.48-.66,.9-.66,.9l.44,.84,.31,.71v1.09l-.29,.25-.17,.25,.17,.29,.29,.66s.91,.89,.95,3.02,.04,2.55,.04,2.55v.8l.21,.84,.26,.74v1.76l-1.49,.08-1.08,.38s-2.61,.21-4.07,.42c-1.45,.21-2.91,.46-2.91,.46l-.95,.46h-.58l-.5,.13s-.62,3.43-3.4,3.98c-2.78,.54-4.61,.13-6.18-.92-1.58-1.05-1.7-1.59-1.7-1.59l-1.04-.42s-.71,.33-1,.04c-.29-.29-.66-.33-.66-.33l-.83-.38-.58-.17-1.12-.21-4.57,.17-19.67,.21-8.76,.25-.54,.21-.58,.29-.62,.67s-1.08,2.15-3.86,2.41c-2.78,.26-4.73,.17-6.01-1.01s-1.4-1.97-1.4-1.97l-.35-.57-.25-.51-.12,.22-.75,.38-.26,.33Z" fill="#232323"/>
  </g>
</svg>