<svg width="24" height="24" viewBox="0 0 24 24" fill="none" xmlns="http://www.w3.org/2000/svg">
<path d="M0 5H18.8601L24 12.4545L18.8601 20H0V5Z" fill="#4FBD38"/>
<path d="M7.42383 13.1953H5.24854L5.24121 11.833H7.16748C7.46533 11.833 7.71924 11.7744 7.9292 11.6572C8.13916 11.54 8.29785 11.3691 8.40527 11.1445C8.51758 10.9199 8.57373 10.6489 8.57373 10.3315C8.57373 9.97998 8.52246 9.69434 8.41992 9.47461C8.32227 9.25 8.1709 9.08643 7.96582 8.98389C7.76074 8.88135 7.49707 8.83008 7.1748 8.83008H5.77588V18H3.99609V7.33594H7.1748C7.67285 7.33594 8.11719 7.39209 8.50781 7.50439C8.90332 7.6167 9.23779 7.79248 9.51123 8.03174C9.78467 8.26611 9.99219 8.56641 10.1338 8.93262C10.2803 9.29395 10.3535 9.72363 10.3535 10.2217C10.3535 10.6562 10.2607 11.0566 10.0752 11.4229C9.88965 11.7842 9.61377 12.082 9.24756 12.3164C8.88623 12.5459 8.43701 12.6826 7.8999 12.7266L7.42383 13.1953ZM7.35791 18H4.6626L5.48291 16.5132H7.35791C7.67529 16.5132 7.93652 16.4448 8.1416 16.3081C8.34668 16.1714 8.50049 15.981 8.60303 15.7368C8.70557 15.4927 8.75684 15.207 8.75684 14.8799C8.75684 14.5381 8.71289 14.2402 8.625 13.9863C8.53711 13.7324 8.39551 13.5371 8.2002 13.4004C8.00488 13.2637 7.74609 13.1953 7.42383 13.1953H5.62939L5.64404 11.833H7.93652L8.34668 12.353C8.85938 12.3628 9.27686 12.4897 9.59912 12.7339C9.92139 12.9731 10.1582 13.2832 10.3096 13.6641C10.4609 14.0449 10.5366 14.4526 10.5366 14.8872C10.5366 15.5659 10.4097 16.1372 10.1558 16.6011C9.90674 17.0601 9.54541 17.4092 9.07178 17.6484C8.59814 17.8828 8.02686 18 7.35791 18Z" fill="white"/>
</svg>
