<?xml version="1.0" encoding="utf-8" standalone="no"?>
<!-- Generator: Adobe Illustrator 25.0.1, SVG Export Plug-In . SVG Version: 6.00 Build 0)  --><svg xmlns="http://www.w3.org/2000/svg" xmlns:xlink="http://www.w3.org/1999/xlink" id="Ebene_1" style="enable-background:new 0 0 623.9 436.4;" version="1.1" viewBox="0 0 623.9 436.4" x="0px" xml:space="preserve" y="0px">
<style type="text/css">
	.st0{fill:#008BD2;}
	.st1{fill:#FFEE00;}
	.st2{fill:#2D417F;}
</style>
<g id="Ebene_1_1_">
</g>
<g id="Ebene_4">
</g>
<g id="Ebene_3">
	<g>
		<g>
			<path class="st0" d="M376.5,393.3c0,16.4-13.3,29.7-29.7,29.7c-16.4,0-29.7-13.3-29.7-29.7s13.3-29.7,29.7-29.7     S376.5,376.9,376.5,393.3"/>
			<path class="st1" d="M335.8,410.9H327l3-30.4c0.3-2.9,0.9-5,1.9-6.2s2.8-1.9,5.4-1.9c3.7,0,6,2.3,6.6,6.8l2.7,17.9h0.3l2.7-17.9     c0.4-2.3,1.1-4,2.2-5.1s2.6-1.7,4.4-1.7c2.7,0,4.5,0.6,5.4,1.8c1,1.2,1.6,3.3,1.9,6.3l3,30.4h-8.8l-1.8-30.1l-4.6,25.3     c-0.2,1.4-0.8,2.6-1.6,3.5c-0.8,0.9-1.8,1.3-3,1.3s-2.2-0.4-3-1.3s-1.4-2-1.6-3.5l-4.6-25.3L335.8,410.9z"/>
			<path class="st0" d="M401.6,407.9l-9.3-25.2c-0.4-1-0.7-2-1.1-3c0,1.1,0,2.2,0,3.3c0,0-0.5,24-0.5,24.9h-2.5     c0,0,0.7-28.1,0.7-29.2h4.9c7.9,22.4,8.5,23.8,9,25.5c0.6-1.7,1.2-3.1,9.2-25.5h4.9c0,0,0.3,28.5,0.3,29.2h-2.7     c0-0.7-0.3-24.7-0.3-24.7c0-1.2,0-2.4-0.1-3.6c-0.5,1.2-0.9,2.4-1.3,3.6l-9,24.6h-2.2V407.9z"/>
			<polygon class="st0" points="425,407.9 425,378.7 440.4,378.7 440.4,380.9 427.8,380.9 427.8,391.6 439.4,391.6 439.4,393.8      427.8,393.8 427.8,405.7 441.5,405.7 441.5,407.9    "/>
			<path class="st0" d="M455.9,405.7c9,0,10-7.1,10-12.5c0-6.9-1.8-12.3-10.1-12.3h-6.3v24.8H455.9z M446.7,378.7h9.9     c7.8,0,12.1,4.2,12.1,14.6c0,13.7-8,14.6-14.7,14.6h-7.3V378.7z"/>
			<rect class="st0" height="29.2" width="2.8" x="475.3" y="378.7"/>
			<path class="st0" d="M495.8,381.8l-4.9,12h9.2L495.8,381.8z M505.3,407.9l-4.3-12h-11l-5,12h-2.7l12.4-29.2h2.7l10.8,29.2H505.3z     "/>
			<path class="st0" d="M533,386.6c0,0-5.2-0.1-6.6-0.1c0-2.1-0.5-4.6-4-4.6c-3.3,0-4.1,2.3-4.1,3.5c0,2.3,2.3,3.2,4.7,4l2.4,0.7     c5.4,1.7,8.3,3.9,8.3,8.9c0,7.1-5.5,9.5-11.2,9.5c-8.3,0-12-3-12-8.8V399c1.4,0,6.4,0.1,7.1,0.1v0.3c0,2.4,0.7,5.1,4.7,5.1     c4.1,0,4.4-3.2,4.4-4.2c0-2.6-1.6-3.2-4.9-4.3l-1.9-0.6c-5.2-1.7-8.6-3.4-8.6-8.6c0-6,4.4-8.8,11.3-8.8c7.3,0,10.5,2.5,10.5,8.1     v0.5H533z"/>
			<polygon class="st0" points="555.8,407.9 555.8,394.8 547,394.8 547,407.9 539.4,407.9 539.4,378.7 547,378.7 547,390.2      555.8,390.2 555.8,378.7 563.4,378.7 563.4,407.9    "/>
			<path class="st0" d="M581.6,381.9c-5.5,0-5.8,5.9-5.8,12.5c0,8,1.4,10.2,5.6,10.2c4.1,0,5.7-2.8,5.7-12.1     C587.1,386.8,586.7,381.9,581.6,381.9 M581.3,408.5c-9.3,0-13.2-3.5-13.2-14.7c0-8,1.5-15.8,13.7-15.8c10.4,0,13,5.3,13,14.2     C594.8,403.4,591.4,408.5,581.3,408.5"/>
			<path class="st0" d="M610.2,393.4c3.6,0,5.2-1,5.2-5.6c0-3.4-1.2-5.2-4.7-5.2h-3.1v10.8H610.2z M607.7,407.9h-7.5v-29.2h12.4     c5.6,0,10.2,0.7,10.2,9.3c0,6.9-3.7,9.3-10.1,9.3h-5L607.7,407.9L607.7,407.9z"/>
			<g>
				<path class="st0" d="M200.2,386.3v2.6c0.2-0.4,2.4-3.1,6.8-3.1c6.3,0,8.4,5.3,8.4,10.9c0,0.7-0.1,4.6-1.6,7.4      c-0.9,1.6-3.1,4.2-7.7,4.2c-1.1,0-3.9-0.1-6-2.8v11.2h-2.5v-30.4L200.2,386.3L200.2,386.3z M200,400.6c0,1.3,0.1,1.9,0.4,2.5      c0.5,1.3,2.1,3.2,5.4,3.2c0.7,0,2.3,0,3.9-1.2c2.4-1.8,2.9-5.1,2.9-7.9c0-7.8-3.4-9.4-6.3-9.4c-2.6,0-4.3,1.3-4.9,2.1      c-1.2,1.5-1.3,3.2-1.3,4.9v5.8H200z"/>
				<path class="st0" d="M233.4,407.9c-1.2,0-1.8-0.3-1.8-1.6v-0.7c-1.3,1.4-3.4,2.8-6.6,2.8c-5.1,0-6.3-3.8-6.3-6.1      c0-3.3,2.1-4.7,3-5.2c1.5-0.8,3.9-1.4,10-2v-2.2c0-2.2-0.4-4.8-4.5-4.8c-1.5,0-3.1,0.2-4.2,1.4c-0.8,0.9-1.2,2.2-1.2,3.8h-2.5      c0-1.5,0.2-3.3,1.4-4.7c1.7-2,4.2-2.6,6.8-2.6c2.2,0,4.3,0.6,5.5,2.1c1,1.2,1.1,2.5,1.1,4.9v12c0.1,1.5,0.2,1.9,1,2.3v0.6      L233.4,407.9L233.4,407.9z M231.7,396.7c-1.9,0.2-3.7,0.3-5.5,0.7c-2,0.5-4.7,1.2-4.7,4.5c0,2.5,1.7,4.2,4.4,4.2      c1.6,0,4.3-0.5,5.4-2.9c0.3-0.7,0.5-1.3,0.5-2.7L231.7,396.7L231.7,396.7z"/>
				<path class="st0" d="M239.8,407.9v-21.6h2.6v2.5c1.6-1.6,2.8-2.8,5.2-2.8c1.6,0,2.2,0.6,2.7,0.9v2.6c-0.6-0.5-1.7-1.3-3.6-1.3      c-4.2,0-4.3,3.3-4.3,4.5v15.2L239.8,407.9L239.8,407.9z"/>
				<path class="st0" d="M257.3,388.2c0,0-0.1,12.8-0.1,14.4c0,2.1,0.4,3.5,2.9,3.5c1.4,0,2.4-0.4,2.8-0.6v2.1      c-0.7,0.3-2.1,0.7-3.8,0.7c-2.4,0-3.6-1.1-4.1-2c-0.4-0.9-0.4-2.1-0.4-3.4c0-1.2,0.1-11.9,0.1-14.5h-3.4v-1.9h3.4v-4.9l2.6-0.4      c0,4.4,0,5.3,0,5.3h4.2v1.9h-4.2V388.2z"/>
				<path class="st0" d="M284.6,385.9c6.6,0,8.8,4.5,8.8,10.9c0,5.8-1.5,11.5-8.8,11.5c-6.6,0-8.9-4.1-8.9-11      C275.6,389.5,278.8,385.9,284.6,385.9z M284.8,406.2c4.8,0,5.9-4.3,5.9-9.8c0-4.1-1-8.5-6-8.5c-2.1,0-6.3,0.7-6.3,9.3      C278.3,402.7,279.9,406.2,284.8,406.2z"/>
				<path class="st0" d="M299,407.9v-19.6h-3.4v-1.9h3.4V384c0-0.5,0-2.4,0.6-3.8c0.5-1.2,1.7-2.8,4.8-2.8c0.6,0,1.5,0,2.8,0.6v2.2      c-0.5-0.4-1.2-0.8-2.7-0.8c-0.3,0-1.2,0-1.9,0.5c-1,0.7-1.1,1.9-1.1,4v2.3h4.1v1.9h-4.1v19.6H299V407.9z"/>
			</g>
		</g>
		<g>
			<path class="st2" d="M33.6,257H22.7v-67.8H1.4v-9.9h52.7v9.9H33.6V257z"/>
			<path class="st2" d="M77.8,257v-77.7h53.6v9.9H88.7v20.2h35.8v9.9H88.7v28.1h43.8v9.7H77.8V257z"/>
			<path class="st2" d="M158.8,179.4h10.9v68h41.1v9.7h-51.9v-77.7H158.8z"/>
			<path class="st2" d="M307.9,258.7h-2c-7,0-13.3-2.2-18.9-6.7c-5.5-4.5-8.5-10.4-9-17.9c0.6-0.2,1.6-0.6,3.1-1.2     c1.4-0.6,2.6-1.1,3.5-1.6l3.9-1.7c0.5,6.3,2.5,11,5.9,14.3s7.3,4.9,11.7,4.9h1.9c4.4,0,8.5-1.1,12.3-3.4s5.7-5.6,5.7-10.1     c0-2.4-0.5-4.4-1.6-6.2c-1.1-1.8-2.7-3.2-4.9-4.4c-2.2-1.1-4.2-2-6.1-2.7s-4.3-1.4-7.4-2.1c-3.3-0.8-6.2-1.7-8.7-2.7     s-5-2.3-7.7-3.9s-4.7-3.7-6.2-6.3s-2.2-5.6-2.2-9c0-7,2.5-12.2,7.4-15.5s10.9-4.9,17.9-4.9c6.1,0,11.6,1.6,16.5,4.7     c4.8,3.1,7.9,8,9.3,14.6l-10.3,4.9c-0.7-5.1-2.4-8.7-5.3-11c-2.8-2.2-6.2-3.4-10.2-3.4c-4.1,0-7.7,0.9-10.7,2.6s-4.4,4.4-4.4,8     c0,2.1,0.8,3.9,2.5,5.4s3.7,2.6,6,3.4c1.5,0.5,4.7,1.4,9.5,2.7c4.9,1.3,8.7,2.5,11.4,3.6c10.1,3.9,15.2,11.3,15.2,22.2     c0,7-2.9,12.6-8.6,16.9C321.8,256.6,315.2,258.7,307.9,258.7z"/>
			<path class="st2" d="M413.1,257v-77.7h53.6v9.9H424v20.2h35.8v9.9H424v28.1h43.8v9.7h-54.7V257z"/>
			<path class="st2" d="M494.1,179.4H505v68h41.1v9.7h-51.9L494.1,179.4L494.1,179.4z"/>
			<path class="st2" d="M571,179.4h10.9v68H623v9.7h-52V179.4z"/>
		</g>
		<path class="st0" d="M308.2,144.1c40.9,0,74.1,33.2,74.1,74.1s-33.2,74.1-74.1,74.1s-74.1-33.2-74.1-74.1S267.3,144.1,308.2,144.1     M308.2,134.1c-46.4,0-84.1,37.7-84.1,84.1s37.7,84.1,84.1,84.1s84.1-37.7,84.1-84.1S354.6,134.1,308.2,134.1L308.2,134.1z"/>
		<g>
			<g>
				<path class="st2" d="M10.6,373.1"/>
				<path class="st2" d="M43.6,357.7c-1,0-1.7-0.8-1.7-1.7c0-1,0.8-1.7,1.7-1.7c1,0,1.7,0.8,1.7,1.7      C45.4,356.9,44.6,357.7,43.6,357.7z"/>
				<circle class="st2" cx="76.7" cy="338.7" r="3.1"/>
				<circle class="st2" cx="109.8" cy="321.5" r="4.2"/>
				<path class="st2" d="M142.8,309.4c-2.8,0-5.1-2.3-5.1-5.1c0-2.8,2.3-5.1,5.1-5.1c2.8,0,5.1,2.3,5.1,5.1      C148,307.1,145.7,309.4,142.8,309.4z"/>
				<circle class="st2" cx="175.9" cy="287.1" r="5.8"/>
				<circle class="st2" cx="209" cy="269.8" r="6.3"/>
				<path class="st2" d="M407.4,172.9c-3.5,0-6.4-2.8-6.4-6.4s2.8-6.4,6.4-6.4c3.5,0,6.4,2.8,6.4,6.4S410.9,172.9,407.4,172.9z"/>
				<path class="st2" d="M440.5,155.2c-3.2,0-5.8-2.6-5.8-5.8c0-3.2,2.6-5.8,5.8-5.8s5.8,2.6,5.8,5.8S443.7,155.2,440.5,155.2z"/>
				<path class="st2" d="M473.6,137.2c-2.8,0-5.1-2.3-5.1-5.1c0-2.8,2.3-5.1,5.1-5.1s5.1,2.3,5.1,5.1      C478.7,135,476.4,137.2,473.6,137.2z"/>
				<path class="st2" d="M506.6,119.1c-2.3,0-4.2-1.9-4.2-4.2s1.9-4.2,4.2-4.2s4.2,1.9,4.2,4.2S508.9,119.1,506.6,119.1z"/>
				<path class="st2" d="M539.7,100.8c-1.7,0-3.1-1.4-3.1-3.1s1.4-3.1,3.1-3.1c1.7,0,3.1,1.4,3.1,3.1S541.4,100.8,539.7,100.8z"/>
				<path class="st2" d="M572.8,82.2c-1,0-1.7-0.8-1.7-1.7c0-1,0.8-1.7,1.7-1.7c1,0,1.7,0.8,1.7,1.7      C574.5,81.4,573.7,82.2,572.8,82.2z"/>
				<path class="st2" d="M605.8,63.3"/>
			</g>
			<g>
				<path class="st2" d="M75.1,459.6"/>
				<path class="st2" d="M101,434.5c-1,0-1.7-0.8-1.7-1.7c0-1,0.8-1.7,1.7-1.7c1,0,1.7,0.8,1.7,1.7S102,434.5,101,434.5z"/>
				<path class="st2" d="M126.9,409c-1.7,0-3.1-1.4-3.1-3.1s1.4-3.1,3.1-3.1c1.7,0,3.1,1.4,3.1,3.1S128.6,409,126.9,409z"/>
				<circle class="st2" cx="152.8" cy="379.1" r="4.2"/>
				<path class="st2" d="M178.7,357.4c-2.8,0-5.1-2.3-5.1-5.1s2.3-5.1,5.1-5.1c2.8,0,5.1,2.3,5.1,5.1      C183.8,355.1,181.5,357.4,178.7,357.4z"/>
				<circle class="st2" cx="204.6" cy="325.5" r="5.8"/>
				<circle class="st2" cx="230.5" cy="298.7" r="6.3"/>
				<path class="st2" d="M385.9,144.1c-3.5,0-6.4-2.8-6.4-6.4s2.8-6.4,6.4-6.4s6.4,2.8,6.4,6.4S389.4,144.1,385.9,144.1z"/>
				<path class="st2" d="M411.8,116.8c-3.2,0-5.8-2.6-5.8-5.8c0-3.2,2.6-5.8,5.8-5.8s5.8,2.6,5.8,5.8      C417.6,114.1,415,116.8,411.8,116.8z"/>
				<path class="st2" d="M437.7,89.2c-2.8,0-5.1-2.3-5.1-5.1c0-2.8,2.3-5.1,5.1-5.1s5.1,2.3,5.1,5.1      C442.8,86.9,440.5,89.2,437.7,89.2z"/>
				<path class="st2" d="M463.6,61.5c-2.3,0-4.2-1.9-4.2-4.2s1.9-4.2,4.2-4.2s4.2,1.9,4.2,4.2S465.9,61.5,463.6,61.5z"/>
				<path class="st2" d="M489.5,33.6c-1.7,0-3.1-1.4-3.1-3.1s1.4-3.1,3.1-3.1c1.7,0,3.1,1.4,3.1,3.1S491.2,33.6,489.5,33.6z"/>
				<path class="st2" d="M515.4,5.4c-1,0-1.7-0.8-1.7-1.7c0-1,0.8-1.7,1.7-1.7s1.7,0.8,1.7,1.7C517.1,4.6,516.4,5.4,515.4,5.4z"/>
				<path class="st2" d="M541.3-23.2"/>
			</g>
			<g>
				<path class="st0" d="M40.2,420.1"/>
				<path class="st0" d="M70,399.4c-1,0-1.7-0.8-1.7-1.7c0-1,0.8-1.7,1.7-1.7c1,0,1.7,0.8,1.7,1.7C71.7,398.7,70.9,399.4,70,399.4z"/>
				<circle class="st0" cx="99.8" cy="375.3" r="3.1"/>
				<circle class="st0" cx="129.5" cy="352.8" r="4.2"/>
				<path class="st0" d="M159.3,335.5c-2.8,0-5.1-2.3-5.1-5.1s2.3-5.1,5.1-5.1c2.8,0,5.1,2.3,5.1,5.1S162.1,335.5,159.3,335.5z"/>
				<path class="st0" d="M189.1,313.8c-3.2,0-5.8-2.6-5.8-5.8s2.6-5.8,5.8-5.8s5.8,2.6,5.8,5.8C194.9,311.2,192.3,313.8,189.1,313.8      z"/>
				<path class="st0" d="M218.9,291.9c-3.5,0-6.3-2.8-6.3-6.3s2.8-6.3,6.3-6.3s6.3,2.8,6.3,6.3C225.2,289,222.4,291.9,218.9,291.9z"/>
				<path class="st0" d="M397.5,157.2c-3.5,0-6.4-2.8-6.4-6.4c0-3.5,2.8-6.4,6.4-6.4c3.5,0,6.4,2.8,6.4,6.4      C403.9,154.4,401,157.2,397.5,157.2z"/>
				<path class="st0" d="M427.3,134.3c-3.2,0-5.8-2.6-5.8-5.8c0-3.2,2.6-5.8,5.8-5.8s5.8,2.6,5.8,5.8      C433.1,131.7,430.5,134.3,427.3,134.3z"/>
				<circle class="st0" cx="457.1" cy="106" r="5.1"/>
				<path class="st0" d="M486.9,87.8c-2.3,0-4.2-1.9-4.2-4.2s1.9-4.2,4.2-4.2s4.2,1.9,4.2,4.2S489.2,87.8,486.9,87.8z"/>
				<path class="st0" d="M516.6,64.2c-1.7,0-3.1-1.4-3.1-3.1s1.4-3.1,3.1-3.1c1.7,0,3.1,1.4,3.1,3.1S518.3,64.2,516.6,64.2z"/>
				<path class="st0" d="M546.4,40.4c-1,0-1.7-0.8-1.7-1.7s0.8-1.7,1.7-1.7c1,0,1.7,0.8,1.7,1.7S547.4,40.4,546.4,40.4z"/>
				<path class="st0" d="M576.2,16.3"/>
			</g>
		</g>
	</g>
</g>
</svg>
