<?xml version="1.0" encoding="utf-8"?>
<!-- Generator: Adobe Illustrator 15.0.0, SVG Export Plug-In . SVG Version: 6.00 Build 0)  -->
<!DOCTYPE svg PUBLIC "-//W3C//DTD SVG 1.1//EN" "http://www.w3.org/Graphics/SVG/1.1/DTD/svg11.dtd">
<svg version="1.1" id="レイヤー_1" xmlns="http://www.w3.org/2000/svg" xmlns:xlink="http://www.w3.org/1999/xlink" x="0px"
	 y="0px" width="600px" height="600px" viewBox="0 0 600 600" enable-background="new 0 0 600 600" xml:space="preserve">
<g>
	<g>
		<path fill="#1C2D56" d="M547.766,71.984H53.234C24.192,71.984,0.5,95.651,0.5,124.718V476.28
			c0,28.969,23.587,52.733,52.734,52.733h494.531c28.97,0,52.734-23.588,52.734-52.733V124.719
			C600.5,95.75,576.912,71.984,547.766,71.984z M540.483,107.141L301.618,346.008L60.687,107.141H540.483z M35.656,469.002V131.831
			L204.968,299.69L35.656,469.002z M60.515,493.859l169.417-169.418l59.364,58.854c6.872,6.812,17.961,6.791,24.805-0.054
			l57.884-57.882l168.5,168.5H60.515L60.515,493.859z M565.344,469l-168.5-168.5l168.5-168.501V469z"/>
	</g>
</g>
</svg>
