<svg xmlns="http://www.w3.org/2000/svg" width="165.192" height="35.398" viewBox="0 0 165.192 35.398">
  <g id="LOG" transform="translate(-271 71)">
    <path id="Trazado_1" data-name="Trazado 1" d="M384.043,45.642H391.1l-5.08-8.715a6.7,6.7,0,0,0,4.408-6.452c0-4.469-2.935-7.4-8.747-7.4H370.54V45.642h6.129v-7.82h3.1Zm.257-15.167c0,1.6-1.085,2.749-3.354,2.749h-4.278V27.732h4.278c2.269,0,3.354,1.147,3.354,2.743m-24.742-1.052v7.215c0,3.256-1.6,4.4-3.673,4.4s-3.7-1.147-3.7-4.373V29.423h-6.258v7.533c0,5.939,3.288,9.2,9.961,9.2,6.707,0,9.932-3.259,9.932-9.165V29.423Zm-7.376-6.352h-6.259v4.246h6.259Zm7.376,4.244h6.259V23.07h-6.259Zm-39.432,10.7-3.161-14.941h-6.227l5.747,22.571h6.609l3.864-14.717,3.864,14.717h6.609l5.747-22.571h-6.226l-3.161,14.941-3.928-14.941h-5.811Zm107.738-6.864h-7.6V23.071h-6.258V45.642h6.258V36.258h7.6v9.384h6.29V23.071h-6.29Zm-29.311-3.162V45.642h6.258V27.986h5.811V23.071h-17.88v4.915Z" transform="translate(2.039 -87.082)" fill="#161615"/>
    <path id="Trazado_2" data-name="Trazado 2" d="M312.973,31.9H280.629V18.034h13.462v5.452h5.421V18.034h13.462ZM299.512,48v5.429a16.378,16.378,0,0,0,13.462-15.77v-.284H280.629v.284a16.381,16.381,0,0,0,13.462,15.77V48Z" transform="translate(-9.629 -89.034)" fill="#d9000d"/>
  </g>
</svg>
