<svg width="23" height="20" viewBox="0 0 23 20" fill="none" xmlns="http://www.w3.org/2000/svg">
<path fill-rule="evenodd" clip-rule="evenodd" d="M20.4718 1.93557C19.1443 0.581733 17.6664 0.162909 16.2785 0.264512C14.9281 0.363369 13.712 0.949139 12.8238 1.51257C12.1234 1.95689 11.1264 1.95689 10.4259 1.51257C9.5377 0.949145 8.3216 0.363382 6.97124 0.264528C5.58334 0.162926 4.10546 0.581747 2.7779 1.93557C1.21062 3.53386 0.718903 5.50689 0.916357 7.50265C1.11153 9.47542 1.97686 11.4808 3.13098 13.2578C4.28817 15.0396 5.76636 16.6392 7.24933 17.8008C8.69967 18.9368 10.2777 19.75 11.6249 19.75C12.9721 19.75 14.5501 18.9368 16.0004 17.8008C17.4834 16.6392 18.9616 15.0396 20.1188 13.2578C21.2729 11.4808 22.1382 9.47541 22.3334 7.50265C22.5308 5.50688 22.0391 3.53386 20.4718 1.93557ZM13.6273 2.77922C14.4127 2.28097 15.3849 1.83394 16.388 1.76051C17.3535 1.68983 18.3942 1.95923 19.4008 2.98579C20.6041 4.21282 21.0024 5.71987 20.8407 7.35497C20.6766 9.01307 19.9334 10.7893 18.8608 12.4408C17.7913 14.0876 16.4246 15.5632 15.0755 16.6199C13.6938 17.7021 12.4528 18.25 11.6249 18.25C10.797 18.25 9.55593 17.7021 8.17426 16.6199C6.82521 15.5632 5.45848 14.0876 4.38894 12.4408C3.31632 10.7893 2.57312 9.01307 2.40907 7.35497C2.2473 5.71987 2.64567 4.21283 3.8489 2.98579C4.85553 1.95925 5.89619 1.68984 6.86172 1.76052C7.86478 1.83395 8.83697 2.28098 9.62242 2.77922C10.8133 3.53467 12.4364 3.53467 13.6273 2.77922Z" fill="#333333"/>
</svg>
